G04 start of page 3 for group 1 idx 1 *
G04 Title: (unknown), solder *
G04 Creator: pcb 20110918 *
G04 CreationDate: Tue 16 Jul 2013 01:33:09 AM GMT UTC *
G04 For: root *
G04 Format: Gerber/RS-274X *
G04 PCB-Dimensions: 270000 560000 *
G04 PCB-Coordinate-Origin: lower left *
%MOIN*%
%FSLAX25Y25*%
%LNBOTTOM*%
%ADD40C,0.0787*%
%ADD39C,0.0430*%
%ADD38C,0.0280*%
%ADD37C,0.0300*%
%ADD36C,0.1350*%
%ADD35C,0.1500*%
%ADD34C,0.0600*%
%ADD33C,0.1575*%
%ADD32C,0.0750*%
%ADD31C,0.0700*%
%ADD30C,0.0650*%
%ADD29C,0.0001*%
%ADD28C,0.0400*%
%ADD27C,0.0100*%
%ADD26C,0.0900*%
G54D26*X105000Y524142D02*X85000D01*
Y524000D01*
Y524142D01*
Y524000D02*Y524142D01*
X61500D01*
X105000D02*X85000D01*
X125000D02*X105000D01*
X61500D02*X38000D01*
X61500D02*X38000D01*
X24626Y510768D01*
X24000Y510000D02*Y483000D01*
X38000Y469000D01*
X92000Y436500D02*X87500Y432000D01*
D03*
D03*
X97420Y436500D02*X92000D01*
X125000Y464080D02*X97420Y436500D01*
X83000Y432000D03*
D03*
D03*
D03*
X87500D01*
X83000D02*X87500D01*
X83000D01*
G54D27*Y412000D03*
X85000Y494000D03*
X56500Y465500D01*
X85000Y494000D03*
X53000Y427000D02*X56500D01*
X53000D03*
X56500D01*
X53000D01*
X56500Y465500D02*Y427000D01*
X53000Y417000D02*X58000Y412000D01*
X56500Y427000D03*
D03*
X83000Y412000D02*X58000D01*
X27000Y157000D02*Y147000D01*
X32000Y142000D01*
X27000Y167000D02*X22000Y162000D01*
X27000Y147000D03*
Y167000D03*
Y147000D03*
Y177000D02*Y167000D01*
D03*
Y197000D02*Y187000D01*
X10000Y170000D01*
X27000Y187000D03*
D03*
X10000Y170000D02*Y26000D01*
X22000Y162000D02*Y41000D01*
X32000Y142000D02*Y55000D01*
X49000Y35000D02*X40000Y26000D01*
D03*
X50000Y41000D03*
D03*
X40000Y26000D03*
X22000Y41000D03*
X20000D03*
X22000D01*
X20000D02*X22000D01*
D03*
X20000D01*
X32000Y55000D03*
X30000D03*
X32000D01*
X30000D02*X32000D01*
D03*
X30000D01*
X54000Y45000D02*X50000Y41000D01*
X113500Y35000D02*X110000D01*
X113500D01*
X110000D02*Y34250D01*
Y35000D02*Y34250D01*
Y35000D02*Y34250D01*
X122000Y45000D02*X128000Y39000D01*
X139000D02*X134250Y34250D01*
X128000Y39000D03*
D03*
X134250Y34250D02*X110000D01*
G54D26*X57000Y177000D02*X89000D01*
X93000Y173000D01*
X61650Y167000D02*X66000Y162650D01*
X61650Y167000D02*X57000D01*
X66000Y155850D02*X87600Y134250D01*
X66000Y162650D02*Y155850D01*
G54D28*X49500Y133600D02*X85600Y97500D01*
X49500Y190400D02*Y133600D01*
X85000Y98000D02*X102000Y81000D01*
G54D27*X80000Y35000D03*
Y45000D03*
Y55000D03*
Y35000D03*
Y45000D03*
Y55000D03*
X60000D01*
X80000Y45000D02*X54000D01*
X122000D02*X110000D01*
X80000Y35000D02*X49000D01*
G54D28*X103500Y47600D02*X80900Y25000D01*
X80000D02*Y13000D01*
D03*
D03*
X80900Y25000D02*X80000D01*
G54D27*X128000Y69000D03*
X139000D03*
D03*
X128000D03*
X139000Y72000D02*Y69000D01*
G54D28*X104000Y81000D03*
D03*
X118000D02*X102000D01*
X118000D03*
G54D27*X128000D02*Y69000D01*
G54D28*X106850Y62750D02*X103500Y59400D01*
Y47600D01*
G54D26*X178000Y268000D03*
D03*
X171350D01*
X141339Y298011D01*
X109000Y283000D02*X94000Y268000D01*
X83000D01*
G54D27*X53000Y273000D03*
D03*
G54D26*X69000Y278000D02*X83000D01*
X141339Y349000D03*
D03*
D03*
Y298011D01*
X109000Y405000D02*Y283000D01*
X171350Y422000D02*X141339Y391989D01*
X178000Y422000D03*
D03*
X171350D01*
X178000Y412000D02*Y278000D01*
X141339Y391989D02*Y349000D01*
X83000Y422000D02*X92000D01*
X109000Y405000D01*
G54D27*X83000Y412000D03*
G54D28*X217650Y377375D02*Y261250D01*
Y377375D02*Y261250D01*
G54D27*X208000Y326000D02*Y273000D01*
G54D26*X83000Y412000D02*Y278000D01*
Y258000D02*X114000Y227000D01*
X147000D01*
X178000Y258000D01*
X114000Y192350D02*Y227000D01*
G54D27*X208000Y273000D03*
D03*
G54D26*X178000Y278000D02*X192000D01*
Y189000D01*
G54D28*X217650Y261250D02*Y183575D01*
G54D26*X57000Y214375D02*Y210000D01*
X52625Y218750D02*X57000Y214375D01*
Y210000D02*Y214375D01*
Y210000D01*
D03*
X38000Y233000D02*X52000Y219000D01*
X57000Y210000D03*
D03*
X69000Y187000D02*Y278000D01*
X57000Y210000D02*Y197000D01*
G54D28*D03*
X56100D02*X49500Y190400D01*
G54D26*X57000Y197000D03*
G54D28*X56100D01*
G54D27*X53000Y326000D02*Y273000D01*
G54D26*X38000Y469000D02*Y233000D01*
G54D27*X118000Y101000D02*Y91000D01*
D03*
D03*
G54D28*Y81000D03*
G54D27*Y91000D02*X128000Y81000D01*
X118000Y111000D03*
D03*
X123000Y116000D02*X118000Y111000D01*
D03*
X238000Y156000D03*
D03*
D03*
X228039Y101000D02*X238000Y91039D01*
D03*
D03*
X236000Y156000D02*X194250Y114250D01*
X191000Y111000D01*
D03*
D03*
X228039Y101000D02*X191000D01*
X194250Y114250D03*
X238000Y156000D02*X236000D01*
G54D28*X184750Y139400D02*Y104350D01*
X185000Y139000D02*Y151000D01*
X188000Y154000D01*
G54D26*X130000Y183000D02*X123350D01*
X111500Y173000D02*X93000D01*
X130000D03*
D03*
X111500D02*X93000D01*
X130000D02*X111500D01*
X123350Y183000D02*X114000Y192350D01*
G54D27*X166000Y178000D02*X134250Y146250D01*
X99500D01*
G54D26*X137400Y134250D02*X87600D01*
X188000Y184850D02*X137400Y134250D01*
X192000Y189000D02*X188000Y185000D01*
G54D28*X217650Y183575D02*X187500Y153425D01*
G54D27*X99500Y146250D02*X96250Y143000D01*
D03*
D03*
X93000D02*X96250D01*
X93000D03*
X96250D01*
X93000D01*
G54D26*X57000Y187000D02*X69000D01*
G54D27*X157750Y116000D02*X159500Y114250D01*
X161000D02*X159500D01*
X157750Y116000D02*X123000D01*
X161000Y114250D03*
Y111000D01*
Y114250D01*
Y111000D02*Y114250D01*
D03*
Y101000D03*
D03*
X148000D01*
X161000Y111000D03*
D03*
X148000Y91000D02*Y81000D01*
D03*
X139000Y72000D01*
X148000Y81000D03*
G54D28*X143150Y62750D02*X106850D01*
X184750Y104350D02*X143150Y62750D01*
G54D26*X145920Y464080D02*X157250Y452750D01*
X178000Y432000D01*
X125000Y491661D02*Y464080D01*
X145920D02*X125000D01*
G54D27*X166000Y472750D02*X168669Y470081D01*
G54D26*X125000Y524142D02*Y524000D01*
Y524142D03*
D03*
Y524000D01*
X166000D02*X125000Y524142D01*
X166000Y524000D03*
D03*
X145500D01*
X166000D02*Y518000D01*
Y524000D02*Y518000D01*
Y524000D02*Y518000D01*
D03*
D03*
X216000D02*X166000D01*
G54D27*Y494000D02*Y472750D01*
G54D26*X178000Y432000D03*
D03*
G54D27*X168669Y470081D02*X204250Y434500D01*
X208000Y430750D03*
D03*
X204250Y434500D02*X208000Y430750D01*
Y427000D01*
D03*
Y430750D01*
Y427000D02*Y430750D01*
Y427000D03*
Y417000D02*X203000Y412000D01*
X178000D01*
G54D28*X217650Y493500D03*
D03*
D03*
X216000Y498000D02*Y493500D01*
Y498000D02*Y493500D01*
Y498000D02*Y493500D01*
Y498000D02*Y493500D01*
Y498000D02*Y493500D01*
X217650D01*
X216000D02*X217650D01*
X216000D02*X217650D01*
X216000D02*X217650D01*
X216000D01*
X217650D02*Y377375D01*
G54D26*X216000Y518000D03*
D03*
G54D29*G36*
X53750Y213250D02*Y206750D01*
X60250D01*
Y213250D01*
X53750D01*
G37*
G54D30*X47000Y210000D03*
G54D29*G36*
X23500Y200500D02*Y193500D01*
X30500D01*
Y200500D01*
X23500D01*
G37*
G54D31*X57000Y197000D03*
X27000Y187000D03*
X57000D03*
X27000Y177000D03*
X57000D03*
X27000Y167000D03*
X57000D03*
X27000Y157000D03*
X57000D03*
G54D29*G36*
X49250Y276750D02*Y269250D01*
X56750D01*
Y276750D01*
X49250D01*
G37*
G54D32*X53000Y263000D03*
G54D30*X191000Y101000D03*
G54D33*X238000Y91039D03*
G54D30*X191000Y111000D03*
G54D33*X238000Y156000D03*
Y123520D03*
G54D29*G36*
X204250Y276750D02*Y269250D01*
X211750D01*
Y276750D01*
X204250D01*
G37*
G36*
X173500Y282500D02*Y273500D01*
X182500D01*
Y282500D01*
X173500D01*
G37*
G54D26*X178000Y268000D03*
Y258000D03*
G54D32*X208000Y263000D03*
G54D29*G36*
X204750Y329250D02*Y322750D01*
X211250D01*
Y329250D01*
X204750D01*
G37*
G54D30*X178000Y326000D03*
G54D29*G36*
X157750Y104250D02*Y97750D01*
X164250D01*
Y104250D01*
X157750D01*
G37*
G36*
X144500Y84500D02*Y77500D01*
X151500D01*
Y84500D01*
X144500D01*
G37*
G54D31*X148000Y91000D03*
Y101000D03*
G54D29*G36*
X157750Y114250D02*Y107750D01*
X164250D01*
Y114250D01*
X157750D01*
G37*
G54D31*X148000Y111000D03*
X118000D03*
Y101000D03*
Y91000D03*
Y81000D03*
G54D29*G36*
X135750Y42250D02*Y35750D01*
X142250D01*
Y42250D01*
X135750D01*
G37*
G54D30*X139000Y69000D03*
G54D29*G36*
X124750Y42250D02*Y35750D01*
X131250D01*
Y42250D01*
X124750D01*
G37*
G54D30*X128000Y69000D03*
G54D29*G36*
X76750Y16250D02*Y9750D01*
X83250D01*
Y16250D01*
X76750D01*
G37*
G54D30*X90000Y13000D03*
G54D29*G36*
X100750Y74250D02*Y67750D01*
X107250D01*
Y74250D01*
X100750D01*
G37*
G54D30*X104000Y81000D03*
G54D29*G36*
X106500Y28500D02*Y21500D01*
X113500D01*
Y28500D01*
X106500D01*
G37*
G54D31*X110000Y35000D03*
Y45000D03*
Y55000D03*
X80000D03*
Y45000D03*
Y35000D03*
Y25000D03*
X27000Y147000D03*
Y137000D03*
X57000D03*
Y147000D03*
G54D29*G36*
X26750Y58250D02*Y51750D01*
X33250D01*
Y58250D01*
X26750D01*
G37*
G54D30*X60000Y55000D03*
G54D29*G36*
X16750Y44250D02*Y37750D01*
X23250D01*
Y44250D01*
X16750D01*
G37*
G54D30*X50000Y41000D03*
G54D29*G36*
X6750Y29250D02*Y22750D01*
X13250D01*
Y29250D01*
X6750D01*
G37*
G54D30*X40000Y26000D03*
G54D29*G36*
X89750Y146250D02*Y139750D01*
X96250D01*
Y146250D01*
X89750D01*
G37*
G54D30*X93000Y173000D03*
G54D29*G36*
X162250Y181750D02*Y174250D01*
X169750D01*
Y181750D01*
X162250D01*
G37*
G54D32*X166000Y188000D03*
G54D29*G36*
X125500Y177500D02*Y168500D01*
X134500D01*
Y177500D01*
X125500D01*
G37*
G54D26*X130000Y183000D03*
Y193000D03*
G54D33*X38000Y524142D03*
G54D34*X85000Y524000D03*
G54D33*X125000Y524142D03*
X38000Y491661D03*
G54D29*G36*
X82000Y497000D02*Y491000D01*
X88000D01*
Y497000D01*
X82000D01*
G37*
G54D33*X125000Y491661D03*
G54D29*G36*
X204250Y430750D02*Y423250D01*
X211750D01*
Y430750D01*
X204250D01*
G37*
G36*
X211500Y522500D02*Y513500D01*
X220500D01*
Y522500D01*
X211500D01*
G37*
G54D26*X216000Y508000D03*
Y498000D03*
G54D32*X208000Y417000D03*
G54D29*G36*
X173500Y416500D02*Y407500D01*
X182500D01*
Y416500D01*
X173500D01*
G37*
G54D26*X178000Y422000D03*
Y432000D03*
G54D29*G36*
X162750Y497250D02*Y490750D01*
X169250D01*
Y497250D01*
X162750D01*
G37*
G54D30*X166000Y524000D03*
G54D29*G36*
X78500Y416500D02*Y407500D01*
X87500D01*
Y416500D01*
X78500D01*
G37*
G54D26*X83000Y422000D03*
Y432000D03*
G54D29*G36*
X49500Y430500D02*Y423500D01*
X56500D01*
Y430500D01*
X49500D01*
G37*
G54D31*X53000Y417000D03*
G54D29*G36*
X49500Y329500D02*Y322500D01*
X56500D01*
Y329500D01*
X49500D01*
G37*
G54D30*X83000Y326000D03*
G54D29*G36*
X78500Y282500D02*Y273500D01*
X87500D01*
Y282500D01*
X78500D01*
G37*
G54D26*X83000Y268000D03*
Y258000D03*
G54D33*X108858Y349000D03*
X141339D03*
G54D35*X190000Y494000D03*
X57000Y354000D03*
X198000D03*
X55000Y87000D03*
X186000Y74000D03*
X130000Y258000D03*
G54D36*G54D37*G54D38*G54D39*G54D37*G54D40*G54D37*G54D40*G54D39*G54D34*G54D39*G54D37*G54D38*G54D37*G54D38*G54D37*G54D38*G54D37*G54D39*G54D34*G54D40*G54D37*G54D40*G54D37*G54D40*G54D39*G54D34*G54D39*G54D34*G54D37*G54D34*G54D39*G54D37*G54D34*G54D40*M02*
