G04 start of page 8 for group -4079 idx -4079 *
G04 Title: (unknown), topsilk *
G04 Creator: pcb 20110918 *
G04 CreationDate: Fri 25 Oct 2013 09:44:02 PM GMT UTC *
G04 For: tyrian *
G04 Format: Gerber/RS-274X *
G04 PCB-Dimensions: 800000 800000 *
G04 PCB-Coordinate-Origin: lower left *
%MOIN*%
%FSLAX25Y25*%
%LNTOPSILK*%
%ADD66C,0.0200*%
%ADD65C,0.0100*%
G54D65*X265980Y573960D02*Y572000D01*
Y573960D02*X266470Y574450D01*
X267450D01*
X267940Y573960D02*X267450Y574450D01*
X267940Y573960D02*Y572490D01*
X265980D02*X269900D01*
X267940Y573274D02*X269900Y574450D01*
X267744Y577096D02*Y575626D01*
X269900Y577586D02*Y575626D01*
X265980D02*X269900D01*
X265980Y577586D02*Y575626D01*
Y579252D02*X269900D01*
X265980Y580526D02*X266666Y581212D01*
X269214D01*
X269900Y580526D02*X269214Y581212D01*
X269900Y580526D02*Y578762D01*
X265980Y580526D02*Y578762D01*
X269900Y607960D02*Y606000D01*
Y607960D02*X269410Y608450D01*
X268234D02*X269410D01*
X267744Y607960D02*X268234Y608450D01*
X267744Y607960D02*Y606490D01*
X265980D02*X269900D01*
X265980Y607960D02*Y606000D01*
Y607960D02*X266470Y608450D01*
X267254D01*
X267744Y607960D02*X267254Y608450D01*
X265980Y609626D02*X269900D01*
Y611586D02*Y609626D01*
X265980Y612762D02*X269900D01*
X267940D02*X265980Y614722D01*
X267940Y612762D02*X269900Y614722D01*
X22100Y512510D02*X26020D01*
Y513000D02*Y511040D01*
X25530Y510550D01*
X24550D02*X25530D01*
X24060Y511040D02*X24550Y510550D01*
X24060Y512510D02*Y511040D01*
X26020Y507414D02*X25530Y506924D01*
X26020Y508884D02*Y507414D01*
X25530Y509374D02*X26020Y508884D01*
X22590Y509374D02*X25530D01*
X22590D02*X22100Y508884D01*
Y507414D01*
X22590Y506924D01*
X23570D01*
X24060Y507414D02*X23570Y506924D01*
X24060Y508394D02*Y507414D01*
X22100Y505748D02*X26020D01*
X22100Y503298D01*
X26020D01*
X22100Y501632D02*X26020D01*
Y500358D02*X25334Y499672D01*
X22786D02*X25334D01*
X22100Y500358D02*X22786Y499672D01*
X22100Y502122D02*Y500358D01*
X26020Y502122D02*Y500358D01*
X24060Y548000D02*Y546040D01*
X23080Y547020D02*X25040D01*
X25236Y544864D02*X26020Y544080D01*
X22100D02*X26020D01*
X22100Y544864D02*Y543394D01*
X25530Y542218D02*X26020Y541728D01*
Y540258D01*
X25530Y539768D01*
X24550D02*X25530D01*
X22100Y542218D02*X24550Y539768D01*
X22100Y542218D02*Y539768D01*
X26020Y538592D02*X22100Y537612D01*
X26020Y536632D01*
X22590Y535456D02*X22100Y534966D01*
X25530Y535456D02*X26020Y534966D01*
X22590Y535456D02*X25530D01*
X22100Y533300D02*X26020D01*
Y533790D02*Y531830D01*
X25530Y531340D01*
X24550D02*X25530D01*
X24060Y531830D02*X24550Y531340D01*
X24060Y533300D02*Y531830D01*
X26020Y530164D02*X25530Y529674D01*
X22590D02*X25530D01*
X22100Y530164D02*X22590Y529674D01*
X280000Y601100D02*X281960D01*
X282450Y601590D01*
Y602766D02*Y601590D01*
X281960Y603256D02*X282450Y602766D01*
X280490Y603256D02*X281960D01*
X280490Y605020D02*Y601100D01*
X280000Y605020D02*X281960D01*
X282450Y604530D01*
Y603746D01*
X281960Y603256D02*X282450Y603746D01*
X284116Y602570D02*Y601100D01*
Y602570D02*X284606Y603060D01*
X285586D01*
X283626D02*X284116Y602570D01*
X286762Y603060D02*Y601590D01*
X287252Y601100D01*
X288722Y603060D02*Y600120D01*
X288232Y599630D02*X288722Y600120D01*
X287252Y599630D02*X288232D01*
X286762Y600120D02*X287252Y599630D01*
Y601100D02*X288232D01*
X288722Y601590D01*
X291368Y603060D02*X291858Y602570D01*
X290388Y603060D02*X291368D01*
X289898Y602570D02*X290388Y603060D01*
X289898Y602570D02*Y601590D01*
X290388Y601100D01*
X291858Y603060D02*Y601590D01*
X292348Y601100D01*
X290388D02*X291368D01*
X291858Y601590D01*
X294014Y602570D02*Y601100D01*
Y602570D02*X294504Y603060D01*
X294994D01*
X295484Y602570D01*
Y601100D01*
X293524Y603060D02*X294014Y602570D01*
X298424Y601100D02*X300384D01*
X300874Y601590D01*
Y602766D02*Y601590D01*
X300384Y603256D02*X300874Y602766D01*
X298914Y603256D02*X300384D01*
X298914Y605020D02*Y601100D01*
X298424Y605020D02*X300384D01*
X300874Y604530D01*
Y603746D01*
X300384Y603256D02*X300874Y603746D01*
X302050Y605020D02*Y601590D01*
X302540Y601100D01*
X304990Y603060D02*X305480Y602570D01*
X304010Y603060D02*X304990D01*
X303520Y602570D02*X304010Y603060D01*
X303520Y602570D02*Y601590D01*
X304010Y601100D01*
X305480Y603060D02*Y601590D01*
X305970Y601100D01*
X304010D02*X304990D01*
X305480Y601590D01*
X307146Y605020D02*Y601100D01*
Y602570D02*X308616Y601100D01*
X307146Y602570D02*X308126Y603550D01*
X310282Y601100D02*X311752D01*
X309792Y601590D02*X310282Y601100D01*
X309792Y602570D02*Y601590D01*
Y602570D02*X310282Y603060D01*
X311262D01*
X311752Y602570D01*
X309792Y602080D02*X311752D01*
Y602570D02*Y602080D01*
X313418Y601100D02*X314888D01*
X315378Y601590D01*
X314888Y602080D02*X315378Y601590D01*
X313418Y602080D02*X314888D01*
X312928Y602570D02*X313418Y602080D01*
X312928Y602570D02*X313418Y603060D01*
X314888D01*
X315378Y602570D01*
X312928Y601590D02*X313418Y601100D01*
X316554Y605020D02*Y601590D01*
X317044Y601100D01*
X318514D02*X319984D01*
X318024Y601590D02*X318514Y601100D01*
X318024Y602570D02*Y601590D01*
Y602570D02*X318514Y603060D01*
X319494D01*
X319984Y602570D01*
X318024Y602080D02*X319984D01*
Y602570D02*Y602080D01*
X321650Y601100D02*X323120D01*
X321160Y601590D02*X321650Y601100D01*
X321160Y602570D02*Y601590D01*
Y602570D02*X321650Y603060D01*
X322630D01*
X323120Y602570D01*
X321160Y602080D02*X323120D01*
Y602570D02*Y602080D01*
X501000Y676020D02*Y672100D01*
Y676020D02*X502960D01*
X501000Y674256D02*X502470D01*
X504136Y676020D02*Y674060D01*
X504626Y672100D01*
X505606Y674060D01*
X506586Y672100D01*
X507076Y674060D01*
Y676020D02*Y674060D01*
X508742Y676020D02*Y672100D01*
X510016Y676020D02*X510702Y675334D01*
Y672786D01*
X510016Y672100D02*X510702Y672786D01*
X508252Y672100D02*X510016D01*
X508252Y676020D02*X510016D01*
X516000Y457060D02*X517960D01*
X516980Y458040D02*Y456080D01*
X519136Y458236D02*X519920Y459020D01*
Y455100D01*
X519136D02*X520606D01*
X521782Y458530D02*X522272Y459020D01*
X523742D01*
X524232Y458530D01*
Y457550D01*
X521782Y455100D02*X524232Y457550D01*
X521782Y455100D02*X524232D01*
X525408Y459020D02*X526388Y455100D01*
X527368Y459020D01*
X528544Y455590D02*X529034Y455100D01*
X528544Y458530D02*X529034Y459020D01*
X528544Y458530D02*Y455590D01*
X532170Y459020D02*X532660Y458530D01*
X530700Y459020D02*X532170D01*
X530210Y458530D02*X530700Y459020D01*
X530210Y458530D02*Y457550D01*
X530700Y457060D01*
X532170D01*
X532660Y456570D01*
Y455590D01*
X532170Y455100D02*X532660Y455590D01*
X530700Y455100D02*X532170D01*
X530210Y455590D02*X530700Y455100D01*
X533836Y459020D02*X534326Y458530D01*
Y455590D01*
X533836Y455100D02*X534326Y455590D01*
X513000Y672590D02*X513490Y672100D01*
X513000Y675530D02*X513490Y676020D01*
X513000Y675530D02*Y672590D01*
X515156Y676020D02*Y672100D01*
X516430Y676020D02*X517116Y675334D01*
Y672786D01*
X516430Y672100D02*X517116Y672786D01*
X514666Y672100D02*X516430D01*
X514666Y676020D02*X516430D01*
X518292Y672590D02*X521232Y675530D01*
X524368Y676020D02*X524858Y675530D01*
X522898Y676020D02*X524368D01*
X522408Y675530D02*X522898Y676020D01*
X522408Y675530D02*Y674550D01*
X522898Y674060D01*
X524368D01*
X524858Y673570D01*
Y672590D01*
X524368Y672100D02*X524858Y672590D01*
X522898Y672100D02*X524368D01*
X522408Y672590D02*X522898Y672100D01*
X526034Y676020D02*X526524Y675530D01*
Y672590D01*
X526034Y672100D02*X526524Y672590D01*
X280000Y597020D02*Y593100D01*
Y597020D02*X281470Y595060D01*
X282940Y597020D01*
Y593100D01*
X284606D02*X286076D01*
X284116Y593590D02*X284606Y593100D01*
X284116Y594570D02*Y593590D01*
Y594570D02*X284606Y595060D01*
X285586D01*
X286076Y594570D01*
X284116Y594080D02*X286076D01*
Y594570D02*Y594080D01*
X287742Y595060D02*X289212D01*
X287252Y594570D02*X287742Y595060D01*
X287252Y594570D02*Y593590D01*
X287742Y593100D01*
X289212D01*
X290388Y597020D02*Y593100D01*
Y594570D02*X290878Y595060D01*
X291858D01*
X292348Y594570D01*
Y593100D01*
X294994Y595060D02*X295484Y594570D01*
X294014Y595060D02*X294994D01*
X293524Y594570D02*X294014Y595060D01*
X293524Y594570D02*Y593590D01*
X294014Y593100D01*
X295484Y595060D02*Y593590D01*
X295974Y593100D01*
X294014D02*X294994D01*
X295484Y593590D01*
X297640Y594570D02*Y593100D01*
Y594570D02*X298130Y595060D01*
X298620D01*
X299110Y594570D01*
Y593100D01*
X297150Y595060D02*X297640Y594570D01*
X300286Y596040D02*Y595942D01*
Y594570D02*Y593100D01*
X301756Y595060D02*X303226D01*
X301266Y594570D02*X301756Y595060D01*
X301266Y594570D02*Y593590D01*
X301756Y593100D01*
X303226D01*
X305872Y595060D02*X306362Y594570D01*
X304892Y595060D02*X305872D01*
X304402Y594570D02*X304892Y595060D01*
X304402Y594570D02*Y593590D01*
X304892Y593100D01*
X306362Y595060D02*Y593590D01*
X306852Y593100D01*
X304892D02*X305872D01*
X306362Y593590D01*
X308028Y597020D02*Y593590D01*
X308518Y593100D01*
X311262Y596040D02*Y593100D01*
Y596040D02*X311948Y597020D01*
X313026D01*
X313712Y596040D01*
Y593100D01*
X311262Y595060D02*X313712D01*
X315378Y594570D02*Y593100D01*
Y594570D02*X315868Y595060D01*
X316848D01*
X314888D02*X315378Y594570D01*
X318514Y595060D02*X319984D01*
X318024Y594570D02*X318514Y595060D01*
X318024Y594570D02*Y593590D01*
X318514Y593100D01*
X319984D01*
X321160Y597020D02*Y593100D01*
Y594570D02*X321650Y595060D01*
X322630D01*
X323120Y594570D01*
Y593100D01*
X324786D02*X326256D01*
X324296Y593590D02*X324786Y593100D01*
X324296Y594570D02*Y593590D01*
Y594570D02*X324786Y595060D01*
X325766D01*
X326256Y594570D01*
X324296Y594080D02*X326256D01*
Y594570D02*Y594080D01*
X327922Y594570D02*Y593100D01*
Y594570D02*X328412Y595060D01*
X329392D01*
X327432D02*X327922Y594570D01*
X280000Y590020D02*Y586100D01*
X282450Y590020D02*Y586100D01*
X280000Y588060D02*X282450D01*
X283626D02*X285586D01*
X286762Y586100D02*X288722D01*
X289212Y586590D01*
Y587766D02*Y586590D01*
X288722Y588256D02*X289212Y587766D01*
X287252Y588256D02*X288722D01*
X287252Y590020D02*Y586100D01*
X286762Y590020D02*X288722D01*
X289212Y589530D01*
Y588746D01*
X288722Y588256D02*X289212Y588746D01*
X290878Y587570D02*Y586100D01*
Y587570D02*X291368Y588060D01*
X292348D01*
X290388D02*X290878Y587570D01*
X293524Y589040D02*Y588942D01*
Y587570D02*Y586100D01*
X296464Y590020D02*Y586100D01*
X295974D02*X296464Y586590D01*
X294994Y586100D02*X295974D01*
X294504Y586590D02*X294994Y586100D01*
X294504Y587570D02*Y586590D01*
Y587570D02*X294994Y588060D01*
X295974D01*
X296464Y587570D01*
X299110Y588060D02*X299600Y587570D01*
X298130Y588060D02*X299110D01*
X297640Y587570D02*X298130Y588060D01*
X297640Y587570D02*Y586590D01*
X298130Y586100D01*
X299110D01*
X299600Y586590D01*
X297640Y585120D02*X298130Y584630D01*
X299110D01*
X299600Y585120D01*
Y588060D02*Y585120D01*
X301266Y586100D02*X302736D01*
X300776Y586590D02*X301266Y586100D01*
X300776Y587570D02*Y586590D01*
Y587570D02*X301266Y588060D01*
X302246D01*
X302736Y587570D01*
X300776Y587080D02*X302736D01*
Y587570D02*Y587080D01*
X306362Y586100D02*X307636D01*
X305676Y586786D02*X306362Y586100D01*
X305676Y589334D02*Y586786D01*
Y589334D02*X306362Y590020D01*
X307636D01*
X308812Y587570D02*Y586590D01*
Y587570D02*X309302Y588060D01*
X310282D01*
X310772Y587570D01*
Y586590D01*
X310282Y586100D02*X310772Y586590D01*
X309302Y586100D02*X310282D01*
X308812Y586590D02*X309302Y586100D01*
X312438Y587570D02*Y586100D01*
Y587570D02*X312928Y588060D01*
X313418D01*
X313908Y587570D01*
Y586100D01*
X311948Y588060D02*X312438Y587570D01*
X315574Y590020D02*Y586590D01*
X316064Y586100D01*
X315084Y588550D02*X316064D01*
X317534Y587570D02*Y586100D01*
Y587570D02*X318024Y588060D01*
X319004D01*
X317044D02*X317534Y587570D01*
X320180D02*Y586590D01*
Y587570D02*X320670Y588060D01*
X321650D01*
X322140Y587570D01*
Y586590D01*
X321650Y586100D02*X322140Y586590D01*
X320670Y586100D02*X321650D01*
X320180Y586590D02*X320670Y586100D01*
X323316Y590020D02*Y586590D01*
X323806Y586100D01*
X324786Y590020D02*Y586590D01*
X325276Y586100D01*
X326746D02*X328216D01*
X326256Y586590D02*X326746Y586100D01*
X326256Y587570D02*Y586590D01*
Y587570D02*X326746Y588060D01*
X327726D01*
X328216Y587570D01*
X326256Y587080D02*X328216D01*
Y587570D02*Y587080D01*
X329882Y587570D02*Y586100D01*
Y587570D02*X330372Y588060D01*
X331352D01*
X329392D02*X329882Y587570D01*
X487960Y459020D02*X488450Y458530D01*
X486490Y459020D02*X487960D01*
X486000Y458530D02*X486490Y459020D01*
X486000Y458530D02*Y457550D01*
X486490Y457060D01*
X487960D01*
X488450Y456570D01*
Y455590D01*
X487960Y455100D02*X488450Y455590D01*
X486490Y455100D02*X487960D01*
X486000Y455590D02*X486490Y455100D01*
X491586Y459020D02*X492076Y458530D01*
X490116Y459020D02*X491586D01*
X489626Y458530D02*X490116Y459020D01*
X489626Y458530D02*Y455590D01*
X490116Y455100D01*
X491586D01*
X492076Y455590D01*
Y456570D02*Y455590D01*
X491586Y457060D02*X492076Y456570D01*
X490606Y457060D02*X491586D01*
X493252Y459020D02*Y455100D01*
Y459020D02*X495702Y455100D01*
Y459020D02*Y455100D01*
X497368Y459020D02*Y455100D01*
X498642Y459020D02*X499328Y458334D01*
Y455786D01*
X498642Y455100D02*X499328Y455786D01*
X496878Y455100D02*X498642D01*
X496878Y459020D02*X498642D01*
X534000Y676020D02*X535960D01*
X536450Y675530D01*
Y674550D01*
X535960Y674060D02*X536450Y674550D01*
X534490Y674060D02*X535960D01*
X534490Y676020D02*Y672100D01*
X535274Y674060D02*X536450Y672100D01*
X537626Y674256D02*X539096D01*
X537626Y672100D02*X539586D01*
X537626Y676020D02*Y672100D01*
Y676020D02*X539586D01*
X540762D02*X541742Y672100D01*
X542722Y676020D01*
X545000Y672590D02*X545490Y672100D01*
X545000Y675530D02*X545490Y676020D01*
X545000Y675530D02*Y672590D01*
X546666Y674256D02*X548136D01*
X546666Y672100D02*X548626D01*
X546666Y676020D02*Y672100D01*
Y676020D02*X548626D01*
X549802D02*Y672100D01*
Y676020D02*X552252Y672100D01*
Y676020D02*Y672100D01*
X553428Y676020D02*X553918Y675530D01*
Y672590D01*
X553428Y672100D02*X553918Y672590D01*
X610000Y606000D02*Y566000D01*
X570000Y606000D02*X610000D01*
X570000D02*Y566000D01*
X595000D02*X610000D01*
X570000D02*X585000D01*
X595000D02*G75*G03X585000Y566000I-5000J0D01*G01*
X560283Y669165D02*Y615228D01*
X495323Y669165D02*Y615228D01*
Y669165D02*X560283D01*
X495323Y615228D02*X560283D01*
X474000Y644000D02*Y636500D01*
Y621500D02*Y614000D01*
X476500Y636500D02*Y621500D01*
X471500D02*X476500D01*
X471500Y636500D02*Y621500D01*
Y636500D02*X476500D01*
X529000Y581000D02*X536500D01*
X551500D02*X559000D01*
X536500Y583500D02*X551500D01*
Y578500D01*
X536500D01*
Y583500D01*
X529000Y591000D02*X536500D01*
X551500D02*X559000D01*
X536500Y593500D02*X551500D01*
Y588500D01*
X536500D01*
Y593500D01*
X517000Y606000D02*Y566000D01*
X477000Y606000D02*X517000D01*
X477000D02*Y566000D01*
X502000D02*X517000D01*
X477000D02*X492000D01*
X502000D02*G75*G03X492000Y566000I-5000J0D01*G01*
X330536Y493536D02*G75*G03X323464Y493536I-3536J-3536D01*G01*
X323464Y486464D02*G75*G03X330536Y486464I3536J3536D01*G01*
X331950Y494950D02*G75*G03X322050Y494950I-4950J-4950D01*G01*
X322050Y485050D02*G75*G03X331950Y485050I4950J4950D01*G01*
X357000Y480500D02*Y473000D01*
Y503000D02*Y495500D01*
X354500D02*Y480500D01*
Y495500D02*X359500D01*
Y480500D01*
X354500D02*X359500D01*
X381000Y544000D02*X387000D01*
X381000Y530000D02*X387000D01*
G54D66*X381000Y517000D02*X387000D01*
Y557000D02*Y517000D01*
X381000Y557000D02*X387000D01*
X381000Y517000D02*X399000D01*
Y557000D02*Y517000D01*
X381000Y557000D02*X399000D01*
X381000D02*Y517000D01*
G54D65*X416000Y510000D02*X418500D01*
X423500D02*X426000D01*
X418500Y510800D02*X423500D01*
Y509200D01*
X418500D01*
Y510800D01*
X542283Y515165D02*Y461228D01*
X477323Y515165D02*Y461228D01*
Y515165D02*X542283D01*
X477323Y461228D02*X542283D01*
G54D66*X517000Y525000D02*X557000D01*
X517000Y543000D02*Y525000D01*
Y543000D02*X557000D01*
Y525000D01*
X517000D02*X557000D01*
X517000Y531000D02*Y525000D01*
Y531000D02*X557000D01*
Y525000D01*
G54D65*X544000Y531000D02*Y525000D01*
X530000Y531000D02*Y525000D01*
X438000Y591000D02*X445500D01*
X460500D02*X468000D01*
X445500Y593500D02*X460500D01*
Y588500D01*
X445500D01*
Y593500D01*
X461000Y562000D02*Y522000D01*
X421000Y562000D02*X461000D01*
X421000D02*Y522000D01*
X446000D02*X461000D01*
X421000D02*X436000D01*
X446000D02*G75*G03X436000Y522000I-5000J0D01*G01*
X479500Y555000D02*X482000D01*
X472000D02*X474500D01*
Y554200D02*X479500D01*
X474500Y555800D02*Y554200D01*
Y555800D02*X479500D01*
Y554200D01*
X536500Y558000D02*X539000D01*
X529000D02*X531500D01*
Y557200D02*X536500D01*
X531500Y558800D02*Y557200D01*
Y558800D02*X536500D01*
Y557200D01*
X461000Y669000D02*Y629000D01*
X421000Y669000D02*X461000D01*
X421000D02*Y629000D01*
X446000D02*X461000D01*
X421000D02*X436000D01*
X446000D02*G75*G03X436000Y629000I-5000J0D01*G01*
X575000Y556000D02*X577500D01*
X582500D02*X585000D01*
X577500Y556800D02*X582500D01*
Y555200D01*
X577500D01*
Y556800D01*
G54D66*X307000Y515000D02*X347000D01*
X307000Y533000D02*Y515000D01*
Y533000D02*X347000D01*
Y515000D01*
X307000D02*X347000D01*
X307000Y521000D02*Y515000D01*
Y521000D02*X347000D01*
Y515000D01*
G54D65*X334000Y521000D02*Y515000D01*
X320000Y521000D02*Y515000D01*
G54D66*X307000Y642000D02*X347000D01*
X307000Y660000D02*Y642000D01*
Y660000D02*X347000D01*
Y642000D01*
X307000D02*X347000D01*
X307000Y648000D02*Y642000D01*
Y648000D02*X347000D01*
Y642000D01*
G54D65*X334000Y648000D02*Y642000D01*
X320000Y648000D02*Y642000D01*
X330536Y688536D02*G75*G03X323464Y688536I-3536J-3536D01*G01*
X323464Y681464D02*G75*G03X330536Y681464I3536J3536D01*G01*
X331950Y689950D02*G75*G03X322050Y689950I-4950J-4950D01*G01*
X322050Y680050D02*G75*G03X331950Y680050I4950J4950D01*G01*
X356000Y685000D02*Y677500D01*
Y662500D02*Y655000D01*
X358500Y677500D02*Y662500D01*
X353500D02*X358500D01*
X353500Y677500D02*Y662500D01*
Y677500D02*X358500D01*
X381000Y651000D02*X387000D01*
X381000Y637000D02*X387000D01*
G54D66*X381000Y624000D02*X387000D01*
Y664000D02*Y624000D01*
X381000Y664000D02*X387000D01*
X381000Y624000D02*X399000D01*
Y664000D02*Y624000D01*
X381000Y664000D02*X399000D01*
X381000D02*Y624000D01*
G54D65*X259000Y676500D02*Y674000D01*
Y684000D02*Y681500D01*
X258200D02*Y676500D01*
Y681500D02*X259800D01*
Y676500D01*
X258200D02*X259800D01*
X416000Y618000D02*X418500D01*
X423500D02*X426000D01*
X418500Y618800D02*X423500D01*
Y617200D01*
X418500D01*
Y618800D01*
X234000Y732000D02*X241500D01*
X256500D02*X264000D01*
X241500Y734500D02*X256500D01*
Y729500D01*
X241500D01*
Y734500D01*
X209000Y719000D02*X249000D01*
X209000D02*Y679000D01*
X249000D01*
Y719000D02*Y704000D01*
Y694000D02*Y679000D01*
Y704000D02*G75*G03X249000Y694000I0J-5000D01*G01*
X142464Y486464D02*G75*G03X149536Y486464I3536J3536D01*G01*
X149536Y493536D02*G75*G03X142464Y493536I-3536J-3536D01*G01*
X141050Y485050D02*G75*G03X150950Y485050I4950J4950D01*G01*
X150950Y494950D02*G75*G03X141050Y494950I-4950J-4950D01*G01*
X93000Y515500D02*Y508000D01*
Y538000D02*Y530500D01*
X90500D02*Y515500D01*
Y530500D02*X95500D01*
Y515500D01*
X90500D02*X95500D01*
X28835Y554283D02*X82772D01*
X28835Y489323D02*X82772D01*
X28835Y554283D02*Y489323D01*
X82772Y554283D02*Y489323D01*
X209000Y494500D02*Y492000D01*
Y502000D02*Y499500D01*
X208200D02*Y494500D01*
Y499500D02*X209800D01*
Y494500D01*
X208200D02*X209800D01*
X142464Y681464D02*G75*G03X149536Y681464I3536J3536D01*G01*
X149536Y688536D02*G75*G03X142464Y688536I-3536J-3536D01*G01*
X141050Y680050D02*G75*G03X150950Y680050I4950J4950D01*G01*
X150950Y689950D02*G75*G03X141050Y689950I-4950J-4950D01*G01*
X81000Y665000D02*Y657500D01*
Y642500D02*Y635000D01*
X83500Y657500D02*Y642500D01*
X78500D02*X83500D01*
X78500Y657500D02*Y642500D01*
Y657500D02*X83500D01*
X28717Y617772D02*Y563835D01*
X93677Y617772D02*Y563835D01*
X28717D02*X93677D01*
X28717Y617772D02*X93677D01*
X221000Y467000D02*X261000D01*
Y507000D02*Y467000D01*
X221000Y507000D02*X261000D01*
X221000Y482000D02*Y467000D01*
Y507000D02*Y492000D01*
Y482000D02*G75*G03X221000Y492000I0J5000D01*G01*
X236000Y458000D02*X243500D01*
X258500D02*X266000D01*
X243500Y460500D02*X258500D01*
Y455500D01*
X243500D01*
Y460500D01*
G54D66*X126000Y515000D02*X166000D01*
X126000Y533000D02*Y515000D01*
Y533000D02*X166000D01*
Y515000D01*
X126000D02*X166000D01*
X126000Y521000D02*Y515000D01*
Y521000D02*X166000D01*
Y515000D01*
G54D65*X153000Y521000D02*Y515000D01*
X139000Y521000D02*Y515000D01*
G54D66*X126000Y642000D02*X166000D01*
X126000Y660000D02*Y642000D01*
Y660000D02*X166000D01*
Y642000D01*
X126000D02*X166000D01*
X126000Y648000D02*Y642000D01*
Y648000D02*X166000D01*
Y642000D01*
G54D65*X153000Y648000D02*Y642000D01*
X139000Y648000D02*Y642000D01*
X208835Y626283D02*X262772D01*
X208835Y561323D02*X262772D01*
X208835Y626283D02*Y561323D01*
X262772Y626283D02*Y561323D01*
X229000Y648000D02*Y642000D01*
X243000Y648000D02*Y642000D01*
G54D66*X256000Y648000D02*Y642000D01*
X216000Y648000D02*X256000D01*
X216000D02*Y642000D01*
X256000Y660000D02*Y642000D01*
X216000Y660000D02*X256000D01*
X216000D02*Y642000D01*
X256000D01*
G54D65*X243000Y539000D02*Y533000D01*
X229000Y539000D02*Y533000D01*
G54D66*X216000D02*Y539000D01*
X256000Y533000D02*X216000D01*
X256000Y539000D02*Y533000D01*
X216000Y521000D02*Y539000D01*
X256000Y521000D02*X216000D01*
X256000Y539000D02*Y521000D01*
X216000Y539000D02*X256000D01*
G54D65*X601000Y562000D02*X602000D01*
X601500D02*Y558000D01*
X601000D02*X602000D01*
X603900D02*X605200D01*
X603200Y558700D02*X603900Y558000D01*
X603200Y561300D02*Y558700D01*
Y561300D02*X603900Y562000D01*
X605200D01*
X606400Y561500D02*X606900Y562000D01*
X608400D01*
X608900Y561500D01*
Y560500D01*
X606400Y558000D02*X608900Y560500D01*
X606400Y558000D02*X608900D01*
X563000Y644400D02*X566200D01*
X564600D02*Y638000D01*
X568120D02*X571320D01*
X572120Y638800D01*
Y640720D02*Y638800D01*
X571320Y641520D02*X572120Y640720D01*
X568920Y641520D02*X571320D01*
X568920Y644400D02*Y638000D01*
X568120Y644400D02*X571320D01*
X572120Y643600D01*
Y642320D01*
X571320Y641520D02*X572120Y642320D01*
X574040Y643600D02*X574840Y644400D01*
X576440D01*
X577240Y643600D01*
X576440Y638000D02*X577240Y638800D01*
X574840Y638000D02*X576440D01*
X574040Y638800D02*X574840Y638000D01*
Y641520D02*X576440D01*
X577240Y643600D02*Y642320D01*
Y640720D02*Y638800D01*
Y640720D02*X576440Y641520D01*
X577240Y642320D02*X576440Y641520D01*
X549000Y523000D02*X550000Y519000D01*
X551000Y523000D01*
X552200D02*X554200D01*
X554700Y522500D01*
Y521500D01*
X554200Y521000D02*X554700Y521500D01*
X552700Y521000D02*X554200D01*
X552700Y523000D02*Y519000D01*
X553500Y521000D02*X554700Y519000D01*
X555900Y522200D02*X556700Y523000D01*
Y519000D01*
X555900D02*X557400D01*
X585200Y548200D02*X586500D01*
X584500Y548900D02*X585200Y548200D01*
X584500Y551500D02*Y548900D01*
Y551500D02*X585200Y552200D01*
X586500D01*
X589200D02*X589700Y551700D01*
X588200Y552200D02*X589200D01*
X587700Y551700D02*X588200Y552200D01*
X587700Y551700D02*Y548700D01*
X588200Y548200D01*
X589200Y550400D02*X589700Y549900D01*
X587700Y550400D02*X589200D01*
X588200Y548200D02*X589200D01*
X589700Y548700D01*
Y549900D02*Y548700D01*
X479000Y646000D02*X481000D01*
X481500Y645500D01*
Y644500D01*
X481000Y644000D02*X481500Y644500D01*
X479500Y644000D02*X481000D01*
X479500Y646000D02*Y642000D01*
X480300Y644000D02*X481500Y642000D01*
X482700Y645200D02*X483500Y646000D01*
Y642000D01*
X482700D02*X484200D01*
X485400Y642500D02*X485900Y642000D01*
X485400Y645500D02*Y642500D01*
Y645500D02*X485900Y646000D01*
X486900D01*
X487400Y645500D01*
Y642500D01*
X486900Y642000D02*X487400Y642500D01*
X485900Y642000D02*X486900D01*
X485400Y643000D02*X487400Y645000D01*
X525000Y576000D02*X527000D01*
X527500Y575500D01*
Y574500D01*
X527000Y574000D02*X527500Y574500D01*
X525500Y574000D02*X527000D01*
X525500Y576000D02*Y572000D01*
X526300Y574000D02*X527500Y572000D01*
X528700Y575200D02*X529500Y576000D01*
Y572000D01*
X528700D02*X530200D01*
X531400Y573500D02*X533400Y576000D01*
X531400Y573500D02*X533900D01*
X533400Y576000D02*Y572000D01*
X525000Y600000D02*X527000D01*
X527500Y599500D01*
Y598500D01*
X527000Y598000D02*X527500Y598500D01*
X525500Y598000D02*X527000D01*
X525500Y600000D02*Y596000D01*
X526300Y598000D02*X527500Y596000D01*
X528700Y599200D02*X529500Y600000D01*
Y596000D01*
X528700D02*X530200D01*
X531400Y599500D02*X531900Y600000D01*
X532900D01*
X533400Y599500D01*
X532900Y596000D02*X533400Y596500D01*
X531900Y596000D02*X532900D01*
X531400Y596500D02*X531900Y596000D01*
Y598200D02*X532900D01*
X533400Y599500D02*Y598700D01*
Y597700D02*Y596500D01*
Y597700D02*X532900Y598200D01*
X533400Y598700D02*X532900Y598200D01*
X510000Y563000D02*X511000D01*
X510500D02*Y559000D01*
X510000D02*X511000D01*
X512900D02*X514200D01*
X512200Y559700D02*X512900Y559000D01*
X512200Y562300D02*Y559700D01*
Y562300D02*X512900Y563000D01*
X514200D01*
X515400Y562200D02*X516200Y563000D01*
Y559000D01*
X515400D02*X516900D01*
X536700Y548000D02*X538000D01*
X536000Y548700D02*X536700Y548000D01*
X536000Y551300D02*Y548700D01*
Y551300D02*X536700Y552000D01*
X538000D01*
X539700Y548000D02*X541700Y552000D01*
X539200D02*X541700D01*
X308000Y540000D02*Y536000D01*
Y540000D02*X309500Y538000D01*
X311000Y540000D01*
Y536000D01*
X312200Y537500D02*X314200Y540000D01*
X312200Y537500D02*X314700D01*
X314200Y540000D02*Y536000D01*
X158000Y540000D02*Y536000D01*
Y540000D02*X159500Y538000D01*
X161000Y540000D01*
Y536000D01*
X162200Y539500D02*X162700Y540000D01*
X164200D01*
X164700Y539500D01*
Y538500D01*
X162200Y536000D02*X164700Y538500D01*
X162200Y536000D02*X164700D01*
X132500Y482000D02*Y478000D01*
X133800Y482000D02*X134500Y481300D01*
Y478700D01*
X133800Y478000D02*X134500Y478700D01*
X132000Y478000D02*X133800D01*
X132000Y482000D02*X133800D01*
X135700Y481500D02*X136200Y482000D01*
X137700D01*
X138200Y481500D01*
Y480500D01*
X135700Y478000D02*X138200Y480500D01*
X135700Y478000D02*X138200D01*
X102000Y526000D02*Y524000D01*
X101500Y523500D01*
X100500D02*X101500D01*
X100000Y524000D02*X100500Y523500D01*
X100000Y525500D02*Y524000D01*
X98000Y525500D02*X102000D01*
X100000Y524700D02*X98000Y523500D01*
X101500Y522300D02*X102000Y521800D01*
Y520300D01*
X101500Y519800D01*
X100500D02*X101500D01*
X98000Y522300D02*X100500Y519800D01*
X98000Y522300D02*Y519800D01*
X86000Y499400D02*X89200D01*
X87600D02*Y493000D01*
X91120D02*X94320D01*
X95120Y493800D01*
Y495720D02*Y493800D01*
X94320Y496520D02*X95120Y495720D01*
X91920Y496520D02*X94320D01*
X91920Y499400D02*Y493000D01*
X91120Y499400D02*X94320D01*
X95120Y498600D01*
Y497320D01*
X94320Y496520D02*X95120Y497320D01*
X97040Y499400D02*X100240D01*
X97040D02*Y496200D01*
X97840Y497000D01*
X99440D01*
X100240Y496200D01*
Y493800D01*
X99440Y493000D02*X100240Y493800D01*
X97840Y493000D02*X99440D01*
X97040Y493800D02*X97840Y493000D01*
X132500Y678000D02*Y674000D01*
X133800Y678000D02*X134500Y677300D01*
Y674700D01*
X133800Y674000D02*X134500Y674700D01*
X132000Y674000D02*X133800D01*
X132000Y678000D02*X133800D01*
X135700Y677200D02*X136500Y678000D01*
Y674000D01*
X135700D02*X137200D01*
X72000Y649000D02*Y647000D01*
Y649000D02*X72500Y649500D01*
X73500D01*
X74000Y649000D02*X73500Y649500D01*
X74000Y649000D02*Y647500D01*
X72000D02*X76000D01*
X74000Y648300D02*X76000Y649500D01*
X72800Y650700D02*X72000Y651500D01*
X76000D01*
Y652200D02*Y650700D01*
X32000Y627400D02*X35200D01*
X33600D02*Y621000D01*
X37120D02*X40320D01*
X41120Y621800D01*
Y623720D02*Y621800D01*
X40320Y624520D02*X41120Y623720D01*
X37920Y624520D02*X40320D01*
X37920Y627400D02*Y621000D01*
X37120Y627400D02*X40320D01*
X41120Y626600D01*
Y625320D01*
X40320Y624520D02*X41120Y625320D01*
X43040Y626120D02*X44320Y627400D01*
Y621000D01*
X43040D02*X45440D01*
X159000Y667000D02*Y663000D01*
Y667000D02*X160500Y665000D01*
X162000Y667000D01*
Y663000D01*
X163200Y666200D02*X164000Y667000D01*
Y663000D01*
X163200D02*X164700D01*
X199600Y589200D02*Y586000D01*
Y587600D02*X206000D01*
Y594320D02*Y591120D01*
Y594320D02*X205200Y595120D01*
X203280D02*X205200D01*
X202480Y594320D02*X203280Y595120D01*
X202480Y594320D02*Y591920D01*
X199600D02*X206000D01*
X199600Y594320D02*Y591120D01*
Y594320D02*X200400Y595120D01*
X201680D01*
X202480Y594320D02*X201680Y595120D01*
X200400Y597040D02*X199600Y597840D01*
Y600240D02*Y597840D01*
Y600240D02*X200400Y601040D01*
X202000D01*
X206000Y597040D02*X202000Y601040D01*
X206000D02*Y597040D01*
X217000Y667000D02*X219000D01*
X219500Y666500D01*
Y665500D01*
X219000Y665000D02*X219500Y665500D01*
X217500Y665000D02*X219000D01*
X217500Y667000D02*Y663000D01*
X218300Y665000D02*X219500Y663000D01*
X220700Y667000D02*X222700D01*
X220700D02*Y665000D01*
X221200Y665500D01*
X222200D01*
X222700Y665000D01*
Y663500D01*
X222200Y663000D02*X222700Y663500D01*
X221200Y663000D02*X222200D01*
X220700Y663500D02*X221200Y663000D01*
X308000Y639000D02*Y635000D01*
Y639000D02*X309500Y637000D01*
X311000Y639000D01*
Y635000D01*
X312200Y638500D02*X312700Y639000D01*
X313700D01*
X314200Y638500D01*
X313700Y635000D02*X314200Y635500D01*
X312700Y635000D02*X313700D01*
X312200Y635500D02*X312700Y635000D01*
Y637200D02*X313700D01*
X314200Y638500D02*Y637700D01*
Y636700D02*Y635500D01*
Y636700D02*X313700Y637200D01*
X314200Y637700D02*X313700Y637200D01*
X257700Y689000D02*X259000D01*
X257000Y689700D02*X257700Y689000D01*
X257000Y692300D02*Y689700D01*
Y692300D02*X257700Y693000D01*
X259000D01*
X260200Y692200D02*X261000Y693000D01*
Y689000D01*
X260200D02*X261700D01*
X206700Y483000D02*X208000D01*
X206000Y483700D02*X206700Y483000D01*
X206000Y486300D02*Y483700D01*
Y486300D02*X206700Y487000D01*
X208000D01*
X209200Y484500D02*X211200Y487000D01*
X209200Y484500D02*X211700D01*
X211200Y487000D02*Y483000D01*
X211000Y474000D02*X212000D01*
X211500D02*Y470000D01*
X211000D02*X212000D01*
X213900D02*X215200D01*
X213200Y470700D02*X213900Y470000D01*
X213200Y473300D02*Y470700D01*
Y473300D02*X213900Y474000D01*
X215200D01*
X217900D02*X218400Y473500D01*
X216900Y474000D02*X217900D01*
X216400Y473500D02*X216900Y474000D01*
X216400Y473500D02*Y470500D01*
X216900Y470000D01*
X217900Y472200D02*X218400Y471700D01*
X216400Y472200D02*X217900D01*
X216900Y470000D02*X217900D01*
X218400Y470500D01*
Y471700D02*Y470500D01*
X264000Y467000D02*X266000D01*
X266500Y466500D01*
Y465500D01*
X266000Y465000D02*X266500Y465500D01*
X264500Y465000D02*X266000D01*
X264500Y467000D02*Y463000D01*
X265300Y465000D02*X266500Y463000D01*
X267700Y466200D02*X268500Y467000D01*
Y463000D01*
X267700D02*X269200D01*
X270400Y466500D02*X270900Y467000D01*
X272400D01*
X272900Y466500D01*
Y465500D01*
X270400Y463000D02*X272900Y465500D01*
X270400Y463000D02*X272900D01*
X216000Y518000D02*X218000D01*
X218500Y517500D01*
Y516500D01*
X218000Y516000D02*X218500Y516500D01*
X216500Y516000D02*X218000D01*
X216500Y518000D02*Y514000D01*
X217300Y516000D02*X218500Y514000D01*
X221200Y518000D02*X221700Y517500D01*
X220200Y518000D02*X221200D01*
X219700Y517500D02*X220200Y518000D01*
X219700Y517500D02*Y514500D01*
X220200Y514000D01*
X221200Y516200D02*X221700Y515700D01*
X219700Y516200D02*X221200D01*
X220200Y514000D02*X221200D01*
X221700Y514500D01*
Y515700D02*Y514500D01*
X246000Y727000D02*X248000D01*
X248500Y726500D01*
Y725500D01*
X248000Y725000D02*X248500Y725500D01*
X246500Y725000D02*X248000D01*
X246500Y727000D02*Y723000D01*
X247300Y725000D02*X248500Y723000D01*
X250200D02*X251700Y725000D01*
Y726500D02*Y725000D01*
X251200Y727000D02*X251700Y726500D01*
X250200Y727000D02*X251200D01*
X249700Y726500D02*X250200Y727000D01*
X249700Y726500D02*Y725500D01*
X250200Y725000D01*
X251700D01*
X252000Y716000D02*X253000D01*
X252500D02*Y712000D01*
X252000D02*X253000D01*
X254900D02*X256200D01*
X254200Y712700D02*X254900Y712000D01*
X254200Y715300D02*Y712700D01*
Y715300D02*X254900Y716000D01*
X256200D01*
X257400Y715500D02*X257900Y716000D01*
X258900D01*
X259400Y715500D01*
X258900Y712000D02*X259400Y712500D01*
X257900Y712000D02*X258900D01*
X257400Y712500D02*X257900Y712000D01*
Y714200D02*X258900D01*
X259400Y715500D02*Y714700D01*
Y713700D02*Y712500D01*
Y713700D02*X258900Y714200D01*
X259400Y714700D02*X258900Y714200D01*
X318500Y480000D02*Y476000D01*
X319800Y480000D02*X320500Y479300D01*
Y476700D01*
X319800Y476000D02*X320500Y476700D01*
X318000Y476000D02*X319800D01*
X318000Y480000D02*X319800D01*
X321700Y477500D02*X323700Y480000D01*
X321700Y477500D02*X324200D01*
X323700Y480000D02*Y476000D01*
X346000Y490000D02*X348000D01*
X348500Y489500D01*
Y488500D01*
X348000Y488000D02*X348500Y488500D01*
X346500Y488000D02*X348000D01*
X346500Y490000D02*Y486000D01*
X347300Y488000D02*X348500Y486000D01*
X349700Y487500D02*X351700Y490000D01*
X349700Y487500D02*X352200D01*
X351700Y490000D02*Y486000D01*
X390000Y514000D02*X392000D01*
X392500Y513500D01*
Y512500D01*
X392000Y512000D02*X392500Y512500D01*
X390500Y512000D02*X392000D01*
X390500Y514000D02*Y510000D01*
X391300Y512000D02*X392500Y510000D01*
X393700Y510500D02*X394200Y510000D01*
X393700Y511300D02*Y510500D01*
Y511300D02*X394400Y512000D01*
X395000D01*
X395700Y511300D01*
Y510500D01*
X395200Y510000D02*X395700Y510500D01*
X394200Y510000D02*X395200D01*
X393700Y512700D02*X394400Y512000D01*
X393700Y513500D02*Y512700D01*
Y513500D02*X394200Y514000D01*
X395200D01*
X395700Y513500D01*
Y512700D01*
X395000Y512000D02*X395700Y512700D01*
X318500Y676000D02*Y672000D01*
X319800Y676000D02*X320500Y675300D01*
Y672700D01*
X319800Y672000D02*X320500Y672700D01*
X318000Y672000D02*X319800D01*
X318000Y676000D02*X319800D01*
X321700Y675500D02*X322200Y676000D01*
X323200D01*
X323700Y675500D01*
X323200Y672000D02*X323700Y672500D01*
X322200Y672000D02*X323200D01*
X321700Y672500D02*X322200Y672000D01*
Y674200D02*X323200D01*
X323700Y675500D02*Y674700D01*
Y673700D02*Y672500D01*
Y673700D02*X323200Y674200D01*
X323700Y674700D02*X323200Y674200D01*
X345000Y672000D02*X347000D01*
X347500Y671500D01*
Y670500D01*
X347000Y670000D02*X347500Y670500D01*
X345500Y670000D02*X347000D01*
X345500Y672000D02*Y668000D01*
X346300Y670000D02*X347500Y668000D01*
X348700Y671500D02*X349200Y672000D01*
X350200D01*
X350700Y671500D01*
X350200Y668000D02*X350700Y668500D01*
X349200Y668000D02*X350200D01*
X348700Y668500D02*X349200Y668000D01*
Y670200D02*X350200D01*
X350700Y671500D02*Y670700D01*
Y669700D02*Y668500D01*
Y669700D02*X350200Y670200D01*
X350700Y670700D02*X350200Y670200D01*
X390000Y621000D02*X392000D01*
X392500Y620500D01*
Y619500D01*
X392000Y619000D02*X392500Y619500D01*
X390500Y619000D02*X392000D01*
X390500Y621000D02*Y617000D01*
X391300Y619000D02*X392500Y617000D01*
X394200D02*X396200Y621000D01*
X393700D02*X396200D01*
X431700Y616000D02*X433000D01*
X431000Y616700D02*X431700Y616000D01*
X431000Y619300D02*Y616700D01*
Y619300D02*X431700Y620000D01*
X433000D01*
X434200Y619500D02*X434700Y620000D01*
X436200D01*
X436700Y619500D01*
Y618500D01*
X434200Y616000D02*X436700Y618500D01*
X434200Y616000D02*X436700D01*
X452000Y626000D02*X453000D01*
X452500D02*Y622000D01*
X452000D02*X453000D01*
X454900D02*X456200D01*
X454200Y622700D02*X454900Y622000D01*
X454200Y625300D02*Y622700D01*
Y625300D02*X454900Y626000D01*
X456200D01*
X457400Y623500D02*X459400Y626000D01*
X457400Y623500D02*X459900D01*
X459400Y626000D02*Y622000D01*
X431700Y508000D02*X433000D01*
X431000Y508700D02*X431700Y508000D01*
X431000Y511300D02*Y508700D01*
Y511300D02*X431700Y512000D01*
X433000D01*
X434200Y511500D02*X434700Y512000D01*
X435700D01*
X436200Y511500D01*
X435700Y508000D02*X436200Y508500D01*
X434700Y508000D02*X435700D01*
X434200Y508500D02*X434700Y508000D01*
Y510200D02*X435700D01*
X436200Y511500D02*Y510700D01*
Y509700D02*Y508500D01*
Y509700D02*X435700Y510200D01*
X436200Y510700D02*X435700Y510200D01*
X452000Y519000D02*X453000D01*
X452500D02*Y515000D01*
X452000D02*X453000D01*
X454900D02*X456200D01*
X454200Y515700D02*X454900Y515000D01*
X454200Y518300D02*Y515700D01*
Y518300D02*X454900Y519000D01*
X456200D01*
X457400D02*X459400D01*
X457400D02*Y517000D01*
X457900Y517500D01*
X458900D01*
X459400Y517000D01*
Y515500D01*
X458900Y515000D02*X459400Y515500D01*
X457900Y515000D02*X458900D01*
X457400Y515500D02*X457900Y515000D01*
X459000Y491400D02*X462200D01*
X460600D02*Y485000D01*
X464120D02*X467320D01*
X468120Y485800D01*
Y487720D02*Y485800D01*
X467320Y488520D02*X468120Y487720D01*
X464920Y488520D02*X467320D01*
X464920Y491400D02*Y485000D01*
X464120Y491400D02*X467320D01*
X468120Y490600D01*
Y489320D01*
X467320Y488520D02*X468120Y489320D01*
X470040Y487400D02*X473240Y491400D01*
X470040Y487400D02*X474040D01*
X473240Y491400D02*Y485000D01*
X462500Y585500D02*X464500D01*
X465000Y585000D01*
Y584000D01*
X464500Y583500D02*X465000Y584000D01*
X463000Y583500D02*X464500D01*
X463000Y585500D02*Y581500D01*
X463800Y583500D02*X465000Y581500D01*
X466200Y584700D02*X467000Y585500D01*
Y581500D01*
X466200D02*X467700D01*
X468900Y584700D02*X469700Y585500D01*
Y581500D01*
X468900D02*X470400D01*
X468700Y546000D02*X470000D01*
X468000Y546700D02*X468700Y546000D01*
X468000Y549300D02*Y546700D01*
Y549300D02*X468700Y550000D01*
X470000D01*
X471200D02*X473200D01*
X471200D02*Y548000D01*
X471700Y548500D01*
X472700D01*
X473200Y548000D01*
Y546500D01*
X472700Y546000D02*X473200Y546500D01*
X471700Y546000D02*X472700D01*
X471200Y546500D02*X471700Y546000D01*
M02*
