G04 start of page 3 for group 1 idx 1 *
G04 Title: (unknown), ground *
G04 Creator: pcb 20110918 *
G04 CreationDate: Wed 16 Oct 2013 11:44:25 PM GMT UTC *
G04 For: tyrian *
G04 Format: Gerber/RS-274X *
G04 PCB-Dimensions: 800000 800000 *
G04 PCB-Coordinate-Origin: lower left *
%MOIN*%
%FSLAX25Y25*%
%LNBOTTOM*%
%ADD42C,0.0230*%
%ADD41C,0.0587*%
%ADD40C,0.0400*%
%ADD39C,0.0300*%
%ADD38C,0.0430*%
%ADD37C,0.1200*%
%ADD36C,0.2200*%
%ADD35C,0.0500*%
%ADD34C,0.0650*%
%ADD33C,0.1375*%
%ADD32C,0.0550*%
%ADD31C,0.0750*%
%ADD30C,0.0200*%
%ADD29C,0.0900*%
%ADD28C,0.0001*%
G54D28*G36*
X425993Y677007D02*X434000Y669000D01*
Y594581D01*
X433909Y594433D01*
X433819Y594215D01*
X433764Y593985D01*
X433750Y593750D01*
X433764Y588015D01*
X433819Y587785D01*
X433909Y587567D01*
X434000Y587419D01*
Y486000D01*
X425993D01*
Y505737D01*
X426000Y505737D01*
X426667Y505789D01*
X427317Y505946D01*
X427935Y506202D01*
X428506Y506551D01*
X429014Y506986D01*
X429449Y507494D01*
X429798Y508065D01*
X430054Y508683D01*
X430211Y509333D01*
X430250Y510000D01*
X430211Y510667D01*
X430054Y511317D01*
X429798Y511935D01*
X429449Y512506D01*
X429014Y513014D01*
X428506Y513449D01*
X427935Y513798D01*
X427317Y514054D01*
X426667Y514211D01*
X426000Y514263D01*
X425993Y514263D01*
Y521734D01*
X426000Y521734D01*
X426824Y521799D01*
X427627Y521992D01*
X428391Y522308D01*
X429095Y522740D01*
X429724Y523276D01*
X430260Y523905D01*
X430692Y524609D01*
X431008Y525373D01*
X431201Y526176D01*
X431250Y527000D01*
X431201Y527824D01*
X431008Y528627D01*
X430692Y529391D01*
X430260Y530095D01*
X429724Y530724D01*
X429095Y531260D01*
X428391Y531692D01*
X427648Y532000D01*
X428391Y532308D01*
X429095Y532740D01*
X429724Y533276D01*
X430260Y533905D01*
X430692Y534609D01*
X431008Y535373D01*
X431201Y536176D01*
X431250Y537000D01*
X431201Y537824D01*
X431008Y538627D01*
X430692Y539391D01*
X430260Y540095D01*
X429724Y540724D01*
X429095Y541260D01*
X428391Y541692D01*
X427648Y542000D01*
X428391Y542308D01*
X429095Y542740D01*
X429724Y543276D01*
X430260Y543905D01*
X430692Y544609D01*
X431008Y545373D01*
X431201Y546176D01*
X431250Y547000D01*
X431201Y547824D01*
X431008Y548627D01*
X430692Y549391D01*
X430260Y550095D01*
X429724Y550724D01*
X429095Y551260D01*
X428391Y551692D01*
X427648Y552000D01*
X428391Y552308D01*
X429095Y552740D01*
X429724Y553276D01*
X430260Y553905D01*
X430692Y554609D01*
X431008Y555373D01*
X431201Y556176D01*
X431250Y557000D01*
X431201Y557824D01*
X431008Y558627D01*
X430692Y559391D01*
X430260Y560095D01*
X429724Y560724D01*
X429095Y561260D01*
X428391Y561692D01*
X427627Y562008D01*
X426824Y562201D01*
X426000Y562266D01*
X425993Y562266D01*
Y613737D01*
X426000Y613737D01*
X426667Y613789D01*
X427317Y613946D01*
X427935Y614202D01*
X428506Y614551D01*
X429014Y614986D01*
X429449Y615494D01*
X429798Y616065D01*
X430054Y616683D01*
X430211Y617333D01*
X430250Y618000D01*
X430211Y618667D01*
X430054Y619317D01*
X429798Y619935D01*
X429449Y620506D01*
X429014Y621014D01*
X428506Y621449D01*
X427935Y621798D01*
X427317Y622054D01*
X426667Y622211D01*
X426000Y622263D01*
X425993Y622263D01*
Y628734D01*
X426000Y628734D01*
X426824Y628799D01*
X427627Y628992D01*
X428391Y629308D01*
X429095Y629740D01*
X429724Y630276D01*
X430260Y630905D01*
X430692Y631609D01*
X431008Y632373D01*
X431201Y633176D01*
X431250Y634000D01*
X431201Y634824D01*
X431008Y635627D01*
X430692Y636391D01*
X430260Y637095D01*
X429724Y637724D01*
X429095Y638260D01*
X428391Y638692D01*
X427648Y639000D01*
X428391Y639308D01*
X429095Y639740D01*
X429724Y640276D01*
X430260Y640905D01*
X430692Y641609D01*
X431008Y642373D01*
X431201Y643176D01*
X431250Y644000D01*
X431201Y644824D01*
X431008Y645627D01*
X430692Y646391D01*
X430260Y647095D01*
X429724Y647724D01*
X429095Y648260D01*
X428391Y648692D01*
X427648Y649000D01*
X428391Y649308D01*
X429095Y649740D01*
X429724Y650276D01*
X430260Y650905D01*
X430692Y651609D01*
X431008Y652373D01*
X431201Y653176D01*
X431250Y654000D01*
X431201Y654824D01*
X431008Y655627D01*
X430692Y656391D01*
X430260Y657095D01*
X429724Y657724D01*
X429095Y658260D01*
X428391Y658692D01*
X427648Y659000D01*
X428391Y659308D01*
X429095Y659740D01*
X429724Y660276D01*
X430260Y660905D01*
X430692Y661609D01*
X431008Y662373D01*
X431201Y663176D01*
X431250Y664000D01*
X431201Y664824D01*
X431008Y665627D01*
X430692Y666391D01*
X430260Y667095D01*
X429724Y667724D01*
X429095Y668260D01*
X428391Y668692D01*
X427627Y669008D01*
X426824Y669201D01*
X426000Y669266D01*
X425993Y669266D01*
Y677007D01*
G37*
G36*
X416000Y687000D02*X425993Y677007D01*
Y669266D01*
X425176Y669201D01*
X424373Y669008D01*
X423609Y668692D01*
X422905Y668260D01*
X422276Y667724D01*
X421740Y667095D01*
X421308Y666391D01*
X420992Y665627D01*
X420799Y664824D01*
X420734Y664000D01*
X420799Y663176D01*
X420992Y662373D01*
X421308Y661609D01*
X421740Y660905D01*
X422276Y660276D01*
X422905Y659740D01*
X423609Y659308D01*
X424352Y659000D01*
X423609Y658692D01*
X422905Y658260D01*
X422276Y657724D01*
X421740Y657095D01*
X421308Y656391D01*
X420992Y655627D01*
X420799Y654824D01*
X420734Y654000D01*
X420799Y653176D01*
X420992Y652373D01*
X421308Y651609D01*
X421740Y650905D01*
X422276Y650276D01*
X422905Y649740D01*
X423609Y649308D01*
X424352Y649000D01*
X423609Y648692D01*
X422905Y648260D01*
X422276Y647724D01*
X421740Y647095D01*
X421308Y646391D01*
X420992Y645627D01*
X420799Y644824D01*
X420734Y644000D01*
X420799Y643176D01*
X420992Y642373D01*
X421308Y641609D01*
X421740Y640905D01*
X422276Y640276D01*
X422905Y639740D01*
X423609Y639308D01*
X424352Y639000D01*
X423609Y638692D01*
X422905Y638260D01*
X422276Y637724D01*
X421740Y637095D01*
X421308Y636391D01*
X420992Y635627D01*
X420799Y634824D01*
X420734Y634000D01*
X420799Y633176D01*
X420992Y632373D01*
X421308Y631609D01*
X421740Y630905D01*
X422276Y630276D01*
X422905Y629740D01*
X423609Y629308D01*
X424373Y628992D01*
X425176Y628799D01*
X425993Y628734D01*
Y622263D01*
X425333Y622211D01*
X424683Y622054D01*
X424065Y621798D01*
X423494Y621449D01*
X422986Y621014D01*
X422551Y620506D01*
X422202Y619935D01*
X421946Y619317D01*
X421789Y618667D01*
X421737Y618000D01*
X421789Y617333D01*
X421946Y616683D01*
X422202Y616065D01*
X422551Y615494D01*
X422986Y614986D01*
X423494Y614551D01*
X424065Y614202D01*
X424683Y613946D01*
X425333Y613789D01*
X425993Y613737D01*
Y562266D01*
X425176Y562201D01*
X424373Y562008D01*
X423609Y561692D01*
X422905Y561260D01*
X422276Y560724D01*
X421740Y560095D01*
X421308Y559391D01*
X420992Y558627D01*
X420799Y557824D01*
X420734Y557000D01*
X420799Y556176D01*
X420992Y555373D01*
X421308Y554609D01*
X421740Y553905D01*
X422276Y553276D01*
X422905Y552740D01*
X423609Y552308D01*
X424352Y552000D01*
X423609Y551692D01*
X422905Y551260D01*
X422276Y550724D01*
X421740Y550095D01*
X421308Y549391D01*
X420992Y548627D01*
X420799Y547824D01*
X420734Y547000D01*
X420799Y546176D01*
X420992Y545373D01*
X421308Y544609D01*
X421740Y543905D01*
X422276Y543276D01*
X422905Y542740D01*
X423609Y542308D01*
X424352Y542000D01*
X423609Y541692D01*
X422905Y541260D01*
X422276Y540724D01*
X421740Y540095D01*
X421308Y539391D01*
X420992Y538627D01*
X420799Y537824D01*
X420734Y537000D01*
X420799Y536176D01*
X420992Y535373D01*
X421308Y534609D01*
X421740Y533905D01*
X422276Y533276D01*
X422905Y532740D01*
X423609Y532308D01*
X424352Y532000D01*
X423609Y531692D01*
X422905Y531260D01*
X422276Y530724D01*
X421740Y530095D01*
X421308Y529391D01*
X420992Y528627D01*
X420799Y527824D01*
X420734Y527000D01*
X420799Y526176D01*
X420992Y525373D01*
X421308Y524609D01*
X421740Y523905D01*
X422276Y523276D01*
X422905Y522740D01*
X423609Y522308D01*
X424373Y521992D01*
X425176Y521799D01*
X425993Y521734D01*
Y514263D01*
X425333Y514211D01*
X424683Y514054D01*
X424065Y513798D01*
X423494Y513449D01*
X422986Y513014D01*
X422551Y512506D01*
X422202Y511935D01*
X421946Y511317D01*
X421789Y510667D01*
X421737Y510000D01*
X421789Y509333D01*
X421946Y508683D01*
X422202Y508065D01*
X422551Y507494D01*
X422986Y506986D01*
X423494Y506551D01*
X424065Y506202D01*
X424683Y505946D01*
X425333Y505789D01*
X425993Y505737D01*
Y486000D01*
X416000D01*
Y505757D01*
X418985Y505764D01*
X419215Y505819D01*
X419433Y505909D01*
X419634Y506033D01*
X419814Y506186D01*
X419967Y506366D01*
X420091Y506567D01*
X420181Y506785D01*
X420236Y507015D01*
X420250Y507250D01*
X420236Y512985D01*
X420181Y513215D01*
X420091Y513433D01*
X419967Y513634D01*
X419814Y513814D01*
X419634Y513967D01*
X419433Y514091D01*
X419215Y514181D01*
X418985Y514236D01*
X418750Y514250D01*
X416000Y514243D01*
Y613757D01*
X418985Y613764D01*
X419215Y613819D01*
X419433Y613909D01*
X419634Y614033D01*
X419814Y614186D01*
X419967Y614366D01*
X420091Y614567D01*
X420181Y614785D01*
X420236Y615015D01*
X420250Y615250D01*
X420236Y620985D01*
X420181Y621215D01*
X420091Y621433D01*
X419967Y621634D01*
X419814Y621814D01*
X419634Y621967D01*
X419433Y622091D01*
X419215Y622181D01*
X418985Y622236D01*
X418750Y622250D01*
X416000Y622243D01*
Y687000D01*
G37*
G36*
X392991Y688000D02*X415000D01*
X416000Y687000D01*
Y622243D01*
X413015Y622236D01*
X412785Y622181D01*
X412567Y622091D01*
X412366Y621967D01*
X412186Y621814D01*
X412033Y621634D01*
X411909Y621433D01*
X411819Y621215D01*
X411764Y620985D01*
X411750Y620750D01*
X411764Y615015D01*
X411819Y614785D01*
X411909Y614567D01*
X412033Y614366D01*
X412186Y614186D01*
X412366Y614033D01*
X412567Y613909D01*
X412785Y613819D01*
X413015Y613764D01*
X413250Y613750D01*
X416000Y613757D01*
Y514243D01*
X413015Y514236D01*
X412785Y514181D01*
X412567Y514091D01*
X412366Y513967D01*
X412186Y513814D01*
X412033Y513634D01*
X411909Y513433D01*
X411819Y513215D01*
X411764Y512985D01*
X411750Y512750D01*
X411764Y507015D01*
X411819Y506785D01*
X411909Y506567D01*
X412033Y506366D01*
X412186Y506186D01*
X412366Y506033D01*
X412567Y505909D01*
X412785Y505819D01*
X413015Y505764D01*
X413250Y505750D01*
X416000Y505757D01*
Y486000D01*
X392991D01*
Y520982D01*
X393000Y520981D01*
X393942Y521056D01*
X394860Y521276D01*
X395732Y521637D01*
X396538Y522131D01*
X397256Y522744D01*
X397869Y523462D01*
X398363Y524268D01*
X398724Y525140D01*
X398944Y526058D01*
X399000Y527000D01*
X398944Y527942D01*
X398724Y528860D01*
X398363Y529732D01*
X397869Y530538D01*
X397256Y531256D01*
X396538Y531869D01*
X395732Y532363D01*
X394860Y532724D01*
X393942Y532944D01*
X393000Y533019D01*
X392991Y533018D01*
Y540982D01*
X393000Y540981D01*
X393942Y541056D01*
X394860Y541276D01*
X395732Y541637D01*
X396538Y542131D01*
X397256Y542744D01*
X397869Y543462D01*
X398363Y544268D01*
X398724Y545140D01*
X398944Y546058D01*
X399000Y547000D01*
X398944Y547942D01*
X398724Y548860D01*
X398363Y549732D01*
X397869Y550538D01*
X397256Y551256D01*
X396538Y551869D01*
X395732Y552363D01*
X394860Y552724D01*
X393942Y552944D01*
X393000Y553019D01*
X392991Y553018D01*
Y627982D01*
X393000Y627981D01*
X393942Y628056D01*
X394860Y628276D01*
X395732Y628637D01*
X396538Y629131D01*
X397256Y629744D01*
X397869Y630462D01*
X398363Y631268D01*
X398724Y632140D01*
X398944Y633058D01*
X399000Y634000D01*
X398944Y634942D01*
X398724Y635860D01*
X398363Y636732D01*
X397869Y637538D01*
X397256Y638256D01*
X396538Y638869D01*
X395732Y639363D01*
X394860Y639724D01*
X393942Y639944D01*
X393000Y640019D01*
X392991Y640018D01*
Y647982D01*
X393000Y647981D01*
X393942Y648056D01*
X394860Y648276D01*
X395732Y648637D01*
X396538Y649131D01*
X397256Y649744D01*
X397869Y650462D01*
X398363Y651268D01*
X398724Y652140D01*
X398944Y653058D01*
X399000Y654000D01*
X398944Y654942D01*
X398724Y655860D01*
X398363Y656732D01*
X397869Y657538D01*
X397256Y658256D01*
X396538Y658869D01*
X395732Y659363D01*
X394860Y659724D01*
X393942Y659944D01*
X393000Y660019D01*
X392991Y660018D01*
Y688000D01*
G37*
G36*
X353981Y680752D02*X358985Y680764D01*
X359215Y680819D01*
X359433Y680909D01*
X359634Y681033D01*
X359814Y681186D01*
X359967Y681366D01*
X360091Y681567D01*
X360181Y681785D01*
X360236Y682015D01*
X360250Y682250D01*
X360236Y687985D01*
X360233Y688000D01*
X392991D01*
Y660018D01*
X392058Y659944D01*
X391140Y659724D01*
X390268Y659363D01*
X389462Y658869D01*
X388744Y658256D01*
X388131Y657538D01*
X387637Y656732D01*
X387276Y655860D01*
X387056Y654942D01*
X386981Y654000D01*
X387056Y653058D01*
X387276Y652140D01*
X387637Y651268D01*
X388131Y650462D01*
X388744Y649744D01*
X389462Y649131D01*
X390268Y648637D01*
X391140Y648276D01*
X392058Y648056D01*
X392991Y647982D01*
Y640018D01*
X392058Y639944D01*
X391140Y639724D01*
X390268Y639363D01*
X389462Y638869D01*
X388744Y638256D01*
X388131Y637538D01*
X387637Y636732D01*
X387276Y635860D01*
X387056Y634942D01*
X386981Y634000D01*
X387056Y633058D01*
X387276Y632140D01*
X387637Y631268D01*
X388131Y630462D01*
X388744Y629744D01*
X389462Y629131D01*
X390268Y628637D01*
X391140Y628276D01*
X392058Y628056D01*
X392991Y627982D01*
Y553018D01*
X392058Y552944D01*
X391140Y552724D01*
X390268Y552363D01*
X389462Y551869D01*
X388744Y551256D01*
X388131Y550538D01*
X387637Y549732D01*
X387276Y548860D01*
X387056Y547942D01*
X386981Y547000D01*
X387056Y546058D01*
X387276Y545140D01*
X387637Y544268D01*
X388131Y543462D01*
X388744Y542744D01*
X389462Y542131D01*
X390268Y541637D01*
X391140Y541276D01*
X392058Y541056D01*
X392991Y540982D01*
Y533018D01*
X392058Y532944D01*
X391140Y532724D01*
X390268Y532363D01*
X389462Y531869D01*
X388744Y531256D01*
X388131Y530538D01*
X387637Y529732D01*
X387276Y528860D01*
X387056Y527942D01*
X386981Y527000D01*
X387056Y526058D01*
X387276Y525140D01*
X387637Y524268D01*
X388131Y523462D01*
X388744Y522744D01*
X389462Y522131D01*
X390268Y521637D01*
X391140Y521276D01*
X392058Y521056D01*
X392991Y520982D01*
Y486000D01*
X353981D01*
Y499990D01*
X353986Y499986D01*
X354494Y499551D01*
X355065Y499202D01*
X355683Y498946D01*
X356333Y498789D01*
X357000Y498737D01*
X357667Y498789D01*
X358317Y498946D01*
X358935Y499202D01*
X359506Y499551D01*
X360014Y499986D01*
X360449Y500494D01*
X360798Y501065D01*
X361054Y501683D01*
X361211Y502333D01*
X361250Y503000D01*
X361211Y503667D01*
X361054Y504317D01*
X360798Y504935D01*
X360449Y505506D01*
X360014Y506014D01*
X359506Y506449D01*
X358935Y506798D01*
X358317Y507054D01*
X357667Y507211D01*
X357000Y507263D01*
X356333Y507211D01*
X355683Y507054D01*
X355065Y506798D01*
X354494Y506449D01*
X353986Y506014D01*
X353981Y506010D01*
Y541964D01*
X354000Y541963D01*
X355883Y542111D01*
X357720Y542552D01*
X359465Y543275D01*
X361075Y544262D01*
X362511Y545489D01*
X363738Y546925D01*
X364725Y548535D01*
X365448Y550280D01*
X365889Y552117D01*
X366000Y554000D01*
X365889Y555883D01*
X365448Y557720D01*
X364725Y559465D01*
X363738Y561075D01*
X362511Y562511D01*
X361075Y563738D01*
X359465Y564725D01*
X357720Y565448D01*
X355883Y565889D01*
X354000Y566037D01*
X353981Y566036D01*
Y606964D01*
X354000Y606963D01*
X355883Y607111D01*
X357720Y607552D01*
X359465Y608275D01*
X361075Y609262D01*
X362511Y610489D01*
X363738Y611925D01*
X364725Y613535D01*
X365448Y615280D01*
X365889Y617117D01*
X366000Y619000D01*
X365889Y620883D01*
X365448Y622720D01*
X364725Y624465D01*
X363738Y626075D01*
X362511Y627511D01*
X361075Y628738D01*
X359465Y629725D01*
X357720Y630448D01*
X355883Y630889D01*
X354000Y631037D01*
X353981Y631036D01*
Y651252D01*
X354065Y651202D01*
X354683Y650946D01*
X355333Y650789D01*
X356000Y650737D01*
X356667Y650789D01*
X357317Y650946D01*
X357935Y651202D01*
X358506Y651551D01*
X359014Y651986D01*
X359449Y652494D01*
X359798Y653065D01*
X360054Y653683D01*
X360211Y654333D01*
X360250Y655000D01*
X360211Y655667D01*
X360054Y656317D01*
X359798Y656935D01*
X359449Y657506D01*
X359014Y658014D01*
X358506Y658449D01*
X357935Y658798D01*
X357317Y659054D01*
X356667Y659211D01*
X356000Y659263D01*
X355333Y659211D01*
X354683Y659054D01*
X354065Y658798D01*
X353981Y658748D01*
Y680752D01*
G37*
G36*
X326991Y688000D02*X328084D01*
X328069Y687965D01*
X328014Y687735D01*
X328000Y687500D01*
X328014Y682265D01*
X328069Y682035D01*
X328159Y681817D01*
X328283Y681616D01*
X328436Y681436D01*
X328616Y681283D01*
X328817Y681159D01*
X329035Y681069D01*
X329265Y681014D01*
X329500Y681000D01*
X334735Y681014D01*
X334965Y681069D01*
X335183Y681159D01*
X335384Y681283D01*
X335564Y681436D01*
X335717Y681616D01*
X335841Y681817D01*
X335931Y682035D01*
X335986Y682265D01*
X336000Y682500D01*
X335986Y687735D01*
X335931Y687965D01*
X335916Y688000D01*
X351767D01*
X351764Y687985D01*
X351750Y687750D01*
X351764Y682015D01*
X351819Y681785D01*
X351909Y681567D01*
X352033Y681366D01*
X352186Y681186D01*
X352366Y681033D01*
X352567Y680909D01*
X352785Y680819D01*
X353015Y680764D01*
X353250Y680750D01*
X353981Y680752D01*
Y658748D01*
X353494Y658449D01*
X352986Y658014D01*
X352551Y657506D01*
X352202Y656935D01*
X351946Y656317D01*
X351789Y655667D01*
X351737Y655000D01*
X351789Y654333D01*
X351946Y653683D01*
X352202Y653065D01*
X352551Y652494D01*
X352986Y651986D01*
X353494Y651551D01*
X353981Y651252D01*
Y631036D01*
X352117Y630889D01*
X350280Y630448D01*
X348535Y629725D01*
X346925Y628738D01*
X345489Y627511D01*
X344262Y626075D01*
X343275Y624465D01*
X342552Y622720D01*
X342111Y620883D01*
X341963Y619000D01*
X342111Y617117D01*
X342552Y615280D01*
X343275Y613535D01*
X344262Y611925D01*
X345489Y610489D01*
X346925Y609262D01*
X348535Y608275D01*
X350280Y607552D01*
X352117Y607111D01*
X353981Y606964D01*
Y566036D01*
X352117Y565889D01*
X350280Y565448D01*
X348535Y564725D01*
X346925Y563738D01*
X345489Y562511D01*
X344262Y561075D01*
X343275Y559465D01*
X342552Y557720D01*
X342111Y555883D01*
X341963Y554000D01*
X342111Y552117D01*
X342552Y550280D01*
X343275Y548535D01*
X344262Y546925D01*
X345489Y545489D01*
X346925Y544262D01*
X348535Y543275D01*
X350280Y542552D01*
X352117Y542111D01*
X353981Y541964D01*
Y506010D01*
X353551Y505506D01*
X353202Y504935D01*
X352946Y504317D01*
X352789Y503667D01*
X352737Y503000D01*
X352789Y502333D01*
X352946Y501683D01*
X353202Y501065D01*
X353551Y500494D01*
X353981Y499990D01*
Y486000D01*
X329500D01*
X334735Y486014D01*
X334965Y486069D01*
X335183Y486159D01*
X335384Y486283D01*
X335564Y486436D01*
X335717Y486616D01*
X335841Y486817D01*
X335931Y487035D01*
X335986Y487265D01*
X336000Y487500D01*
X335986Y492735D01*
X335931Y492965D01*
X335841Y493183D01*
X335717Y493384D01*
X335564Y493564D01*
X335384Y493717D01*
X335183Y493841D01*
X334965Y493931D01*
X334735Y493986D01*
X334500Y494000D01*
X329265Y493986D01*
X329035Y493931D01*
X328817Y493841D01*
X328616Y493717D01*
X328436Y493564D01*
X328283Y493384D01*
X328159Y493183D01*
X328069Y492965D01*
X328014Y492735D01*
X328000Y492500D01*
X328014Y487265D01*
X328069Y487035D01*
X328159Y486817D01*
X328283Y486616D01*
X328436Y486436D01*
X328616Y486283D01*
X328817Y486159D01*
X329035Y486069D01*
X329265Y486014D01*
X329500Y486000D01*
X326991D01*
Y520982D01*
X327000Y520981D01*
X327942Y521056D01*
X328860Y521276D01*
X329732Y521637D01*
X330538Y522131D01*
X331013Y522537D01*
X331014Y522265D01*
X331069Y522035D01*
X331159Y521817D01*
X331283Y521616D01*
X331436Y521436D01*
X331616Y521283D01*
X331817Y521159D01*
X332035Y521069D01*
X332265Y521014D01*
X332500Y521000D01*
X341735Y521014D01*
X341965Y521069D01*
X342183Y521159D01*
X342384Y521283D01*
X342564Y521436D01*
X342717Y521616D01*
X342841Y521817D01*
X342931Y522035D01*
X342986Y522265D01*
X343000Y522500D01*
X342986Y531735D01*
X342931Y531965D01*
X342841Y532183D01*
X342717Y532384D01*
X342564Y532564D01*
X342384Y532717D01*
X342183Y532841D01*
X341965Y532931D01*
X341735Y532986D01*
X341500Y533000D01*
X332265Y532986D01*
X332035Y532931D01*
X331817Y532841D01*
X331616Y532717D01*
X331436Y532564D01*
X331283Y532384D01*
X331159Y532183D01*
X331069Y531965D01*
X331014Y531735D01*
X331000Y531500D01*
X331000Y531474D01*
X330538Y531869D01*
X329732Y532363D01*
X328860Y532724D01*
X327942Y532944D01*
X327000Y533019D01*
X326991Y533018D01*
Y647982D01*
X327000Y647981D01*
X327942Y648056D01*
X328860Y648276D01*
X329732Y648637D01*
X330538Y649131D01*
X331013Y649537D01*
X331014Y649265D01*
X331069Y649035D01*
X331159Y648817D01*
X331283Y648616D01*
X331436Y648436D01*
X331616Y648283D01*
X331817Y648159D01*
X332035Y648069D01*
X332265Y648014D01*
X332500Y648000D01*
X341735Y648014D01*
X341965Y648069D01*
X342183Y648159D01*
X342384Y648283D01*
X342564Y648436D01*
X342717Y648616D01*
X342841Y648817D01*
X342931Y649035D01*
X342986Y649265D01*
X343000Y649500D01*
X342986Y658735D01*
X342931Y658965D01*
X342841Y659183D01*
X342717Y659384D01*
X342564Y659564D01*
X342384Y659717D01*
X342183Y659841D01*
X341965Y659931D01*
X341735Y659986D01*
X341500Y660000D01*
X332265Y659986D01*
X332035Y659931D01*
X331817Y659841D01*
X331616Y659717D01*
X331436Y659564D01*
X331283Y659384D01*
X331159Y659183D01*
X331069Y658965D01*
X331014Y658735D01*
X331000Y658500D01*
X331000Y658474D01*
X330538Y658869D01*
X329732Y659363D01*
X328860Y659724D01*
X327942Y659944D01*
X327000Y660019D01*
X326991Y660018D01*
Y688000D01*
G37*
G36*
X259000Y696000D02*X267000Y688000D01*
X319354D01*
X319163Y687837D01*
X318754Y687358D01*
X318425Y686822D01*
X318184Y686240D01*
X318037Y685628D01*
X317988Y685000D01*
X318037Y684372D01*
X318184Y683760D01*
X318425Y683178D01*
X318754Y682642D01*
X319163Y682163D01*
X319642Y681754D01*
X320178Y681425D01*
X320760Y681184D01*
X321372Y681037D01*
X322000Y680988D01*
X322628Y681037D01*
X323240Y681184D01*
X323822Y681425D01*
X324358Y681754D01*
X324837Y682163D01*
X325246Y682642D01*
X325575Y683178D01*
X325816Y683760D01*
X325963Y684372D01*
X326000Y685000D01*
X325963Y685628D01*
X325816Y686240D01*
X325575Y686822D01*
X325246Y687358D01*
X324837Y687837D01*
X324646Y688000D01*
X326991D01*
Y660018D01*
X326058Y659944D01*
X325140Y659724D01*
X324268Y659363D01*
X323462Y658869D01*
X322744Y658256D01*
X322131Y657538D01*
X322000Y657324D01*
X321869Y657538D01*
X321256Y658256D01*
X320538Y658869D01*
X319732Y659363D01*
X318860Y659724D01*
X317942Y659944D01*
X317000Y660019D01*
X316058Y659944D01*
X315140Y659724D01*
X314268Y659363D01*
X313462Y658869D01*
X312744Y658256D01*
X312131Y657538D01*
X311637Y656732D01*
X311276Y655860D01*
X311056Y654942D01*
X310981Y654000D01*
X311056Y653058D01*
X311276Y652140D01*
X311637Y651268D01*
X312131Y650462D01*
X312744Y649744D01*
X313462Y649131D01*
X314268Y648637D01*
X315140Y648276D01*
X316058Y648056D01*
X317000Y647981D01*
X317942Y648056D01*
X318860Y648276D01*
X319732Y648637D01*
X320538Y649131D01*
X321256Y649744D01*
X321869Y650462D01*
X322000Y650676D01*
X322131Y650462D01*
X322744Y649744D01*
X323462Y649131D01*
X324268Y648637D01*
X325140Y648276D01*
X326058Y648056D01*
X326991Y647982D01*
Y533018D01*
X326058Y532944D01*
X325140Y532724D01*
X324268Y532363D01*
X323462Y531869D01*
X322744Y531256D01*
X322131Y530538D01*
X322000Y530324D01*
X321869Y530538D01*
X321256Y531256D01*
X320538Y531869D01*
X319732Y532363D01*
X318860Y532724D01*
X317942Y532944D01*
X317000Y533019D01*
X316058Y532944D01*
X315140Y532724D01*
X314268Y532363D01*
X313462Y531869D01*
X312744Y531256D01*
X312131Y530538D01*
X311637Y529732D01*
X311276Y528860D01*
X311056Y527942D01*
X310981Y527000D01*
X311056Y526058D01*
X311276Y525140D01*
X311637Y524268D01*
X312131Y523462D01*
X312744Y522744D01*
X313462Y522131D01*
X314268Y521637D01*
X315140Y521276D01*
X316058Y521056D01*
X317000Y520981D01*
X317942Y521056D01*
X318860Y521276D01*
X319732Y521637D01*
X320538Y522131D01*
X321256Y522744D01*
X321869Y523462D01*
X322000Y523676D01*
X322131Y523462D01*
X322744Y522744D01*
X323462Y522131D01*
X324268Y521637D01*
X325140Y521276D01*
X326058Y521056D01*
X326991Y520982D01*
Y486000D01*
X322157D01*
X322628Y486037D01*
X323240Y486184D01*
X323822Y486425D01*
X324358Y486754D01*
X324837Y487163D01*
X325246Y487642D01*
X325575Y488178D01*
X325816Y488760D01*
X325963Y489372D01*
X326000Y490000D01*
X325963Y490628D01*
X325816Y491240D01*
X325575Y491822D01*
X325246Y492358D01*
X324837Y492837D01*
X324358Y493246D01*
X323822Y493575D01*
X323240Y493816D01*
X322628Y493963D01*
X322000Y494012D01*
X321372Y493963D01*
X320760Y493816D01*
X320178Y493575D01*
X319642Y493246D01*
X319163Y492837D01*
X318754Y492358D01*
X318425Y491822D01*
X318184Y491240D01*
X318037Y490628D01*
X317988Y490000D01*
X318037Y489372D01*
X318184Y488760D01*
X318425Y488178D01*
X318754Y487642D01*
X319163Y487163D01*
X319642Y486754D01*
X320178Y486425D01*
X320760Y486184D01*
X321372Y486037D01*
X321843Y486000D01*
X259000D01*
Y497681D01*
X259095Y497740D01*
X259724Y498276D01*
X260260Y498905D01*
X260692Y499609D01*
X261008Y500373D01*
X261201Y501176D01*
X261250Y502000D01*
X261201Y502824D01*
X261008Y503627D01*
X260692Y504391D01*
X260260Y505095D01*
X259724Y505724D01*
X259095Y506260D01*
X259000Y506319D01*
Y669757D01*
X261985Y669764D01*
X262215Y669819D01*
X262433Y669909D01*
X262634Y670033D01*
X262814Y670186D01*
X262967Y670366D01*
X263091Y670567D01*
X263181Y670785D01*
X263236Y671015D01*
X263250Y671250D01*
X263236Y676985D01*
X263181Y677215D01*
X263091Y677433D01*
X262967Y677634D01*
X262814Y677814D01*
X262634Y677967D01*
X262433Y678091D01*
X262215Y678181D01*
X261985Y678236D01*
X261750Y678250D01*
X259000Y678243D01*
Y679737D01*
X259667Y679789D01*
X260317Y679946D01*
X260935Y680202D01*
X261506Y680551D01*
X262014Y680986D01*
X262449Y681494D01*
X262798Y682065D01*
X263054Y682683D01*
X263211Y683333D01*
X263250Y684000D01*
X263211Y684667D01*
X263054Y685317D01*
X262798Y685935D01*
X262449Y686506D01*
X262014Y687014D01*
X261506Y687449D01*
X260935Y687798D01*
X260317Y688054D01*
X259667Y688211D01*
X259000Y688263D01*
Y696000D01*
G37*
G36*
Y486000D02*X245991D01*
Y496735D01*
X246000Y496734D01*
X246824Y496799D01*
X247627Y496992D01*
X248391Y497308D01*
X249095Y497740D01*
X249724Y498276D01*
X250260Y498905D01*
X250692Y499609D01*
X251000Y500352D01*
X251308Y499609D01*
X251740Y498905D01*
X252276Y498276D01*
X252905Y497740D01*
X253609Y497308D01*
X254373Y496992D01*
X255176Y496799D01*
X256000Y496734D01*
X256824Y496799D01*
X257627Y496992D01*
X258391Y497308D01*
X259000Y497681D01*
Y486000D01*
G37*
G36*
X245991Y705000D02*X250000D01*
X259000Y696000D01*
Y688263D01*
X258333Y688211D01*
X257683Y688054D01*
X257065Y687798D01*
X256494Y687449D01*
X255986Y687014D01*
X255551Y686506D01*
X255202Y685935D01*
X254946Y685317D01*
X254789Y684667D01*
X254737Y684000D01*
X254789Y683333D01*
X254946Y682683D01*
X255202Y682065D01*
X255551Y681494D01*
X255986Y680986D01*
X256494Y680551D01*
X257065Y680202D01*
X257683Y679946D01*
X258333Y679789D01*
X259000Y679737D01*
Y678243D01*
X256015Y678236D01*
X255785Y678181D01*
X255567Y678091D01*
X255366Y677967D01*
X255186Y677814D01*
X255033Y677634D01*
X254909Y677433D01*
X254819Y677215D01*
X254764Y676985D01*
X254750Y676750D01*
X254764Y671015D01*
X254819Y670785D01*
X254909Y670567D01*
X255033Y670366D01*
X255186Y670186D01*
X255366Y670033D01*
X255567Y669909D01*
X255785Y669819D01*
X256015Y669764D01*
X256250Y669750D01*
X259000Y669757D01*
Y506319D01*
X258391Y506692D01*
X257627Y507008D01*
X256824Y507201D01*
X256000Y507266D01*
X255176Y507201D01*
X254373Y507008D01*
X253609Y506692D01*
X252905Y506260D01*
X252276Y505724D01*
X251740Y505095D01*
X251308Y504391D01*
X251000Y503648D01*
X250692Y504391D01*
X250260Y505095D01*
X249724Y505724D01*
X249095Y506260D01*
X248391Y506692D01*
X247627Y507008D01*
X246824Y507201D01*
X246000Y507266D01*
X245991Y507265D01*
Y520982D01*
X246000Y520981D01*
X246942Y521056D01*
X247860Y521276D01*
X248732Y521637D01*
X249538Y522131D01*
X250256Y522744D01*
X250869Y523462D01*
X251363Y524268D01*
X251724Y525140D01*
X251944Y526058D01*
X252000Y527000D01*
X251944Y527942D01*
X251724Y528860D01*
X251363Y529732D01*
X250869Y530538D01*
X250256Y531256D01*
X249538Y531869D01*
X248732Y532363D01*
X247860Y532724D01*
X246942Y532944D01*
X246000Y533019D01*
X245991Y533018D01*
Y647982D01*
X246000Y647981D01*
X246942Y648056D01*
X247860Y648276D01*
X248732Y648637D01*
X249538Y649131D01*
X250256Y649744D01*
X250869Y650462D01*
X251363Y651268D01*
X251724Y652140D01*
X251944Y653058D01*
X252000Y654000D01*
X251944Y654942D01*
X251724Y655860D01*
X251363Y656732D01*
X250869Y657538D01*
X250256Y658256D01*
X249538Y658869D01*
X248732Y659363D01*
X247860Y659724D01*
X246942Y659944D01*
X246000Y660019D01*
X245991Y660018D01*
Y679142D01*
X246391Y679308D01*
X247095Y679740D01*
X247724Y680276D01*
X248260Y680905D01*
X248692Y681609D01*
X249008Y682373D01*
X249201Y683176D01*
X249250Y684000D01*
X249201Y684824D01*
X249008Y685627D01*
X248692Y686391D01*
X248260Y687095D01*
X247724Y687724D01*
X247095Y688260D01*
X246391Y688692D01*
X245991Y688858D01*
Y705000D01*
G37*
G36*
Y507265D02*X245176Y507201D01*
X244373Y507008D01*
X243609Y506692D01*
X242905Y506260D01*
X242276Y505724D01*
X241740Y505095D01*
X241308Y504391D01*
X241000Y503648D01*
X240692Y504391D01*
X240260Y505095D01*
X239724Y505724D01*
X239095Y506260D01*
X238391Y506692D01*
X237627Y507008D01*
X236824Y507201D01*
X236000Y507266D01*
X235988Y507265D01*
Y569764D01*
X236000Y569763D01*
X237236Y569860D01*
X238441Y570149D01*
X239586Y570624D01*
X240642Y571271D01*
X241585Y572076D01*
X242390Y573019D01*
X243037Y574075D01*
X243512Y575220D01*
X243801Y576425D01*
X243874Y577661D01*
X243801Y578897D01*
X243512Y580102D01*
X243037Y581247D01*
X242390Y582303D01*
X241585Y583246D01*
X240642Y584051D01*
X239586Y584698D01*
X238441Y585173D01*
X237236Y585462D01*
X236000Y585559D01*
X235988Y585558D01*
Y602245D01*
X236000Y602244D01*
X237236Y602341D01*
X238441Y602630D01*
X239586Y603105D01*
X240642Y603752D01*
X241585Y604557D01*
X242390Y605500D01*
X243037Y606556D01*
X243512Y607701D01*
X243801Y608906D01*
X243874Y610142D01*
X243801Y611378D01*
X243512Y612583D01*
X243037Y613728D01*
X242390Y614784D01*
X241585Y615727D01*
X240642Y616532D01*
X239586Y617179D01*
X238441Y617654D01*
X237236Y617943D01*
X236000Y618040D01*
X235988Y618039D01*
Y679141D01*
X236391Y679308D01*
X237095Y679740D01*
X237724Y680276D01*
X238260Y680905D01*
X238692Y681609D01*
X239000Y682352D01*
X239308Y681609D01*
X239740Y680905D01*
X240276Y680276D01*
X240905Y679740D01*
X241609Y679308D01*
X242373Y678992D01*
X243176Y678799D01*
X244000Y678734D01*
X244824Y678799D01*
X245627Y678992D01*
X245991Y679142D01*
Y660018D01*
X245058Y659944D01*
X244140Y659724D01*
X243268Y659363D01*
X242462Y658869D01*
X241744Y658256D01*
X241131Y657538D01*
X240637Y656732D01*
X240276Y655860D01*
X240056Y654942D01*
X239981Y654000D01*
X240056Y653058D01*
X240276Y652140D01*
X240637Y651268D01*
X241131Y650462D01*
X241744Y649744D01*
X242462Y649131D01*
X243268Y648637D01*
X244140Y648276D01*
X245058Y648056D01*
X245991Y647982D01*
Y533018D01*
X245058Y532944D01*
X244140Y532724D01*
X243268Y532363D01*
X242462Y531869D01*
X241744Y531256D01*
X241131Y530538D01*
X240637Y529732D01*
X240276Y528860D01*
X240056Y527942D01*
X239981Y527000D01*
X240056Y526058D01*
X240276Y525140D01*
X240637Y524268D01*
X241131Y523462D01*
X241744Y522744D01*
X242462Y522131D01*
X243268Y521637D01*
X244140Y521276D01*
X245058Y521056D01*
X245991Y520982D01*
Y507265D01*
G37*
G36*
X235988Y507265D02*X235176Y507201D01*
X234373Y507008D01*
X233609Y506692D01*
X232905Y506260D01*
X232276Y505724D01*
X231740Y505095D01*
X231308Y504391D01*
X231000Y503648D01*
X230692Y504391D01*
X230260Y505095D01*
X229724Y505724D01*
X229095Y506260D01*
X228391Y506692D01*
X227627Y507008D01*
X226824Y507201D01*
X226000Y507266D01*
X225991Y507265D01*
Y520982D01*
X226000Y520981D01*
X226942Y521056D01*
X227860Y521276D01*
X228732Y521637D01*
X229538Y522131D01*
X230256Y522744D01*
X230869Y523462D01*
X231363Y524268D01*
X231724Y525140D01*
X231944Y526058D01*
X232000Y527000D01*
X231944Y527942D01*
X231724Y528860D01*
X231363Y529732D01*
X230869Y530538D01*
X230256Y531256D01*
X229538Y531869D01*
X228732Y532363D01*
X227860Y532724D01*
X226942Y532944D01*
X226000Y533019D01*
X225991Y533018D01*
Y647982D01*
X226000Y647981D01*
X226942Y648056D01*
X227860Y648276D01*
X228732Y648637D01*
X229538Y649131D01*
X230256Y649744D01*
X230869Y650462D01*
X231363Y651268D01*
X231724Y652140D01*
X231944Y653058D01*
X232000Y654000D01*
X231944Y654942D01*
X231724Y655860D01*
X231363Y656732D01*
X230869Y657538D01*
X230256Y658256D01*
X229538Y658869D01*
X228732Y659363D01*
X227860Y659724D01*
X226942Y659944D01*
X226000Y660019D01*
X225991Y660018D01*
Y679142D01*
X226391Y679308D01*
X227095Y679740D01*
X227724Y680276D01*
X228260Y680905D01*
X228692Y681609D01*
X229000Y682352D01*
X229308Y681609D01*
X229740Y680905D01*
X230276Y680276D01*
X230905Y679740D01*
X231609Y679308D01*
X232373Y678992D01*
X233176Y678799D01*
X234000Y678734D01*
X234824Y678799D01*
X235627Y678992D01*
X235988Y679141D01*
Y618039D01*
X234764Y617943D01*
X233559Y617654D01*
X232414Y617179D01*
X231358Y616532D01*
X230415Y615727D01*
X229610Y614784D01*
X228963Y613728D01*
X228488Y612583D01*
X228199Y611378D01*
X228102Y610142D01*
X228199Y608906D01*
X228488Y607701D01*
X228963Y606556D01*
X229610Y605500D01*
X230415Y604557D01*
X231358Y603752D01*
X232414Y603105D01*
X233559Y602630D01*
X234764Y602341D01*
X235988Y602245D01*
Y585558D01*
X234764Y585462D01*
X233559Y585173D01*
X232414Y584698D01*
X231358Y584051D01*
X230415Y583246D01*
X229610Y582303D01*
X228963Y581247D01*
X228488Y580102D01*
X228199Y578897D01*
X228102Y577661D01*
X228199Y576425D01*
X228488Y575220D01*
X228963Y574075D01*
X229610Y573019D01*
X230415Y572076D01*
X231358Y571271D01*
X232414Y570624D01*
X233559Y570149D01*
X234764Y569860D01*
X235988Y569764D01*
Y507265D01*
G37*
G36*
X245991Y486000D02*X225991D01*
Y496735D01*
X226000Y496734D01*
X226824Y496799D01*
X227627Y496992D01*
X228391Y497308D01*
X229095Y497740D01*
X229724Y498276D01*
X230260Y498905D01*
X230692Y499609D01*
X231000Y500352D01*
X231308Y499609D01*
X231740Y498905D01*
X232276Y498276D01*
X232905Y497740D01*
X233609Y497308D01*
X234373Y496992D01*
X235176Y496799D01*
X236000Y496734D01*
X236824Y496799D01*
X237627Y496992D01*
X238391Y497308D01*
X239095Y497740D01*
X239724Y498276D01*
X240260Y498905D01*
X240692Y499609D01*
X241000Y500352D01*
X241308Y499609D01*
X241740Y498905D01*
X242276Y498276D01*
X242905Y497740D01*
X243609Y497308D01*
X244373Y496992D01*
X245176Y496799D01*
X245991Y496735D01*
Y486000D01*
G37*
G36*
X225991Y705000D02*X245991D01*
Y688858D01*
X245627Y689008D01*
X244824Y689201D01*
X244000Y689266D01*
X243176Y689201D01*
X242373Y689008D01*
X241609Y688692D01*
X240905Y688260D01*
X240276Y687724D01*
X239740Y687095D01*
X239308Y686391D01*
X239000Y685648D01*
X238692Y686391D01*
X238260Y687095D01*
X237724Y687724D01*
X237095Y688260D01*
X236391Y688692D01*
X235627Y689008D01*
X234824Y689201D01*
X234000Y689266D01*
X233176Y689201D01*
X232373Y689008D01*
X231609Y688692D01*
X230905Y688260D01*
X230276Y687724D01*
X229740Y687095D01*
X229308Y686391D01*
X229000Y685648D01*
X228692Y686391D01*
X228260Y687095D01*
X227724Y687724D01*
X227095Y688260D01*
X226391Y688692D01*
X225991Y688858D01*
Y705000D01*
G37*
G36*
X209000Y682352D02*X209308Y681609D01*
X209740Y680905D01*
X210276Y680276D01*
X210905Y679740D01*
X211609Y679308D01*
X212373Y678992D01*
X213176Y678799D01*
X214000Y678734D01*
X214824Y678799D01*
X215627Y678992D01*
X216391Y679308D01*
X217095Y679740D01*
X217724Y680276D01*
X218260Y680905D01*
X218692Y681609D01*
X219000Y682352D01*
X219308Y681609D01*
X219740Y680905D01*
X220276Y680276D01*
X220905Y679740D01*
X221609Y679308D01*
X222373Y678992D01*
X223176Y678799D01*
X224000Y678734D01*
X224824Y678799D01*
X225627Y678992D01*
X225991Y679142D01*
Y660018D01*
X225058Y659944D01*
X224140Y659724D01*
X223268Y659363D01*
X222462Y658869D01*
X221744Y658256D01*
X221131Y657538D01*
X220637Y656732D01*
X220276Y655860D01*
X220056Y654942D01*
X219981Y654000D01*
X220056Y653058D01*
X220276Y652140D01*
X220637Y651268D01*
X221131Y650462D01*
X221744Y649744D01*
X222462Y649131D01*
X223268Y648637D01*
X224140Y648276D01*
X225058Y648056D01*
X225991Y647982D01*
Y533018D01*
X225058Y532944D01*
X224140Y532724D01*
X223268Y532363D01*
X222462Y531869D01*
X221744Y531256D01*
X221131Y530538D01*
X220637Y529732D01*
X220276Y528860D01*
X220056Y527942D01*
X219981Y527000D01*
X220056Y526058D01*
X220276Y525140D01*
X220637Y524268D01*
X221131Y523462D01*
X221744Y522744D01*
X222462Y522131D01*
X223268Y521637D01*
X224140Y521276D01*
X225058Y521056D01*
X225991Y520982D01*
Y507265D01*
X225176Y507201D01*
X224373Y507008D01*
X223609Y506692D01*
X222905Y506260D01*
X222276Y505724D01*
X221740Y505095D01*
X221308Y504391D01*
X220992Y503627D01*
X220799Y502824D01*
X220734Y502000D01*
X220799Y501176D01*
X220992Y500373D01*
X221308Y499609D01*
X221740Y498905D01*
X222276Y498276D01*
X222905Y497740D01*
X223609Y497308D01*
X224373Y496992D01*
X225176Y496799D01*
X225991Y496735D01*
Y486000D01*
X209000D01*
Y487757D01*
X211985Y487764D01*
X212215Y487819D01*
X212433Y487909D01*
X212634Y488033D01*
X212814Y488186D01*
X212967Y488366D01*
X213091Y488567D01*
X213181Y488785D01*
X213236Y489015D01*
X213250Y489250D01*
X213236Y494985D01*
X213181Y495215D01*
X213091Y495433D01*
X212967Y495634D01*
X212814Y495814D01*
X212634Y495967D01*
X212433Y496091D01*
X212215Y496181D01*
X211985Y496236D01*
X211750Y496250D01*
X209000Y496243D01*
Y497737D01*
X209667Y497789D01*
X210317Y497946D01*
X210935Y498202D01*
X211506Y498551D01*
X212014Y498986D01*
X212449Y499494D01*
X212798Y500065D01*
X213054Y500683D01*
X213211Y501333D01*
X213250Y502000D01*
X213211Y502667D01*
X213054Y503317D01*
X212798Y503935D01*
X212449Y504506D01*
X212014Y505014D01*
X211506Y505449D01*
X210935Y505798D01*
X210317Y506054D01*
X209667Y506211D01*
X209000Y506263D01*
Y682352D01*
G37*
G36*
Y705000D02*X225991D01*
Y688858D01*
X225627Y689008D01*
X224824Y689201D01*
X224000Y689266D01*
X223176Y689201D01*
X222373Y689008D01*
X221609Y688692D01*
X220905Y688260D01*
X220276Y687724D01*
X219740Y687095D01*
X219308Y686391D01*
X219000Y685648D01*
X218692Y686391D01*
X218260Y687095D01*
X217724Y687724D01*
X217095Y688260D01*
X216391Y688692D01*
X215627Y689008D01*
X214824Y689201D01*
X214000Y689266D01*
X213176Y689201D01*
X212373Y689008D01*
X211609Y688692D01*
X210905Y688260D01*
X210276Y687724D01*
X209740Y687095D01*
X209308Y686391D01*
X209000Y685648D01*
Y705000D01*
G37*
G36*
X190000D02*X209000D01*
Y685648D01*
X208992Y685627D01*
X208799Y684824D01*
X208734Y684000D01*
X208799Y683176D01*
X208992Y682373D01*
X209000Y682352D01*
Y506263D01*
X208333Y506211D01*
X207683Y506054D01*
X207065Y505798D01*
X206494Y505449D01*
X205986Y505014D01*
X205551Y504506D01*
X205202Y503935D01*
X204946Y503317D01*
X204789Y502667D01*
X204737Y502000D01*
X204789Y501333D01*
X204946Y500683D01*
X205202Y500065D01*
X205551Y499494D01*
X205986Y498986D01*
X206494Y498551D01*
X207065Y498202D01*
X207683Y497946D01*
X208333Y497789D01*
X209000Y497737D01*
Y496243D01*
X206015Y496236D01*
X205785Y496181D01*
X205567Y496091D01*
X205366Y495967D01*
X205186Y495814D01*
X205033Y495634D01*
X204909Y495433D01*
X204819Y495215D01*
X204764Y494985D01*
X204750Y494750D01*
X204764Y489015D01*
X204819Y488785D01*
X204909Y488567D01*
X205033Y488366D01*
X205186Y488186D01*
X205366Y488033D01*
X205567Y487909D01*
X205785Y487819D01*
X206015Y487764D01*
X206250Y487750D01*
X209000Y487757D01*
Y486000D01*
X151157D01*
X151628Y486037D01*
X152240Y486184D01*
X152822Y486425D01*
X153358Y486754D01*
X153837Y487163D01*
X154246Y487642D01*
X154575Y488178D01*
X154816Y488760D01*
X154963Y489372D01*
X155000Y490000D01*
X154963Y490628D01*
X154816Y491240D01*
X154575Y491822D01*
X154246Y492358D01*
X153837Y492837D01*
X153358Y493246D01*
X152822Y493575D01*
X152240Y493816D01*
X151628Y493963D01*
X151000Y494012D01*
X150994Y494012D01*
Y521086D01*
X151035Y521069D01*
X151265Y521014D01*
X151500Y521000D01*
X160735Y521014D01*
X160965Y521069D01*
X161183Y521159D01*
X161384Y521283D01*
X161564Y521436D01*
X161717Y521616D01*
X161841Y521817D01*
X161931Y522035D01*
X161986Y522265D01*
X162000Y522500D01*
X161986Y531735D01*
X161931Y531965D01*
X161841Y532183D01*
X161717Y532384D01*
X161564Y532564D01*
X161384Y532717D01*
X161183Y532841D01*
X160965Y532931D01*
X160735Y532986D01*
X160500Y533000D01*
X151265Y532986D01*
X151035Y532931D01*
X150994Y532914D01*
Y648086D01*
X151035Y648069D01*
X151265Y648014D01*
X151500Y648000D01*
X160735Y648014D01*
X160965Y648069D01*
X161183Y648159D01*
X161384Y648283D01*
X161564Y648436D01*
X161717Y648616D01*
X161841Y648817D01*
X161931Y649035D01*
X161986Y649265D01*
X162000Y649500D01*
X161986Y658735D01*
X161931Y658965D01*
X161841Y659183D01*
X161717Y659384D01*
X161564Y659564D01*
X161384Y659717D01*
X161183Y659841D01*
X160965Y659931D01*
X160735Y659986D01*
X160500Y660000D01*
X151265Y659986D01*
X151035Y659931D01*
X150994Y659914D01*
Y680988D01*
X151000Y680988D01*
X151628Y681037D01*
X152240Y681184D01*
X152822Y681425D01*
X153358Y681754D01*
X153837Y682163D01*
X154246Y682642D01*
X154575Y683178D01*
X154816Y683760D01*
X154963Y684372D01*
X155000Y685000D01*
X154963Y685628D01*
X154816Y686240D01*
X154575Y686822D01*
X154246Y687358D01*
X153837Y687837D01*
X153358Y688246D01*
X152822Y688575D01*
X152240Y688816D01*
X151628Y688963D01*
X151000Y689012D01*
X150994Y689012D01*
Y705000D01*
X190000D01*
G37*
G36*
X141000Y650676D02*X141131Y650462D01*
X141744Y649744D01*
X142462Y649131D01*
X143268Y648637D01*
X144140Y648276D01*
X145058Y648056D01*
X146000Y647981D01*
X146942Y648056D01*
X147860Y648276D01*
X148732Y648637D01*
X149538Y649131D01*
X150013Y649537D01*
X150014Y649265D01*
X150069Y649035D01*
X150159Y648817D01*
X150283Y648616D01*
X150436Y648436D01*
X150616Y648283D01*
X150817Y648159D01*
X150994Y648086D01*
Y532914D01*
X150817Y532841D01*
X150616Y532717D01*
X150436Y532564D01*
X150283Y532384D01*
X150159Y532183D01*
X150069Y531965D01*
X150014Y531735D01*
X150000Y531500D01*
X150000Y531474D01*
X149538Y531869D01*
X148732Y532363D01*
X147860Y532724D01*
X146942Y532944D01*
X146000Y533019D01*
X145058Y532944D01*
X144140Y532724D01*
X143268Y532363D01*
X142462Y531869D01*
X141744Y531256D01*
X141131Y530538D01*
X141000Y530324D01*
Y650676D01*
G37*
G36*
Y705000D02*X150994D01*
Y689012D01*
X150372Y688963D01*
X149760Y688816D01*
X149178Y688575D01*
X148642Y688246D01*
X148163Y687837D01*
X147754Y687358D01*
X147425Y686822D01*
X147184Y686240D01*
X147037Y685628D01*
X146988Y685000D01*
X147037Y684372D01*
X147184Y683760D01*
X147425Y683178D01*
X147754Y682642D01*
X148163Y682163D01*
X148642Y681754D01*
X149178Y681425D01*
X149760Y681184D01*
X150372Y681037D01*
X150994Y680988D01*
Y659914D01*
X150817Y659841D01*
X150616Y659717D01*
X150436Y659564D01*
X150283Y659384D01*
X150159Y659183D01*
X150069Y658965D01*
X150014Y658735D01*
X150000Y658500D01*
X150000Y658474D01*
X149538Y658869D01*
X148732Y659363D01*
X147860Y659724D01*
X146942Y659944D01*
X146000Y660019D01*
X145058Y659944D01*
X144140Y659724D01*
X143268Y659363D01*
X142462Y658869D01*
X141744Y658256D01*
X141131Y657538D01*
X141000Y657324D01*
Y681007D01*
X143735Y681014D01*
X143965Y681069D01*
X144183Y681159D01*
X144384Y681283D01*
X144564Y681436D01*
X144717Y681616D01*
X144841Y681817D01*
X144931Y682035D01*
X144986Y682265D01*
X145000Y682500D01*
X144986Y687735D01*
X144931Y687965D01*
X144841Y688183D01*
X144717Y688384D01*
X144564Y688564D01*
X144384Y688717D01*
X144183Y688841D01*
X143965Y688931D01*
X143735Y688986D01*
X143500Y689000D01*
X141000Y688993D01*
Y705000D01*
G37*
G36*
X150994Y494012D02*X150372Y493963D01*
X149760Y493816D01*
X149178Y493575D01*
X148642Y493246D01*
X148163Y492837D01*
X147754Y492358D01*
X147425Y491822D01*
X147184Y491240D01*
X147037Y490628D01*
X146988Y490000D01*
X147037Y489372D01*
X147184Y488760D01*
X147425Y488178D01*
X147754Y487642D01*
X148163Y487163D01*
X148642Y486754D01*
X149178Y486425D01*
X149760Y486184D01*
X150372Y486037D01*
X150843Y486000D01*
X141000D01*
Y486007D01*
X143735Y486014D01*
X143965Y486069D01*
X144183Y486159D01*
X144384Y486283D01*
X144564Y486436D01*
X144717Y486616D01*
X144841Y486817D01*
X144931Y487035D01*
X144986Y487265D01*
X145000Y487500D01*
X144986Y492735D01*
X144931Y492965D01*
X144841Y493183D01*
X144717Y493384D01*
X144564Y493564D01*
X144384Y493717D01*
X144183Y493841D01*
X143965Y493931D01*
X143735Y493986D01*
X143500Y494000D01*
X141000Y493993D01*
Y523676D01*
X141131Y523462D01*
X141744Y522744D01*
X142462Y522131D01*
X143268Y521637D01*
X144140Y521276D01*
X145058Y521056D01*
X146000Y520981D01*
X146942Y521056D01*
X147860Y521276D01*
X148732Y521637D01*
X149538Y522131D01*
X150013Y522537D01*
X150014Y522265D01*
X150069Y522035D01*
X150159Y521817D01*
X150283Y521616D01*
X150436Y521436D01*
X150616Y521283D01*
X150817Y521159D01*
X150994Y521086D01*
Y494012D01*
G37*
G36*
X141000Y493993D02*X138265Y493986D01*
X138035Y493931D01*
X137817Y493841D01*
X137616Y493717D01*
X137436Y493564D01*
X137283Y493384D01*
X137159Y493183D01*
X137069Y492965D01*
X137014Y492735D01*
X137000Y492500D01*
X137014Y487265D01*
X137069Y487035D01*
X137159Y486817D01*
X137283Y486616D01*
X137436Y486436D01*
X137616Y486283D01*
X137817Y486159D01*
X138035Y486069D01*
X138265Y486014D01*
X138500Y486000D01*
X115948D01*
X115511Y486511D01*
X114075Y487738D01*
X112465Y488725D01*
X110720Y489448D01*
X108883Y489889D01*
X107000Y490037D01*
X105117Y489889D01*
X103280Y489448D01*
X101535Y488725D01*
X99925Y487738D01*
X98489Y486511D01*
X98052Y486000D01*
X93000D01*
Y503757D01*
X95985Y503764D01*
X96215Y503819D01*
X96433Y503909D01*
X96634Y504033D01*
X96814Y504186D01*
X96967Y504366D01*
X97091Y504567D01*
X97181Y504785D01*
X97236Y505015D01*
X97250Y505250D01*
X97236Y510985D01*
X97181Y511215D01*
X97091Y511433D01*
X96967Y511634D01*
X96814Y511814D01*
X96634Y511967D01*
X96433Y512091D01*
X96215Y512181D01*
X95985Y512236D01*
X95750Y512250D01*
X93000Y512243D01*
Y533737D01*
X93667Y533789D01*
X94317Y533946D01*
X94935Y534202D01*
X95506Y534551D01*
X96014Y534986D01*
X96449Y535494D01*
X96798Y536065D01*
X97054Y536683D01*
X97211Y537333D01*
X97250Y538000D01*
X97211Y538667D01*
X97054Y539317D01*
X96798Y539935D01*
X96449Y540506D01*
X96014Y541014D01*
X95506Y541449D01*
X94935Y541798D01*
X94317Y542054D01*
X93667Y542211D01*
X93000Y542263D01*
Y682000D01*
X111000D01*
X134000Y705000D01*
X141000D01*
Y688993D01*
X138265Y688986D01*
X138035Y688931D01*
X137817Y688841D01*
X137616Y688717D01*
X137436Y688564D01*
X137283Y688384D01*
X137159Y688183D01*
X137069Y687965D01*
X137014Y687735D01*
X137000Y687500D01*
X137014Y682265D01*
X137069Y682035D01*
X137159Y681817D01*
X137283Y681616D01*
X137436Y681436D01*
X137616Y681283D01*
X137817Y681159D01*
X138035Y681069D01*
X138265Y681014D01*
X138500Y681000D01*
X141000Y681007D01*
Y657324D01*
X140869Y657538D01*
X140256Y658256D01*
X139538Y658869D01*
X138732Y659363D01*
X137860Y659724D01*
X136942Y659944D01*
X136000Y660019D01*
X135058Y659944D01*
X134140Y659724D01*
X133268Y659363D01*
X132462Y658869D01*
X131744Y658256D01*
X131131Y657538D01*
X130637Y656732D01*
X130276Y655860D01*
X130056Y654942D01*
X129981Y654000D01*
X130056Y653058D01*
X130276Y652140D01*
X130637Y651268D01*
X131131Y650462D01*
X131744Y649744D01*
X132462Y649131D01*
X133268Y648637D01*
X134140Y648276D01*
X135058Y648056D01*
X136000Y647981D01*
X136942Y648056D01*
X137860Y648276D01*
X138732Y648637D01*
X139538Y649131D01*
X140256Y649744D01*
X140869Y650462D01*
X141000Y650676D01*
Y530324D01*
X140869Y530538D01*
X140256Y531256D01*
X139538Y531869D01*
X138732Y532363D01*
X137860Y532724D01*
X136942Y532944D01*
X136000Y533019D01*
X135058Y532944D01*
X134140Y532724D01*
X133268Y532363D01*
X132462Y531869D01*
X131744Y531256D01*
X131131Y530538D01*
X130637Y529732D01*
X130276Y528860D01*
X130056Y527942D01*
X129981Y527000D01*
X130056Y526058D01*
X130276Y525140D01*
X130637Y524268D01*
X131131Y523462D01*
X131744Y522744D01*
X132462Y522131D01*
X133268Y521637D01*
X134140Y521276D01*
X135058Y521056D01*
X136000Y520981D01*
X136942Y521056D01*
X137860Y521276D01*
X138732Y521637D01*
X139538Y522131D01*
X140256Y522744D01*
X140869Y523462D01*
X141000Y523676D01*
Y493993D01*
G37*
G36*
Y486000D02*X138500D01*
X141000Y486007D01*
Y486000D01*
G37*
G36*
X93000D02*X81000D01*
Y584009D01*
X81981Y584610D01*
X82924Y585415D01*
X83729Y586358D01*
X84376Y587414D01*
X84851Y588559D01*
X85140Y589764D01*
X85213Y591000D01*
X85140Y592236D01*
X84851Y593441D01*
X84376Y594586D01*
X83729Y595642D01*
X82924Y596585D01*
X81981Y597390D01*
X81000Y597991D01*
Y630737D01*
X81667Y630789D01*
X82317Y630946D01*
X82935Y631202D01*
X83506Y631551D01*
X84014Y631986D01*
X84449Y632494D01*
X84798Y633065D01*
X85054Y633683D01*
X85211Y634333D01*
X85250Y635000D01*
X85211Y635667D01*
X85054Y636317D01*
X84798Y636935D01*
X84449Y637506D01*
X84014Y638014D01*
X83506Y638449D01*
X82935Y638798D01*
X82317Y639054D01*
X81667Y639211D01*
X81000Y639263D01*
Y660757D01*
X83985Y660764D01*
X84215Y660819D01*
X84433Y660909D01*
X84634Y661033D01*
X84814Y661186D01*
X84967Y661366D01*
X85091Y661567D01*
X85181Y661785D01*
X85236Y662015D01*
X85250Y662250D01*
X85236Y667985D01*
X85181Y668215D01*
X85091Y668433D01*
X84967Y668634D01*
X84814Y668814D01*
X84634Y668967D01*
X84433Y669091D01*
X84215Y669181D01*
X83985Y669236D01*
X83750Y669250D01*
X81000Y669243D01*
Y682000D01*
X93000D01*
Y542263D01*
X92333Y542211D01*
X91683Y542054D01*
X91065Y541798D01*
X90494Y541449D01*
X89986Y541014D01*
X89551Y540506D01*
X89202Y539935D01*
X88946Y539317D01*
X88789Y538667D01*
X88737Y538000D01*
X88789Y537333D01*
X88946Y536683D01*
X89202Y536065D01*
X89551Y535494D01*
X89986Y534986D01*
X90494Y534551D01*
X91065Y534202D01*
X91683Y533946D01*
X92333Y533789D01*
X93000Y533737D01*
Y512243D01*
X90015Y512236D01*
X89785Y512181D01*
X89567Y512091D01*
X89366Y511967D01*
X89186Y511814D01*
X89033Y511634D01*
X88909Y511433D01*
X88819Y511215D01*
X88764Y510985D01*
X88750Y510750D01*
X88764Y505015D01*
X88819Y504785D01*
X88909Y504567D01*
X89033Y504366D01*
X89186Y504186D01*
X89366Y504033D01*
X89567Y503909D01*
X89785Y503819D01*
X90015Y503764D01*
X90250Y503750D01*
X93000Y503757D01*
Y486000D01*
G37*
G36*
X81000D02*X49981D01*
Y500584D01*
X50415Y500076D01*
X51358Y499271D01*
X52414Y498624D01*
X53559Y498149D01*
X54764Y497860D01*
X56000Y497763D01*
X57236Y497860D01*
X58441Y498149D01*
X59586Y498624D01*
X60642Y499271D01*
X61585Y500076D01*
X62390Y501019D01*
X63037Y502075D01*
X63512Y503220D01*
X63801Y504425D01*
X63874Y505661D01*
X63801Y506897D01*
X63512Y508102D01*
X63037Y509247D01*
X62390Y510303D01*
X61585Y511246D01*
X60642Y512051D01*
X59586Y512698D01*
X58441Y513173D01*
X57236Y513462D01*
X56000Y513559D01*
X54764Y513462D01*
X53559Y513173D01*
X52414Y512698D01*
X51358Y512051D01*
X50415Y511246D01*
X49981Y510738D01*
Y533065D01*
X50415Y532557D01*
X51358Y531752D01*
X52414Y531105D01*
X53559Y530630D01*
X54764Y530341D01*
X56000Y530244D01*
X57236Y530341D01*
X58441Y530630D01*
X59586Y531105D01*
X60642Y531752D01*
X61585Y532557D01*
X62390Y533500D01*
X63037Y534556D01*
X63512Y535701D01*
X63801Y536906D01*
X63874Y538142D01*
X63801Y539378D01*
X63512Y540583D01*
X63037Y541728D01*
X62390Y542784D01*
X61585Y543727D01*
X60642Y544532D01*
X59586Y545179D01*
X58441Y545654D01*
X57236Y545943D01*
X56000Y546040D01*
X54764Y545943D01*
X53559Y545654D01*
X52414Y545179D01*
X51358Y544532D01*
X50415Y543727D01*
X49981Y543219D01*
Y585021D01*
X50443Y585415D01*
X51248Y586358D01*
X51895Y587414D01*
X52370Y588559D01*
X52659Y589764D01*
X52732Y591000D01*
X52659Y592236D01*
X52370Y593441D01*
X51895Y594586D01*
X51248Y595642D01*
X50443Y596585D01*
X49981Y596979D01*
Y629964D01*
X50000Y629963D01*
X51883Y630111D01*
X53720Y630552D01*
X55465Y631275D01*
X57075Y632262D01*
X58511Y633489D01*
X59738Y634925D01*
X60725Y636535D01*
X61448Y638280D01*
X61889Y640117D01*
X62000Y642000D01*
X61889Y643883D01*
X61448Y645720D01*
X60725Y647465D01*
X59738Y649075D01*
X58511Y650511D01*
X57075Y651738D01*
X55465Y652725D01*
X53720Y653448D01*
X51883Y653889D01*
X50000Y654037D01*
X49981Y654036D01*
Y661981D01*
X70000Y682000D01*
X81000D01*
Y669243D01*
X78015Y669236D01*
X77785Y669181D01*
X77567Y669091D01*
X77366Y668967D01*
X77186Y668814D01*
X77033Y668634D01*
X76909Y668433D01*
X76819Y668215D01*
X76764Y667985D01*
X76750Y667750D01*
X76764Y662015D01*
X76819Y661785D01*
X76909Y661567D01*
X77033Y661366D01*
X77186Y661186D01*
X77366Y661033D01*
X77567Y660909D01*
X77785Y660819D01*
X78015Y660764D01*
X78250Y660750D01*
X81000Y660757D01*
Y639263D01*
X80333Y639211D01*
X79683Y639054D01*
X79065Y638798D01*
X78494Y638449D01*
X77986Y638014D01*
X77551Y637506D01*
X77202Y636935D01*
X76946Y636317D01*
X76789Y635667D01*
X76737Y635000D01*
X76789Y634333D01*
X76946Y633683D01*
X77202Y633065D01*
X77551Y632494D01*
X77986Y631986D01*
X78494Y631551D01*
X79065Y631202D01*
X79683Y630946D01*
X80333Y630789D01*
X81000Y630737D01*
Y597991D01*
X80925Y598037D01*
X79780Y598512D01*
X78575Y598801D01*
X77339Y598898D01*
X76103Y598801D01*
X74898Y598512D01*
X73753Y598037D01*
X72697Y597390D01*
X71754Y596585D01*
X70949Y595642D01*
X70302Y594586D01*
X69827Y593441D01*
X69538Y592236D01*
X69441Y591000D01*
X69538Y589764D01*
X69827Y588559D01*
X70302Y587414D01*
X70949Y586358D01*
X71754Y585415D01*
X72697Y584610D01*
X73753Y583963D01*
X74898Y583488D01*
X76103Y583199D01*
X77339Y583102D01*
X78575Y583199D01*
X79780Y583488D01*
X80925Y583963D01*
X81000Y584009D01*
Y486000D01*
G37*
G36*
X49981D02*X26000D01*
Y638000D01*
X49981Y661981D01*
Y654036D01*
X48117Y653889D01*
X46280Y653448D01*
X44535Y652725D01*
X42925Y651738D01*
X41489Y650511D01*
X40262Y649075D01*
X39275Y647465D01*
X38552Y645720D01*
X38111Y643883D01*
X37963Y642000D01*
X38111Y640117D01*
X38552Y638280D01*
X39275Y636535D01*
X40262Y634925D01*
X41489Y633489D01*
X42925Y632262D01*
X44535Y631275D01*
X46280Y630552D01*
X48117Y630111D01*
X49981Y629964D01*
Y596979D01*
X49500Y597390D01*
X48444Y598037D01*
X47299Y598512D01*
X46094Y598801D01*
X44858Y598898D01*
X43622Y598801D01*
X42417Y598512D01*
X41272Y598037D01*
X40216Y597390D01*
X39273Y596585D01*
X38468Y595642D01*
X37821Y594586D01*
X37346Y593441D01*
X37057Y592236D01*
X36960Y591000D01*
X37057Y589764D01*
X37346Y588559D01*
X37821Y587414D01*
X38468Y586358D01*
X39273Y585415D01*
X40216Y584610D01*
X41272Y583963D01*
X42417Y583488D01*
X43622Y583199D01*
X44858Y583102D01*
X46094Y583199D01*
X47299Y583488D01*
X48444Y583963D01*
X49500Y584610D01*
X49981Y585021D01*
Y543219D01*
X49610Y542784D01*
X48963Y541728D01*
X48488Y540583D01*
X48199Y539378D01*
X48102Y538142D01*
X48199Y536906D01*
X48488Y535701D01*
X48963Y534556D01*
X49610Y533500D01*
X49981Y533065D01*
Y510738D01*
X49610Y510303D01*
X48963Y509247D01*
X48488Y508102D01*
X48199Y506897D01*
X48102Y505661D01*
X48199Y504425D01*
X48488Y503220D01*
X48963Y502075D01*
X49610Y501019D01*
X49981Y500584D01*
Y486000D01*
G37*
G36*
X476981Y579415D02*X476992Y579373D01*
X477308Y578609D01*
X477740Y577905D01*
X478276Y577276D01*
X478905Y576740D01*
X479609Y576308D01*
X480352Y576000D01*
X479609Y575692D01*
X478905Y575260D01*
X478276Y574724D01*
X477740Y574095D01*
X477308Y573391D01*
X476992Y572627D01*
X476981Y572585D01*
Y579415D01*
G37*
G36*
Y589415D02*X476992Y589373D01*
X477308Y588609D01*
X477740Y587905D01*
X478276Y587276D01*
X478905Y586740D01*
X479609Y586308D01*
X480352Y586000D01*
X479609Y585692D01*
X478905Y585260D01*
X478276Y584724D01*
X477740Y584095D01*
X477308Y583391D01*
X476992Y582627D01*
X476981Y582585D01*
Y589415D01*
G37*
G36*
Y599415D02*X476992Y599373D01*
X477308Y598609D01*
X477740Y597905D01*
X478276Y597276D01*
X478905Y596740D01*
X479609Y596308D01*
X480352Y596000D01*
X479609Y595692D01*
X478905Y595260D01*
X478276Y594724D01*
X477740Y594095D01*
X477308Y593391D01*
X476992Y592627D01*
X476981Y592585D01*
Y599415D01*
G37*
G36*
X604992Y629008D02*X613000Y621000D01*
Y557000D01*
X604992Y548992D01*
Y565757D01*
X608985Y565764D01*
X609215Y565819D01*
X609433Y565909D01*
X609634Y566033D01*
X609814Y566186D01*
X609967Y566366D01*
X610091Y566567D01*
X610181Y566785D01*
X610236Y567015D01*
X610250Y567250D01*
X610236Y574985D01*
X610181Y575215D01*
X610091Y575433D01*
X609967Y575634D01*
X609814Y575814D01*
X609634Y575967D01*
X609433Y576091D01*
X609215Y576181D01*
X608985Y576236D01*
X608750Y576250D01*
X607245Y576247D01*
X607391Y576308D01*
X608095Y576740D01*
X608724Y577276D01*
X609260Y577905D01*
X609692Y578609D01*
X610008Y579373D01*
X610201Y580176D01*
X610250Y581000D01*
X610201Y581824D01*
X610008Y582627D01*
X609692Y583391D01*
X609260Y584095D01*
X608724Y584724D01*
X608095Y585260D01*
X607391Y585692D01*
X606648Y586000D01*
X607391Y586308D01*
X608095Y586740D01*
X608724Y587276D01*
X609260Y587905D01*
X609692Y588609D01*
X610008Y589373D01*
X610201Y590176D01*
X610250Y591000D01*
X610201Y591824D01*
X610008Y592627D01*
X609692Y593391D01*
X609260Y594095D01*
X608724Y594724D01*
X608095Y595260D01*
X607391Y595692D01*
X606648Y596000D01*
X607391Y596308D01*
X608095Y596740D01*
X608724Y597276D01*
X609260Y597905D01*
X609692Y598609D01*
X610008Y599373D01*
X610201Y600176D01*
X610250Y601000D01*
X610201Y601824D01*
X610008Y602627D01*
X609692Y603391D01*
X609260Y604095D01*
X608724Y604724D01*
X608095Y605260D01*
X607391Y605692D01*
X606627Y606008D01*
X605824Y606201D01*
X605000Y606266D01*
X604992Y606266D01*
Y629008D01*
G37*
G36*
X584993Y649007D02*X604992Y629008D01*
Y606266D01*
X604176Y606201D01*
X603373Y606008D01*
X602609Y605692D01*
X601905Y605260D01*
X601276Y604724D01*
X600740Y604095D01*
X600308Y603391D01*
X599992Y602627D01*
X599799Y601824D01*
X599734Y601000D01*
X599799Y600176D01*
X599992Y599373D01*
X600308Y598609D01*
X600740Y597905D01*
X601276Y597276D01*
X601905Y596740D01*
X602609Y596308D01*
X603352Y596000D01*
X602609Y595692D01*
X601905Y595260D01*
X601276Y594724D01*
X600740Y594095D01*
X600308Y593391D01*
X599992Y592627D01*
X599799Y591824D01*
X599734Y591000D01*
X599799Y590176D01*
X599992Y589373D01*
X600308Y588609D01*
X600740Y587905D01*
X601276Y587276D01*
X601905Y586740D01*
X602609Y586308D01*
X603352Y586000D01*
X602609Y585692D01*
X601905Y585260D01*
X601276Y584724D01*
X600740Y584095D01*
X600308Y583391D01*
X599992Y582627D01*
X599799Y581824D01*
X599734Y581000D01*
X599799Y580176D01*
X599992Y579373D01*
X600308Y578609D01*
X600740Y577905D01*
X601276Y577276D01*
X601905Y576740D01*
X602609Y576308D01*
X602775Y576239D01*
X601015Y576236D01*
X600785Y576181D01*
X600567Y576091D01*
X600366Y575967D01*
X600186Y575814D01*
X600033Y575634D01*
X599909Y575433D01*
X599819Y575215D01*
X599764Y574985D01*
X599750Y574750D01*
X599764Y567015D01*
X599819Y566785D01*
X599909Y566567D01*
X600033Y566366D01*
X600186Y566186D01*
X600366Y566033D01*
X600567Y565909D01*
X600785Y565819D01*
X601015Y565764D01*
X601250Y565750D01*
X604992Y565757D01*
Y548992D01*
X584993Y528993D01*
Y551737D01*
X585000Y551737D01*
X585667Y551789D01*
X586317Y551946D01*
X586935Y552202D01*
X587506Y552551D01*
X588014Y552986D01*
X588449Y553494D01*
X588798Y554065D01*
X589054Y554683D01*
X589211Y555333D01*
X589250Y556000D01*
X589211Y556667D01*
X589054Y557317D01*
X588798Y557935D01*
X588449Y558506D01*
X588014Y559014D01*
X587506Y559449D01*
X586935Y559798D01*
X586317Y560054D01*
X585667Y560211D01*
X585000Y560263D01*
X584993Y560263D01*
Y649007D01*
G37*
G36*
X574993Y659007D02*X584993Y649007D01*
Y560263D01*
X584333Y560211D01*
X583683Y560054D01*
X583065Y559798D01*
X582494Y559449D01*
X581986Y559014D01*
X581551Y558506D01*
X581202Y557935D01*
X580946Y557317D01*
X580789Y556667D01*
X580737Y556000D01*
X580789Y555333D01*
X580946Y554683D01*
X581202Y554065D01*
X581551Y553494D01*
X581986Y552986D01*
X582494Y552551D01*
X583065Y552202D01*
X583683Y551946D01*
X584333Y551789D01*
X584993Y551737D01*
Y528993D01*
X574993Y518993D01*
Y551757D01*
X577985Y551764D01*
X578215Y551819D01*
X578433Y551909D01*
X578634Y552033D01*
X578814Y552186D01*
X578967Y552366D01*
X579091Y552567D01*
X579181Y552785D01*
X579236Y553015D01*
X579250Y553250D01*
X579236Y558985D01*
X579181Y559215D01*
X579091Y559433D01*
X578967Y559634D01*
X578814Y559814D01*
X578634Y559967D01*
X578433Y560091D01*
X578215Y560181D01*
X577985Y560236D01*
X577750Y560250D01*
X574993Y560243D01*
Y566236D01*
X575000Y566235D01*
X575745Y566294D01*
X576472Y566469D01*
X577163Y566755D01*
X577801Y567145D01*
X578369Y567631D01*
X578855Y568199D01*
X579245Y568837D01*
X579531Y569528D01*
X579706Y570255D01*
X579750Y571000D01*
X579706Y571745D01*
X579531Y572472D01*
X579245Y573163D01*
X578855Y573801D01*
X578369Y574369D01*
X577801Y574855D01*
X577163Y575245D01*
X576472Y575531D01*
X575745Y575706D01*
X575000Y575765D01*
X574993Y575764D01*
Y576236D01*
X575000Y576235D01*
X575745Y576294D01*
X576472Y576469D01*
X577163Y576755D01*
X577801Y577145D01*
X578369Y577631D01*
X578855Y578199D01*
X579245Y578837D01*
X579531Y579528D01*
X579706Y580255D01*
X579750Y581000D01*
X579706Y581745D01*
X579531Y582472D01*
X579245Y583163D01*
X578855Y583801D01*
X578369Y584369D01*
X577801Y584855D01*
X577163Y585245D01*
X576472Y585531D01*
X575745Y585706D01*
X575196Y585749D01*
X575824Y585799D01*
X576627Y585992D01*
X577391Y586308D01*
X578095Y586740D01*
X578724Y587276D01*
X579260Y587905D01*
X579692Y588609D01*
X580008Y589373D01*
X580201Y590176D01*
X580250Y591000D01*
X580201Y591824D01*
X580008Y592627D01*
X579692Y593391D01*
X579260Y594095D01*
X578724Y594724D01*
X578095Y595260D01*
X577391Y595692D01*
X576648Y596000D01*
X577391Y596308D01*
X578095Y596740D01*
X578724Y597276D01*
X579260Y597905D01*
X579692Y598609D01*
X580008Y599373D01*
X580201Y600176D01*
X580250Y601000D01*
X580201Y601824D01*
X580008Y602627D01*
X579692Y603391D01*
X579260Y604095D01*
X578724Y604724D01*
X578095Y605260D01*
X577391Y605692D01*
X576627Y606008D01*
X575824Y606201D01*
X575000Y606266D01*
X574993Y606266D01*
Y659007D01*
G37*
G36*
X558993Y672000D02*X562000D01*
X574993Y659007D01*
Y606266D01*
X574176Y606201D01*
X573373Y606008D01*
X572609Y605692D01*
X571905Y605260D01*
X571276Y604724D01*
X570740Y604095D01*
X570308Y603391D01*
X569992Y602627D01*
X569799Y601824D01*
X569734Y601000D01*
X569799Y600176D01*
X569992Y599373D01*
X570308Y598609D01*
X570740Y597905D01*
X571276Y597276D01*
X571905Y596740D01*
X572609Y596308D01*
X573352Y596000D01*
X572609Y595692D01*
X571905Y595260D01*
X571276Y594724D01*
X570740Y594095D01*
X570308Y593391D01*
X569992Y592627D01*
X569799Y591824D01*
X569734Y591000D01*
X569799Y590176D01*
X569992Y589373D01*
X570308Y588609D01*
X570740Y587905D01*
X571276Y587276D01*
X571905Y586740D01*
X572609Y586308D01*
X573373Y585992D01*
X574176Y585799D01*
X574804Y585749D01*
X574255Y585706D01*
X573528Y585531D01*
X572837Y585245D01*
X572199Y584855D01*
X571631Y584369D01*
X571145Y583801D01*
X570755Y583163D01*
X570469Y582472D01*
X570294Y581745D01*
X570235Y581000D01*
X570294Y580255D01*
X570469Y579528D01*
X570755Y578837D01*
X571145Y578199D01*
X571631Y577631D01*
X572199Y577145D01*
X572837Y576755D01*
X573528Y576469D01*
X574255Y576294D01*
X574993Y576236D01*
Y575764D01*
X574255Y575706D01*
X573528Y575531D01*
X572837Y575245D01*
X572199Y574855D01*
X571631Y574369D01*
X571145Y573801D01*
X570755Y573163D01*
X570469Y572472D01*
X570294Y571745D01*
X570235Y571000D01*
X570294Y570255D01*
X570469Y569528D01*
X570755Y568837D01*
X571145Y568199D01*
X571631Y567631D01*
X572199Y567145D01*
X572837Y566755D01*
X573528Y566469D01*
X574255Y566294D01*
X574993Y566236D01*
Y560243D01*
X572015Y560236D01*
X571785Y560181D01*
X571567Y560091D01*
X571366Y559967D01*
X571186Y559814D01*
X571033Y559634D01*
X570909Y559433D01*
X570819Y559215D01*
X570764Y558985D01*
X570750Y558750D01*
X570764Y553015D01*
X570819Y552785D01*
X570909Y552567D01*
X571033Y552366D01*
X571186Y552186D01*
X571366Y552033D01*
X571567Y551909D01*
X571785Y551819D01*
X572015Y551764D01*
X572250Y551750D01*
X574993Y551757D01*
Y518993D01*
X558993Y502993D01*
Y576737D01*
X559000Y576737D01*
X559667Y576789D01*
X560317Y576946D01*
X560935Y577202D01*
X561506Y577551D01*
X562014Y577986D01*
X562449Y578494D01*
X562798Y579065D01*
X563054Y579683D01*
X563211Y580333D01*
X563250Y581000D01*
X563211Y581667D01*
X563054Y582317D01*
X562798Y582935D01*
X562449Y583506D01*
X562014Y584014D01*
X561506Y584449D01*
X560935Y584798D01*
X560317Y585054D01*
X559667Y585211D01*
X559000Y585263D01*
X558993Y585263D01*
Y586737D01*
X559000Y586737D01*
X559667Y586789D01*
X560317Y586946D01*
X560935Y587202D01*
X561506Y587551D01*
X562014Y587986D01*
X562449Y588494D01*
X562798Y589065D01*
X563054Y589683D01*
X563211Y590333D01*
X563250Y591000D01*
X563211Y591667D01*
X563054Y592317D01*
X562798Y592935D01*
X562449Y593506D01*
X562014Y594014D01*
X561506Y594449D01*
X560935Y594798D01*
X560317Y595054D01*
X559667Y595211D01*
X559000Y595263D01*
X558993Y595263D01*
Y672000D01*
G37*
G36*
X544130D02*X558993D01*
Y595263D01*
X558333Y595211D01*
X557683Y595054D01*
X557065Y594798D01*
X556494Y594449D01*
X555986Y594014D01*
X555551Y593506D01*
X555202Y592935D01*
X554946Y592317D01*
X554789Y591667D01*
X554737Y591000D01*
X554789Y590333D01*
X554946Y589683D01*
X555202Y589065D01*
X555551Y588494D01*
X555986Y587986D01*
X556494Y587551D01*
X557065Y587202D01*
X557683Y586946D01*
X558333Y586789D01*
X558993Y586737D01*
Y585263D01*
X558333Y585211D01*
X557683Y585054D01*
X557065Y584798D01*
X556494Y584449D01*
X555986Y584014D01*
X555551Y583506D01*
X555202Y582935D01*
X554946Y582317D01*
X554789Y581667D01*
X554737Y581000D01*
X554789Y580333D01*
X554946Y579683D01*
X555202Y579065D01*
X555551Y578494D01*
X555986Y577986D01*
X556494Y577551D01*
X557065Y577202D01*
X557683Y576946D01*
X558333Y576789D01*
X558993Y576737D01*
Y502993D01*
X545000Y489000D01*
Y460000D01*
X544130Y459130D01*
Y531002D01*
X551735Y531014D01*
X551965Y531069D01*
X552183Y531159D01*
X552384Y531283D01*
X552564Y531436D01*
X552717Y531616D01*
X552841Y531817D01*
X552931Y532035D01*
X552986Y532265D01*
X553000Y532500D01*
X552986Y541735D01*
X552931Y541965D01*
X552841Y542183D01*
X552717Y542384D01*
X552564Y542564D01*
X552384Y542717D01*
X552183Y542841D01*
X551965Y542931D01*
X551735Y542986D01*
X551500Y543000D01*
X544130Y542989D01*
Y634103D01*
X544142Y634102D01*
X545378Y634199D01*
X546583Y634488D01*
X547728Y634963D01*
X548784Y635610D01*
X549727Y636415D01*
X550532Y637358D01*
X551179Y638414D01*
X551654Y639559D01*
X551943Y640764D01*
X552016Y642000D01*
X551943Y643236D01*
X551654Y644441D01*
X551179Y645586D01*
X550532Y646642D01*
X549727Y647585D01*
X548784Y648390D01*
X547728Y649037D01*
X546583Y649512D01*
X545378Y649801D01*
X544142Y649898D01*
X544130Y649897D01*
Y672000D01*
G37*
G36*
X526130Y531050D02*X527000Y530981D01*
X527942Y531056D01*
X528860Y531276D01*
X529732Y531637D01*
X530538Y532131D01*
X531256Y532744D01*
X531869Y533462D01*
X532000Y533676D01*
X532131Y533462D01*
X532744Y532744D01*
X533462Y532131D01*
X534268Y531637D01*
X535140Y531276D01*
X536058Y531056D01*
X537000Y530981D01*
X537942Y531056D01*
X538860Y531276D01*
X539732Y531637D01*
X540538Y532131D01*
X541013Y532537D01*
X541014Y532265D01*
X541069Y532035D01*
X541159Y531817D01*
X541283Y531616D01*
X541436Y531436D01*
X541616Y531283D01*
X541817Y531159D01*
X542035Y531069D01*
X542265Y531014D01*
X542500Y531000D01*
X544130Y531002D01*
Y459130D01*
X537000Y452000D01*
X526130D01*
Y480103D01*
X526142Y480102D01*
X527378Y480199D01*
X528583Y480488D01*
X529728Y480963D01*
X530784Y481610D01*
X531727Y482415D01*
X532532Y483358D01*
X533179Y484414D01*
X533654Y485559D01*
X533943Y486764D01*
X534016Y488000D01*
X533943Y489236D01*
X533654Y490441D01*
X533179Y491586D01*
X532532Y492642D01*
X531727Y493585D01*
X530784Y494390D01*
X529728Y495037D01*
X528583Y495512D01*
X527378Y495801D01*
X526142Y495898D01*
X526130Y495897D01*
Y531050D01*
G37*
G36*
X539000Y636037D02*X539500Y635610D01*
X540556Y634963D01*
X541701Y634488D01*
X542906Y634199D01*
X544130Y634103D01*
Y542989D01*
X542265Y542986D01*
X542035Y542931D01*
X541817Y542841D01*
X541616Y542717D01*
X541436Y542564D01*
X541283Y542384D01*
X541159Y542183D01*
X541069Y541965D01*
X541014Y541735D01*
X541000Y541500D01*
X541000Y541474D01*
X540538Y541869D01*
X539732Y542363D01*
X539000Y542666D01*
Y553757D01*
X541985Y553764D01*
X542215Y553819D01*
X542433Y553909D01*
X542634Y554033D01*
X542814Y554186D01*
X542967Y554366D01*
X543091Y554567D01*
X543181Y554785D01*
X543236Y555015D01*
X543250Y555250D01*
X543236Y560985D01*
X543181Y561215D01*
X543091Y561433D01*
X542967Y561634D01*
X542814Y561814D01*
X542634Y561967D01*
X542433Y562091D01*
X542215Y562181D01*
X541985Y562236D01*
X541750Y562250D01*
X539000Y562243D01*
Y636037D01*
G37*
G36*
Y672000D02*X544130D01*
Y649897D01*
X542906Y649801D01*
X541701Y649512D01*
X540556Y649037D01*
X539500Y648390D01*
X539000Y647963D01*
Y672000D01*
G37*
G36*
X526130D02*X539000D01*
Y647963D01*
X538557Y647585D01*
X537752Y646642D01*
X537105Y645586D01*
X536630Y644441D01*
X536341Y643236D01*
X536244Y642000D01*
X536341Y640764D01*
X536630Y639559D01*
X537105Y638414D01*
X537752Y637358D01*
X538557Y636415D01*
X539000Y636037D01*
Y562243D01*
X536015Y562236D01*
X535785Y562181D01*
X535567Y562091D01*
X535366Y561967D01*
X535186Y561814D01*
X535033Y561634D01*
X534909Y561433D01*
X534819Y561215D01*
X534764Y560985D01*
X534750Y560750D01*
X534764Y555015D01*
X534819Y554785D01*
X534909Y554567D01*
X535033Y554366D01*
X535186Y554186D01*
X535366Y554033D01*
X535567Y553909D01*
X535785Y553819D01*
X536015Y553764D01*
X536250Y553750D01*
X539000Y553757D01*
Y542666D01*
X538860Y542724D01*
X537942Y542944D01*
X537000Y543019D01*
X536058Y542944D01*
X535140Y542724D01*
X534268Y542363D01*
X533462Y541869D01*
X532744Y541256D01*
X532131Y540538D01*
X532000Y540324D01*
X531869Y540538D01*
X531256Y541256D01*
X530538Y541869D01*
X529732Y542363D01*
X528860Y542724D01*
X527942Y542944D01*
X527000Y543019D01*
X526130Y542950D01*
Y554862D01*
X526494Y554551D01*
X527065Y554202D01*
X527683Y553946D01*
X528333Y553789D01*
X529000Y553737D01*
X529667Y553789D01*
X530317Y553946D01*
X530935Y554202D01*
X531506Y554551D01*
X532014Y554986D01*
X532449Y555494D01*
X532798Y556065D01*
X533054Y556683D01*
X533211Y557333D01*
X533250Y558000D01*
X533211Y558667D01*
X533054Y559317D01*
X532798Y559935D01*
X532449Y560506D01*
X532014Y561014D01*
X531506Y561449D01*
X530935Y561798D01*
X530317Y562054D01*
X529667Y562211D01*
X529000Y562263D01*
X528333Y562211D01*
X527683Y562054D01*
X527065Y561798D01*
X526494Y561449D01*
X526130Y561138D01*
Y576757D01*
X526250Y576750D01*
X531985Y576764D01*
X532215Y576819D01*
X532433Y576909D01*
X532634Y577033D01*
X532814Y577186D01*
X532967Y577366D01*
X533091Y577567D01*
X533181Y577785D01*
X533236Y578015D01*
X533250Y578250D01*
X533236Y583985D01*
X533181Y584215D01*
X533091Y584433D01*
X532967Y584634D01*
X532814Y584814D01*
X532634Y584967D01*
X532433Y585091D01*
X532215Y585181D01*
X531985Y585236D01*
X531750Y585250D01*
X526130Y585236D01*
Y586757D01*
X526250Y586750D01*
X531985Y586764D01*
X532215Y586819D01*
X532433Y586909D01*
X532634Y587033D01*
X532814Y587186D01*
X532967Y587366D01*
X533091Y587567D01*
X533181Y587785D01*
X533236Y588015D01*
X533250Y588250D01*
X533236Y593985D01*
X533181Y594215D01*
X533091Y594433D01*
X532967Y594634D01*
X532814Y594814D01*
X532634Y594967D01*
X532433Y595091D01*
X532215Y595181D01*
X531985Y595236D01*
X531750Y595250D01*
X526130Y595236D01*
Y672000D01*
G37*
G36*
X511649D02*X526130D01*
Y595236D01*
X526015Y595236D01*
X525785Y595181D01*
X525567Y595091D01*
X525366Y594967D01*
X525186Y594814D01*
X525033Y594634D01*
X524909Y594433D01*
X524819Y594215D01*
X524764Y593985D01*
X524750Y593750D01*
X524764Y588015D01*
X524819Y587785D01*
X524909Y587567D01*
X525033Y587366D01*
X525186Y587186D01*
X525366Y587033D01*
X525567Y586909D01*
X525785Y586819D01*
X526015Y586764D01*
X526130Y586757D01*
Y585236D01*
X526015Y585236D01*
X525785Y585181D01*
X525567Y585091D01*
X525366Y584967D01*
X525186Y584814D01*
X525033Y584634D01*
X524909Y584433D01*
X524819Y584215D01*
X524764Y583985D01*
X524750Y583750D01*
X524764Y578015D01*
X524819Y577785D01*
X524909Y577567D01*
X525033Y577366D01*
X525186Y577186D01*
X525366Y577033D01*
X525567Y576909D01*
X525785Y576819D01*
X526015Y576764D01*
X526130Y576757D01*
Y561138D01*
X525986Y561014D01*
X525551Y560506D01*
X525202Y559935D01*
X524946Y559317D01*
X524789Y558667D01*
X524737Y558000D01*
X524789Y557333D01*
X524946Y556683D01*
X525202Y556065D01*
X525551Y555494D01*
X525986Y554986D01*
X526130Y554862D01*
Y542950D01*
X526058Y542944D01*
X525140Y542724D01*
X524268Y542363D01*
X523462Y541869D01*
X522744Y541256D01*
X522131Y540538D01*
X521637Y539732D01*
X521276Y538860D01*
X521056Y537942D01*
X520981Y537000D01*
X521056Y536058D01*
X521276Y535140D01*
X521637Y534268D01*
X522131Y533462D01*
X522744Y532744D01*
X523462Y532131D01*
X524268Y531637D01*
X525140Y531276D01*
X526058Y531056D01*
X526130Y531050D01*
Y495897D01*
X524906Y495801D01*
X523701Y495512D01*
X522556Y495037D01*
X521500Y494390D01*
X520557Y493585D01*
X519752Y492642D01*
X519105Y491586D01*
X518630Y490441D01*
X518341Y489236D01*
X518244Y488000D01*
X518341Y486764D01*
X518630Y485559D01*
X519105Y484414D01*
X519752Y483358D01*
X520557Y482415D01*
X521500Y481610D01*
X522556Y480963D01*
X523701Y480488D01*
X524906Y480199D01*
X526130Y480103D01*
Y452000D01*
X511649D01*
Y565756D01*
X515985Y565764D01*
X516215Y565819D01*
X516433Y565909D01*
X516634Y566033D01*
X516814Y566186D01*
X516967Y566366D01*
X517091Y566567D01*
X517181Y566785D01*
X517236Y567015D01*
X517250Y567250D01*
X517236Y574985D01*
X517181Y575215D01*
X517091Y575433D01*
X516967Y575634D01*
X516814Y575814D01*
X516634Y575967D01*
X516433Y576091D01*
X516215Y576181D01*
X515985Y576236D01*
X515750Y576250D01*
X514245Y576247D01*
X514391Y576308D01*
X515095Y576740D01*
X515724Y577276D01*
X516260Y577905D01*
X516692Y578609D01*
X517008Y579373D01*
X517201Y580176D01*
X517250Y581000D01*
X517201Y581824D01*
X517008Y582627D01*
X516692Y583391D01*
X516260Y584095D01*
X515724Y584724D01*
X515095Y585260D01*
X514391Y585692D01*
X513648Y586000D01*
X514391Y586308D01*
X515095Y586740D01*
X515724Y587276D01*
X516260Y587905D01*
X516692Y588609D01*
X517008Y589373D01*
X517201Y590176D01*
X517250Y591000D01*
X517201Y591824D01*
X517008Y592627D01*
X516692Y593391D01*
X516260Y594095D01*
X515724Y594724D01*
X515095Y595260D01*
X514391Y595692D01*
X513648Y596000D01*
X514391Y596308D01*
X515095Y596740D01*
X515724Y597276D01*
X516260Y597905D01*
X516692Y598609D01*
X517008Y599373D01*
X517201Y600176D01*
X517250Y601000D01*
X517201Y601824D01*
X517008Y602627D01*
X516692Y603391D01*
X516260Y604095D01*
X515724Y604724D01*
X515095Y605260D01*
X514391Y605692D01*
X513627Y606008D01*
X512824Y606201D01*
X512000Y606266D01*
X511649Y606239D01*
Y634103D01*
X511661Y634102D01*
X512897Y634199D01*
X514102Y634488D01*
X515247Y634963D01*
X516303Y635610D01*
X517246Y636415D01*
X518051Y637358D01*
X518698Y638414D01*
X519173Y639559D01*
X519462Y640764D01*
X519535Y642000D01*
X519462Y643236D01*
X519173Y644441D01*
X518698Y645586D01*
X518051Y646642D01*
X517246Y647585D01*
X516303Y648390D01*
X515247Y649037D01*
X514102Y649512D01*
X512897Y649801D01*
X511661Y649898D01*
X511649Y649897D01*
Y672000D01*
G37*
G36*
X490981Y673019D02*X492000Y672000D01*
X511649D01*
Y649897D01*
X510425Y649801D01*
X509220Y649512D01*
X508075Y649037D01*
X507019Y648390D01*
X506076Y647585D01*
X505271Y646642D01*
X504624Y645586D01*
X504149Y644441D01*
X503860Y643236D01*
X503763Y642000D01*
X503860Y640764D01*
X504149Y639559D01*
X504624Y638414D01*
X505271Y637358D01*
X506076Y636415D01*
X507019Y635610D01*
X508075Y634963D01*
X509220Y634488D01*
X510425Y634199D01*
X511649Y634103D01*
Y606239D01*
X511176Y606201D01*
X510373Y606008D01*
X509609Y605692D01*
X508905Y605260D01*
X508276Y604724D01*
X507740Y604095D01*
X507308Y603391D01*
X506992Y602627D01*
X506799Y601824D01*
X506734Y601000D01*
X506799Y600176D01*
X506992Y599373D01*
X507308Y598609D01*
X507740Y597905D01*
X508276Y597276D01*
X508905Y596740D01*
X509609Y596308D01*
X510352Y596000D01*
X509609Y595692D01*
X508905Y595260D01*
X508276Y594724D01*
X507740Y594095D01*
X507308Y593391D01*
X506992Y592627D01*
X506799Y591824D01*
X506734Y591000D01*
X506799Y590176D01*
X506992Y589373D01*
X507308Y588609D01*
X507740Y587905D01*
X508276Y587276D01*
X508905Y586740D01*
X509609Y586308D01*
X510352Y586000D01*
X509609Y585692D01*
X508905Y585260D01*
X508276Y584724D01*
X507740Y584095D01*
X507308Y583391D01*
X506992Y582627D01*
X506799Y581824D01*
X506734Y581000D01*
X506799Y580176D01*
X506992Y579373D01*
X507308Y578609D01*
X507740Y577905D01*
X508276Y577276D01*
X508905Y576740D01*
X509609Y576308D01*
X509775Y576239D01*
X508015Y576236D01*
X507785Y576181D01*
X507567Y576091D01*
X507366Y575967D01*
X507186Y575814D01*
X507033Y575634D01*
X506909Y575433D01*
X506819Y575215D01*
X506764Y574985D01*
X506750Y574750D01*
X506764Y567015D01*
X506819Y566785D01*
X506909Y566567D01*
X507033Y566366D01*
X507186Y566186D01*
X507366Y566033D01*
X507567Y565909D01*
X507785Y565819D01*
X508015Y565764D01*
X508250Y565750D01*
X511649Y565756D01*
Y452000D01*
X490981D01*
Y480587D01*
X491220Y480488D01*
X492425Y480199D01*
X493661Y480102D01*
X494897Y480199D01*
X496102Y480488D01*
X497247Y480963D01*
X498303Y481610D01*
X499246Y482415D01*
X500051Y483358D01*
X500698Y484414D01*
X501173Y485559D01*
X501462Y486764D01*
X501535Y488000D01*
X501462Y489236D01*
X501173Y490441D01*
X500698Y491586D01*
X500051Y492642D01*
X499246Y493585D01*
X498303Y494390D01*
X497247Y495037D01*
X496102Y495512D01*
X494897Y495801D01*
X493661Y495898D01*
X492425Y495801D01*
X491220Y495512D01*
X490981Y495413D01*
Y522964D01*
X491000Y522963D01*
X492883Y523111D01*
X494720Y523552D01*
X496465Y524275D01*
X498075Y525262D01*
X499511Y526489D01*
X500738Y527925D01*
X501725Y529535D01*
X502448Y531280D01*
X502889Y533117D01*
X503000Y535000D01*
X502889Y536883D01*
X502448Y538720D01*
X501725Y540465D01*
X500738Y542075D01*
X499511Y543511D01*
X498075Y544738D01*
X496465Y545725D01*
X494720Y546448D01*
X492883Y546889D01*
X491000Y547037D01*
X490981Y547036D01*
Y673019D01*
G37*
G36*
X482000Y527061D02*X482489Y526489D01*
X483925Y525262D01*
X485535Y524275D01*
X487280Y523552D01*
X489117Y523111D01*
X490981Y522964D01*
Y495413D01*
X490075Y495037D01*
X489019Y494390D01*
X488076Y493585D01*
X487271Y492642D01*
X486624Y491586D01*
X486149Y490441D01*
X485860Y489236D01*
X485763Y488000D01*
X485860Y486764D01*
X486149Y485559D01*
X486624Y484414D01*
X487271Y483358D01*
X488076Y482415D01*
X489019Y481610D01*
X490075Y480963D01*
X490981Y480587D01*
Y452000D01*
X482000D01*
Y527061D01*
G37*
G36*
Y682000D02*X490981Y673019D01*
Y547036D01*
X489117Y546889D01*
X487280Y546448D01*
X485535Y545725D01*
X483925Y544738D01*
X482489Y543511D01*
X482000Y542939D01*
Y550757D01*
X484985Y550764D01*
X485215Y550819D01*
X485433Y550909D01*
X485634Y551033D01*
X485814Y551186D01*
X485967Y551366D01*
X486091Y551567D01*
X486181Y551785D01*
X486236Y552015D01*
X486250Y552250D01*
X486236Y557985D01*
X486181Y558215D01*
X486091Y558433D01*
X485967Y558634D01*
X485814Y558814D01*
X485634Y558967D01*
X485433Y559091D01*
X485215Y559181D01*
X484985Y559236D01*
X484750Y559250D01*
X482000Y559243D01*
Y565734D01*
X482824Y565799D01*
X483627Y565992D01*
X484391Y566308D01*
X485095Y566740D01*
X485724Y567276D01*
X486260Y567905D01*
X486692Y568609D01*
X487008Y569373D01*
X487201Y570176D01*
X487250Y571000D01*
X487201Y571824D01*
X487008Y572627D01*
X486692Y573391D01*
X486260Y574095D01*
X485724Y574724D01*
X485095Y575260D01*
X484391Y575692D01*
X483648Y576000D01*
X484391Y576308D01*
X485095Y576740D01*
X485724Y577276D01*
X486260Y577905D01*
X486692Y578609D01*
X487008Y579373D01*
X487201Y580176D01*
X487250Y581000D01*
X487201Y581824D01*
X487008Y582627D01*
X486692Y583391D01*
X486260Y584095D01*
X485724Y584724D01*
X485095Y585260D01*
X484391Y585692D01*
X483648Y586000D01*
X484391Y586308D01*
X485095Y586740D01*
X485724Y587276D01*
X486260Y587905D01*
X486692Y588609D01*
X487008Y589373D01*
X487201Y590176D01*
X487250Y591000D01*
X487201Y591824D01*
X487008Y592627D01*
X486692Y593391D01*
X486260Y594095D01*
X485724Y594724D01*
X485095Y595260D01*
X484391Y595692D01*
X483648Y596000D01*
X484391Y596308D01*
X485095Y596740D01*
X485724Y597276D01*
X486260Y597905D01*
X486692Y598609D01*
X487008Y599373D01*
X487201Y600176D01*
X487250Y601000D01*
X487201Y601824D01*
X487008Y602627D01*
X486692Y603391D01*
X486260Y604095D01*
X485724Y604724D01*
X485095Y605260D01*
X484391Y605692D01*
X483627Y606008D01*
X482824Y606201D01*
X482000Y606266D01*
Y654082D01*
X482465Y654275D01*
X484075Y655262D01*
X485511Y656489D01*
X486738Y657925D01*
X487725Y659535D01*
X488448Y661280D01*
X488889Y663117D01*
X489000Y665000D01*
X488889Y666883D01*
X488448Y668720D01*
X487725Y670465D01*
X486738Y672075D01*
X485511Y673511D01*
X484075Y674738D01*
X482465Y675725D01*
X482000Y675918D01*
Y682000D01*
G37*
G36*
Y606266D02*X481176Y606201D01*
X480373Y606008D01*
X479609Y605692D01*
X478905Y605260D01*
X478276Y604724D01*
X477740Y604095D01*
X477308Y603391D01*
X476992Y602627D01*
X476981Y602585D01*
Y610957D01*
X477014Y610986D01*
X477449Y611494D01*
X477798Y612065D01*
X478054Y612683D01*
X478211Y613333D01*
X478250Y614000D01*
X478211Y614667D01*
X478054Y615317D01*
X477798Y615935D01*
X477449Y616506D01*
X477014Y617014D01*
X476981Y617043D01*
Y639764D01*
X476985Y639764D01*
X477215Y639819D01*
X477433Y639909D01*
X477634Y640033D01*
X477814Y640186D01*
X477967Y640366D01*
X478091Y640567D01*
X478181Y640785D01*
X478236Y641015D01*
X478250Y641250D01*
X478236Y646985D01*
X478181Y647215D01*
X478091Y647433D01*
X477967Y647634D01*
X477814Y647814D01*
X477634Y647967D01*
X477433Y648091D01*
X477215Y648181D01*
X476985Y648236D01*
X476981Y648236D01*
Y652964D01*
X477000Y652963D01*
X478883Y653111D01*
X480720Y653552D01*
X482000Y654082D01*
Y606266D01*
G37*
G36*
Y542939D02*X481262Y542075D01*
X480275Y540465D01*
X479552Y538720D01*
X479111Y536883D01*
X478963Y535000D01*
X479111Y533117D01*
X479552Y531280D01*
X480275Y529535D01*
X481262Y527925D01*
X482000Y527061D01*
Y452000D01*
X476981D01*
Y569415D01*
X476992Y569373D01*
X477308Y568609D01*
X477740Y567905D01*
X478276Y567276D01*
X478905Y566740D01*
X479609Y566308D01*
X480373Y565992D01*
X481176Y565799D01*
X482000Y565734D01*
Y559243D01*
X479015Y559236D01*
X478785Y559181D01*
X478567Y559091D01*
X478366Y558967D01*
X478186Y558814D01*
X478033Y558634D01*
X477909Y558433D01*
X477819Y558215D01*
X477764Y557985D01*
X477750Y557750D01*
X477764Y552015D01*
X477819Y551785D01*
X477909Y551567D01*
X478033Y551366D01*
X478186Y551186D01*
X478366Y551033D01*
X478567Y550909D01*
X478785Y550819D01*
X479015Y550764D01*
X479250Y550750D01*
X482000Y550757D01*
Y542939D01*
G37*
G36*
X476981Y687019D02*X482000Y682000D01*
Y675918D01*
X480720Y676448D01*
X478883Y676889D01*
X477000Y677037D01*
X476981Y677036D01*
Y687019D01*
G37*
G36*
X471993Y610245D02*X472065Y610202D01*
X472683Y609946D01*
X473333Y609789D01*
X474000Y609737D01*
X474667Y609789D01*
X475317Y609946D01*
X475935Y610202D01*
X476506Y610551D01*
X476981Y610957D01*
Y602585D01*
X476799Y601824D01*
X476734Y601000D01*
X476799Y600176D01*
X476981Y599415D01*
Y592585D01*
X476799Y591824D01*
X476734Y591000D01*
X476799Y590176D01*
X476981Y589415D01*
Y582585D01*
X476799Y581824D01*
X476734Y581000D01*
X476799Y580176D01*
X476981Y579415D01*
Y572585D01*
X476799Y571824D01*
X476734Y571000D01*
X476799Y570176D01*
X476981Y569415D01*
Y452000D01*
X471993D01*
Y550737D01*
X472000Y550737D01*
X472667Y550789D01*
X473317Y550946D01*
X473935Y551202D01*
X474506Y551551D01*
X475014Y551986D01*
X475449Y552494D01*
X475798Y553065D01*
X476054Y553683D01*
X476211Y554333D01*
X476250Y555000D01*
X476211Y555667D01*
X476054Y556317D01*
X475798Y556935D01*
X475449Y557506D01*
X475014Y558014D01*
X474506Y558449D01*
X473935Y558798D01*
X473317Y559054D01*
X472667Y559211D01*
X472000Y559263D01*
X471993Y559263D01*
Y589535D01*
X472054Y589683D01*
X472211Y590333D01*
X472250Y591000D01*
X472211Y591667D01*
X472054Y592317D01*
X471993Y592465D01*
Y610245D01*
G37*
G36*
Y639752D02*X476981Y639764D01*
Y617043D01*
X476506Y617449D01*
X475935Y617798D01*
X475317Y618054D01*
X474667Y618211D01*
X474000Y618263D01*
X473333Y618211D01*
X472683Y618054D01*
X472065Y617798D01*
X471993Y617755D01*
Y639752D01*
G37*
G36*
Y654085D02*X473280Y653552D01*
X475117Y653111D01*
X476981Y652964D01*
Y648236D01*
X476750Y648250D01*
X471993Y648238D01*
Y654085D01*
G37*
G36*
Y692007D02*X476981Y687019D01*
Y677036D01*
X475117Y676889D01*
X473280Y676448D01*
X471993Y675915D01*
Y692007D01*
G37*
G36*
X455992Y708008D02*X471993Y692007D01*
Y675915D01*
X471535Y675725D01*
X469925Y674738D01*
X468489Y673511D01*
X467262Y672075D01*
X466275Y670465D01*
X465552Y668720D01*
X465111Y666883D01*
X464963Y665000D01*
X465111Y663117D01*
X465552Y661280D01*
X466275Y659535D01*
X467262Y657925D01*
X468489Y656489D01*
X469925Y655262D01*
X471535Y654275D01*
X471993Y654085D01*
Y648238D01*
X471015Y648236D01*
X470785Y648181D01*
X470567Y648091D01*
X470366Y647967D01*
X470186Y647814D01*
X470033Y647634D01*
X469909Y647433D01*
X469819Y647215D01*
X469764Y646985D01*
X469750Y646750D01*
X469764Y641015D01*
X469819Y640785D01*
X469909Y640567D01*
X470033Y640366D01*
X470186Y640186D01*
X470366Y640033D01*
X470567Y639909D01*
X470785Y639819D01*
X471015Y639764D01*
X471250Y639750D01*
X471993Y639752D01*
Y617755D01*
X471494Y617449D01*
X470986Y617014D01*
X470551Y616506D01*
X470202Y615935D01*
X469946Y615317D01*
X469789Y614667D01*
X469737Y614000D01*
X469789Y613333D01*
X469946Y612683D01*
X470202Y612065D01*
X470551Y611494D01*
X470986Y610986D01*
X471494Y610551D01*
X471993Y610245D01*
Y592465D01*
X471798Y592935D01*
X471449Y593506D01*
X471014Y594014D01*
X470506Y594449D01*
X469935Y594798D01*
X469317Y595054D01*
X468667Y595211D01*
X468000Y595263D01*
X467333Y595211D01*
X466683Y595054D01*
X466065Y594798D01*
X465494Y594449D01*
X464986Y594014D01*
X464551Y593506D01*
X464202Y592935D01*
X463946Y592317D01*
X463789Y591667D01*
X463737Y591000D01*
X463789Y590333D01*
X463946Y589683D01*
X464202Y589065D01*
X464551Y588494D01*
X464986Y587986D01*
X465494Y587551D01*
X466065Y587202D01*
X466683Y586946D01*
X467333Y586789D01*
X468000Y586737D01*
X468667Y586789D01*
X469317Y586946D01*
X469935Y587202D01*
X470506Y587551D01*
X471014Y587986D01*
X471449Y588494D01*
X471798Y589065D01*
X471993Y589535D01*
Y559263D01*
X471333Y559211D01*
X470683Y559054D01*
X470065Y558798D01*
X469494Y558449D01*
X468986Y558014D01*
X468551Y557506D01*
X468202Y556935D01*
X467946Y556317D01*
X467789Y555667D01*
X467737Y555000D01*
X467789Y554333D01*
X467946Y553683D01*
X468202Y553065D01*
X468551Y552494D01*
X468986Y551986D01*
X469494Y551551D01*
X470065Y551202D01*
X470683Y550946D01*
X471333Y550789D01*
X471993Y550737D01*
Y452000D01*
X455992D01*
Y521757D01*
X459985Y521764D01*
X460215Y521819D01*
X460433Y521909D01*
X460634Y522033D01*
X460814Y522186D01*
X460967Y522366D01*
X461091Y522567D01*
X461181Y522785D01*
X461236Y523015D01*
X461250Y523250D01*
X461236Y530985D01*
X461181Y531215D01*
X461091Y531433D01*
X460967Y531634D01*
X460814Y531814D01*
X460634Y531967D01*
X460433Y532091D01*
X460215Y532181D01*
X459985Y532236D01*
X459750Y532250D01*
X458245Y532247D01*
X458391Y532308D01*
X459095Y532740D01*
X459724Y533276D01*
X460260Y533905D01*
X460692Y534609D01*
X461008Y535373D01*
X461201Y536176D01*
X461250Y537000D01*
X461201Y537824D01*
X461008Y538627D01*
X460692Y539391D01*
X460260Y540095D01*
X459724Y540724D01*
X459095Y541260D01*
X458391Y541692D01*
X457648Y542000D01*
X458391Y542308D01*
X459095Y542740D01*
X459724Y543276D01*
X460260Y543905D01*
X460692Y544609D01*
X461008Y545373D01*
X461201Y546176D01*
X461250Y547000D01*
X461201Y547824D01*
X461008Y548627D01*
X460692Y549391D01*
X460260Y550095D01*
X459724Y550724D01*
X459095Y551260D01*
X458391Y551692D01*
X457648Y552000D01*
X458391Y552308D01*
X459095Y552740D01*
X459724Y553276D01*
X460260Y553905D01*
X460692Y554609D01*
X461008Y555373D01*
X461201Y556176D01*
X461250Y557000D01*
X461201Y557824D01*
X461008Y558627D01*
X460692Y559391D01*
X460260Y560095D01*
X459724Y560724D01*
X459095Y561260D01*
X458391Y561692D01*
X457627Y562008D01*
X456824Y562201D01*
X456000Y562266D01*
X455992Y562266D01*
Y628757D01*
X459985Y628764D01*
X460215Y628819D01*
X460433Y628909D01*
X460634Y629033D01*
X460814Y629186D01*
X460967Y629366D01*
X461091Y629567D01*
X461181Y629785D01*
X461236Y630015D01*
X461250Y630250D01*
X461236Y637985D01*
X461181Y638215D01*
X461091Y638433D01*
X460967Y638634D01*
X460814Y638814D01*
X460634Y638967D01*
X460433Y639091D01*
X460215Y639181D01*
X459985Y639236D01*
X459750Y639250D01*
X458245Y639247D01*
X458391Y639308D01*
X459095Y639740D01*
X459724Y640276D01*
X460260Y640905D01*
X460692Y641609D01*
X461008Y642373D01*
X461201Y643176D01*
X461250Y644000D01*
X461201Y644824D01*
X461008Y645627D01*
X460692Y646391D01*
X460260Y647095D01*
X459724Y647724D01*
X459095Y648260D01*
X458391Y648692D01*
X457648Y649000D01*
X458391Y649308D01*
X459095Y649740D01*
X459724Y650276D01*
X460260Y650905D01*
X460692Y651609D01*
X461008Y652373D01*
X461201Y653176D01*
X461250Y654000D01*
X461201Y654824D01*
X461008Y655627D01*
X460692Y656391D01*
X460260Y657095D01*
X459724Y657724D01*
X459095Y658260D01*
X458391Y658692D01*
X457648Y659000D01*
X458391Y659308D01*
X459095Y659740D01*
X459724Y660276D01*
X460260Y660905D01*
X460692Y661609D01*
X461008Y662373D01*
X461201Y663176D01*
X461250Y664000D01*
X461201Y664824D01*
X461008Y665627D01*
X460692Y666391D01*
X460260Y667095D01*
X459724Y667724D01*
X459095Y668260D01*
X458391Y668692D01*
X457627Y669008D01*
X456824Y669201D01*
X456000Y669266D01*
X455992Y669266D01*
Y708008D01*
G37*
G36*
X357000Y737000D02*X427000D01*
X455992Y708008D01*
Y669266D01*
X455176Y669201D01*
X454373Y669008D01*
X453609Y668692D01*
X452905Y668260D01*
X452276Y667724D01*
X451740Y667095D01*
X451308Y666391D01*
X450992Y665627D01*
X450799Y664824D01*
X450734Y664000D01*
X450799Y663176D01*
X450992Y662373D01*
X451308Y661609D01*
X451740Y660905D01*
X452276Y660276D01*
X452905Y659740D01*
X453609Y659308D01*
X454352Y659000D01*
X453609Y658692D01*
X452905Y658260D01*
X452276Y657724D01*
X451740Y657095D01*
X451308Y656391D01*
X450992Y655627D01*
X450799Y654824D01*
X450734Y654000D01*
X450799Y653176D01*
X450992Y652373D01*
X451308Y651609D01*
X451740Y650905D01*
X452276Y650276D01*
X452905Y649740D01*
X453609Y649308D01*
X454352Y649000D01*
X453609Y648692D01*
X452905Y648260D01*
X452276Y647724D01*
X451740Y647095D01*
X451308Y646391D01*
X450992Y645627D01*
X450799Y644824D01*
X450734Y644000D01*
X450799Y643176D01*
X450992Y642373D01*
X451308Y641609D01*
X451740Y640905D01*
X452276Y640276D01*
X452905Y639740D01*
X453609Y639308D01*
X453775Y639239D01*
X452015Y639236D01*
X451785Y639181D01*
X451567Y639091D01*
X451366Y638967D01*
X451186Y638814D01*
X451033Y638634D01*
X450909Y638433D01*
X450819Y638215D01*
X450764Y637985D01*
X450750Y637750D01*
X450764Y630015D01*
X450819Y629785D01*
X450909Y629567D01*
X451033Y629366D01*
X451186Y629186D01*
X451366Y629033D01*
X451567Y628909D01*
X451785Y628819D01*
X452015Y628764D01*
X452250Y628750D01*
X455992Y628757D01*
Y562266D01*
X455176Y562201D01*
X454373Y562008D01*
X453609Y561692D01*
X452905Y561260D01*
X452276Y560724D01*
X451740Y560095D01*
X451308Y559391D01*
X450992Y558627D01*
X450799Y557824D01*
X450734Y557000D01*
X450799Y556176D01*
X450992Y555373D01*
X451308Y554609D01*
X451740Y553905D01*
X452276Y553276D01*
X452905Y552740D01*
X453609Y552308D01*
X454352Y552000D01*
X453609Y551692D01*
X452905Y551260D01*
X452276Y550724D01*
X451740Y550095D01*
X451308Y549391D01*
X450992Y548627D01*
X450799Y547824D01*
X450734Y547000D01*
X450799Y546176D01*
X450992Y545373D01*
X451308Y544609D01*
X451740Y543905D01*
X452276Y543276D01*
X452905Y542740D01*
X453609Y542308D01*
X454352Y542000D01*
X453609Y541692D01*
X452905Y541260D01*
X452276Y540724D01*
X451740Y540095D01*
X451308Y539391D01*
X450992Y538627D01*
X450799Y537824D01*
X450734Y537000D01*
X450799Y536176D01*
X450992Y535373D01*
X451308Y534609D01*
X451740Y533905D01*
X452276Y533276D01*
X452905Y532740D01*
X453609Y532308D01*
X453775Y532239D01*
X452015Y532236D01*
X451785Y532181D01*
X451567Y532091D01*
X451366Y531967D01*
X451186Y531814D01*
X451033Y531634D01*
X450909Y531433D01*
X450819Y531215D01*
X450764Y530985D01*
X450750Y530750D01*
X450764Y523015D01*
X450819Y522785D01*
X450909Y522567D01*
X451033Y522366D01*
X451186Y522186D01*
X451366Y522033D01*
X451567Y521909D01*
X451785Y521819D01*
X452015Y521764D01*
X452250Y521750D01*
X455992Y521757D01*
Y452000D01*
X357000D01*
Y468757D01*
X359985Y468764D01*
X360215Y468819D01*
X360433Y468909D01*
X360634Y469033D01*
X360814Y469186D01*
X360967Y469366D01*
X361091Y469567D01*
X361181Y469785D01*
X361236Y470015D01*
X361250Y470250D01*
X361236Y475985D01*
X361181Y476215D01*
X361091Y476433D01*
X360967Y476634D01*
X360814Y476814D01*
X360634Y476967D01*
X360433Y477091D01*
X360215Y477181D01*
X359985Y477236D01*
X359750Y477250D01*
X357000Y477243D01*
Y481000D01*
X444000D01*
Y669000D01*
X415000Y698000D01*
X357000D01*
Y737000D01*
G37*
G36*
Y452000D02*X265993D01*
Y453737D01*
X266000Y453737D01*
X266667Y453789D01*
X267317Y453946D01*
X267935Y454202D01*
X268506Y454551D01*
X269014Y454986D01*
X269449Y455494D01*
X269798Y456065D01*
X270054Y456683D01*
X270211Y457333D01*
X270250Y458000D01*
X270211Y458667D01*
X270054Y459317D01*
X269798Y459935D01*
X269449Y460506D01*
X269014Y461014D01*
X268506Y461449D01*
X267935Y461798D01*
X267317Y462054D01*
X266667Y462211D01*
X266000Y462263D01*
X265993Y462263D01*
Y481000D01*
X357000D01*
Y477243D01*
X354015Y477236D01*
X353785Y477181D01*
X353567Y477091D01*
X353366Y476967D01*
X353186Y476814D01*
X353033Y476634D01*
X352909Y476433D01*
X352819Y476215D01*
X352764Y475985D01*
X352750Y475750D01*
X352764Y470015D01*
X352819Y469785D01*
X352909Y469567D01*
X353033Y469366D01*
X353186Y469186D01*
X353366Y469033D01*
X353567Y468909D01*
X353785Y468819D01*
X354015Y468764D01*
X354250Y468750D01*
X357000Y468757D01*
Y452000D01*
G37*
G36*
X265993D02*X241000D01*
Y470352D01*
X241308Y469609D01*
X241740Y468905D01*
X242276Y468276D01*
X242905Y467740D01*
X243609Y467308D01*
X244373Y466992D01*
X245176Y466799D01*
X246000Y466734D01*
X246824Y466799D01*
X247627Y466992D01*
X248391Y467308D01*
X249095Y467740D01*
X249724Y468276D01*
X250260Y468905D01*
X250692Y469609D01*
X251000Y470352D01*
X251308Y469609D01*
X251740Y468905D01*
X252276Y468276D01*
X252905Y467740D01*
X253609Y467308D01*
X254373Y466992D01*
X255176Y466799D01*
X256000Y466734D01*
X256824Y466799D01*
X257627Y466992D01*
X258391Y467308D01*
X259095Y467740D01*
X259724Y468276D01*
X260260Y468905D01*
X260692Y469609D01*
X261008Y470373D01*
X261201Y471176D01*
X261250Y472000D01*
X261201Y472824D01*
X261008Y473627D01*
X260692Y474391D01*
X260260Y475095D01*
X259724Y475724D01*
X259095Y476260D01*
X258391Y476692D01*
X257627Y477008D01*
X256824Y477201D01*
X256000Y477266D01*
X255176Y477201D01*
X254373Y477008D01*
X253609Y476692D01*
X252905Y476260D01*
X252276Y475724D01*
X251740Y475095D01*
X251308Y474391D01*
X251000Y473648D01*
X250692Y474391D01*
X250260Y475095D01*
X249724Y475724D01*
X249095Y476260D01*
X248391Y476692D01*
X247627Y477008D01*
X246824Y477201D01*
X246000Y477266D01*
X245176Y477201D01*
X244373Y477008D01*
X243609Y476692D01*
X242905Y476260D01*
X242276Y475724D01*
X241740Y475095D01*
X241308Y474391D01*
X241000Y473648D01*
Y481000D01*
X265993D01*
Y462263D01*
X265333Y462211D01*
X264683Y462054D01*
X264065Y461798D01*
X263494Y461449D01*
X262986Y461014D01*
X262551Y460506D01*
X262202Y459935D01*
X261946Y459317D01*
X261789Y458667D01*
X261737Y458000D01*
X261789Y457333D01*
X261946Y456683D01*
X262202Y456065D01*
X262551Y455494D01*
X262986Y454986D01*
X263494Y454551D01*
X264065Y454202D01*
X264683Y453946D01*
X265333Y453789D01*
X265993Y453737D01*
Y452000D01*
G37*
G36*
X263993Y737000D02*X357000D01*
Y698000D01*
X263993D01*
Y727737D01*
X264000Y727737D01*
X264667Y727789D01*
X265317Y727946D01*
X265935Y728202D01*
X266506Y728551D01*
X267014Y728986D01*
X267449Y729494D01*
X267798Y730065D01*
X268054Y730683D01*
X268211Y731333D01*
X268250Y732000D01*
X268211Y732667D01*
X268054Y733317D01*
X267798Y733935D01*
X267449Y734506D01*
X267014Y735014D01*
X266506Y735449D01*
X265935Y735798D01*
X265317Y736054D01*
X264667Y736211D01*
X264000Y736263D01*
X263993Y736263D01*
Y737000D01*
G37*
G36*
X241000D02*X263993D01*
Y736263D01*
X263333Y736211D01*
X262683Y736054D01*
X262065Y735798D01*
X261494Y735449D01*
X260986Y735014D01*
X260551Y734506D01*
X260202Y733935D01*
X259946Y733317D01*
X259789Y732667D01*
X259737Y732000D01*
X259789Y731333D01*
X259946Y730683D01*
X260202Y730065D01*
X260551Y729494D01*
X260986Y728986D01*
X261494Y728551D01*
X262065Y728202D01*
X262683Y727946D01*
X263333Y727789D01*
X263993Y727737D01*
Y698000D01*
X262000D01*
X251000Y709000D01*
X248581D01*
X248634Y709033D01*
X248814Y709186D01*
X248967Y709366D01*
X249091Y709567D01*
X249181Y709785D01*
X249236Y710015D01*
X249250Y710250D01*
X249236Y717985D01*
X249181Y718215D01*
X249091Y718433D01*
X248967Y718634D01*
X248814Y718814D01*
X248634Y718967D01*
X248433Y719091D01*
X248215Y719181D01*
X247985Y719236D01*
X247750Y719250D01*
X241000Y719238D01*
Y737000D01*
G37*
G36*
X236000Y481000D02*X241000D01*
Y473648D01*
X240692Y474391D01*
X240260Y475095D01*
X239724Y475724D01*
X239095Y476260D01*
X238391Y476692D01*
X237627Y477008D01*
X236824Y477201D01*
X236000Y477266D01*
Y481000D01*
G37*
G36*
X241000Y452000D02*X236000D01*
Y453757D01*
X238985Y453764D01*
X239215Y453819D01*
X239433Y453909D01*
X239634Y454033D01*
X239814Y454186D01*
X239967Y454366D01*
X240091Y454567D01*
X240181Y454785D01*
X240236Y455015D01*
X240250Y455250D01*
X240236Y460985D01*
X240181Y461215D01*
X240091Y461433D01*
X239967Y461634D01*
X239814Y461814D01*
X239634Y461967D01*
X239433Y462091D01*
X239215Y462181D01*
X238985Y462236D01*
X238750Y462250D01*
X236000Y462243D01*
Y466734D01*
X236824Y466799D01*
X237627Y466992D01*
X238391Y467308D01*
X239095Y467740D01*
X239724Y468276D01*
X240260Y468905D01*
X240692Y469609D01*
X241000Y470352D01*
Y452000D01*
G37*
G36*
X236000D02*X231000D01*
X219000Y464000D01*
Y481000D01*
X236000D01*
Y477266D01*
X235176Y477201D01*
X234373Y477008D01*
X233609Y476692D01*
X232905Y476260D01*
X232276Y475724D01*
X231740Y475095D01*
X231308Y474391D01*
X231239Y474225D01*
X231236Y475985D01*
X231181Y476215D01*
X231091Y476433D01*
X230967Y476634D01*
X230814Y476814D01*
X230634Y476967D01*
X230433Y477091D01*
X230215Y477181D01*
X229985Y477236D01*
X229750Y477250D01*
X222015Y477236D01*
X221785Y477181D01*
X221567Y477091D01*
X221366Y476967D01*
X221186Y476814D01*
X221033Y476634D01*
X220909Y476433D01*
X220819Y476215D01*
X220764Y475985D01*
X220750Y475750D01*
X220764Y468015D01*
X220819Y467785D01*
X220909Y467567D01*
X221033Y467366D01*
X221186Y467186D01*
X221366Y467033D01*
X221567Y466909D01*
X221785Y466819D01*
X222015Y466764D01*
X222250Y466750D01*
X229985Y466764D01*
X230215Y466819D01*
X230433Y466909D01*
X230634Y467033D01*
X230814Y467186D01*
X230967Y467366D01*
X231091Y467567D01*
X231181Y467785D01*
X231236Y468015D01*
X231250Y468250D01*
X231247Y469755D01*
X231308Y469609D01*
X231740Y468905D01*
X232276Y468276D01*
X232905Y467740D01*
X233609Y467308D01*
X234373Y466992D01*
X235176Y466799D01*
X236000Y466734D01*
Y462243D01*
X233015Y462236D01*
X232785Y462181D01*
X232567Y462091D01*
X232366Y461967D01*
X232186Y461814D01*
X232033Y461634D01*
X231909Y461433D01*
X231819Y461215D01*
X231764Y460985D01*
X231750Y460750D01*
X231764Y455015D01*
X231819Y454785D01*
X231909Y454567D01*
X232033Y454366D01*
X232186Y454186D01*
X232366Y454033D01*
X232567Y453909D01*
X232785Y453819D01*
X233015Y453764D01*
X233250Y453750D01*
X236000Y453757D01*
Y452000D01*
G37*
G36*
X234000Y737000D02*X241000D01*
Y719238D01*
X240015Y719236D01*
X239785Y719181D01*
X239567Y719091D01*
X239366Y718967D01*
X239186Y718814D01*
X239033Y718634D01*
X238909Y718433D01*
X238819Y718215D01*
X238764Y717985D01*
X238750Y717750D01*
X238753Y716245D01*
X238692Y716391D01*
X238260Y717095D01*
X237724Y717724D01*
X237095Y718260D01*
X236391Y718692D01*
X235627Y719008D01*
X234824Y719201D01*
X234000Y719266D01*
Y727757D01*
X236985Y727764D01*
X237215Y727819D01*
X237433Y727909D01*
X237634Y728033D01*
X237814Y728186D01*
X237967Y728366D01*
X238091Y728567D01*
X238181Y728785D01*
X238236Y729015D01*
X238250Y729250D01*
X238236Y734985D01*
X238181Y735215D01*
X238091Y735433D01*
X237967Y735634D01*
X237814Y735814D01*
X237634Y735967D01*
X237433Y736091D01*
X237215Y736181D01*
X236985Y736236D01*
X236750Y736250D01*
X234000Y736243D01*
Y737000D01*
G37*
G36*
X194000Y709000D02*X222000Y737000D01*
X234000D01*
Y736243D01*
X231015Y736236D01*
X230785Y736181D01*
X230567Y736091D01*
X230366Y735967D01*
X230186Y735814D01*
X230033Y735634D01*
X229909Y735433D01*
X229819Y735215D01*
X229764Y734985D01*
X229750Y734750D01*
X229764Y729015D01*
X229819Y728785D01*
X229909Y728567D01*
X230033Y728366D01*
X230186Y728186D01*
X230366Y728033D01*
X230567Y727909D01*
X230785Y727819D01*
X231015Y727764D01*
X231250Y727750D01*
X234000Y727757D01*
Y719266D01*
X233176Y719201D01*
X232373Y719008D01*
X231609Y718692D01*
X230905Y718260D01*
X230276Y717724D01*
X229740Y717095D01*
X229308Y716391D01*
X229000Y715648D01*
X228692Y716391D01*
X228260Y717095D01*
X227724Y717724D01*
X227095Y718260D01*
X226391Y718692D01*
X225627Y719008D01*
X224824Y719201D01*
X224000Y719266D01*
X223176Y719201D01*
X222373Y719008D01*
X221609Y718692D01*
X220905Y718260D01*
X220276Y717724D01*
X219740Y717095D01*
X219308Y716391D01*
X219000Y715648D01*
X218692Y716391D01*
X218260Y717095D01*
X217724Y717724D01*
X217095Y718260D01*
X216391Y718692D01*
X215627Y719008D01*
X214824Y719201D01*
X214000Y719266D01*
X213176Y719201D01*
X212373Y719008D01*
X211609Y718692D01*
X210905Y718260D01*
X210276Y717724D01*
X209740Y717095D01*
X209308Y716391D01*
X208992Y715627D01*
X208799Y714824D01*
X208734Y714000D01*
X208799Y713176D01*
X208992Y712373D01*
X209308Y711609D01*
X209740Y710905D01*
X210276Y710276D01*
X210905Y709740D01*
X211609Y709308D01*
X212352Y709000D01*
X194000D01*
G37*
G54D29*X209000Y492000D02*X206000D01*
X212000D01*
X256000Y502000D02*Y505000D01*
Y499000D01*
G54D30*X252000Y507000D02*Y496000D01*
G54D29*X246000Y472000D02*Y476000D01*
Y468000D01*
G54D30*X242000Y476000D02*Y467000D01*
X250000D02*Y479000D01*
X261000Y508000D02*Y497000D01*
G54D29*X317000Y527000D02*X308000D01*
X317000Y534000D02*Y520000D01*
X322000Y490000D02*Y493000D01*
Y490000D02*X321000D01*
G54D30*X326000Y492000D02*Y488000D01*
X324000Y486000D01*
G54D29*X416000Y515000D02*Y505000D01*
X426000Y557000D02*X422000D01*
X429000D01*
G54D30*X422000Y562000D02*X430000D01*
X422000Y553000D02*X431000D01*
G54D29*X494000Y488000D02*X502000D01*
Y489000D01*
X496000Y495000D01*
X492000D01*
X486000Y489000D01*
Y487000D01*
X492000Y481000D01*
X500000D01*
X456000Y547000D02*X451000D01*
X460000D01*
X472000Y555000D02*Y560000D01*
Y550000D01*
G54D30*X451000Y551000D02*X460000D01*
X451000Y543000D02*X462000D01*
G54D29*X537000Y537000D02*Y546000D01*
Y528000D01*
X585000Y556000D02*Y560000D01*
Y551000D01*
X539000Y558000D02*X543000D01*
X605000Y601000D02*X600000D01*
X607000D01*
X512000D02*X508000D01*
X515000D01*
G54D30*X600000Y606000D02*X609000D01*
X600000Y597000D02*X609000D01*
X507000D02*X518000D01*
G54D29*X539000Y563000D02*Y553000D01*
X317000Y654000D02*X309000D01*
X317000Y661000D02*Y647000D01*
X322000Y685000D02*Y682000D01*
Y685000D02*X321000D01*
G54D30*X326000Y683000D02*Y687000D01*
X210000Y679000D02*Y688000D01*
X209000Y687000D02*Y680000D01*
G54D29*X416000Y618000D02*Y624000D01*
Y612000D01*
X426000Y664000D02*X421000D01*
X428000D01*
G54D30*X421000Y660000D02*X430000D01*
X421000Y669000D02*X430000D01*
G54D29*X456000Y654000D02*X452000D01*
X460000D01*
G54D30*X452000Y658000D02*X462000D01*
X451000Y650000D02*X463000D01*
G54D29*X214000Y684000D02*Y686000D01*
X224000Y714000D02*Y717000D01*
Y713000D01*
Y714000D02*X223000D01*
X214000Y686000D02*Y683000D01*
X259000Y674000D02*X262000D01*
X256000D01*
G54D30*X218000Y689000D02*Y677000D01*
X228000Y718000D02*Y712000D01*
X227000Y711000D01*
G54D29*X57000Y513000D02*X54000D01*
X50000Y509000D01*
Y502000D01*
X56000Y505000D02*X64000D01*
X65000Y506000D01*
X64000D01*
X57000Y513000D01*
X50000Y502000D02*X53000Y499000D01*
X63000D01*
G54D31*X605000Y601000D03*
G54D28*G36*
X601250Y574750D02*Y567250D01*
X608750D01*
Y574750D01*
X601250D01*
G37*
G54D31*X605000Y581000D03*
Y591000D03*
G54D32*X585000Y556000D03*
G54D28*G36*
X354250Y475750D02*Y470250D01*
X359750D01*
Y475750D01*
X354250D01*
G37*
G54D32*X357000Y503000D03*
G54D29*X393000Y547000D03*
Y527000D03*
G54D28*G36*
X413250Y512750D02*Y507250D01*
X418750D01*
Y512750D01*
X413250D01*
G37*
G54D32*X426000Y510000D03*
G54D31*Y557000D03*
Y547000D03*
Y537000D03*
Y527000D03*
G54D33*X544142Y642000D03*
X511661D03*
G54D32*X474000Y614000D03*
G54D28*G36*
X471250Y646750D02*Y641250D01*
X476750D01*
Y646750D01*
X471250D01*
G37*
G36*
X452250Y637750D02*Y630250D01*
X459750D01*
Y637750D01*
X452250D01*
G37*
G54D31*X456000Y644000D03*
Y654000D03*
Y664000D03*
G54D29*X393000Y654000D03*
Y634000D03*
G54D28*G36*
X435250Y593750D02*Y588250D01*
X440750D01*
Y593750D01*
X435250D01*
G37*
G36*
X413250Y620750D02*Y615250D01*
X418750D01*
Y620750D01*
X413250D01*
G37*
G54D32*X426000Y618000D03*
G54D31*Y664000D03*
Y654000D03*
Y644000D03*
Y634000D03*
G54D34*X575000Y571000D03*
G54D28*G36*
X572250Y558750D02*Y553250D01*
X577750D01*
Y558750D01*
X572250D01*
G37*
G54D33*X526142Y488000D03*
X493661D03*
G54D31*X575000Y601000D03*
Y591000D03*
G54D34*Y581000D03*
G54D32*X559000D03*
Y591000D03*
G54D28*G36*
X542500Y541500D02*Y532500D01*
X551500D01*
Y541500D01*
X542500D01*
G37*
G54D29*X537000Y537000D03*
X527000D03*
G54D28*G36*
X536250Y560750D02*Y555250D01*
X541750D01*
Y560750D01*
X536250D01*
G37*
G54D32*X529000Y558000D03*
G54D28*G36*
X452250Y530750D02*Y523250D01*
X459750D01*
Y530750D01*
X452250D01*
G37*
G54D31*X456000Y537000D03*
Y547000D03*
Y557000D03*
G54D28*G36*
X479250Y557750D02*Y552250D01*
X484750D01*
Y557750D01*
X479250D01*
G37*
G54D32*X472000Y555000D03*
X468000Y591000D03*
G54D31*X482000Y601000D03*
Y591000D03*
G54D28*G36*
X508250Y574750D02*Y567250D01*
X515750D01*
Y574750D01*
X508250D01*
G37*
G54D31*X512000Y601000D03*
G54D28*G36*
X526250Y583750D02*Y578250D01*
X531750D01*
Y583750D01*
X526250D01*
G37*
G36*
Y593750D02*Y588250D01*
X531750D01*
Y593750D01*
X526250D01*
G37*
G54D31*X512000Y581000D03*
Y591000D03*
X482000Y581000D03*
Y571000D03*
G54D29*X136000Y527000D03*
G54D28*G36*
X90250Y510750D02*Y505250D01*
X95750D01*
Y510750D01*
X90250D01*
G37*
G54D32*X93000Y538000D03*
G54D33*X56000Y538142D03*
Y505661D03*
G54D29*X136000Y654000D03*
G54D28*G36*
X78250Y667750D02*Y662250D01*
X83750D01*
Y667750D01*
X78250D01*
G37*
G54D32*X81000Y635000D03*
G54D33*X44858Y591000D03*
X77339D03*
G54D28*G36*
X332500Y531500D02*Y522500D01*
X341500D01*
Y531500D01*
X332500D01*
G37*
G54D29*X327000Y527000D03*
X317000D03*
G54D31*X236000Y472000D03*
X246000D03*
X256000D03*
G54D32*X266000Y458000D03*
G54D28*G36*
X151500Y658500D02*Y649500D01*
X160500D01*
Y658500D01*
X151500D01*
G37*
G54D35*X151000Y685000D03*
G54D29*X226000Y654000D03*
G54D28*G36*
X329500Y687500D02*Y682500D01*
X334500D01*
Y687500D01*
X329500D01*
G37*
G54D35*X322000Y685000D03*
G54D28*G36*
X353250Y687750D02*Y682250D01*
X358750D01*
Y687750D01*
X353250D01*
G37*
G54D29*X246000Y654000D03*
G54D32*X356000Y655000D03*
G54D28*G36*
X332500Y658500D02*Y649500D01*
X341500D01*
Y658500D01*
X332500D01*
G37*
G54D29*X327000Y654000D03*
X317000D03*
X146000D03*
G54D28*G36*
X138500Y687500D02*Y682500D01*
X143500D01*
Y687500D01*
X138500D01*
G37*
G54D31*X214000Y684000D03*
G54D28*G36*
X231250Y734750D02*Y729250D01*
X236750D01*
Y734750D01*
X231250D01*
G37*
G54D32*X264000Y732000D03*
G54D28*G36*
X240250Y717750D02*Y710250D01*
X247750D01*
Y717750D01*
X240250D01*
G37*
G54D31*X234000Y714000D03*
X224000D03*
X214000D03*
G54D33*X236000Y610142D03*
Y577661D03*
G54D28*G36*
X256250Y676750D02*Y671250D01*
X261750D01*
Y676750D01*
X256250D01*
G37*
G54D32*X259000Y684000D03*
G54D31*X224000D03*
X234000D03*
X244000D03*
G54D28*G36*
X138500Y492500D02*Y487500D01*
X143500D01*
Y492500D01*
X138500D01*
G37*
G54D35*X151000Y490000D03*
G54D28*G36*
X329500Y492500D02*Y487500D01*
X334500D01*
Y492500D01*
X329500D01*
G37*
G54D35*X322000Y490000D03*
G54D28*G36*
X206250Y494750D02*Y489250D01*
X211750D01*
Y494750D01*
X206250D01*
G37*
G54D32*X209000Y502000D03*
G54D31*X256000D03*
X246000D03*
X236000D03*
X226000D03*
G54D28*G36*
X222250Y475750D02*Y468250D01*
X229750D01*
Y475750D01*
X222250D01*
G37*
G36*
X233250Y460750D02*Y455250D01*
X238750D01*
Y460750D01*
X233250D01*
G37*
G36*
X151500Y531500D02*Y522500D01*
X160500D01*
Y531500D01*
X151500D01*
G37*
G54D29*X146000Y527000D03*
X246000D03*
X226000D03*
G54D36*X354000Y619000D03*
Y554000D03*
X477000Y665000D03*
X491000Y535000D03*
X50000Y642000D03*
X107000Y478000D03*
G54D37*G54D38*G54D39*G54D40*G54D39*G54D38*G54D41*G54D39*G54D38*G54D40*G54D39*G54D38*G54D39*G54D41*G54D38*G54D39*G54D35*G54D39*G54D38*G54D39*G54D38*G54D39*G54D38*G54D35*G54D39*G54D41*G54D35*G54D39*G54D41*G54D35*G54D38*G54D39*G54D35*G54D42*G54D40*G54D42*G54D39*G54D40*G54D39*G54D35*G54D42*G54D38*G54D39*G54D38*G54D41*G54D39*G54D38*G54D42*G54D39*G54D38*G54D39*G54D35*G54D40*M02*
