G04 start of page 2 for group 0 idx 0 *
G04 Title: (unknown), component *
G04 Creator: pcb 20110918 *
G04 CreationDate: Tue 16 Jul 2013 01:33:09 AM GMT UTC *
G04 For: root *
G04 Format: Gerber/RS-274X *
G04 PCB-Dimensions: 270000 560000 *
G04 PCB-Coordinate-Origin: lower left *
%MOIN*%
%FSLAX25Y25*%
%LNTOP*%
%ADD25C,0.0787*%
%ADD24C,0.0430*%
%ADD23C,0.0280*%
%ADD22C,0.0300*%
%ADD21C,0.1350*%
%ADD20C,0.1500*%
%ADD19C,0.0600*%
%ADD18C,0.1575*%
%ADD17C,0.0750*%
%ADD16C,0.0700*%
%ADD15C,0.0650*%
%ADD14C,0.0100*%
%ADD13C,0.0400*%
%ADD12C,0.0900*%
%ADD11C,0.0001*%
G54D11*G36*
X108844Y30135D02*X109215Y30046D01*
X109892Y29993D01*
X108844Y29991D01*
Y30135D01*
G37*
G36*
Y40135D02*X109215Y40046D01*
X109804Y40000D01*
X109215Y39954D01*
X108844Y39865D01*
Y40135D01*
G37*
G36*
Y50135D02*X109215Y50046D01*
X109804Y50000D01*
X109215Y49954D01*
X108844Y49865D01*
Y50135D01*
G37*
G36*
X237986Y203014D02*X267000Y174000D01*
Y72000D01*
X254000Y59000D01*
X237986D01*
Y82139D01*
X238000Y82138D01*
X239392Y82247D01*
X240751Y82573D01*
X242041Y83108D01*
X243232Y83838D01*
X244294Y84745D01*
X245201Y85807D01*
X245931Y86998D01*
X246466Y88288D01*
X246792Y89647D01*
X246874Y91039D01*
X246792Y92431D01*
X246466Y93790D01*
X245931Y95080D01*
X245201Y96271D01*
X244294Y97333D01*
X243232Y98240D01*
X242041Y98970D01*
X240751Y99505D01*
X239392Y99831D01*
X238000Y99940D01*
X237986Y99939D01*
Y114620D01*
X238000Y114619D01*
X239392Y114728D01*
X240751Y115054D01*
X242041Y115589D01*
X243232Y116319D01*
X244294Y117226D01*
X245201Y118288D01*
X245931Y119479D01*
X246466Y120769D01*
X246792Y122128D01*
X246874Y123520D01*
X246792Y124912D01*
X246466Y126271D01*
X245931Y127561D01*
X245201Y128752D01*
X244294Y129814D01*
X243232Y130721D01*
X242041Y131451D01*
X240751Y131986D01*
X239392Y132312D01*
X238000Y132421D01*
X237986Y132420D01*
Y147100D01*
X238000Y147099D01*
X239392Y147208D01*
X240751Y147534D01*
X242041Y148069D01*
X243232Y148799D01*
X244294Y149706D01*
X245201Y150768D01*
X245931Y151959D01*
X246466Y153249D01*
X246792Y154608D01*
X246874Y156000D01*
X246792Y157392D01*
X246466Y158751D01*
X245931Y160041D01*
X245201Y161232D01*
X244294Y162294D01*
X243232Y163201D01*
X242041Y163931D01*
X240751Y164466D01*
X239392Y164792D01*
X238000Y164901D01*
X237986Y164900D01*
Y203014D01*
G37*
G36*
X215991Y531000D02*X232000D01*
Y486000D01*
X227000Y481000D01*
Y214000D01*
X237986Y203014D01*
Y164900D01*
X236608Y164792D01*
X235249Y164466D01*
X233959Y163931D01*
X232768Y163201D01*
X231706Y162294D01*
X230799Y161232D01*
X230069Y160041D01*
X229534Y158751D01*
X229208Y157392D01*
X229099Y156000D01*
X229208Y154608D01*
X229534Y153249D01*
X230069Y151959D01*
X230799Y150768D01*
X231706Y149706D01*
X232768Y148799D01*
X233959Y148069D01*
X235249Y147534D01*
X236608Y147208D01*
X237986Y147100D01*
Y132420D01*
X236608Y132312D01*
X235249Y131986D01*
X233959Y131451D01*
X232768Y130721D01*
X231706Y129814D01*
X230799Y128752D01*
X230069Y127561D01*
X229534Y126271D01*
X229208Y124912D01*
X229099Y123520D01*
X229208Y122128D01*
X229534Y120769D01*
X230069Y119479D01*
X230799Y118288D01*
X231706Y117226D01*
X232768Y116319D01*
X233959Y115589D01*
X235249Y115054D01*
X236608Y114728D01*
X237986Y114620D01*
Y99939D01*
X236608Y99831D01*
X235249Y99505D01*
X233959Y98970D01*
X232768Y98240D01*
X231706Y97333D01*
X230799Y96271D01*
X230069Y95080D01*
X229534Y93790D01*
X229208Y92431D01*
X229099Y91039D01*
X229208Y89647D01*
X229534Y88288D01*
X230069Y86998D01*
X230799Y85807D01*
X231706Y84745D01*
X232768Y83838D01*
X233959Y83108D01*
X235249Y82573D01*
X236608Y82247D01*
X237986Y82139D01*
Y59000D01*
X215991D01*
Y491982D01*
X216000Y491981D01*
X216942Y492056D01*
X217860Y492276D01*
X218732Y492637D01*
X219538Y493131D01*
X220256Y493744D01*
X220869Y494462D01*
X221363Y495268D01*
X221724Y496140D01*
X221944Y497058D01*
X222000Y498000D01*
X221944Y498942D01*
X221724Y499860D01*
X221363Y500732D01*
X220869Y501538D01*
X220256Y502256D01*
X219538Y502869D01*
X219324Y503000D01*
X219538Y503131D01*
X220256Y503744D01*
X220869Y504462D01*
X221363Y505268D01*
X221724Y506140D01*
X221944Y507058D01*
X222000Y508000D01*
X221944Y508942D01*
X221724Y509860D01*
X221363Y510732D01*
X220869Y511538D01*
X220463Y512013D01*
X220735Y512014D01*
X220965Y512069D01*
X221183Y512159D01*
X221384Y512283D01*
X221564Y512436D01*
X221717Y512616D01*
X221841Y512817D01*
X221931Y513035D01*
X221986Y513265D01*
X222000Y513500D01*
X221986Y522735D01*
X221931Y522965D01*
X221841Y523183D01*
X221717Y523384D01*
X221564Y523564D01*
X221384Y523717D01*
X221183Y523841D01*
X220965Y523931D01*
X220735Y523986D01*
X220500Y524000D01*
X215991Y523993D01*
Y531000D01*
G37*
G36*
X207992D02*X215991D01*
Y523993D01*
X211265Y523986D01*
X211035Y523931D01*
X210817Y523841D01*
X210616Y523717D01*
X210436Y523564D01*
X210283Y523384D01*
X210159Y523183D01*
X210069Y522965D01*
X210014Y522735D01*
X210000Y522500D01*
X210014Y513265D01*
X210069Y513035D01*
X210159Y512817D01*
X210283Y512616D01*
X210436Y512436D01*
X210616Y512283D01*
X210817Y512159D01*
X211035Y512069D01*
X211265Y512014D01*
X211500Y512000D01*
X211526Y512000D01*
X211131Y511538D01*
X210637Y510732D01*
X210276Y509860D01*
X210056Y508942D01*
X209981Y508000D01*
X210056Y507058D01*
X210276Y506140D01*
X210637Y505268D01*
X211131Y504462D01*
X211744Y503744D01*
X212462Y503131D01*
X212676Y503000D01*
X212462Y502869D01*
X211744Y502256D01*
X211131Y501538D01*
X210637Y500732D01*
X210276Y499860D01*
X210056Y498942D01*
X209981Y498000D01*
X210056Y497058D01*
X210276Y496140D01*
X210637Y495268D01*
X211131Y494462D01*
X211744Y493744D01*
X212462Y493131D01*
X213268Y492637D01*
X214140Y492276D01*
X215058Y492056D01*
X215991Y491982D01*
Y59000D01*
X207992D01*
Y257734D01*
X208000Y257734D01*
X208824Y257799D01*
X209627Y257992D01*
X210391Y258308D01*
X211095Y258740D01*
X211724Y259276D01*
X212260Y259905D01*
X212692Y260609D01*
X213008Y261373D01*
X213201Y262176D01*
X213250Y263000D01*
X213201Y263824D01*
X213008Y264627D01*
X212692Y265391D01*
X212260Y266095D01*
X211724Y266724D01*
X211095Y267260D01*
X210391Y267692D01*
X210225Y267761D01*
X211985Y267764D01*
X212215Y267819D01*
X212433Y267909D01*
X212634Y268033D01*
X212814Y268186D01*
X212967Y268366D01*
X213091Y268567D01*
X213181Y268785D01*
X213236Y269015D01*
X213250Y269250D01*
X213236Y276985D01*
X213181Y277215D01*
X213091Y277433D01*
X212967Y277634D01*
X212814Y277814D01*
X212634Y277967D01*
X212433Y278091D01*
X212215Y278181D01*
X211985Y278236D01*
X211750Y278250D01*
X207992Y278243D01*
Y321257D01*
X211485Y321264D01*
X211715Y321319D01*
X211933Y321409D01*
X212134Y321533D01*
X212314Y321686D01*
X212467Y321866D01*
X212591Y322067D01*
X212681Y322285D01*
X212736Y322515D01*
X212750Y322750D01*
X212736Y329485D01*
X212681Y329715D01*
X212591Y329933D01*
X212467Y330134D01*
X212314Y330314D01*
X212134Y330467D01*
X211933Y330591D01*
X211715Y330681D01*
X211485Y330736D01*
X211250Y330750D01*
X207992Y330743D01*
Y411734D01*
X208000Y411734D01*
X208824Y411799D01*
X209627Y411992D01*
X210391Y412308D01*
X211095Y412740D01*
X211724Y413276D01*
X212260Y413905D01*
X212692Y414609D01*
X213008Y415373D01*
X213201Y416176D01*
X213250Y417000D01*
X213201Y417824D01*
X213008Y418627D01*
X212692Y419391D01*
X212260Y420095D01*
X211724Y420724D01*
X211095Y421260D01*
X210391Y421692D01*
X210225Y421761D01*
X211985Y421764D01*
X212215Y421819D01*
X212433Y421909D01*
X212634Y422033D01*
X212814Y422186D01*
X212967Y422366D01*
X213091Y422567D01*
X213181Y422785D01*
X213236Y423015D01*
X213250Y423250D01*
X213236Y430985D01*
X213181Y431215D01*
X213091Y431433D01*
X212967Y431634D01*
X212814Y431814D01*
X212634Y431967D01*
X212433Y432091D01*
X212215Y432181D01*
X211985Y432236D01*
X211750Y432250D01*
X207992Y432243D01*
Y531000D01*
G37*
G36*
X189987D02*X207992D01*
Y432243D01*
X204015Y432236D01*
X203785Y432181D01*
X203567Y432091D01*
X203366Y431967D01*
X203186Y431814D01*
X203033Y431634D01*
X202909Y431433D01*
X202819Y431215D01*
X202764Y430985D01*
X202750Y430750D01*
X202764Y423015D01*
X202819Y422785D01*
X202909Y422567D01*
X203033Y422366D01*
X203186Y422186D01*
X203366Y422033D01*
X203567Y421909D01*
X203785Y421819D01*
X204015Y421764D01*
X204250Y421750D01*
X205755Y421753D01*
X205609Y421692D01*
X204905Y421260D01*
X204276Y420724D01*
X203740Y420095D01*
X203308Y419391D01*
X202992Y418627D01*
X202799Y417824D01*
X202734Y417000D01*
X202799Y416176D01*
X202992Y415373D01*
X203308Y414609D01*
X203740Y413905D01*
X204276Y413276D01*
X204905Y412740D01*
X205609Y412308D01*
X206373Y411992D01*
X207176Y411799D01*
X207992Y411734D01*
Y330743D01*
X204515Y330736D01*
X204285Y330681D01*
X204067Y330591D01*
X203866Y330467D01*
X203686Y330314D01*
X203533Y330134D01*
X203409Y329933D01*
X203319Y329715D01*
X203264Y329485D01*
X203250Y329250D01*
X203264Y322515D01*
X203319Y322285D01*
X203409Y322067D01*
X203533Y321866D01*
X203686Y321686D01*
X203866Y321533D01*
X204067Y321409D01*
X204285Y321319D01*
X204515Y321264D01*
X204750Y321250D01*
X207992Y321257D01*
Y278243D01*
X204015Y278236D01*
X203785Y278181D01*
X203567Y278091D01*
X203366Y277967D01*
X203186Y277814D01*
X203033Y277634D01*
X202909Y277433D01*
X202819Y277215D01*
X202764Y276985D01*
X202750Y276750D01*
X202764Y269015D01*
X202819Y268785D01*
X202909Y268567D01*
X203033Y268366D01*
X203186Y268186D01*
X203366Y268033D01*
X203567Y267909D01*
X203785Y267819D01*
X204015Y267764D01*
X204250Y267750D01*
X205755Y267753D01*
X205609Y267692D01*
X204905Y267260D01*
X204276Y266724D01*
X203740Y266095D01*
X203308Y265391D01*
X202992Y264627D01*
X202799Y263824D01*
X202734Y263000D01*
X202799Y262176D01*
X202992Y261373D01*
X203308Y260609D01*
X203740Y259905D01*
X204276Y259276D01*
X204905Y258740D01*
X205609Y258308D01*
X206373Y257992D01*
X207176Y257799D01*
X207992Y257734D01*
Y59000D01*
X189987D01*
Y66474D01*
X191012Y67102D01*
X192029Y67971D01*
X192898Y68988D01*
X193597Y70129D01*
X194109Y71365D01*
X194421Y72666D01*
X194500Y74000D01*
X194421Y75334D01*
X194109Y76635D01*
X193597Y77871D01*
X192898Y79012D01*
X192029Y80029D01*
X191012Y80898D01*
X189987Y81526D01*
Y96358D01*
X190255Y96294D01*
X191000Y96235D01*
X191745Y96294D01*
X192472Y96469D01*
X193163Y96755D01*
X193801Y97145D01*
X194369Y97631D01*
X194855Y98199D01*
X195245Y98837D01*
X195531Y99528D01*
X195706Y100255D01*
X195750Y101000D01*
X195706Y101745D01*
X195531Y102472D01*
X195245Y103163D01*
X194855Y103801D01*
X194369Y104369D01*
X193801Y104855D01*
X193163Y105245D01*
X192472Y105531D01*
X191745Y105706D01*
X191000Y105765D01*
X190255Y105706D01*
X189987Y105642D01*
Y106358D01*
X190255Y106294D01*
X191000Y106235D01*
X191745Y106294D01*
X192472Y106469D01*
X193163Y106755D01*
X193801Y107145D01*
X194369Y107631D01*
X194855Y108199D01*
X195245Y108837D01*
X195531Y109528D01*
X195706Y110255D01*
X195750Y111000D01*
X195706Y111745D01*
X195531Y112472D01*
X195245Y113163D01*
X194855Y113801D01*
X194369Y114369D01*
X193801Y114855D01*
X193163Y115245D01*
X192472Y115531D01*
X191745Y115706D01*
X191000Y115765D01*
X190255Y115706D01*
X189987Y115642D01*
Y351134D01*
X190403Y350129D01*
X191102Y348988D01*
X191971Y347971D01*
X192988Y347102D01*
X194129Y346403D01*
X195365Y345891D01*
X196666Y345579D01*
X198000Y345474D01*
X199334Y345579D01*
X200635Y345891D01*
X201871Y346403D01*
X203012Y347102D01*
X204029Y347971D01*
X204898Y348988D01*
X205597Y350129D01*
X206109Y351365D01*
X206421Y352666D01*
X206500Y354000D01*
X206421Y355334D01*
X206109Y356635D01*
X205597Y357871D01*
X204898Y359012D01*
X204029Y360029D01*
X203012Y360898D01*
X201871Y361597D01*
X200635Y362109D01*
X199334Y362421D01*
X198000Y362526D01*
X196666Y362421D01*
X195365Y362109D01*
X194129Y361597D01*
X192988Y360898D01*
X191971Y360029D01*
X191102Y359012D01*
X190403Y357871D01*
X189987Y356866D01*
Y485475D01*
X190000Y485474D01*
X191334Y485579D01*
X192635Y485891D01*
X193871Y486403D01*
X195012Y487102D01*
X196029Y487971D01*
X196898Y488988D01*
X197597Y490129D01*
X198109Y491365D01*
X198421Y492666D01*
X198500Y494000D01*
X198421Y495334D01*
X198109Y496635D01*
X197597Y497871D01*
X196898Y499012D01*
X196029Y500029D01*
X195012Y500898D01*
X193871Y501597D01*
X192635Y502109D01*
X191334Y502421D01*
X190000Y502526D01*
X189987Y502525D01*
Y531000D01*
G37*
G36*
X177991Y71125D02*X178403Y70129D01*
X179102Y68988D01*
X179971Y67971D01*
X180988Y67102D01*
X182129Y66403D01*
X183365Y65891D01*
X184666Y65579D01*
X186000Y65474D01*
X187334Y65579D01*
X188635Y65891D01*
X189871Y66403D01*
X189987Y66474D01*
Y59000D01*
X177991D01*
Y71125D01*
G37*
G36*
Y531000D02*X189987D01*
Y502525D01*
X188666Y502421D01*
X187365Y502109D01*
X186129Y501597D01*
X184988Y500898D01*
X183971Y500029D01*
X183102Y499012D01*
X182403Y497871D01*
X181891Y496635D01*
X181579Y495334D01*
X181474Y494000D01*
X181579Y492666D01*
X181891Y491365D01*
X182403Y490129D01*
X183102Y488988D01*
X183971Y487971D01*
X184988Y487102D01*
X186129Y486403D01*
X187365Y485891D01*
X188666Y485579D01*
X189987Y485475D01*
Y356866D01*
X189891Y356635D01*
X189579Y355334D01*
X189474Y354000D01*
X189579Y352666D01*
X189891Y351365D01*
X189987Y351134D01*
Y115642D01*
X189528Y115531D01*
X188837Y115245D01*
X188199Y114855D01*
X187631Y114369D01*
X187145Y113801D01*
X186755Y113163D01*
X186469Y112472D01*
X186294Y111745D01*
X186235Y111000D01*
X186294Y110255D01*
X186469Y109528D01*
X186755Y108837D01*
X187145Y108199D01*
X187631Y107631D01*
X188199Y107145D01*
X188837Y106755D01*
X189528Y106469D01*
X189987Y106358D01*
Y105642D01*
X189528Y105531D01*
X188837Y105245D01*
X188199Y104855D01*
X187631Y104369D01*
X187145Y103801D01*
X186755Y103163D01*
X186469Y102472D01*
X186294Y101745D01*
X186235Y101000D01*
X186294Y100255D01*
X186469Y99528D01*
X186755Y98837D01*
X187145Y98199D01*
X187631Y97631D01*
X188199Y97145D01*
X188837Y96755D01*
X189528Y96469D01*
X189987Y96358D01*
Y81526D01*
X189871Y81597D01*
X188635Y82109D01*
X187334Y82421D01*
X186000Y82526D01*
X184666Y82421D01*
X183365Y82109D01*
X182129Y81597D01*
X180988Y80898D01*
X179971Y80029D01*
X179102Y79012D01*
X178403Y77871D01*
X177991Y76875D01*
Y251982D01*
X178000Y251981D01*
X178942Y252056D01*
X179860Y252276D01*
X180732Y252637D01*
X181538Y253131D01*
X182256Y253744D01*
X182869Y254462D01*
X183363Y255268D01*
X183724Y256140D01*
X183944Y257058D01*
X184000Y258000D01*
X183944Y258942D01*
X183724Y259860D01*
X183363Y260732D01*
X182869Y261538D01*
X182256Y262256D01*
X181538Y262869D01*
X181324Y263000D01*
X181538Y263131D01*
X182256Y263744D01*
X182869Y264462D01*
X183363Y265268D01*
X183724Y266140D01*
X183944Y267058D01*
X184000Y268000D01*
X183944Y268942D01*
X183724Y269860D01*
X183363Y270732D01*
X182869Y271538D01*
X182463Y272013D01*
X182735Y272014D01*
X182965Y272069D01*
X183183Y272159D01*
X183384Y272283D01*
X183564Y272436D01*
X183717Y272616D01*
X183841Y272817D01*
X183931Y273035D01*
X183986Y273265D01*
X184000Y273500D01*
X183986Y282735D01*
X183931Y282965D01*
X183841Y283183D01*
X183717Y283384D01*
X183564Y283564D01*
X183384Y283717D01*
X183183Y283841D01*
X182965Y283931D01*
X182735Y283986D01*
X182500Y284000D01*
X177991Y283993D01*
Y321236D01*
X178000Y321235D01*
X178745Y321294D01*
X179472Y321469D01*
X180163Y321755D01*
X180801Y322145D01*
X181369Y322631D01*
X181855Y323199D01*
X182245Y323837D01*
X182531Y324528D01*
X182706Y325255D01*
X182750Y326000D01*
X182706Y326745D01*
X182531Y327472D01*
X182245Y328163D01*
X181855Y328801D01*
X181369Y329369D01*
X180801Y329855D01*
X180163Y330245D01*
X179472Y330531D01*
X178745Y330706D01*
X178000Y330765D01*
X177991Y330764D01*
Y406007D01*
X182735Y406014D01*
X182965Y406069D01*
X183183Y406159D01*
X183384Y406283D01*
X183564Y406436D01*
X183717Y406616D01*
X183841Y406817D01*
X183931Y407035D01*
X183986Y407265D01*
X184000Y407500D01*
X183986Y416735D01*
X183931Y416965D01*
X183841Y417183D01*
X183717Y417384D01*
X183564Y417564D01*
X183384Y417717D01*
X183183Y417841D01*
X182965Y417931D01*
X182735Y417986D01*
X182500Y418000D01*
X182474Y418000D01*
X182869Y418462D01*
X183363Y419268D01*
X183724Y420140D01*
X183944Y421058D01*
X184000Y422000D01*
X183944Y422942D01*
X183724Y423860D01*
X183363Y424732D01*
X182869Y425538D01*
X182256Y426256D01*
X181538Y426869D01*
X181324Y427000D01*
X181538Y427131D01*
X182256Y427744D01*
X182869Y428462D01*
X183363Y429268D01*
X183724Y430140D01*
X183944Y431058D01*
X184000Y432000D01*
X183944Y432942D01*
X183724Y433860D01*
X183363Y434732D01*
X182869Y435538D01*
X182256Y436256D01*
X181538Y436869D01*
X180732Y437363D01*
X179860Y437724D01*
X178942Y437944D01*
X178000Y438019D01*
X177991Y438018D01*
Y531000D01*
G37*
G36*
X161000Y186352D02*X161308Y185609D01*
X161740Y184905D01*
X162276Y184276D01*
X162905Y183740D01*
X163609Y183308D01*
X163775Y183239D01*
X162015Y183236D01*
X161785Y183181D01*
X161567Y183091D01*
X161366Y182967D01*
X161186Y182814D01*
X161033Y182634D01*
X161000Y182581D01*
Y186352D01*
G37*
G36*
X166000Y531000D02*X177991D01*
Y438018D01*
X177058Y437944D01*
X176140Y437724D01*
X175268Y437363D01*
X174462Y436869D01*
X173744Y436256D01*
X173131Y435538D01*
X172637Y434732D01*
X172276Y433860D01*
X172056Y432942D01*
X171981Y432000D01*
X172056Y431058D01*
X172276Y430140D01*
X172637Y429268D01*
X173131Y428462D01*
X173744Y427744D01*
X174462Y427131D01*
X174676Y427000D01*
X174462Y426869D01*
X173744Y426256D01*
X173131Y425538D01*
X172637Y424732D01*
X172276Y423860D01*
X172056Y422942D01*
X171981Y422000D01*
X172056Y421058D01*
X172276Y420140D01*
X172637Y419268D01*
X173131Y418462D01*
X173537Y417987D01*
X173265Y417986D01*
X173035Y417931D01*
X172817Y417841D01*
X172616Y417717D01*
X172436Y417564D01*
X172283Y417384D01*
X172159Y417183D01*
X172069Y416965D01*
X172014Y416735D01*
X172000Y416500D01*
X172014Y407265D01*
X172069Y407035D01*
X172159Y406817D01*
X172283Y406616D01*
X172436Y406436D01*
X172616Y406283D01*
X172817Y406159D01*
X173035Y406069D01*
X173265Y406014D01*
X173500Y406000D01*
X177991Y406007D01*
Y330764D01*
X177255Y330706D01*
X176528Y330531D01*
X175837Y330245D01*
X175199Y329855D01*
X174631Y329369D01*
X174145Y328801D01*
X173755Y328163D01*
X173469Y327472D01*
X173294Y326745D01*
X173235Y326000D01*
X173294Y325255D01*
X173469Y324528D01*
X173755Y323837D01*
X174145Y323199D01*
X174631Y322631D01*
X175199Y322145D01*
X175837Y321755D01*
X176528Y321469D01*
X177255Y321294D01*
X177991Y321236D01*
Y283993D01*
X173265Y283986D01*
X173035Y283931D01*
X172817Y283841D01*
X172616Y283717D01*
X172436Y283564D01*
X172283Y283384D01*
X172159Y283183D01*
X172069Y282965D01*
X172014Y282735D01*
X172000Y282500D01*
X172014Y273265D01*
X172069Y273035D01*
X172159Y272817D01*
X172283Y272616D01*
X172436Y272436D01*
X172616Y272283D01*
X172817Y272159D01*
X173035Y272069D01*
X173265Y272014D01*
X173500Y272000D01*
X173526Y272000D01*
X173131Y271538D01*
X172637Y270732D01*
X172276Y269860D01*
X172056Y268942D01*
X171981Y268000D01*
X172056Y267058D01*
X172276Y266140D01*
X172637Y265268D01*
X173131Y264462D01*
X173744Y263744D01*
X174462Y263131D01*
X174676Y263000D01*
X174462Y262869D01*
X173744Y262256D01*
X173131Y261538D01*
X172637Y260732D01*
X172276Y259860D01*
X172056Y258942D01*
X171981Y258000D01*
X172056Y257058D01*
X172276Y256140D01*
X172637Y255268D01*
X173131Y254462D01*
X173744Y253744D01*
X174462Y253131D01*
X175268Y252637D01*
X176140Y252276D01*
X177058Y252056D01*
X177991Y251982D01*
Y76875D01*
X177891Y76635D01*
X177579Y75334D01*
X177474Y74000D01*
X177579Y72666D01*
X177891Y71365D01*
X177991Y71125D01*
Y59000D01*
X169000D01*
X166000Y56000D01*
Y172757D01*
X169985Y172764D01*
X170215Y172819D01*
X170433Y172909D01*
X170634Y173033D01*
X170814Y173186D01*
X170967Y173366D01*
X171091Y173567D01*
X171181Y173785D01*
X171236Y174015D01*
X171250Y174250D01*
X171236Y181985D01*
X171181Y182215D01*
X171091Y182433D01*
X170967Y182634D01*
X170814Y182814D01*
X170634Y182967D01*
X170433Y183091D01*
X170215Y183181D01*
X169985Y183236D01*
X169750Y183250D01*
X168245Y183247D01*
X168391Y183308D01*
X169095Y183740D01*
X169724Y184276D01*
X170260Y184905D01*
X170692Y185609D01*
X171008Y186373D01*
X171201Y187176D01*
X171250Y188000D01*
X171201Y188824D01*
X171008Y189627D01*
X170692Y190391D01*
X170260Y191095D01*
X169724Y191724D01*
X169095Y192260D01*
X168391Y192692D01*
X167627Y193008D01*
X166824Y193201D01*
X166000Y193266D01*
Y489257D01*
X169485Y489264D01*
X169715Y489319D01*
X169933Y489409D01*
X170134Y489533D01*
X170314Y489686D01*
X170467Y489866D01*
X170591Y490067D01*
X170681Y490285D01*
X170736Y490515D01*
X170750Y490750D01*
X170736Y497485D01*
X170681Y497715D01*
X170591Y497933D01*
X170467Y498134D01*
X170314Y498314D01*
X170134Y498467D01*
X169933Y498591D01*
X169715Y498681D01*
X169485Y498736D01*
X169250Y498750D01*
X166000Y498743D01*
Y519235D01*
X166745Y519294D01*
X167472Y519469D01*
X168163Y519755D01*
X168801Y520145D01*
X169369Y520631D01*
X169855Y521199D01*
X170245Y521837D01*
X170531Y522528D01*
X170706Y523255D01*
X170750Y524000D01*
X170706Y524745D01*
X170531Y525472D01*
X170245Y526163D01*
X169855Y526801D01*
X169369Y527369D01*
X168801Y527855D01*
X168163Y528245D01*
X167472Y528531D01*
X166745Y528706D01*
X166000Y528765D01*
Y531000D01*
G37*
G36*
Y56000D02*X161000Y51000D01*
Y96257D01*
X164485Y96264D01*
X164715Y96319D01*
X164933Y96409D01*
X165134Y96533D01*
X165314Y96686D01*
X165467Y96866D01*
X165591Y97067D01*
X165681Y97285D01*
X165736Y97515D01*
X165750Y97750D01*
X165736Y104485D01*
X165681Y104715D01*
X165591Y104933D01*
X165467Y105134D01*
X165314Y105314D01*
X165134Y105467D01*
X164933Y105591D01*
X164715Y105681D01*
X164485Y105736D01*
X164250Y105750D01*
X161000Y105743D01*
Y106257D01*
X164485Y106264D01*
X164715Y106319D01*
X164933Y106409D01*
X165134Y106533D01*
X165314Y106686D01*
X165467Y106866D01*
X165591Y107067D01*
X165681Y107285D01*
X165736Y107515D01*
X165750Y107750D01*
X165736Y114485D01*
X165681Y114715D01*
X165591Y114933D01*
X165467Y115134D01*
X165314Y115314D01*
X165134Y115467D01*
X164933Y115591D01*
X164715Y115681D01*
X164485Y115736D01*
X164250Y115750D01*
X161000Y115743D01*
Y173419D01*
X161033Y173366D01*
X161186Y173186D01*
X161366Y173033D01*
X161567Y172909D01*
X161785Y172819D01*
X162015Y172764D01*
X162250Y172750D01*
X166000Y172757D01*
Y56000D01*
G37*
G36*
X161000Y536000D02*X166000Y531000D01*
Y528765D01*
X165255Y528706D01*
X164528Y528531D01*
X163837Y528245D01*
X163199Y527855D01*
X162631Y527369D01*
X162145Y526801D01*
X161755Y526163D01*
X161469Y525472D01*
X161294Y524745D01*
X161235Y524000D01*
X161294Y523255D01*
X161469Y522528D01*
X161755Y521837D01*
X162145Y521199D01*
X162631Y520631D01*
X163199Y520145D01*
X163837Y519755D01*
X164528Y519469D01*
X165255Y519294D01*
X166000Y519235D01*
Y498743D01*
X162515Y498736D01*
X162285Y498681D01*
X162067Y498591D01*
X161866Y498467D01*
X161686Y498314D01*
X161533Y498134D01*
X161409Y497933D01*
X161319Y497715D01*
X161264Y497485D01*
X161250Y497250D01*
X161264Y490515D01*
X161319Y490285D01*
X161409Y490067D01*
X161533Y489866D01*
X161686Y489686D01*
X161866Y489533D01*
X162067Y489409D01*
X162285Y489319D01*
X162515Y489264D01*
X162750Y489250D01*
X166000Y489257D01*
Y193266D01*
X165176Y193201D01*
X164373Y193008D01*
X163609Y192692D01*
X162905Y192260D01*
X162276Y191724D01*
X161740Y191095D01*
X161308Y190391D01*
X161000Y189648D01*
Y536000D01*
G37*
G36*
X147992Y543000D02*X154000D01*
X161000Y536000D01*
Y189648D01*
X160992Y189627D01*
X160799Y188824D01*
X160734Y188000D01*
X160799Y187176D01*
X160992Y186373D01*
X161000Y186352D01*
Y182581D01*
X160909Y182433D01*
X160819Y182215D01*
X160764Y181985D01*
X160750Y181750D01*
X160764Y174015D01*
X160819Y173785D01*
X160909Y173567D01*
X161000Y173419D01*
Y115743D01*
X157515Y115736D01*
X157285Y115681D01*
X157067Y115591D01*
X156866Y115467D01*
X156686Y115314D01*
X156533Y115134D01*
X156409Y114933D01*
X156319Y114715D01*
X156264Y114485D01*
X156250Y114250D01*
X156264Y107515D01*
X156319Y107285D01*
X156409Y107067D01*
X156533Y106866D01*
X156686Y106686D01*
X156866Y106533D01*
X157067Y106409D01*
X157285Y106319D01*
X157515Y106264D01*
X157750Y106250D01*
X161000Y106257D01*
Y105743D01*
X157515Y105736D01*
X157285Y105681D01*
X157067Y105591D01*
X156866Y105467D01*
X156686Y105314D01*
X156533Y105134D01*
X156409Y104933D01*
X156319Y104715D01*
X156264Y104485D01*
X156250Y104250D01*
X156264Y97515D01*
X156319Y97285D01*
X156409Y97067D01*
X156533Y96866D01*
X156686Y96686D01*
X156866Y96533D01*
X157067Y96409D01*
X157285Y96319D01*
X157515Y96264D01*
X157750Y96250D01*
X161000Y96257D01*
Y51000D01*
X147992Y37992D01*
Y76007D01*
X151735Y76014D01*
X151965Y76069D01*
X152183Y76159D01*
X152384Y76283D01*
X152564Y76436D01*
X152717Y76616D01*
X152841Y76817D01*
X152931Y77035D01*
X152986Y77265D01*
X153000Y77500D01*
X152986Y84735D01*
X152931Y84965D01*
X152841Y85183D01*
X152717Y85384D01*
X152564Y85564D01*
X152384Y85717D01*
X152183Y85841D01*
X151965Y85931D01*
X151735Y85986D01*
X151500Y86000D01*
X148113Y85993D01*
X148785Y86046D01*
X149550Y86230D01*
X150277Y86531D01*
X150948Y86942D01*
X151546Y87454D01*
X152058Y88052D01*
X152469Y88723D01*
X152770Y89450D01*
X152954Y90215D01*
X153000Y91000D01*
X152954Y91785D01*
X152770Y92550D01*
X152469Y93277D01*
X152058Y93948D01*
X151546Y94546D01*
X150948Y95058D01*
X150277Y95469D01*
X149550Y95770D01*
X148785Y95954D01*
X148196Y96000D01*
X148785Y96046D01*
X149550Y96230D01*
X150277Y96531D01*
X150948Y96942D01*
X151546Y97454D01*
X152058Y98052D01*
X152469Y98723D01*
X152770Y99450D01*
X152954Y100215D01*
X153000Y101000D01*
X152954Y101785D01*
X152770Y102550D01*
X152469Y103277D01*
X152058Y103948D01*
X151546Y104546D01*
X150948Y105058D01*
X150277Y105469D01*
X149550Y105770D01*
X148785Y105954D01*
X148196Y106000D01*
X148785Y106046D01*
X149550Y106230D01*
X150277Y106531D01*
X150948Y106942D01*
X151546Y107454D01*
X152058Y108052D01*
X152469Y108723D01*
X152770Y109450D01*
X152954Y110215D01*
X153000Y111000D01*
X152954Y111785D01*
X152770Y112550D01*
X152469Y113277D01*
X152058Y113948D01*
X151546Y114546D01*
X150948Y115058D01*
X150277Y115469D01*
X149550Y115770D01*
X148785Y115954D01*
X148000Y116015D01*
X147992Y116015D01*
Y343126D01*
X148540Y343768D01*
X149270Y344959D01*
X149805Y346249D01*
X150131Y347608D01*
X150213Y349000D01*
X150131Y350392D01*
X149805Y351751D01*
X149270Y353041D01*
X148540Y354232D01*
X147992Y354874D01*
Y543000D01*
G37*
G36*
Y37992D02*X141325Y31325D01*
Y34262D01*
X142485Y34264D01*
X142715Y34319D01*
X142933Y34409D01*
X143134Y34533D01*
X143314Y34686D01*
X143467Y34866D01*
X143591Y35067D01*
X143681Y35285D01*
X143736Y35515D01*
X143750Y35750D01*
X143736Y42485D01*
X143681Y42715D01*
X143591Y42933D01*
X143467Y43134D01*
X143314Y43314D01*
X143134Y43467D01*
X142933Y43591D01*
X142715Y43681D01*
X142485Y43736D01*
X142250Y43750D01*
X141325Y43748D01*
Y64854D01*
X141801Y65145D01*
X142369Y65631D01*
X142855Y66199D01*
X143245Y66837D01*
X143531Y67528D01*
X143706Y68255D01*
X143750Y69000D01*
X143706Y69745D01*
X143531Y70472D01*
X143245Y71163D01*
X142855Y71801D01*
X142369Y72369D01*
X141801Y72855D01*
X141325Y73146D01*
Y340100D01*
X141339Y340099D01*
X142731Y340208D01*
X144090Y340534D01*
X145380Y341069D01*
X146571Y341799D01*
X147633Y342706D01*
X147992Y343126D01*
Y116015D01*
X147215Y115954D01*
X146450Y115770D01*
X145723Y115469D01*
X145052Y115058D01*
X144454Y114546D01*
X143942Y113948D01*
X143531Y113277D01*
X143230Y112550D01*
X143046Y111785D01*
X142985Y111000D01*
X143046Y110215D01*
X143230Y109450D01*
X143531Y108723D01*
X143942Y108052D01*
X144454Y107454D01*
X145052Y106942D01*
X145723Y106531D01*
X146450Y106230D01*
X147215Y106046D01*
X147804Y106000D01*
X147215Y105954D01*
X146450Y105770D01*
X145723Y105469D01*
X145052Y105058D01*
X144454Y104546D01*
X143942Y103948D01*
X143531Y103277D01*
X143230Y102550D01*
X143046Y101785D01*
X142985Y101000D01*
X143046Y100215D01*
X143230Y99450D01*
X143531Y98723D01*
X143942Y98052D01*
X144454Y97454D01*
X145052Y96942D01*
X145723Y96531D01*
X146450Y96230D01*
X147215Y96046D01*
X147804Y96000D01*
X147215Y95954D01*
X146450Y95770D01*
X145723Y95469D01*
X145052Y95058D01*
X144454Y94546D01*
X143942Y93948D01*
X143531Y93277D01*
X143230Y92550D01*
X143046Y91785D01*
X142985Y91000D01*
X143046Y90215D01*
X143230Y89450D01*
X143531Y88723D01*
X143942Y88052D01*
X144454Y87454D01*
X145052Y86942D01*
X145723Y86531D01*
X146450Y86230D01*
X147215Y86046D01*
X147892Y85993D01*
X144265Y85986D01*
X144035Y85931D01*
X143817Y85841D01*
X143616Y85717D01*
X143436Y85564D01*
X143283Y85384D01*
X143159Y85183D01*
X143069Y84965D01*
X143014Y84735D01*
X143000Y84500D01*
X143014Y77265D01*
X143069Y77035D01*
X143159Y76817D01*
X143283Y76616D01*
X143436Y76436D01*
X143616Y76283D01*
X143817Y76159D01*
X144035Y76069D01*
X144265Y76014D01*
X144500Y76000D01*
X147992Y76007D01*
Y37992D01*
G37*
G36*
X141325Y543000D02*X147992D01*
Y354874D01*
X147633Y355294D01*
X146571Y356201D01*
X145380Y356931D01*
X144090Y357466D01*
X142731Y357792D01*
X141339Y357901D01*
X141325Y357900D01*
Y543000D01*
G37*
G36*
X129987D02*X141325D01*
Y357900D01*
X139947Y357792D01*
X138588Y357466D01*
X137298Y356931D01*
X136107Y356201D01*
X135045Y355294D01*
X134138Y354232D01*
X133408Y353041D01*
X132873Y351751D01*
X132547Y350392D01*
X132438Y349000D01*
X132547Y347608D01*
X132873Y346249D01*
X133408Y344959D01*
X134138Y343768D01*
X135045Y342706D01*
X136107Y341799D01*
X137298Y341069D01*
X138588Y340534D01*
X139947Y340208D01*
X141325Y340100D01*
Y73146D01*
X141163Y73245D01*
X140472Y73531D01*
X139745Y73706D01*
X139000Y73765D01*
X138255Y73706D01*
X137528Y73531D01*
X136837Y73245D01*
X136199Y72855D01*
X135631Y72369D01*
X135145Y71801D01*
X134755Y71163D01*
X134469Y70472D01*
X134294Y69745D01*
X134235Y69000D01*
X134294Y68255D01*
X134469Y67528D01*
X134755Y66837D01*
X135145Y66199D01*
X135631Y65631D01*
X136199Y65145D01*
X136837Y64755D01*
X137528Y64469D01*
X138255Y64294D01*
X139000Y64235D01*
X139745Y64294D01*
X140472Y64469D01*
X141163Y64755D01*
X141325Y64854D01*
Y43748D01*
X135515Y43736D01*
X135285Y43681D01*
X135067Y43591D01*
X134866Y43467D01*
X134686Y43314D01*
X134533Y43134D01*
X134409Y42933D01*
X134319Y42715D01*
X134264Y42485D01*
X134250Y42250D01*
X134264Y35515D01*
X134319Y35285D01*
X134409Y35067D01*
X134533Y34866D01*
X134686Y34686D01*
X134866Y34533D01*
X135067Y34409D01*
X135285Y34319D01*
X135515Y34264D01*
X135750Y34250D01*
X141325Y34262D01*
Y31325D01*
X129987Y19987D01*
Y34261D01*
X131485Y34264D01*
X131715Y34319D01*
X131933Y34409D01*
X132134Y34533D01*
X132314Y34686D01*
X132467Y34866D01*
X132591Y35067D01*
X132681Y35285D01*
X132736Y35515D01*
X132750Y35750D01*
X132736Y42485D01*
X132681Y42715D01*
X132591Y42933D01*
X132467Y43134D01*
X132314Y43314D01*
X132134Y43467D01*
X131933Y43591D01*
X131715Y43681D01*
X131485Y43736D01*
X131250Y43750D01*
X129987Y43747D01*
Y64682D01*
X130163Y64755D01*
X130801Y65145D01*
X131369Y65631D01*
X131855Y66199D01*
X132245Y66837D01*
X132531Y67528D01*
X132706Y68255D01*
X132750Y69000D01*
X132706Y69745D01*
X132531Y70472D01*
X132245Y71163D01*
X131855Y71801D01*
X131369Y72369D01*
X130801Y72855D01*
X130163Y73245D01*
X129987Y73318D01*
Y167007D01*
X134735Y167014D01*
X134965Y167069D01*
X135183Y167159D01*
X135384Y167283D01*
X135564Y167436D01*
X135717Y167616D01*
X135841Y167817D01*
X135931Y168035D01*
X135986Y168265D01*
X136000Y168500D01*
X135986Y177735D01*
X135931Y177965D01*
X135841Y178183D01*
X135717Y178384D01*
X135564Y178564D01*
X135384Y178717D01*
X135183Y178841D01*
X134965Y178931D01*
X134735Y178986D01*
X134500Y179000D01*
X134474Y179000D01*
X134869Y179462D01*
X135363Y180268D01*
X135724Y181140D01*
X135944Y182058D01*
X136000Y183000D01*
X135944Y183942D01*
X135724Y184860D01*
X135363Y185732D01*
X134869Y186538D01*
X134256Y187256D01*
X133538Y187869D01*
X133324Y188000D01*
X133538Y188131D01*
X134256Y188744D01*
X134869Y189462D01*
X135363Y190268D01*
X135724Y191140D01*
X135944Y192058D01*
X136000Y193000D01*
X135944Y193942D01*
X135724Y194860D01*
X135363Y195732D01*
X134869Y196538D01*
X134256Y197256D01*
X133538Y197869D01*
X132732Y198363D01*
X131860Y198724D01*
X130942Y198944D01*
X130000Y199019D01*
X129987Y199017D01*
Y249475D01*
X130000Y249474D01*
X131334Y249579D01*
X132635Y249891D01*
X133871Y250403D01*
X135012Y251102D01*
X136029Y251971D01*
X136898Y252988D01*
X137597Y254129D01*
X138109Y255365D01*
X138421Y256666D01*
X138500Y258000D01*
X138421Y259334D01*
X138109Y260635D01*
X137597Y261871D01*
X136898Y263012D01*
X136029Y264029D01*
X135012Y264898D01*
X133871Y265597D01*
X132635Y266109D01*
X131334Y266421D01*
X130000Y266526D01*
X129987Y266525D01*
Y484309D01*
X130232Y484460D01*
X131294Y485367D01*
X132201Y486429D01*
X132931Y487620D01*
X133466Y488910D01*
X133792Y490269D01*
X133874Y491661D01*
X133792Y493053D01*
X133466Y494412D01*
X132931Y495702D01*
X132201Y496893D01*
X131294Y497955D01*
X130232Y498862D01*
X129987Y499013D01*
Y516790D01*
X130232Y516941D01*
X131294Y517848D01*
X132201Y518910D01*
X132931Y520101D01*
X133466Y521391D01*
X133792Y522750D01*
X133874Y524142D01*
X133792Y525534D01*
X133466Y526893D01*
X132931Y528183D01*
X132201Y529374D01*
X131294Y530436D01*
X130232Y531343D01*
X129987Y531494D01*
Y543000D01*
G37*
G36*
X117992Y486202D02*X118706Y485367D01*
X119768Y484460D01*
X120959Y483730D01*
X122249Y483195D01*
X123608Y482869D01*
X125000Y482760D01*
X126392Y482869D01*
X127751Y483195D01*
X129041Y483730D01*
X129987Y484309D01*
Y266525D01*
X128666Y266421D01*
X127365Y266109D01*
X126129Y265597D01*
X124988Y264898D01*
X123971Y264029D01*
X123102Y263012D01*
X122403Y261871D01*
X121891Y260635D01*
X121579Y259334D01*
X121474Y258000D01*
X121579Y256666D01*
X121891Y255365D01*
X122403Y254129D01*
X123102Y252988D01*
X123971Y251971D01*
X124988Y251102D01*
X126129Y250403D01*
X127365Y249891D01*
X128666Y249579D01*
X129987Y249475D01*
Y199017D01*
X129058Y198944D01*
X128140Y198724D01*
X127268Y198363D01*
X126462Y197869D01*
X125744Y197256D01*
X125131Y196538D01*
X124637Y195732D01*
X124276Y194860D01*
X124056Y193942D01*
X123981Y193000D01*
X124056Y192058D01*
X124276Y191140D01*
X124637Y190268D01*
X125131Y189462D01*
X125744Y188744D01*
X126462Y188131D01*
X126676Y188000D01*
X126462Y187869D01*
X125744Y187256D01*
X125131Y186538D01*
X124637Y185732D01*
X124276Y184860D01*
X124056Y183942D01*
X123981Y183000D01*
X124056Y182058D01*
X124276Y181140D01*
X124637Y180268D01*
X125131Y179462D01*
X125537Y178987D01*
X125265Y178986D01*
X125035Y178931D01*
X124817Y178841D01*
X124616Y178717D01*
X124436Y178564D01*
X124283Y178384D01*
X124159Y178183D01*
X124069Y177965D01*
X124014Y177735D01*
X124000Y177500D01*
X124014Y168265D01*
X124069Y168035D01*
X124159Y167817D01*
X124283Y167616D01*
X124436Y167436D01*
X124616Y167283D01*
X124817Y167159D01*
X125035Y167069D01*
X125265Y167014D01*
X125500Y167000D01*
X129987Y167007D01*
Y73318D01*
X129472Y73531D01*
X128745Y73706D01*
X128000Y73765D01*
X127255Y73706D01*
X126528Y73531D01*
X125837Y73245D01*
X125199Y72855D01*
X124631Y72369D01*
X124145Y71801D01*
X123755Y71163D01*
X123469Y70472D01*
X123294Y69745D01*
X123235Y69000D01*
X123294Y68255D01*
X123469Y67528D01*
X123755Y66837D01*
X124145Y66199D01*
X124631Y65631D01*
X125199Y65145D01*
X125837Y64755D01*
X126528Y64469D01*
X127255Y64294D01*
X128000Y64235D01*
X128745Y64294D01*
X129472Y64469D01*
X129987Y64682D01*
Y43747D01*
X124515Y43736D01*
X124285Y43681D01*
X124067Y43591D01*
X123866Y43467D01*
X123686Y43314D01*
X123533Y43134D01*
X123409Y42933D01*
X123319Y42715D01*
X123264Y42485D01*
X123250Y42250D01*
X123264Y35515D01*
X123319Y35285D01*
X123409Y35067D01*
X123533Y34866D01*
X123686Y34686D01*
X123866Y34533D01*
X124067Y34409D01*
X124285Y34319D01*
X124515Y34264D01*
X124750Y34250D01*
X129987Y34261D01*
Y19987D01*
X117992Y7992D01*
Y75985D01*
X118000Y75985D01*
X118785Y76046D01*
X119550Y76230D01*
X120277Y76531D01*
X120948Y76942D01*
X121546Y77454D01*
X122058Y78052D01*
X122469Y78723D01*
X122770Y79450D01*
X122954Y80215D01*
X123000Y81000D01*
X122954Y81785D01*
X122770Y82550D01*
X122469Y83277D01*
X122058Y83948D01*
X121546Y84546D01*
X120948Y85058D01*
X120277Y85469D01*
X119550Y85770D01*
X118785Y85954D01*
X118196Y86000D01*
X118785Y86046D01*
X119550Y86230D01*
X120277Y86531D01*
X120948Y86942D01*
X121546Y87454D01*
X122058Y88052D01*
X122469Y88723D01*
X122770Y89450D01*
X122954Y90215D01*
X123000Y91000D01*
X122954Y91785D01*
X122770Y92550D01*
X122469Y93277D01*
X122058Y93948D01*
X121546Y94546D01*
X120948Y95058D01*
X120277Y95469D01*
X119550Y95770D01*
X118785Y95954D01*
X118196Y96000D01*
X118785Y96046D01*
X119550Y96230D01*
X120277Y96531D01*
X120948Y96942D01*
X121546Y97454D01*
X122058Y98052D01*
X122469Y98723D01*
X122770Y99450D01*
X122954Y100215D01*
X123000Y101000D01*
X122954Y101785D01*
X122770Y102550D01*
X122469Y103277D01*
X122058Y103948D01*
X121546Y104546D01*
X120948Y105058D01*
X120277Y105469D01*
X119550Y105770D01*
X118785Y105954D01*
X118196Y106000D01*
X118785Y106046D01*
X119550Y106230D01*
X120277Y106531D01*
X120948Y106942D01*
X121546Y107454D01*
X122058Y108052D01*
X122469Y108723D01*
X122770Y109450D01*
X122954Y110215D01*
X123000Y111000D01*
X122954Y111785D01*
X122770Y112550D01*
X122469Y113277D01*
X122058Y113948D01*
X121546Y114546D01*
X120948Y115058D01*
X120277Y115469D01*
X119550Y115770D01*
X118785Y115954D01*
X118000Y116015D01*
X117992Y116015D01*
Y486202D01*
G37*
G36*
Y518683D02*X118706Y517848D01*
X119768Y516941D01*
X120959Y516211D01*
X122249Y515676D01*
X123608Y515350D01*
X125000Y515241D01*
X126392Y515350D01*
X127751Y515676D01*
X129041Y516211D01*
X129987Y516790D01*
Y499013D01*
X129041Y499592D01*
X127751Y500127D01*
X126392Y500453D01*
X125000Y500562D01*
X123608Y500453D01*
X122249Y500127D01*
X120959Y499592D01*
X119768Y498862D01*
X118706Y497955D01*
X117992Y497120D01*
Y518683D01*
G37*
G36*
Y543000D02*X129987D01*
Y531494D01*
X129041Y532073D01*
X127751Y532608D01*
X126392Y532934D01*
X125000Y533043D01*
X123608Y532934D01*
X122249Y532608D01*
X120959Y532073D01*
X119768Y531343D01*
X118706Y530436D01*
X117992Y529601D01*
Y543000D01*
G37*
G36*
X108844D02*X117992D01*
Y529601D01*
X117799Y529374D01*
X117069Y528183D01*
X116534Y526893D01*
X116208Y525534D01*
X116099Y524142D01*
X116208Y522750D01*
X116534Y521391D01*
X117069Y520101D01*
X117799Y518910D01*
X117992Y518683D01*
Y497120D01*
X117799Y496893D01*
X117069Y495702D01*
X116534Y494412D01*
X116208Y493053D01*
X116099Y491661D01*
X116208Y490269D01*
X116534Y488910D01*
X117069Y487620D01*
X117799Y486429D01*
X117992Y486202D01*
Y116015D01*
X117215Y115954D01*
X116450Y115770D01*
X115723Y115469D01*
X115052Y115058D01*
X114454Y114546D01*
X113942Y113948D01*
X113531Y113277D01*
X113230Y112550D01*
X113046Y111785D01*
X112985Y111000D01*
X113046Y110215D01*
X113230Y109450D01*
X113531Y108723D01*
X113942Y108052D01*
X114454Y107454D01*
X115052Y106942D01*
X115723Y106531D01*
X116450Y106230D01*
X117215Y106046D01*
X117804Y106000D01*
X117215Y105954D01*
X116450Y105770D01*
X115723Y105469D01*
X115052Y105058D01*
X114454Y104546D01*
X113942Y103948D01*
X113531Y103277D01*
X113230Y102550D01*
X113046Y101785D01*
X112985Y101000D01*
X113046Y100215D01*
X113230Y99450D01*
X113531Y98723D01*
X113942Y98052D01*
X114454Y97454D01*
X115052Y96942D01*
X115723Y96531D01*
X116450Y96230D01*
X117215Y96046D01*
X117804Y96000D01*
X117215Y95954D01*
X116450Y95770D01*
X115723Y95469D01*
X115052Y95058D01*
X114454Y94546D01*
X113942Y93948D01*
X113531Y93277D01*
X113230Y92550D01*
X113046Y91785D01*
X112985Y91000D01*
X113046Y90215D01*
X113230Y89450D01*
X113531Y88723D01*
X113942Y88052D01*
X114454Y87454D01*
X115052Y86942D01*
X115723Y86531D01*
X116450Y86230D01*
X117215Y86046D01*
X117804Y86000D01*
X117215Y85954D01*
X116450Y85770D01*
X115723Y85469D01*
X115052Y85058D01*
X114454Y84546D01*
X113942Y83948D01*
X113531Y83277D01*
X113230Y82550D01*
X113046Y81785D01*
X112985Y81000D01*
X113046Y80215D01*
X113230Y79450D01*
X113531Y78723D01*
X113942Y78052D01*
X114454Y77454D01*
X115052Y76942D01*
X115723Y76531D01*
X116450Y76230D01*
X117215Y76046D01*
X117992Y75985D01*
Y7992D01*
X113000Y3000D01*
X108844D01*
Y20005D01*
X113735Y20014D01*
X113965Y20069D01*
X114183Y20159D01*
X114384Y20283D01*
X114564Y20436D01*
X114717Y20616D01*
X114841Y20817D01*
X114931Y21035D01*
X114986Y21265D01*
X115000Y21500D01*
X114986Y28735D01*
X114931Y28965D01*
X114841Y29183D01*
X114717Y29384D01*
X114564Y29564D01*
X114384Y29717D01*
X114183Y29841D01*
X113965Y29931D01*
X113735Y29986D01*
X113500Y30000D01*
X110113Y29993D01*
X110785Y30046D01*
X111550Y30230D01*
X112277Y30531D01*
X112948Y30942D01*
X113546Y31454D01*
X114058Y32052D01*
X114469Y32723D01*
X114770Y33450D01*
X114954Y34215D01*
X115000Y35000D01*
X114954Y35785D01*
X114770Y36550D01*
X114469Y37277D01*
X114058Y37948D01*
X113546Y38546D01*
X112948Y39058D01*
X112277Y39469D01*
X111550Y39770D01*
X110785Y39954D01*
X110196Y40000D01*
X110785Y40046D01*
X111550Y40230D01*
X112277Y40531D01*
X112948Y40942D01*
X113546Y41454D01*
X114058Y42052D01*
X114469Y42723D01*
X114770Y43450D01*
X114954Y44215D01*
X115000Y45000D01*
X114954Y45785D01*
X114770Y46550D01*
X114469Y47277D01*
X114058Y47948D01*
X113546Y48546D01*
X112948Y49058D01*
X112277Y49469D01*
X111550Y49770D01*
X110785Y49954D01*
X110196Y50000D01*
X110785Y50046D01*
X111550Y50230D01*
X112277Y50531D01*
X112948Y50942D01*
X113546Y51454D01*
X114058Y52052D01*
X114469Y52723D01*
X114770Y53450D01*
X114954Y54215D01*
X115000Y55000D01*
X114954Y55785D01*
X114770Y56550D01*
X114469Y57277D01*
X114058Y57948D01*
X113546Y58546D01*
X112948Y59058D01*
X112277Y59469D01*
X111550Y59770D01*
X110785Y59954D01*
X110000Y60015D01*
X109215Y59954D01*
X108844Y59865D01*
Y340100D01*
X108858Y340099D01*
X110250Y340208D01*
X111609Y340534D01*
X112899Y341069D01*
X114090Y341799D01*
X115152Y342706D01*
X116059Y343768D01*
X116789Y344959D01*
X117324Y346249D01*
X117650Y347608D01*
X117732Y349000D01*
X117650Y350392D01*
X117324Y351751D01*
X116789Y353041D01*
X116059Y354232D01*
X115152Y355294D01*
X114090Y356201D01*
X112899Y356931D01*
X111609Y357466D01*
X110250Y357792D01*
X108858Y357901D01*
X108844Y357900D01*
Y543000D01*
G37*
G36*
X104000Y341569D02*X104817Y341069D01*
X106107Y340534D01*
X107466Y340208D01*
X108844Y340100D01*
Y59865D01*
X108450Y59770D01*
X107723Y59469D01*
X107052Y59058D01*
X106454Y58546D01*
X105942Y57948D01*
X105531Y57277D01*
X105230Y56550D01*
X105046Y55785D01*
X104985Y55000D01*
X105046Y54215D01*
X105230Y53450D01*
X105531Y52723D01*
X105942Y52052D01*
X106454Y51454D01*
X107052Y50942D01*
X107723Y50531D01*
X108450Y50230D01*
X108844Y50135D01*
Y49865D01*
X108450Y49770D01*
X107723Y49469D01*
X107052Y49058D01*
X106454Y48546D01*
X105942Y47948D01*
X105531Y47277D01*
X105230Y46550D01*
X105046Y45785D01*
X104985Y45000D01*
X105046Y44215D01*
X105230Y43450D01*
X105531Y42723D01*
X105942Y42052D01*
X106454Y41454D01*
X107052Y40942D01*
X107723Y40531D01*
X108450Y40230D01*
X108844Y40135D01*
Y39865D01*
X108450Y39770D01*
X107723Y39469D01*
X107052Y39058D01*
X106454Y38546D01*
X105942Y37948D01*
X105531Y37277D01*
X105230Y36550D01*
X105046Y35785D01*
X104985Y35000D01*
X105046Y34215D01*
X105230Y33450D01*
X105531Y32723D01*
X105942Y32052D01*
X106454Y31454D01*
X107052Y30942D01*
X107723Y30531D01*
X108450Y30230D01*
X108844Y30135D01*
Y29991D01*
X106265Y29986D01*
X106035Y29931D01*
X105817Y29841D01*
X105616Y29717D01*
X105436Y29564D01*
X105283Y29384D01*
X105159Y29183D01*
X105069Y28965D01*
X105014Y28735D01*
X105000Y28500D01*
X105014Y21265D01*
X105069Y21035D01*
X105159Y20817D01*
X105283Y20616D01*
X105436Y20436D01*
X105616Y20283D01*
X105817Y20159D01*
X106035Y20069D01*
X106265Y20014D01*
X106500Y20000D01*
X108844Y20005D01*
Y3000D01*
X104000D01*
Y66257D01*
X107485Y66264D01*
X107715Y66319D01*
X107933Y66409D01*
X108134Y66533D01*
X108314Y66686D01*
X108467Y66866D01*
X108591Y67067D01*
X108681Y67285D01*
X108736Y67515D01*
X108750Y67750D01*
X108736Y74485D01*
X108681Y74715D01*
X108591Y74933D01*
X108467Y75134D01*
X108314Y75314D01*
X108134Y75467D01*
X107933Y75591D01*
X107715Y75681D01*
X107485Y75736D01*
X107250Y75750D01*
X104000Y75743D01*
Y76235D01*
X104745Y76294D01*
X105472Y76469D01*
X106163Y76755D01*
X106801Y77145D01*
X107369Y77631D01*
X107855Y78199D01*
X108245Y78837D01*
X108531Y79528D01*
X108706Y80255D01*
X108750Y81000D01*
X108706Y81745D01*
X108531Y82472D01*
X108245Y83163D01*
X107855Y83801D01*
X107369Y84369D01*
X106801Y84855D01*
X106163Y85245D01*
X105472Y85531D01*
X104745Y85706D01*
X104000Y85765D01*
Y341569D01*
G37*
G36*
Y543000D02*X108844D01*
Y357900D01*
X107466Y357792D01*
X106107Y357466D01*
X104817Y356931D01*
X104000Y356431D01*
Y543000D01*
G37*
G36*
X89993D02*X104000D01*
Y356431D01*
X103626Y356201D01*
X102564Y355294D01*
X101657Y354232D01*
X100927Y353041D01*
X100392Y351751D01*
X100066Y350392D01*
X99957Y349000D01*
X100066Y347608D01*
X100392Y346249D01*
X100927Y344959D01*
X101657Y343768D01*
X102564Y342706D01*
X103626Y341799D01*
X104000Y341569D01*
Y85765D01*
X103255Y85706D01*
X102528Y85531D01*
X101837Y85245D01*
X101199Y84855D01*
X100631Y84369D01*
X100145Y83801D01*
X99755Y83163D01*
X99469Y82472D01*
X99294Y81745D01*
X99235Y81000D01*
X99294Y80255D01*
X99469Y79528D01*
X99755Y78837D01*
X100145Y78199D01*
X100631Y77631D01*
X101199Y77145D01*
X101837Y76755D01*
X102528Y76469D01*
X103255Y76294D01*
X104000Y76235D01*
Y75743D01*
X100515Y75736D01*
X100285Y75681D01*
X100067Y75591D01*
X99866Y75467D01*
X99686Y75314D01*
X99533Y75134D01*
X99409Y74933D01*
X99319Y74715D01*
X99264Y74485D01*
X99250Y74250D01*
X99264Y67515D01*
X99319Y67285D01*
X99409Y67067D01*
X99533Y66866D01*
X99686Y66686D01*
X99866Y66533D01*
X100067Y66409D01*
X100285Y66319D01*
X100515Y66264D01*
X100750Y66250D01*
X104000Y66257D01*
Y3000D01*
X89993D01*
Y8236D01*
X90000Y8235D01*
X90745Y8294D01*
X91472Y8469D01*
X92163Y8755D01*
X92801Y9145D01*
X93369Y9631D01*
X93855Y10199D01*
X94245Y10837D01*
X94531Y11528D01*
X94706Y12255D01*
X94750Y13000D01*
X94706Y13745D01*
X94531Y14472D01*
X94245Y15163D01*
X93855Y15801D01*
X93369Y16369D01*
X92801Y16855D01*
X92163Y17245D01*
X91472Y17531D01*
X90745Y17706D01*
X90000Y17765D01*
X89993Y17764D01*
Y138250D01*
X96485Y138264D01*
X96715Y138319D01*
X96933Y138409D01*
X97134Y138533D01*
X97314Y138686D01*
X97467Y138866D01*
X97591Y139067D01*
X97681Y139285D01*
X97736Y139515D01*
X97750Y139750D01*
X97736Y146485D01*
X97681Y146715D01*
X97591Y146933D01*
X97467Y147134D01*
X97314Y147314D01*
X97134Y147467D01*
X96933Y147591D01*
X96715Y147681D01*
X96485Y147736D01*
X96250Y147750D01*
X89993Y147737D01*
Y169322D01*
X90199Y169145D01*
X90837Y168755D01*
X91528Y168469D01*
X92255Y168294D01*
X93000Y168235D01*
X93745Y168294D01*
X94472Y168469D01*
X95163Y168755D01*
X95801Y169145D01*
X96369Y169631D01*
X96855Y170199D01*
X97245Y170837D01*
X97531Y171528D01*
X97706Y172255D01*
X97750Y173000D01*
X97706Y173745D01*
X97531Y174472D01*
X97245Y175163D01*
X96855Y175801D01*
X96369Y176369D01*
X95801Y176855D01*
X95163Y177245D01*
X94472Y177531D01*
X93745Y177706D01*
X93000Y177765D01*
X92255Y177706D01*
X91528Y177531D01*
X90837Y177245D01*
X90199Y176855D01*
X89993Y176678D01*
Y543000D01*
G37*
G36*
X82991D02*X89993D01*
Y176678D01*
X89631Y176369D01*
X89145Y175801D01*
X88755Y175163D01*
X88469Y174472D01*
X88294Y173745D01*
X88235Y173000D01*
X88294Y172255D01*
X88469Y171528D01*
X88755Y170837D01*
X89145Y170199D01*
X89631Y169631D01*
X89993Y169322D01*
Y147737D01*
X89515Y147736D01*
X89285Y147681D01*
X89067Y147591D01*
X88866Y147467D01*
X88686Y147314D01*
X88533Y147134D01*
X88409Y146933D01*
X88319Y146715D01*
X88264Y146485D01*
X88250Y146250D01*
X88264Y139515D01*
X88319Y139285D01*
X88409Y139067D01*
X88533Y138866D01*
X88686Y138686D01*
X88866Y138533D01*
X89067Y138409D01*
X89285Y138319D01*
X89515Y138264D01*
X89750Y138250D01*
X89993Y138250D01*
Y17764D01*
X89255Y17706D01*
X88528Y17531D01*
X87837Y17245D01*
X87199Y16855D01*
X86631Y16369D01*
X86145Y15801D01*
X85755Y15163D01*
X85469Y14472D01*
X85294Y13745D01*
X85235Y13000D01*
X85294Y12255D01*
X85469Y11528D01*
X85755Y10837D01*
X86145Y10199D01*
X86631Y9631D01*
X87199Y9145D01*
X87837Y8755D01*
X88528Y8469D01*
X89255Y8294D01*
X89993Y8236D01*
Y3000D01*
X82991D01*
Y8263D01*
X83485Y8264D01*
X83715Y8319D01*
X83933Y8409D01*
X84134Y8533D01*
X84314Y8686D01*
X84467Y8866D01*
X84591Y9067D01*
X84681Y9285D01*
X84736Y9515D01*
X84750Y9750D01*
X84736Y16485D01*
X84681Y16715D01*
X84591Y16933D01*
X84467Y17134D01*
X84314Y17314D01*
X84134Y17467D01*
X83933Y17591D01*
X83715Y17681D01*
X83485Y17736D01*
X83250Y17750D01*
X82991Y17749D01*
Y20979D01*
X83546Y21454D01*
X84058Y22052D01*
X84469Y22723D01*
X84770Y23450D01*
X84954Y24215D01*
X85000Y25000D01*
X84954Y25785D01*
X84770Y26550D01*
X84469Y27277D01*
X84058Y27948D01*
X83546Y28546D01*
X82991Y29021D01*
Y30979D01*
X83546Y31454D01*
X84058Y32052D01*
X84469Y32723D01*
X84770Y33450D01*
X84954Y34215D01*
X85000Y35000D01*
X84954Y35785D01*
X84770Y36550D01*
X84469Y37277D01*
X84058Y37948D01*
X83546Y38546D01*
X82991Y39021D01*
Y40979D01*
X83546Y41454D01*
X84058Y42052D01*
X84469Y42723D01*
X84770Y43450D01*
X84954Y44215D01*
X85000Y45000D01*
X84954Y45785D01*
X84770Y46550D01*
X84469Y47277D01*
X84058Y47948D01*
X83546Y48546D01*
X82991Y49021D01*
Y50979D01*
X83546Y51454D01*
X84058Y52052D01*
X84469Y52723D01*
X84770Y53450D01*
X84954Y54215D01*
X85000Y55000D01*
X84954Y55785D01*
X84770Y56550D01*
X84469Y57277D01*
X84058Y57948D01*
X83546Y58546D01*
X82991Y59021D01*
Y251982D01*
X83000Y251981D01*
X83942Y252056D01*
X84860Y252276D01*
X85732Y252637D01*
X86538Y253131D01*
X87256Y253744D01*
X87869Y254462D01*
X88363Y255268D01*
X88724Y256140D01*
X88944Y257058D01*
X89000Y258000D01*
X88944Y258942D01*
X88724Y259860D01*
X88363Y260732D01*
X87869Y261538D01*
X87256Y262256D01*
X86538Y262869D01*
X86324Y263000D01*
X86538Y263131D01*
X87256Y263744D01*
X87869Y264462D01*
X88363Y265268D01*
X88724Y266140D01*
X88944Y267058D01*
X89000Y268000D01*
X88944Y268942D01*
X88724Y269860D01*
X88363Y270732D01*
X87869Y271538D01*
X87463Y272013D01*
X87735Y272014D01*
X87965Y272069D01*
X88183Y272159D01*
X88384Y272283D01*
X88564Y272436D01*
X88717Y272616D01*
X88841Y272817D01*
X88931Y273035D01*
X88986Y273265D01*
X89000Y273500D01*
X88986Y282735D01*
X88931Y282965D01*
X88841Y283183D01*
X88717Y283384D01*
X88564Y283564D01*
X88384Y283717D01*
X88183Y283841D01*
X87965Y283931D01*
X87735Y283986D01*
X87500Y284000D01*
X82991Y283993D01*
Y321236D01*
X83000Y321235D01*
X83745Y321294D01*
X84472Y321469D01*
X85163Y321755D01*
X85801Y322145D01*
X86369Y322631D01*
X86855Y323199D01*
X87245Y323837D01*
X87531Y324528D01*
X87706Y325255D01*
X87750Y326000D01*
X87706Y326745D01*
X87531Y327472D01*
X87245Y328163D01*
X86855Y328801D01*
X86369Y329369D01*
X85801Y329855D01*
X85163Y330245D01*
X84472Y330531D01*
X83745Y330706D01*
X83000Y330765D01*
X82991Y330764D01*
Y406007D01*
X87735Y406014D01*
X87965Y406069D01*
X88183Y406159D01*
X88384Y406283D01*
X88564Y406436D01*
X88717Y406616D01*
X88841Y406817D01*
X88931Y407035D01*
X88986Y407265D01*
X89000Y407500D01*
X88986Y416735D01*
X88931Y416965D01*
X88841Y417183D01*
X88717Y417384D01*
X88564Y417564D01*
X88384Y417717D01*
X88183Y417841D01*
X87965Y417931D01*
X87735Y417986D01*
X87500Y418000D01*
X87474Y418000D01*
X87869Y418462D01*
X88363Y419268D01*
X88724Y420140D01*
X88944Y421058D01*
X89000Y422000D01*
X88944Y422942D01*
X88724Y423860D01*
X88363Y424732D01*
X87869Y425538D01*
X87256Y426256D01*
X86538Y426869D01*
X86324Y427000D01*
X86538Y427131D01*
X87256Y427744D01*
X87869Y428462D01*
X88363Y429268D01*
X88724Y430140D01*
X88944Y431058D01*
X89000Y432000D01*
X88944Y432942D01*
X88724Y433860D01*
X88363Y434732D01*
X87869Y435538D01*
X87256Y436256D01*
X86538Y436869D01*
X85732Y437363D01*
X84860Y437724D01*
X83942Y437944D01*
X83000Y438019D01*
X82991Y438018D01*
Y489502D01*
X88235Y489514D01*
X88465Y489569D01*
X88683Y489659D01*
X88884Y489783D01*
X89064Y489936D01*
X89217Y490116D01*
X89341Y490317D01*
X89431Y490535D01*
X89486Y490765D01*
X89500Y491000D01*
X89486Y497235D01*
X89431Y497465D01*
X89341Y497683D01*
X89217Y497884D01*
X89064Y498064D01*
X88884Y498217D01*
X88683Y498341D01*
X88465Y498431D01*
X88235Y498486D01*
X88000Y498500D01*
X82991Y498489D01*
Y519962D01*
X83605Y519707D01*
X84294Y519542D01*
X85000Y519486D01*
X85706Y519542D01*
X86395Y519707D01*
X87049Y519978D01*
X87653Y520348D01*
X88192Y520808D01*
X88652Y521347D01*
X89022Y521951D01*
X89293Y522605D01*
X89458Y523294D01*
X89500Y524000D01*
X89458Y524706D01*
X89293Y525395D01*
X89022Y526049D01*
X88652Y526653D01*
X88192Y527192D01*
X87653Y527652D01*
X87049Y528022D01*
X86395Y528293D01*
X85706Y528458D01*
X85000Y528514D01*
X84294Y528458D01*
X83605Y528293D01*
X82991Y528038D01*
Y543000D01*
G37*
G36*
Y49021D02*X82948Y49058D01*
X82277Y49469D01*
X81550Y49770D01*
X80785Y49954D01*
X80196Y50000D01*
X80785Y50046D01*
X81550Y50230D01*
X82277Y50531D01*
X82948Y50942D01*
X82991Y50979D01*
Y49021D01*
G37*
G36*
Y39021D02*X82948Y39058D01*
X82277Y39469D01*
X81550Y39770D01*
X80785Y39954D01*
X80196Y40000D01*
X80785Y40046D01*
X81550Y40230D01*
X82277Y40531D01*
X82948Y40942D01*
X82991Y40979D01*
Y39021D01*
G37*
G36*
Y29021D02*X82948Y29058D01*
X82277Y29469D01*
X81550Y29770D01*
X80785Y29954D01*
X80196Y30000D01*
X80785Y30046D01*
X81550Y30230D01*
X82277Y30531D01*
X82948Y30942D01*
X82991Y30979D01*
Y29021D01*
G37*
G36*
X56987Y543000D02*X82991D01*
Y528038D01*
X82951Y528022D01*
X82347Y527652D01*
X81808Y527192D01*
X81348Y526653D01*
X80978Y526049D01*
X80707Y525395D01*
X80542Y524706D01*
X80486Y524000D01*
X80542Y523294D01*
X80707Y522605D01*
X80978Y521951D01*
X81348Y521347D01*
X81808Y520808D01*
X82347Y520348D01*
X82951Y519978D01*
X82991Y519962D01*
Y498489D01*
X81765Y498486D01*
X81535Y498431D01*
X81317Y498341D01*
X81116Y498217D01*
X80936Y498064D01*
X80783Y497884D01*
X80659Y497683D01*
X80569Y497465D01*
X80514Y497235D01*
X80500Y497000D01*
X80514Y490765D01*
X80569Y490535D01*
X80659Y490317D01*
X80783Y490116D01*
X80936Y489936D01*
X81116Y489783D01*
X81317Y489659D01*
X81535Y489569D01*
X81765Y489514D01*
X82000Y489500D01*
X82991Y489502D01*
Y438018D01*
X82058Y437944D01*
X81140Y437724D01*
X80268Y437363D01*
X79462Y436869D01*
X78744Y436256D01*
X78131Y435538D01*
X77637Y434732D01*
X77276Y433860D01*
X77056Y432942D01*
X76981Y432000D01*
X77056Y431058D01*
X77276Y430140D01*
X77637Y429268D01*
X78131Y428462D01*
X78744Y427744D01*
X79462Y427131D01*
X79676Y427000D01*
X79462Y426869D01*
X78744Y426256D01*
X78131Y425538D01*
X77637Y424732D01*
X77276Y423860D01*
X77056Y422942D01*
X76981Y422000D01*
X77056Y421058D01*
X77276Y420140D01*
X77637Y419268D01*
X78131Y418462D01*
X78537Y417987D01*
X78265Y417986D01*
X78035Y417931D01*
X77817Y417841D01*
X77616Y417717D01*
X77436Y417564D01*
X77283Y417384D01*
X77159Y417183D01*
X77069Y416965D01*
X77014Y416735D01*
X77000Y416500D01*
X77014Y407265D01*
X77069Y407035D01*
X77159Y406817D01*
X77283Y406616D01*
X77436Y406436D01*
X77616Y406283D01*
X77817Y406159D01*
X78035Y406069D01*
X78265Y406014D01*
X78500Y406000D01*
X82991Y406007D01*
Y330764D01*
X82255Y330706D01*
X81528Y330531D01*
X80837Y330245D01*
X80199Y329855D01*
X79631Y329369D01*
X79145Y328801D01*
X78755Y328163D01*
X78469Y327472D01*
X78294Y326745D01*
X78235Y326000D01*
X78294Y325255D01*
X78469Y324528D01*
X78755Y323837D01*
X79145Y323199D01*
X79631Y322631D01*
X80199Y322145D01*
X80837Y321755D01*
X81528Y321469D01*
X82255Y321294D01*
X82991Y321236D01*
Y283993D01*
X78265Y283986D01*
X78035Y283931D01*
X77817Y283841D01*
X77616Y283717D01*
X77436Y283564D01*
X77283Y283384D01*
X77159Y283183D01*
X77069Y282965D01*
X77014Y282735D01*
X77000Y282500D01*
X77014Y273265D01*
X77069Y273035D01*
X77159Y272817D01*
X77283Y272616D01*
X77436Y272436D01*
X77616Y272283D01*
X77817Y272159D01*
X78035Y272069D01*
X78265Y272014D01*
X78500Y272000D01*
X78526Y272000D01*
X78131Y271538D01*
X77637Y270732D01*
X77276Y269860D01*
X77056Y268942D01*
X76981Y268000D01*
X77056Y267058D01*
X77276Y266140D01*
X77637Y265268D01*
X78131Y264462D01*
X78744Y263744D01*
X79462Y263131D01*
X79676Y263000D01*
X79462Y262869D01*
X78744Y262256D01*
X78131Y261538D01*
X77637Y260732D01*
X77276Y259860D01*
X77056Y258942D01*
X76981Y258000D01*
X77056Y257058D01*
X77276Y256140D01*
X77637Y255268D01*
X78131Y254462D01*
X78744Y253744D01*
X79462Y253131D01*
X80268Y252637D01*
X81140Y252276D01*
X82058Y252056D01*
X82991Y251982D01*
Y59021D01*
X82948Y59058D01*
X82277Y59469D01*
X81550Y59770D01*
X80785Y59954D01*
X80000Y60015D01*
X79215Y59954D01*
X78450Y59770D01*
X77723Y59469D01*
X77052Y59058D01*
X76454Y58546D01*
X75942Y57948D01*
X75531Y57277D01*
X75230Y56550D01*
X75046Y55785D01*
X74985Y55000D01*
X75046Y54215D01*
X75230Y53450D01*
X75531Y52723D01*
X75942Y52052D01*
X76454Y51454D01*
X77052Y50942D01*
X77723Y50531D01*
X78450Y50230D01*
X79215Y50046D01*
X79804Y50000D01*
X79215Y49954D01*
X78450Y49770D01*
X77723Y49469D01*
X77052Y49058D01*
X76454Y48546D01*
X75942Y47948D01*
X75531Y47277D01*
X75230Y46550D01*
X75046Y45785D01*
X74985Y45000D01*
X75046Y44215D01*
X75230Y43450D01*
X75531Y42723D01*
X75942Y42052D01*
X76454Y41454D01*
X77052Y40942D01*
X77723Y40531D01*
X78450Y40230D01*
X79215Y40046D01*
X79804Y40000D01*
X79215Y39954D01*
X78450Y39770D01*
X77723Y39469D01*
X77052Y39058D01*
X76454Y38546D01*
X75942Y37948D01*
X75531Y37277D01*
X75230Y36550D01*
X75046Y35785D01*
X74985Y35000D01*
X75046Y34215D01*
X75230Y33450D01*
X75531Y32723D01*
X75942Y32052D01*
X76454Y31454D01*
X77052Y30942D01*
X77723Y30531D01*
X78450Y30230D01*
X79215Y30046D01*
X79804Y30000D01*
X79215Y29954D01*
X78450Y29770D01*
X77723Y29469D01*
X77052Y29058D01*
X76454Y28546D01*
X75942Y27948D01*
X75531Y27277D01*
X75230Y26550D01*
X75046Y25785D01*
X74985Y25000D01*
X75046Y24215D01*
X75230Y23450D01*
X75531Y22723D01*
X75942Y22052D01*
X76454Y21454D01*
X77052Y20942D01*
X77723Y20531D01*
X78450Y20230D01*
X79215Y20046D01*
X80000Y19985D01*
X80785Y20046D01*
X81550Y20230D01*
X82277Y20531D01*
X82948Y20942D01*
X82991Y20979D01*
Y17749D01*
X76515Y17736D01*
X76285Y17681D01*
X76067Y17591D01*
X75866Y17467D01*
X75686Y17314D01*
X75533Y17134D01*
X75409Y16933D01*
X75319Y16715D01*
X75264Y16485D01*
X75250Y16250D01*
X75264Y9515D01*
X75319Y9285D01*
X75409Y9067D01*
X75533Y8866D01*
X75686Y8686D01*
X75866Y8533D01*
X76067Y8409D01*
X76285Y8319D01*
X76515Y8264D01*
X76750Y8250D01*
X82991Y8263D01*
Y3000D01*
X80000D01*
X68000Y15000D01*
X56987D01*
Y51327D01*
X57199Y51145D01*
X57837Y50755D01*
X58528Y50469D01*
X59255Y50294D01*
X60000Y50235D01*
X60745Y50294D01*
X61472Y50469D01*
X62163Y50755D01*
X62801Y51145D01*
X63369Y51631D01*
X63855Y52199D01*
X64245Y52837D01*
X64531Y53528D01*
X64706Y54255D01*
X64750Y55000D01*
X64706Y55745D01*
X64531Y56472D01*
X64245Y57163D01*
X63855Y57801D01*
X63369Y58369D01*
X62801Y58855D01*
X62163Y59245D01*
X61472Y59531D01*
X60745Y59706D01*
X60000Y59765D01*
X59255Y59706D01*
X58528Y59531D01*
X57837Y59245D01*
X57199Y58855D01*
X56987Y58673D01*
Y78736D01*
X57635Y78891D01*
X58871Y79403D01*
X60012Y80102D01*
X61029Y80971D01*
X61898Y81988D01*
X62597Y83129D01*
X63109Y84365D01*
X63421Y85666D01*
X63500Y87000D01*
X63421Y88334D01*
X63109Y89635D01*
X62597Y90871D01*
X61898Y92012D01*
X61029Y93029D01*
X60012Y93898D01*
X58871Y94597D01*
X57635Y95109D01*
X56987Y95264D01*
Y131986D01*
X57000Y131985D01*
X57785Y132046D01*
X58550Y132230D01*
X59277Y132531D01*
X59948Y132942D01*
X60546Y133454D01*
X61058Y134052D01*
X61469Y134723D01*
X61770Y135450D01*
X61954Y136215D01*
X62000Y137000D01*
X61954Y137785D01*
X61770Y138550D01*
X61469Y139277D01*
X61058Y139948D01*
X60546Y140546D01*
X59948Y141058D01*
X59277Y141469D01*
X58550Y141770D01*
X57785Y141954D01*
X57196Y142000D01*
X57785Y142046D01*
X58550Y142230D01*
X59277Y142531D01*
X59948Y142942D01*
X60546Y143454D01*
X61058Y144052D01*
X61469Y144723D01*
X61770Y145450D01*
X61954Y146215D01*
X62000Y147000D01*
X61954Y147785D01*
X61770Y148550D01*
X61469Y149277D01*
X61058Y149948D01*
X60546Y150546D01*
X59948Y151058D01*
X59277Y151469D01*
X58550Y151770D01*
X57785Y151954D01*
X57196Y152000D01*
X57785Y152046D01*
X58550Y152230D01*
X59277Y152531D01*
X59948Y152942D01*
X60546Y153454D01*
X61058Y154052D01*
X61469Y154723D01*
X61770Y155450D01*
X61954Y156215D01*
X62000Y157000D01*
X61954Y157785D01*
X61770Y158550D01*
X61469Y159277D01*
X61058Y159948D01*
X60546Y160546D01*
X59948Y161058D01*
X59277Y161469D01*
X58550Y161770D01*
X57785Y161954D01*
X57196Y162000D01*
X57785Y162046D01*
X58550Y162230D01*
X59277Y162531D01*
X59948Y162942D01*
X60546Y163454D01*
X61058Y164052D01*
X61469Y164723D01*
X61770Y165450D01*
X61954Y166215D01*
X62000Y167000D01*
X61954Y167785D01*
X61770Y168550D01*
X61469Y169277D01*
X61058Y169948D01*
X60546Y170546D01*
X59948Y171058D01*
X59277Y171469D01*
X58550Y171770D01*
X57785Y171954D01*
X57196Y172000D01*
X57785Y172046D01*
X58550Y172230D01*
X59277Y172531D01*
X59948Y172942D01*
X60546Y173454D01*
X61058Y174052D01*
X61469Y174723D01*
X61770Y175450D01*
X61954Y176215D01*
X62000Y177000D01*
X61954Y177785D01*
X61770Y178550D01*
X61469Y179277D01*
X61058Y179948D01*
X60546Y180546D01*
X59948Y181058D01*
X59277Y181469D01*
X58550Y181770D01*
X57785Y181954D01*
X57196Y182000D01*
X57785Y182046D01*
X58550Y182230D01*
X59277Y182531D01*
X59948Y182942D01*
X60546Y183454D01*
X61058Y184052D01*
X61469Y184723D01*
X61770Y185450D01*
X61954Y186215D01*
X62000Y187000D01*
X61954Y187785D01*
X61770Y188550D01*
X61469Y189277D01*
X61058Y189948D01*
X60546Y190546D01*
X59948Y191058D01*
X59277Y191469D01*
X58550Y191770D01*
X57785Y191954D01*
X57196Y192000D01*
X57785Y192046D01*
X58550Y192230D01*
X59277Y192531D01*
X59948Y192942D01*
X60546Y193454D01*
X61058Y194052D01*
X61469Y194723D01*
X61770Y195450D01*
X61954Y196215D01*
X62000Y197000D01*
X61954Y197785D01*
X61770Y198550D01*
X61469Y199277D01*
X61058Y199948D01*
X60546Y200546D01*
X59948Y201058D01*
X59277Y201469D01*
X58550Y201770D01*
X57785Y201954D01*
X57000Y202015D01*
X56987Y202014D01*
Y205257D01*
X60485Y205264D01*
X60715Y205319D01*
X60933Y205409D01*
X61134Y205533D01*
X61314Y205686D01*
X61467Y205866D01*
X61591Y206067D01*
X61681Y206285D01*
X61736Y206515D01*
X61750Y206750D01*
X61736Y213485D01*
X61681Y213715D01*
X61591Y213933D01*
X61467Y214134D01*
X61314Y214314D01*
X61134Y214467D01*
X60933Y214591D01*
X60715Y214681D01*
X60485Y214736D01*
X60250Y214750D01*
X56987Y214743D01*
Y259584D01*
X57260Y259905D01*
X57692Y260609D01*
X58008Y261373D01*
X58201Y262176D01*
X58250Y263000D01*
X58201Y263824D01*
X58008Y264627D01*
X57692Y265391D01*
X57260Y266095D01*
X56987Y266416D01*
Y267764D01*
X57215Y267819D01*
X57433Y267909D01*
X57634Y268033D01*
X57814Y268186D01*
X57967Y268366D01*
X58091Y268567D01*
X58181Y268785D01*
X58236Y269015D01*
X58250Y269250D01*
X58236Y276985D01*
X58181Y277215D01*
X58091Y277433D01*
X57967Y277634D01*
X57814Y277814D01*
X57634Y277967D01*
X57433Y278091D01*
X57215Y278181D01*
X56987Y278236D01*
Y321078D01*
X57183Y321159D01*
X57384Y321283D01*
X57564Y321436D01*
X57717Y321616D01*
X57841Y321817D01*
X57931Y322035D01*
X57986Y322265D01*
X58000Y322500D01*
X57986Y329735D01*
X57931Y329965D01*
X57841Y330183D01*
X57717Y330384D01*
X57564Y330564D01*
X57384Y330717D01*
X57183Y330841D01*
X56987Y330922D01*
Y345475D01*
X57000Y345474D01*
X58334Y345579D01*
X59635Y345891D01*
X60871Y346403D01*
X62012Y347102D01*
X63029Y347971D01*
X63898Y348988D01*
X64597Y350129D01*
X65109Y351365D01*
X65421Y352666D01*
X65500Y354000D01*
X65421Y355334D01*
X65109Y356635D01*
X64597Y357871D01*
X63898Y359012D01*
X63029Y360029D01*
X62012Y360898D01*
X60871Y361597D01*
X59635Y362109D01*
X58334Y362421D01*
X57000Y362526D01*
X56987Y362525D01*
Y413969D01*
X57058Y414052D01*
X57469Y414723D01*
X57770Y415450D01*
X57954Y416215D01*
X58000Y417000D01*
X57954Y417785D01*
X57770Y418550D01*
X57469Y419277D01*
X57058Y419948D01*
X56987Y420031D01*
Y422078D01*
X57183Y422159D01*
X57384Y422283D01*
X57564Y422436D01*
X57717Y422616D01*
X57841Y422817D01*
X57931Y423035D01*
X57986Y423265D01*
X58000Y423500D01*
X57986Y430735D01*
X57931Y430965D01*
X57841Y431183D01*
X57717Y431384D01*
X57564Y431564D01*
X57384Y431717D01*
X57183Y431841D01*
X56987Y431922D01*
Y543000D01*
G37*
G36*
Y420031D02*X56546Y420546D01*
X55948Y421058D01*
X55277Y421469D01*
X54550Y421770D01*
X53785Y421954D01*
X53108Y422007D01*
X56735Y422014D01*
X56965Y422069D01*
X56987Y422078D01*
Y420031D01*
G37*
G36*
Y266416D02*X56724Y266724D01*
X56095Y267260D01*
X55391Y267692D01*
X55225Y267761D01*
X56985Y267764D01*
X56987Y267764D01*
Y266416D01*
G37*
G36*
X46993Y84120D02*X47403Y83129D01*
X48102Y81988D01*
X48971Y80971D01*
X49988Y80102D01*
X51129Y79403D01*
X52365Y78891D01*
X53666Y78579D01*
X55000Y78474D01*
X56334Y78579D01*
X56987Y78736D01*
Y58673D01*
X56631Y58369D01*
X56145Y57801D01*
X55755Y57163D01*
X55469Y56472D01*
X55294Y55745D01*
X55235Y55000D01*
X55294Y54255D01*
X55469Y53528D01*
X55755Y52837D01*
X56145Y52199D01*
X56631Y51631D01*
X56987Y51327D01*
Y15000D01*
X46993D01*
Y37322D01*
X47199Y37145D01*
X47837Y36755D01*
X48528Y36469D01*
X49255Y36294D01*
X50000Y36235D01*
X50745Y36294D01*
X51472Y36469D01*
X52163Y36755D01*
X52801Y37145D01*
X53369Y37631D01*
X53855Y38199D01*
X54245Y38837D01*
X54531Y39528D01*
X54706Y40255D01*
X54750Y41000D01*
X54706Y41745D01*
X54531Y42472D01*
X54245Y43163D01*
X53855Y43801D01*
X53369Y44369D01*
X52801Y44855D01*
X52163Y45245D01*
X51472Y45531D01*
X50745Y45706D01*
X50000Y45765D01*
X49255Y45706D01*
X48528Y45531D01*
X47837Y45245D01*
X47199Y44855D01*
X46993Y44678D01*
Y84120D01*
G37*
G36*
Y543000D02*X56987D01*
Y431922D01*
X56965Y431931D01*
X56735Y431986D01*
X56500Y432000D01*
X49265Y431986D01*
X49035Y431931D01*
X48817Y431841D01*
X48616Y431717D01*
X48436Y431564D01*
X48283Y431384D01*
X48159Y431183D01*
X48069Y430965D01*
X48014Y430735D01*
X48000Y430500D01*
X48014Y423265D01*
X48069Y423035D01*
X48159Y422817D01*
X48283Y422616D01*
X48436Y422436D01*
X48616Y422283D01*
X48817Y422159D01*
X49035Y422069D01*
X49265Y422014D01*
X49500Y422000D01*
X52887Y422007D01*
X52215Y421954D01*
X51450Y421770D01*
X50723Y421469D01*
X50052Y421058D01*
X49454Y420546D01*
X48942Y419948D01*
X48531Y419277D01*
X48230Y418550D01*
X48046Y417785D01*
X47985Y417000D01*
X48046Y416215D01*
X48230Y415450D01*
X48531Y414723D01*
X48942Y414052D01*
X49454Y413454D01*
X50052Y412942D01*
X50723Y412531D01*
X51450Y412230D01*
X52215Y412046D01*
X53000Y411985D01*
X53785Y412046D01*
X54550Y412230D01*
X55277Y412531D01*
X55948Y412942D01*
X56546Y413454D01*
X56987Y413969D01*
Y362525D01*
X55666Y362421D01*
X54365Y362109D01*
X53129Y361597D01*
X51988Y360898D01*
X50971Y360029D01*
X50102Y359012D01*
X49403Y357871D01*
X48891Y356635D01*
X48579Y355334D01*
X48474Y354000D01*
X48579Y352666D01*
X48891Y351365D01*
X49403Y350129D01*
X50102Y348988D01*
X50971Y347971D01*
X51988Y347102D01*
X53129Y346403D01*
X54365Y345891D01*
X55666Y345579D01*
X56987Y345475D01*
Y330922D01*
X56965Y330931D01*
X56735Y330986D01*
X56500Y331000D01*
X49265Y330986D01*
X49035Y330931D01*
X48817Y330841D01*
X48616Y330717D01*
X48436Y330564D01*
X48283Y330384D01*
X48159Y330183D01*
X48069Y329965D01*
X48014Y329735D01*
X48000Y329500D01*
X48014Y322265D01*
X48069Y322035D01*
X48159Y321817D01*
X48283Y321616D01*
X48436Y321436D01*
X48616Y321283D01*
X48817Y321159D01*
X49035Y321069D01*
X49265Y321014D01*
X49500Y321000D01*
X56735Y321014D01*
X56965Y321069D01*
X56987Y321078D01*
Y278236D01*
X56985Y278236D01*
X56750Y278250D01*
X49015Y278236D01*
X48785Y278181D01*
X48567Y278091D01*
X48366Y277967D01*
X48186Y277814D01*
X48033Y277634D01*
X47909Y277433D01*
X47819Y277215D01*
X47764Y276985D01*
X47750Y276750D01*
X47764Y269015D01*
X47819Y268785D01*
X47909Y268567D01*
X48033Y268366D01*
X48186Y268186D01*
X48366Y268033D01*
X48567Y267909D01*
X48785Y267819D01*
X49015Y267764D01*
X49250Y267750D01*
X50755Y267753D01*
X50609Y267692D01*
X49905Y267260D01*
X49276Y266724D01*
X48740Y266095D01*
X48308Y265391D01*
X47992Y264627D01*
X47799Y263824D01*
X47734Y263000D01*
X47799Y262176D01*
X47992Y261373D01*
X48308Y260609D01*
X48740Y259905D01*
X49276Y259276D01*
X49905Y258740D01*
X50609Y258308D01*
X51373Y257992D01*
X52176Y257799D01*
X53000Y257734D01*
X53824Y257799D01*
X54627Y257992D01*
X55391Y258308D01*
X56095Y258740D01*
X56724Y259276D01*
X56987Y259584D01*
Y214743D01*
X53515Y214736D01*
X53285Y214681D01*
X53067Y214591D01*
X52866Y214467D01*
X52686Y214314D01*
X52533Y214134D01*
X52409Y213933D01*
X52319Y213715D01*
X52264Y213485D01*
X52250Y213250D01*
X52264Y206515D01*
X52319Y206285D01*
X52409Y206067D01*
X52533Y205866D01*
X52686Y205686D01*
X52866Y205533D01*
X53067Y205409D01*
X53285Y205319D01*
X53515Y205264D01*
X53750Y205250D01*
X56987Y205257D01*
Y202014D01*
X56215Y201954D01*
X55450Y201770D01*
X54723Y201469D01*
X54052Y201058D01*
X53454Y200546D01*
X52942Y199948D01*
X52531Y199277D01*
X52230Y198550D01*
X52046Y197785D01*
X51985Y197000D01*
X52046Y196215D01*
X52230Y195450D01*
X52531Y194723D01*
X52942Y194052D01*
X53454Y193454D01*
X54052Y192942D01*
X54723Y192531D01*
X55450Y192230D01*
X56215Y192046D01*
X56804Y192000D01*
X56215Y191954D01*
X55450Y191770D01*
X54723Y191469D01*
X54052Y191058D01*
X53454Y190546D01*
X52942Y189948D01*
X52531Y189277D01*
X52230Y188550D01*
X52046Y187785D01*
X51985Y187000D01*
X52046Y186215D01*
X52230Y185450D01*
X52531Y184723D01*
X52942Y184052D01*
X53454Y183454D01*
X54052Y182942D01*
X54723Y182531D01*
X55450Y182230D01*
X56215Y182046D01*
X56804Y182000D01*
X56215Y181954D01*
X55450Y181770D01*
X54723Y181469D01*
X54052Y181058D01*
X53454Y180546D01*
X52942Y179948D01*
X52531Y179277D01*
X52230Y178550D01*
X52046Y177785D01*
X51985Y177000D01*
X52046Y176215D01*
X52230Y175450D01*
X52531Y174723D01*
X52942Y174052D01*
X53454Y173454D01*
X54052Y172942D01*
X54723Y172531D01*
X55450Y172230D01*
X56215Y172046D01*
X56804Y172000D01*
X56215Y171954D01*
X55450Y171770D01*
X54723Y171469D01*
X54052Y171058D01*
X53454Y170546D01*
X52942Y169948D01*
X52531Y169277D01*
X52230Y168550D01*
X52046Y167785D01*
X51985Y167000D01*
X52046Y166215D01*
X52230Y165450D01*
X52531Y164723D01*
X52942Y164052D01*
X53454Y163454D01*
X54052Y162942D01*
X54723Y162531D01*
X55450Y162230D01*
X56215Y162046D01*
X56804Y162000D01*
X56215Y161954D01*
X55450Y161770D01*
X54723Y161469D01*
X54052Y161058D01*
X53454Y160546D01*
X52942Y159948D01*
X52531Y159277D01*
X52230Y158550D01*
X52046Y157785D01*
X51985Y157000D01*
X52046Y156215D01*
X52230Y155450D01*
X52531Y154723D01*
X52942Y154052D01*
X53454Y153454D01*
X54052Y152942D01*
X54723Y152531D01*
X55450Y152230D01*
X56215Y152046D01*
X56804Y152000D01*
X56215Y151954D01*
X55450Y151770D01*
X54723Y151469D01*
X54052Y151058D01*
X53454Y150546D01*
X52942Y149948D01*
X52531Y149277D01*
X52230Y148550D01*
X52046Y147785D01*
X51985Y147000D01*
X52046Y146215D01*
X52230Y145450D01*
X52531Y144723D01*
X52942Y144052D01*
X53454Y143454D01*
X54052Y142942D01*
X54723Y142531D01*
X55450Y142230D01*
X56215Y142046D01*
X56804Y142000D01*
X56215Y141954D01*
X55450Y141770D01*
X54723Y141469D01*
X54052Y141058D01*
X53454Y140546D01*
X52942Y139948D01*
X52531Y139277D01*
X52230Y138550D01*
X52046Y137785D01*
X51985Y137000D01*
X52046Y136215D01*
X52230Y135450D01*
X52531Y134723D01*
X52942Y134052D01*
X53454Y133454D01*
X54052Y132942D01*
X54723Y132531D01*
X55450Y132230D01*
X56215Y132046D01*
X56987Y131986D01*
Y95264D01*
X56334Y95421D01*
X55000Y95526D01*
X53666Y95421D01*
X52365Y95109D01*
X51129Y94597D01*
X49988Y93898D01*
X48971Y93029D01*
X48102Y92012D01*
X47403Y90871D01*
X46993Y89880D01*
Y205236D01*
X47000Y205235D01*
X47745Y205294D01*
X48472Y205469D01*
X49163Y205755D01*
X49801Y206145D01*
X50369Y206631D01*
X50855Y207199D01*
X51245Y207837D01*
X51531Y208528D01*
X51706Y209255D01*
X51750Y210000D01*
X51706Y210745D01*
X51531Y211472D01*
X51245Y212163D01*
X50855Y212801D01*
X50369Y213369D01*
X49801Y213855D01*
X49163Y214245D01*
X48472Y214531D01*
X47745Y214706D01*
X47000Y214765D01*
X46993Y214764D01*
Y543000D01*
G37*
G36*
X39993D02*X46993D01*
Y214764D01*
X46255Y214706D01*
X45528Y214531D01*
X44837Y214245D01*
X44199Y213855D01*
X43631Y213369D01*
X43145Y212801D01*
X42755Y212163D01*
X42469Y211472D01*
X42294Y210745D01*
X42235Y210000D01*
X42294Y209255D01*
X42469Y208528D01*
X42755Y207837D01*
X43145Y207199D01*
X43631Y206631D01*
X44199Y206145D01*
X44837Y205755D01*
X45528Y205469D01*
X46255Y205294D01*
X46993Y205236D01*
Y89880D01*
X46891Y89635D01*
X46579Y88334D01*
X46474Y87000D01*
X46579Y85666D01*
X46891Y84365D01*
X46993Y84120D01*
Y44678D01*
X46631Y44369D01*
X46145Y43801D01*
X45755Y43163D01*
X45469Y42472D01*
X45294Y41745D01*
X45235Y41000D01*
X45294Y40255D01*
X45469Y39528D01*
X45755Y38837D01*
X46145Y38199D01*
X46631Y37631D01*
X46993Y37322D01*
Y15000D01*
X39993D01*
Y21236D01*
X40000Y21235D01*
X40745Y21294D01*
X41472Y21469D01*
X42163Y21755D01*
X42801Y22145D01*
X43369Y22631D01*
X43855Y23199D01*
X44245Y23837D01*
X44531Y24528D01*
X44706Y25255D01*
X44750Y26000D01*
X44706Y26745D01*
X44531Y27472D01*
X44245Y28163D01*
X43855Y28801D01*
X43369Y29369D01*
X42801Y29855D01*
X42163Y30245D01*
X41472Y30531D01*
X40745Y30706D01*
X40000Y30765D01*
X39993Y30764D01*
Y483013D01*
X40751Y483195D01*
X42041Y483730D01*
X43232Y484460D01*
X44294Y485367D01*
X45201Y486429D01*
X45931Y487620D01*
X46466Y488910D01*
X46792Y490269D01*
X46874Y491661D01*
X46792Y493053D01*
X46466Y494412D01*
X45931Y495702D01*
X45201Y496893D01*
X44294Y497955D01*
X43232Y498862D01*
X42041Y499592D01*
X40751Y500127D01*
X39993Y500309D01*
Y515494D01*
X40751Y515676D01*
X42041Y516211D01*
X43232Y516941D01*
X44294Y517848D01*
X45201Y518910D01*
X45931Y520101D01*
X46466Y521391D01*
X46792Y522750D01*
X46874Y524142D01*
X46792Y525534D01*
X46466Y526893D01*
X45931Y528183D01*
X45201Y529374D01*
X44294Y530436D01*
X43232Y531343D01*
X42041Y532073D01*
X40751Y532608D01*
X39993Y532790D01*
Y543000D01*
G37*
G36*
X26992D02*X39993D01*
Y532790D01*
X39392Y532934D01*
X38000Y533043D01*
X36608Y532934D01*
X35249Y532608D01*
X33959Y532073D01*
X32768Y531343D01*
X31706Y530436D01*
X30799Y529374D01*
X30069Y528183D01*
X29534Y526893D01*
X29208Y525534D01*
X29099Y524142D01*
X29208Y522750D01*
X29534Y521391D01*
X30069Y520101D01*
X30799Y518910D01*
X31706Y517848D01*
X32768Y516941D01*
X33959Y516211D01*
X35249Y515676D01*
X36608Y515350D01*
X38000Y515241D01*
X39392Y515350D01*
X39993Y515494D01*
Y500309D01*
X39392Y500453D01*
X38000Y500562D01*
X36608Y500453D01*
X35249Y500127D01*
X33959Y499592D01*
X32768Y498862D01*
X31706Y497955D01*
X30799Y496893D01*
X30069Y495702D01*
X29534Y494412D01*
X29208Y493053D01*
X29099Y491661D01*
X29208Y490269D01*
X29534Y488910D01*
X30069Y487620D01*
X30799Y486429D01*
X31706Y485367D01*
X32768Y484460D01*
X33959Y483730D01*
X35249Y483195D01*
X36608Y482869D01*
X38000Y482760D01*
X39392Y482869D01*
X39993Y483013D01*
Y30764D01*
X39255Y30706D01*
X38528Y30531D01*
X37837Y30245D01*
X37199Y29855D01*
X36631Y29369D01*
X36145Y28801D01*
X35755Y28163D01*
X35469Y27472D01*
X35294Y26745D01*
X35235Y26000D01*
X35294Y25255D01*
X35469Y24528D01*
X35755Y23837D01*
X36145Y23199D01*
X36631Y22631D01*
X37199Y22145D01*
X37837Y21755D01*
X38528Y21469D01*
X39255Y21294D01*
X39993Y21236D01*
Y15000D01*
X26992D01*
Y50250D01*
X33485Y50264D01*
X33715Y50319D01*
X33933Y50409D01*
X34134Y50533D01*
X34314Y50686D01*
X34467Y50866D01*
X34591Y51067D01*
X34681Y51285D01*
X34736Y51515D01*
X34750Y51750D01*
X34736Y58485D01*
X34681Y58715D01*
X34591Y58933D01*
X34467Y59134D01*
X34314Y59314D01*
X34134Y59467D01*
X33933Y59591D01*
X33715Y59681D01*
X33485Y59736D01*
X33250Y59750D01*
X26992Y59737D01*
Y131985D01*
X27000Y131985D01*
X27785Y132046D01*
X28550Y132230D01*
X29277Y132531D01*
X29948Y132942D01*
X30546Y133454D01*
X31058Y134052D01*
X31469Y134723D01*
X31770Y135450D01*
X31954Y136215D01*
X32000Y137000D01*
X31954Y137785D01*
X31770Y138550D01*
X31469Y139277D01*
X31058Y139948D01*
X30546Y140546D01*
X29948Y141058D01*
X29277Y141469D01*
X28550Y141770D01*
X27785Y141954D01*
X27196Y142000D01*
X27785Y142046D01*
X28550Y142230D01*
X29277Y142531D01*
X29948Y142942D01*
X30546Y143454D01*
X31058Y144052D01*
X31469Y144723D01*
X31770Y145450D01*
X31954Y146215D01*
X32000Y147000D01*
X31954Y147785D01*
X31770Y148550D01*
X31469Y149277D01*
X31058Y149948D01*
X30546Y150546D01*
X29948Y151058D01*
X29277Y151469D01*
X28550Y151770D01*
X27785Y151954D01*
X27196Y152000D01*
X27785Y152046D01*
X28550Y152230D01*
X29277Y152531D01*
X29948Y152942D01*
X30546Y153454D01*
X31058Y154052D01*
X31469Y154723D01*
X31770Y155450D01*
X31954Y156215D01*
X32000Y157000D01*
X31954Y157785D01*
X31770Y158550D01*
X31469Y159277D01*
X31058Y159948D01*
X30546Y160546D01*
X29948Y161058D01*
X29277Y161469D01*
X28550Y161770D01*
X27785Y161954D01*
X27196Y162000D01*
X27785Y162046D01*
X28550Y162230D01*
X29277Y162531D01*
X29948Y162942D01*
X30546Y163454D01*
X31058Y164052D01*
X31469Y164723D01*
X31770Y165450D01*
X31954Y166215D01*
X32000Y167000D01*
X31954Y167785D01*
X31770Y168550D01*
X31469Y169277D01*
X31058Y169948D01*
X30546Y170546D01*
X29948Y171058D01*
X29277Y171469D01*
X28550Y171770D01*
X27785Y171954D01*
X27196Y172000D01*
X27785Y172046D01*
X28550Y172230D01*
X29277Y172531D01*
X29948Y172942D01*
X30546Y173454D01*
X31058Y174052D01*
X31469Y174723D01*
X31770Y175450D01*
X31954Y176215D01*
X32000Y177000D01*
X31954Y177785D01*
X31770Y178550D01*
X31469Y179277D01*
X31058Y179948D01*
X30546Y180546D01*
X29948Y181058D01*
X29277Y181469D01*
X28550Y181770D01*
X27785Y181954D01*
X27196Y182000D01*
X27785Y182046D01*
X28550Y182230D01*
X29277Y182531D01*
X29948Y182942D01*
X30546Y183454D01*
X31058Y184052D01*
X31469Y184723D01*
X31770Y185450D01*
X31954Y186215D01*
X32000Y187000D01*
X31954Y187785D01*
X31770Y188550D01*
X31469Y189277D01*
X31058Y189948D01*
X30546Y190546D01*
X29948Y191058D01*
X29277Y191469D01*
X28550Y191770D01*
X27785Y191954D01*
X27108Y192007D01*
X30735Y192014D01*
X30965Y192069D01*
X31183Y192159D01*
X31384Y192283D01*
X31564Y192436D01*
X31717Y192616D01*
X31841Y192817D01*
X31931Y193035D01*
X31986Y193265D01*
X32000Y193500D01*
X31986Y200735D01*
X31931Y200965D01*
X31841Y201183D01*
X31717Y201384D01*
X31564Y201564D01*
X31384Y201717D01*
X31183Y201841D01*
X30965Y201931D01*
X30735Y201986D01*
X30500Y202000D01*
X26992Y201993D01*
Y216992D01*
X31000Y221000D01*
Y451000D01*
X26992Y455008D01*
Y543000D01*
G37*
G36*
Y15000D02*X20000D01*
Y36257D01*
X23485Y36264D01*
X23715Y36319D01*
X23933Y36409D01*
X24134Y36533D01*
X24314Y36686D01*
X24467Y36866D01*
X24591Y37067D01*
X24681Y37285D01*
X24736Y37515D01*
X24750Y37750D01*
X24736Y44485D01*
X24681Y44715D01*
X24591Y44933D01*
X24467Y45134D01*
X24314Y45314D01*
X24134Y45467D01*
X23933Y45591D01*
X23715Y45681D01*
X23485Y45736D01*
X23250Y45750D01*
X20000Y45743D01*
Y210000D01*
X26992Y216992D01*
Y201993D01*
X23265Y201986D01*
X23035Y201931D01*
X22817Y201841D01*
X22616Y201717D01*
X22436Y201564D01*
X22283Y201384D01*
X22159Y201183D01*
X22069Y200965D01*
X22014Y200735D01*
X22000Y200500D01*
X22014Y193265D01*
X22069Y193035D01*
X22159Y192817D01*
X22283Y192616D01*
X22436Y192436D01*
X22616Y192283D01*
X22817Y192159D01*
X23035Y192069D01*
X23265Y192014D01*
X23500Y192000D01*
X26887Y192007D01*
X26215Y191954D01*
X25450Y191770D01*
X24723Y191469D01*
X24052Y191058D01*
X23454Y190546D01*
X22942Y189948D01*
X22531Y189277D01*
X22230Y188550D01*
X22046Y187785D01*
X21985Y187000D01*
X22046Y186215D01*
X22230Y185450D01*
X22531Y184723D01*
X22942Y184052D01*
X23454Y183454D01*
X24052Y182942D01*
X24723Y182531D01*
X25450Y182230D01*
X26215Y182046D01*
X26804Y182000D01*
X26215Y181954D01*
X25450Y181770D01*
X24723Y181469D01*
X24052Y181058D01*
X23454Y180546D01*
X22942Y179948D01*
X22531Y179277D01*
X22230Y178550D01*
X22046Y177785D01*
X21985Y177000D01*
X22046Y176215D01*
X22230Y175450D01*
X22531Y174723D01*
X22942Y174052D01*
X23454Y173454D01*
X24052Y172942D01*
X24723Y172531D01*
X25450Y172230D01*
X26215Y172046D01*
X26804Y172000D01*
X26215Y171954D01*
X25450Y171770D01*
X24723Y171469D01*
X24052Y171058D01*
X23454Y170546D01*
X22942Y169948D01*
X22531Y169277D01*
X22230Y168550D01*
X22046Y167785D01*
X21985Y167000D01*
X22046Y166215D01*
X22230Y165450D01*
X22531Y164723D01*
X22942Y164052D01*
X23454Y163454D01*
X24052Y162942D01*
X24723Y162531D01*
X25450Y162230D01*
X26215Y162046D01*
X26804Y162000D01*
X26215Y161954D01*
X25450Y161770D01*
X24723Y161469D01*
X24052Y161058D01*
X23454Y160546D01*
X22942Y159948D01*
X22531Y159277D01*
X22230Y158550D01*
X22046Y157785D01*
X21985Y157000D01*
X22046Y156215D01*
X22230Y155450D01*
X22531Y154723D01*
X22942Y154052D01*
X23454Y153454D01*
X24052Y152942D01*
X24723Y152531D01*
X25450Y152230D01*
X26215Y152046D01*
X26804Y152000D01*
X26215Y151954D01*
X25450Y151770D01*
X24723Y151469D01*
X24052Y151058D01*
X23454Y150546D01*
X22942Y149948D01*
X22531Y149277D01*
X22230Y148550D01*
X22046Y147785D01*
X21985Y147000D01*
X22046Y146215D01*
X22230Y145450D01*
X22531Y144723D01*
X22942Y144052D01*
X23454Y143454D01*
X24052Y142942D01*
X24723Y142531D01*
X25450Y142230D01*
X26215Y142046D01*
X26804Y142000D01*
X26215Y141954D01*
X25450Y141770D01*
X24723Y141469D01*
X24052Y141058D01*
X23454Y140546D01*
X22942Y139948D01*
X22531Y139277D01*
X22230Y138550D01*
X22046Y137785D01*
X21985Y137000D01*
X22046Y136215D01*
X22230Y135450D01*
X22531Y134723D01*
X22942Y134052D01*
X23454Y133454D01*
X24052Y132942D01*
X24723Y132531D01*
X25450Y132230D01*
X26215Y132046D01*
X26992Y131985D01*
Y59737D01*
X26515Y59736D01*
X26285Y59681D01*
X26067Y59591D01*
X25866Y59467D01*
X25686Y59314D01*
X25533Y59134D01*
X25409Y58933D01*
X25319Y58715D01*
X25264Y58485D01*
X25250Y58250D01*
X25264Y51515D01*
X25319Y51285D01*
X25409Y51067D01*
X25533Y50866D01*
X25686Y50686D01*
X25866Y50533D01*
X26067Y50409D01*
X26285Y50319D01*
X26515Y50264D01*
X26750Y50250D01*
X26992Y50250D01*
Y15000D01*
G37*
G36*
X20000D02*X12000D01*
X10000Y17000D01*
Y21257D01*
X13485Y21264D01*
X13715Y21319D01*
X13933Y21409D01*
X14134Y21533D01*
X14314Y21686D01*
X14467Y21866D01*
X14591Y22067D01*
X14681Y22285D01*
X14736Y22515D01*
X14750Y22750D01*
X14736Y29485D01*
X14681Y29715D01*
X14591Y29933D01*
X14467Y30134D01*
X14314Y30314D01*
X14134Y30467D01*
X13933Y30591D01*
X13715Y30681D01*
X13485Y30736D01*
X13250Y30750D01*
X10000Y30743D01*
Y200000D01*
X20000Y210000D01*
Y45743D01*
X16515Y45736D01*
X16285Y45681D01*
X16067Y45591D01*
X15866Y45467D01*
X15686Y45314D01*
X15533Y45134D01*
X15409Y44933D01*
X15319Y44715D01*
X15264Y44485D01*
X15250Y44250D01*
X15264Y37515D01*
X15319Y37285D01*
X15409Y37067D01*
X15533Y36866D01*
X15686Y36686D01*
X15866Y36533D01*
X16067Y36409D01*
X16285Y36319D01*
X16515Y36264D01*
X16750Y36250D01*
X20000Y36257D01*
Y15000D01*
G37*
G36*
X10000Y17000D02*X4000Y23000D01*
Y194000D01*
X10000Y200000D01*
Y30743D01*
X6515Y30736D01*
X6285Y30681D01*
X6067Y30591D01*
X5866Y30467D01*
X5686Y30314D01*
X5533Y30134D01*
X5409Y29933D01*
X5319Y29715D01*
X5264Y29485D01*
X5250Y29250D01*
X5264Y22515D01*
X5319Y22285D01*
X5409Y22067D01*
X5533Y21866D01*
X5686Y21686D01*
X5866Y21533D01*
X6067Y21409D01*
X6285Y21319D01*
X6515Y21264D01*
X6750Y21250D01*
X10000Y21257D01*
Y17000D01*
G37*
G36*
X8000Y543000D02*X26992D01*
Y455008D01*
X8000Y474000D01*
Y543000D01*
G37*
G54D12*X90000Y13000D02*X97000D01*
G54D13*X148000Y111000D02*X138000D01*
X166000Y188000D02*Y197000D01*
X110000Y55000D02*X118000D01*
G54D14*X62000Y137000D02*X65000Y134000D01*
G54D12*X27000Y137000D02*Y127000D01*
X104000Y71000D02*X95000D01*
G54D13*X57000Y147000D02*Y137000D01*
X65000D01*
X110000Y25000D02*X119000D01*
G54D12*X130000Y193000D02*X139000D01*
X47000Y210000D02*X40000D01*
G54D13*X53000Y263000D02*Y254000D01*
G54D12*X38000Y492000D02*X50000D01*
X216000Y508000D02*X206000D01*
X238000Y124000D02*X250000D01*
G54D13*X208000Y263000D02*Y255000D01*
G54D11*G36*
X53750Y213250D02*Y206750D01*
X60250D01*
Y213250D01*
X53750D01*
G37*
G54D15*X47000Y210000D03*
G54D11*G36*
X23500Y200500D02*Y193500D01*
X30500D01*
Y200500D01*
X23500D01*
G37*
G54D16*X57000Y197000D03*
X27000Y187000D03*
X57000D03*
X27000Y177000D03*
X57000D03*
X27000Y167000D03*
X57000D03*
X27000Y157000D03*
X57000D03*
G54D11*G36*
X49250Y276750D02*Y269250D01*
X56750D01*
Y276750D01*
X49250D01*
G37*
G54D17*X53000Y263000D03*
G54D15*X191000Y101000D03*
G54D18*X238000Y91039D03*
G54D15*X191000Y111000D03*
G54D18*X238000Y156000D03*
Y123520D03*
G54D11*G36*
X204250Y276750D02*Y269250D01*
X211750D01*
Y276750D01*
X204250D01*
G37*
G36*
X173500Y282500D02*Y273500D01*
X182500D01*
Y282500D01*
X173500D01*
G37*
G54D12*X178000Y268000D03*
Y258000D03*
G54D17*X208000Y263000D03*
G54D11*G36*
X204750Y329250D02*Y322750D01*
X211250D01*
Y329250D01*
X204750D01*
G37*
G54D15*X178000Y326000D03*
G54D11*G36*
X157750Y104250D02*Y97750D01*
X164250D01*
Y104250D01*
X157750D01*
G37*
G36*
X144500Y84500D02*Y77500D01*
X151500D01*
Y84500D01*
X144500D01*
G37*
G54D16*X148000Y91000D03*
Y101000D03*
G54D11*G36*
X157750Y114250D02*Y107750D01*
X164250D01*
Y114250D01*
X157750D01*
G37*
G54D16*X148000Y111000D03*
X118000D03*
Y101000D03*
Y91000D03*
Y81000D03*
G54D11*G36*
X135750Y42250D02*Y35750D01*
X142250D01*
Y42250D01*
X135750D01*
G37*
G54D15*X139000Y69000D03*
G54D11*G36*
X124750Y42250D02*Y35750D01*
X131250D01*
Y42250D01*
X124750D01*
G37*
G54D15*X128000Y69000D03*
G54D11*G36*
X76750Y16250D02*Y9750D01*
X83250D01*
Y16250D01*
X76750D01*
G37*
G54D15*X90000Y13000D03*
G54D11*G36*
X100750Y74250D02*Y67750D01*
X107250D01*
Y74250D01*
X100750D01*
G37*
G54D15*X104000Y81000D03*
G54D11*G36*
X106500Y28500D02*Y21500D01*
X113500D01*
Y28500D01*
X106500D01*
G37*
G54D16*X110000Y35000D03*
Y45000D03*
Y55000D03*
X80000D03*
Y45000D03*
Y35000D03*
Y25000D03*
X27000Y147000D03*
Y137000D03*
X57000D03*
Y147000D03*
G54D11*G36*
X26750Y58250D02*Y51750D01*
X33250D01*
Y58250D01*
X26750D01*
G37*
G54D15*X60000Y55000D03*
G54D11*G36*
X16750Y44250D02*Y37750D01*
X23250D01*
Y44250D01*
X16750D01*
G37*
G54D15*X50000Y41000D03*
G54D11*G36*
X6750Y29250D02*Y22750D01*
X13250D01*
Y29250D01*
X6750D01*
G37*
G54D15*X40000Y26000D03*
G54D11*G36*
X89750Y146250D02*Y139750D01*
X96250D01*
Y146250D01*
X89750D01*
G37*
G54D15*X93000Y173000D03*
G54D11*G36*
X162250Y181750D02*Y174250D01*
X169750D01*
Y181750D01*
X162250D01*
G37*
G54D17*X166000Y188000D03*
G54D11*G36*
X125500Y177500D02*Y168500D01*
X134500D01*
Y177500D01*
X125500D01*
G37*
G54D12*X130000Y183000D03*
Y193000D03*
G54D18*X38000Y524142D03*
G54D19*X85000Y524000D03*
G54D18*X125000Y524142D03*
X38000Y491661D03*
G54D11*G36*
X82000Y497000D02*Y491000D01*
X88000D01*
Y497000D01*
X82000D01*
G37*
G54D18*X125000Y491661D03*
G54D11*G36*
X204250Y430750D02*Y423250D01*
X211750D01*
Y430750D01*
X204250D01*
G37*
G36*
X211500Y522500D02*Y513500D01*
X220500D01*
Y522500D01*
X211500D01*
G37*
G54D12*X216000Y508000D03*
Y498000D03*
G54D17*X208000Y417000D03*
G54D11*G36*
X173500Y416500D02*Y407500D01*
X182500D01*
Y416500D01*
X173500D01*
G37*
G54D12*X178000Y422000D03*
Y432000D03*
G54D11*G36*
X162750Y497250D02*Y490750D01*
X169250D01*
Y497250D01*
X162750D01*
G37*
G54D15*X166000Y524000D03*
G54D11*G36*
X78500Y416500D02*Y407500D01*
X87500D01*
Y416500D01*
X78500D01*
G37*
G54D12*X83000Y422000D03*
Y432000D03*
G54D11*G36*
X49500Y430500D02*Y423500D01*
X56500D01*
Y430500D01*
X49500D01*
G37*
G54D16*X53000Y417000D03*
G54D11*G36*
X49500Y329500D02*Y322500D01*
X56500D01*
Y329500D01*
X49500D01*
G37*
G54D15*X83000Y326000D03*
G54D11*G36*
X78500Y282500D02*Y273500D01*
X87500D01*
Y282500D01*
X78500D01*
G37*
G54D12*X83000Y268000D03*
Y258000D03*
G54D18*X108858Y349000D03*
X141339D03*
G54D20*X190000Y494000D03*
X57000Y354000D03*
X198000D03*
X55000Y87000D03*
X186000Y74000D03*
X130000Y258000D03*
G54D21*G54D22*G54D23*G54D24*G54D22*G54D25*G54D22*G54D25*G54D24*G54D19*G54D24*G54D22*G54D23*G54D22*G54D23*G54D22*G54D23*G54D22*G54D24*G54D19*G54D25*G54D22*G54D25*G54D22*G54D25*G54D24*G54D19*G54D24*G54D19*G54D22*G54D19*G54D24*G54D22*G54D19*G54D25*M02*
