M48
INCH
T50C0.120
T49C0.023
T48C0.050
T47C0.059
T46C0.040
T45C0.030
T44C0.043
%
T49
X015100Y068500
X033200Y068500
X032200Y068500
X014100Y068500
X014100Y049000
X015100Y049000
X033200Y049000
X032200Y049000
T45
X058500Y055600
X035700Y047300
X035700Y050300
X041600Y051000
X042600Y051000
X047400Y061400
X047400Y064400
X043800Y059100
X041600Y061800
X042600Y061800
X057500Y055600
X055900Y058100
X055900Y059100
X048200Y055500
X047200Y055500
X046800Y059100
X052900Y058100
X052900Y059100
X009300Y050800
X009300Y053800
X008100Y066500
X008100Y063500
X026600Y045800
X035600Y068500
X035600Y065500
X023400Y073200
X026400Y073200
X025900Y067400
X025900Y068400
X020900Y049200
X020900Y050200
X023600Y045800
T46
X039300Y054700
X039300Y052700
X039300Y065400
X039300Y063400
X022600Y065400
X024600Y065400
X024600Y052700
X022600Y052700
T44
X060500Y060100
X060500Y057100
X060500Y058100
X060500Y059100
X042600Y055700
X042600Y054700
X042600Y053700
X042600Y052700
X045600Y063400
X045600Y064400
X045600Y065400
X045600Y066400
X042600Y066400
X042600Y065400
X042600Y064400
X042600Y063400
X057500Y057100
X057500Y060100
X057500Y059100
X057500Y058100
X045600Y052700
X045600Y053700
X045600Y054700
X045600Y055700
X048200Y060100
X048200Y059100
X051200Y057100
X051200Y060100
X051200Y058100
X051200Y059100
X048200Y058100
X048200Y057100
X023600Y047200
X024600Y047200
X025600Y047200
X021400Y068400
X024400Y071400
X023400Y071400
X022400Y071400
X021400Y071400
X022400Y068400
X023400Y068400
X024400Y068400
X025600Y050200
X024600Y050200
X023600Y050200
X022600Y050200
X022600Y047200
T48
X054700Y053700
X053700Y053700
X052700Y053700
X013600Y052700
X013600Y065400
X033700Y052700
X032700Y052700
X031700Y052700
X015600Y065400
X033700Y065400
X032700Y065400
X031700Y065400
X014600Y065400
X015600Y052700
X014600Y052700
T47
X054414Y064200
X051166Y064200
X052614Y048800
X049366Y048800
X005600Y053814
X005600Y050566
X004486Y059100
X007734Y059100
X023600Y061014
X023600Y057766
T50
X035400Y061900
X035400Y055400
X047700Y066500
X049100Y053500
X005000Y064200
X010700Y047800
M30
