G04 start of page 3 for group 1 idx 1 *
G04 Title: (unknown), ground *
G04 Creator: pcb 20110918 *
G04 CreationDate: Sun 23 Feb 2014 09:32:49 PM GMT UTC *
G04 For: tyrian *
G04 Format: Gerber/RS-274X *
G04 PCB-Dimensions: 800000 800000 *
G04 PCB-Coordinate-Origin: lower left *
%MOIN*%
%FSLAX25Y25*%
%LNBOTTOM*%
%ADD40C,0.0500*%
%ADD39C,0.0430*%
%ADD38C,0.0380*%
%ADD37C,0.0300*%
%ADD36C,0.0787*%
%ADD35C,0.1200*%
%ADD34C,0.0400*%
%ADD33C,0.0650*%
%ADD32C,0.0750*%
%ADD31C,0.0550*%
%ADD30C,0.1575*%
%ADD29C,0.2200*%
%ADD28C,0.0200*%
%ADD27C,0.0900*%
%ADD26C,0.0001*%
G54D26*G36*
X344325Y558675D02*X361000Y542000D01*
Y493000D01*
X344325D01*
Y532100D01*
X344339Y532099D01*
X345731Y532208D01*
X347090Y532534D01*
X348380Y533069D01*
X349571Y533799D01*
X350633Y534706D01*
X351540Y535768D01*
X352270Y536959D01*
X352805Y538249D01*
X353131Y539608D01*
X353213Y541000D01*
X353131Y542392D01*
X352805Y543751D01*
X352270Y545041D01*
X351540Y546232D01*
X350633Y547294D01*
X349571Y548201D01*
X348380Y548931D01*
X347090Y549466D01*
X345731Y549792D01*
X344339Y549901D01*
X344325Y549900D01*
Y558675D01*
G37*
G36*
X326000Y604000D02*Y577000D01*
X344325Y558675D01*
Y549900D01*
X342947Y549792D01*
X341588Y549466D01*
X340298Y548931D01*
X339107Y548201D01*
X338045Y547294D01*
X337138Y546232D01*
X336408Y545041D01*
X335873Y543751D01*
X335547Y542392D01*
X335438Y541000D01*
X335547Y539608D01*
X335873Y538249D01*
X336408Y536959D01*
X337138Y535768D01*
X338045Y534706D01*
X339107Y533799D01*
X340298Y533069D01*
X341588Y532534D01*
X342947Y532208D01*
X344325Y532100D01*
Y493000D01*
X311844D01*
Y532100D01*
X311858Y532099D01*
X313250Y532208D01*
X314609Y532534D01*
X315899Y533069D01*
X317090Y533799D01*
X318152Y534706D01*
X319059Y535768D01*
X319789Y536959D01*
X320324Y538249D01*
X320650Y539608D01*
X320732Y541000D01*
X320650Y542392D01*
X320324Y543751D01*
X319789Y545041D01*
X319059Y546232D01*
X318152Y547294D01*
X317090Y548201D01*
X315899Y548931D01*
X314609Y549466D01*
X313250Y549792D01*
X311858Y549901D01*
X311844Y549900D01*
Y572878D01*
X312176Y572799D01*
X313000Y572734D01*
X313824Y572799D01*
X314627Y572992D01*
X315391Y573308D01*
X316095Y573740D01*
X316724Y574276D01*
X317260Y574905D01*
X317692Y575609D01*
X318008Y576373D01*
X318201Y577176D01*
X318250Y578000D01*
X318201Y578824D01*
X318008Y579627D01*
X317692Y580391D01*
X317260Y581095D01*
X316724Y581724D01*
X316095Y582260D01*
X315391Y582692D01*
X314648Y583000D01*
X315391Y583308D01*
X316095Y583740D01*
X316724Y584276D01*
X317260Y584905D01*
X317692Y585609D01*
X318008Y586373D01*
X318201Y587176D01*
X318250Y588000D01*
X318201Y588824D01*
X318008Y589627D01*
X317692Y590391D01*
X317260Y591095D01*
X316724Y591724D01*
X316095Y592260D01*
X315391Y592692D01*
X314648Y593000D01*
X315391Y593308D01*
X316095Y593740D01*
X316724Y594276D01*
X317260Y594905D01*
X317692Y595609D01*
X318008Y596373D01*
X318201Y597176D01*
X318250Y598000D01*
X318201Y598824D01*
X318008Y599627D01*
X317692Y600391D01*
X317260Y601095D01*
X316724Y601724D01*
X316095Y602260D01*
X315391Y602692D01*
X315225Y602761D01*
X316985Y602764D01*
X317215Y602819D01*
X317433Y602909D01*
X317634Y603033D01*
X317814Y603186D01*
X317967Y603366D01*
X318091Y603567D01*
X318181Y603785D01*
X318233Y604000D01*
X326000D01*
G37*
G36*
X311844Y493000D02*X292993D01*
Y593737D01*
X293000Y593737D01*
X293667Y593789D01*
X294317Y593946D01*
X294935Y594202D01*
X295506Y594551D01*
X296014Y594986D01*
X296449Y595494D01*
X296798Y596065D01*
X297054Y596683D01*
X297211Y597333D01*
X297250Y598000D01*
X297211Y598667D01*
X297054Y599317D01*
X296798Y599935D01*
X296449Y600506D01*
X296014Y601014D01*
X295506Y601449D01*
X294935Y601798D01*
X294317Y602054D01*
X293667Y602211D01*
X293000Y602263D01*
X292993Y602263D01*
Y604000D01*
X307767D01*
X307819Y603785D01*
X307909Y603567D01*
X308033Y603366D01*
X308186Y603186D01*
X308366Y603033D01*
X308567Y602909D01*
X308785Y602819D01*
X309015Y602764D01*
X309250Y602750D01*
X310755Y602753D01*
X310609Y602692D01*
X309905Y602260D01*
X309276Y601724D01*
X308740Y601095D01*
X308308Y600391D01*
X307992Y599627D01*
X307799Y598824D01*
X307734Y598000D01*
X307799Y597176D01*
X307992Y596373D01*
X308308Y595609D01*
X308740Y594905D01*
X309276Y594276D01*
X309905Y593740D01*
X310609Y593308D01*
X311352Y593000D01*
X310609Y592692D01*
X309905Y592260D01*
X309276Y591724D01*
X308740Y591095D01*
X308308Y590391D01*
X307992Y589627D01*
X307799Y588824D01*
X307734Y588000D01*
X307799Y587176D01*
X307992Y586373D01*
X308308Y585609D01*
X308740Y584905D01*
X309276Y584276D01*
X309905Y583740D01*
X310609Y583308D01*
X311352Y583000D01*
X310609Y582692D01*
X309905Y582260D01*
X309276Y581724D01*
X308740Y581095D01*
X308308Y580391D01*
X307992Y579627D01*
X307799Y578824D01*
X307734Y578000D01*
X307799Y577176D01*
X307992Y576373D01*
X308308Y575609D01*
X308740Y574905D01*
X309276Y574276D01*
X309905Y573740D01*
X310609Y573308D01*
X311373Y572992D01*
X311844Y572878D01*
Y549900D01*
X310466Y549792D01*
X309107Y549466D01*
X307817Y548931D01*
X306626Y548201D01*
X305564Y547294D01*
X304657Y546232D01*
X303927Y545041D01*
X303392Y543751D01*
X303066Y542392D01*
X302957Y541000D01*
X303066Y539608D01*
X303392Y538249D01*
X303927Y536959D01*
X304657Y535768D01*
X305564Y534706D01*
X306626Y533799D01*
X307817Y533069D01*
X309107Y532534D01*
X310466Y532208D01*
X311844Y532100D01*
Y493000D01*
G37*
G36*
X292993D02*X283000D01*
Y523734D01*
X283824Y523799D01*
X284627Y523992D01*
X285391Y524308D01*
X286095Y524740D01*
X286724Y525276D01*
X287260Y525905D01*
X287692Y526609D01*
X288008Y527373D01*
X288201Y528176D01*
X288250Y529000D01*
X288201Y529824D01*
X288008Y530627D01*
X287692Y531391D01*
X287260Y532095D01*
X286724Y532724D01*
X286095Y533260D01*
X285391Y533692D01*
X284648Y534000D01*
X285391Y534308D01*
X286095Y534740D01*
X286724Y535276D01*
X287260Y535905D01*
X287692Y536609D01*
X288008Y537373D01*
X288201Y538176D01*
X288250Y539000D01*
X288201Y539824D01*
X288008Y540627D01*
X287692Y541391D01*
X287260Y542095D01*
X286724Y542724D01*
X286095Y543260D01*
X285391Y543692D01*
X284648Y544000D01*
X285391Y544308D01*
X286095Y544740D01*
X286724Y545276D01*
X287260Y545905D01*
X287692Y546609D01*
X288008Y547373D01*
X288201Y548176D01*
X288250Y549000D01*
X288201Y549824D01*
X288008Y550627D01*
X287692Y551391D01*
X287260Y552095D01*
X286724Y552724D01*
X286095Y553260D01*
X285391Y553692D01*
X284648Y554000D01*
X285391Y554308D01*
X286095Y554740D01*
X286724Y555276D01*
X287260Y555905D01*
X287692Y556609D01*
X288008Y557373D01*
X288201Y558176D01*
X288250Y559000D01*
X288201Y559824D01*
X288008Y560627D01*
X287692Y561391D01*
X287260Y562095D01*
X286724Y562724D01*
X286095Y563260D01*
X285391Y563692D01*
X284627Y564008D01*
X283824Y564201D01*
X283000Y564266D01*
Y566757D01*
X285985Y566764D01*
X286215Y566819D01*
X286433Y566909D01*
X286634Y567033D01*
X286814Y567186D01*
X286967Y567366D01*
X287091Y567567D01*
X287181Y567785D01*
X287236Y568015D01*
X287250Y568250D01*
X287236Y573985D01*
X287181Y574215D01*
X287091Y574433D01*
X286967Y574634D01*
X286814Y574814D01*
X286634Y574967D01*
X286433Y575091D01*
X286215Y575181D01*
X285985Y575236D01*
X285750Y575250D01*
X283000Y575243D01*
Y604000D01*
X290530D01*
X291000Y603963D01*
X291470Y604000D01*
X292993D01*
Y602263D01*
X292333Y602211D01*
X291683Y602054D01*
X291065Y601798D01*
X290494Y601449D01*
X289986Y601014D01*
X289551Y600506D01*
X289202Y599935D01*
X288946Y599317D01*
X288789Y598667D01*
X288737Y598000D01*
X288789Y597333D01*
X288946Y596683D01*
X289202Y596065D01*
X289551Y595494D01*
X289986Y594986D01*
X290494Y594551D01*
X291065Y594202D01*
X291683Y593946D01*
X292333Y593789D01*
X292993Y593737D01*
Y493000D01*
G37*
G36*
X283000D02*X272993D01*
Y495080D01*
X273465Y495275D01*
X275075Y496262D01*
X276511Y497489D01*
X277738Y498925D01*
X278725Y500535D01*
X279448Y502280D01*
X279889Y504117D01*
X280000Y506000D01*
X279889Y507883D01*
X279448Y509720D01*
X278725Y511465D01*
X277738Y513075D01*
X276511Y514511D01*
X275075Y515738D01*
X273465Y516725D01*
X272993Y516920D01*
Y566737D01*
X273000Y566737D01*
X273667Y566789D01*
X274317Y566946D01*
X274935Y567202D01*
X275506Y567551D01*
X276014Y567986D01*
X276449Y568494D01*
X276798Y569065D01*
X277054Y569683D01*
X277211Y570333D01*
X277250Y571000D01*
X277211Y571667D01*
X277054Y572317D01*
X276798Y572935D01*
X276449Y573506D01*
X276014Y574014D01*
X275506Y574449D01*
X274935Y574798D01*
X274317Y575054D01*
X273667Y575211D01*
X273000Y575263D01*
X272993Y575263D01*
Y604000D01*
X283000D01*
Y575243D01*
X280015Y575236D01*
X279785Y575181D01*
X279567Y575091D01*
X279366Y574967D01*
X279186Y574814D01*
X279033Y574634D01*
X278909Y574433D01*
X278819Y574215D01*
X278764Y573985D01*
X278750Y573750D01*
X278764Y568015D01*
X278819Y567785D01*
X278909Y567567D01*
X279033Y567366D01*
X279186Y567186D01*
X279366Y567033D01*
X279567Y566909D01*
X279785Y566819D01*
X280015Y566764D01*
X280250Y566750D01*
X283000Y566757D01*
Y564266D01*
X282176Y564201D01*
X281373Y564008D01*
X280609Y563692D01*
X279905Y563260D01*
X279276Y562724D01*
X278740Y562095D01*
X278308Y561391D01*
X277992Y560627D01*
X277799Y559824D01*
X277734Y559000D01*
X277799Y558176D01*
X277992Y557373D01*
X278308Y556609D01*
X278740Y555905D01*
X279276Y555276D01*
X279905Y554740D01*
X280609Y554308D01*
X281352Y554000D01*
X280609Y553692D01*
X279905Y553260D01*
X279276Y552724D01*
X278740Y552095D01*
X278308Y551391D01*
X277992Y550627D01*
X277799Y549824D01*
X277734Y549000D01*
X277799Y548176D01*
X277992Y547373D01*
X278308Y546609D01*
X278740Y545905D01*
X279276Y545276D01*
X279905Y544740D01*
X280609Y544308D01*
X281352Y544000D01*
X280609Y543692D01*
X279905Y543260D01*
X279276Y542724D01*
X278740Y542095D01*
X278308Y541391D01*
X277992Y540627D01*
X277799Y539824D01*
X277734Y539000D01*
X277799Y538176D01*
X277992Y537373D01*
X278308Y536609D01*
X278740Y535905D01*
X279276Y535276D01*
X279905Y534740D01*
X280609Y534308D01*
X281352Y534000D01*
X280609Y533692D01*
X279905Y533260D01*
X279276Y532724D01*
X278740Y532095D01*
X278308Y531391D01*
X277992Y530627D01*
X277799Y529824D01*
X277734Y529000D01*
X277799Y528176D01*
X277992Y527373D01*
X278308Y526609D01*
X278740Y525905D01*
X279276Y525276D01*
X279905Y524740D01*
X280609Y524308D01*
X281373Y523992D01*
X282176Y523799D01*
X283000Y523734D01*
Y493000D01*
G37*
G36*
X272993Y516920D02*X271720Y517448D01*
X269883Y517889D01*
X268000Y518037D01*
X267981Y518036D01*
Y604000D01*
X272993D01*
Y575263D01*
X272333Y575211D01*
X271683Y575054D01*
X271065Y574798D01*
X270494Y574449D01*
X269986Y574014D01*
X269551Y573506D01*
X269202Y572935D01*
X268946Y572317D01*
X268789Y571667D01*
X268737Y571000D01*
X268789Y570333D01*
X268946Y569683D01*
X269202Y569065D01*
X269551Y568494D01*
X269986Y567986D01*
X270494Y567551D01*
X271065Y567202D01*
X271683Y566946D01*
X272333Y566789D01*
X272993Y566737D01*
Y516920D01*
G37*
G36*
Y493000D02*X267981D01*
Y493964D01*
X268000Y493963D01*
X269883Y494111D01*
X271720Y494552D01*
X272993Y495080D01*
Y493000D01*
G37*
G36*
X267981D02*X253000D01*
Y523734D01*
X253824Y523799D01*
X254627Y523992D01*
X255391Y524308D01*
X256095Y524740D01*
X256724Y525276D01*
X257260Y525905D01*
X257692Y526609D01*
X258008Y527373D01*
X258201Y528176D01*
X258250Y529000D01*
X258201Y529824D01*
X258008Y530627D01*
X257692Y531391D01*
X257260Y532095D01*
X256724Y532724D01*
X256095Y533260D01*
X255391Y533692D01*
X254648Y534000D01*
X255391Y534308D01*
X256095Y534740D01*
X256724Y535276D01*
X257260Y535905D01*
X257692Y536609D01*
X258008Y537373D01*
X258201Y538176D01*
X258250Y539000D01*
X258201Y539824D01*
X258008Y540627D01*
X257692Y541391D01*
X257260Y542095D01*
X256724Y542724D01*
X256095Y543260D01*
X255391Y543692D01*
X254648Y544000D01*
X255391Y544308D01*
X256095Y544740D01*
X256724Y545276D01*
X257260Y545905D01*
X257692Y546609D01*
X258008Y547373D01*
X258201Y548176D01*
X258250Y549000D01*
X258201Y549824D01*
X258008Y550627D01*
X257692Y551391D01*
X257260Y552095D01*
X256724Y552724D01*
X256095Y553260D01*
X255391Y553692D01*
X255225Y553761D01*
X256985Y553764D01*
X257215Y553819D01*
X257433Y553909D01*
X257634Y554033D01*
X257814Y554186D01*
X257967Y554366D01*
X258091Y554567D01*
X258181Y554785D01*
X258236Y555015D01*
X258250Y555250D01*
X258236Y562985D01*
X258181Y563215D01*
X258091Y563433D01*
X257967Y563634D01*
X257814Y563814D01*
X257634Y563967D01*
X257433Y564091D01*
X257215Y564181D01*
X256985Y564236D01*
X256750Y564250D01*
X253000Y564243D01*
Y593757D01*
X255985Y593764D01*
X256215Y593819D01*
X256433Y593909D01*
X256634Y594033D01*
X256814Y594186D01*
X256967Y594366D01*
X257091Y594567D01*
X257181Y594785D01*
X257236Y595015D01*
X257250Y595250D01*
X257236Y600985D01*
X257181Y601215D01*
X257091Y601433D01*
X256967Y601634D01*
X256814Y601814D01*
X256634Y601967D01*
X256433Y602091D01*
X256215Y602181D01*
X255985Y602236D01*
X255750Y602250D01*
X253000Y602243D01*
Y604000D01*
X267981D01*
Y518036D01*
X266117Y517889D01*
X264280Y517448D01*
X262535Y516725D01*
X260925Y515738D01*
X259489Y514511D01*
X258262Y513075D01*
X257275Y511465D01*
X256552Y509720D01*
X256111Y507883D01*
X255963Y506000D01*
X256111Y504117D01*
X256552Y502280D01*
X257275Y500535D01*
X258262Y498925D01*
X259489Y497489D01*
X260925Y496262D01*
X262535Y495275D01*
X264280Y494552D01*
X266117Y494111D01*
X267981Y493964D01*
Y493000D01*
G37*
G36*
X253000D02*X213986D01*
Y497761D01*
X214000Y497760D01*
X215392Y497869D01*
X216751Y498195D01*
X218041Y498730D01*
X219232Y499460D01*
X220294Y500367D01*
X221201Y501429D01*
X221931Y502620D01*
X222466Y503910D01*
X222792Y505269D01*
X222874Y506661D01*
X222792Y508053D01*
X222466Y509412D01*
X221931Y510702D01*
X221201Y511893D01*
X220294Y512955D01*
X219232Y513862D01*
X218041Y514592D01*
X216751Y515127D01*
X215392Y515453D01*
X214000Y515562D01*
X213986Y515561D01*
Y530242D01*
X214000Y530241D01*
X215392Y530350D01*
X216751Y530676D01*
X218041Y531211D01*
X219232Y531941D01*
X220294Y532848D01*
X221201Y533910D01*
X221931Y535101D01*
X222466Y536391D01*
X222792Y537750D01*
X222874Y539142D01*
X222792Y540534D01*
X222466Y541893D01*
X221931Y543183D01*
X221201Y544374D01*
X220294Y545436D01*
X219232Y546343D01*
X218041Y547073D01*
X216751Y547608D01*
X215392Y547934D01*
X214000Y548043D01*
X213986Y548042D01*
Y576986D01*
X241000Y604000D01*
X253000D01*
Y602243D01*
X250015Y602236D01*
X249785Y602181D01*
X249567Y602091D01*
X249366Y601967D01*
X249186Y601814D01*
X249033Y601634D01*
X248909Y601433D01*
X248819Y601215D01*
X248764Y600985D01*
X248750Y600750D01*
X248764Y595015D01*
X248819Y594785D01*
X248909Y594567D01*
X249033Y594366D01*
X249186Y594186D01*
X249366Y594033D01*
X249567Y593909D01*
X249785Y593819D01*
X250015Y593764D01*
X250250Y593750D01*
X253000Y593757D01*
Y564243D01*
X249015Y564236D01*
X248785Y564181D01*
X248567Y564091D01*
X248366Y563967D01*
X248186Y563814D01*
X248033Y563634D01*
X247909Y563433D01*
X247819Y563215D01*
X247764Y562985D01*
X247750Y562750D01*
X247764Y555015D01*
X247819Y554785D01*
X247909Y554567D01*
X248033Y554366D01*
X248186Y554186D01*
X248366Y554033D01*
X248567Y553909D01*
X248785Y553819D01*
X249015Y553764D01*
X249250Y553750D01*
X250755Y553753D01*
X250609Y553692D01*
X249905Y553260D01*
X249276Y552724D01*
X248740Y552095D01*
X248308Y551391D01*
X247992Y550627D01*
X247799Y549824D01*
X247734Y549000D01*
X247799Y548176D01*
X247992Y547373D01*
X248308Y546609D01*
X248740Y545905D01*
X249276Y545276D01*
X249905Y544740D01*
X250609Y544308D01*
X251352Y544000D01*
X250609Y543692D01*
X249905Y543260D01*
X249276Y542724D01*
X248740Y542095D01*
X248308Y541391D01*
X247992Y540627D01*
X247799Y539824D01*
X247734Y539000D01*
X247799Y538176D01*
X247992Y537373D01*
X248308Y536609D01*
X248740Y535905D01*
X249276Y535276D01*
X249905Y534740D01*
X250609Y534308D01*
X251352Y534000D01*
X250609Y533692D01*
X249905Y533260D01*
X249276Y532724D01*
X248740Y532095D01*
X248308Y531391D01*
X247992Y530627D01*
X247799Y529824D01*
X247734Y529000D01*
X247799Y528176D01*
X247992Y527373D01*
X248308Y526609D01*
X248740Y525905D01*
X249276Y525276D01*
X249905Y524740D01*
X250609Y524308D01*
X251373Y523992D01*
X252176Y523799D01*
X253000Y523734D01*
Y493000D01*
G37*
G36*
X213986D02*X192000D01*
Y555000D01*
X213986Y576986D01*
Y548042D01*
X212608Y547934D01*
X211249Y547608D01*
X209959Y547073D01*
X208768Y546343D01*
X207706Y545436D01*
X206799Y544374D01*
X206069Y543183D01*
X205534Y541893D01*
X205208Y540534D01*
X205099Y539142D01*
X205208Y537750D01*
X205534Y536391D01*
X206069Y535101D01*
X206799Y533910D01*
X207706Y532848D01*
X208768Y531941D01*
X209959Y531211D01*
X211249Y530676D01*
X212608Y530350D01*
X213986Y530242D01*
Y515561D01*
X212608Y515453D01*
X211249Y515127D01*
X209959Y514592D01*
X208768Y513862D01*
X207706Y512955D01*
X206799Y511893D01*
X206069Y510702D01*
X205534Y509412D01*
X205208Y508053D01*
X205099Y506661D01*
X205208Y505269D01*
X205534Y503910D01*
X206069Y502620D01*
X206799Y501429D01*
X207706Y500367D01*
X208768Y499460D01*
X209959Y498730D01*
X211249Y498195D01*
X212608Y497869D01*
X213986Y497761D01*
Y493000D01*
G37*
G36*
X434000Y679000D02*Y493000D01*
X420325D01*
Y501148D01*
X420860Y501276D01*
X421732Y501637D01*
X422538Y502131D01*
X423256Y502744D01*
X423869Y503462D01*
X424363Y504268D01*
X424724Y505140D01*
X424944Y506058D01*
X425000Y507000D01*
X424944Y507942D01*
X424724Y508860D01*
X424363Y509732D01*
X423869Y510538D01*
X423256Y511256D01*
X422538Y511869D01*
X421732Y512363D01*
X420860Y512724D01*
X420325Y512852D01*
Y592148D01*
X420860Y592276D01*
X421732Y592637D01*
X422538Y593131D01*
X423256Y593744D01*
X423869Y594462D01*
X424363Y595268D01*
X424724Y596140D01*
X424944Y597058D01*
X425000Y598000D01*
X424944Y598942D01*
X424724Y599860D01*
X424363Y600732D01*
X423869Y601538D01*
X423256Y602256D01*
X422538Y602869D01*
X421732Y603363D01*
X420860Y603724D01*
X420325Y603852D01*
Y646100D01*
X420339Y646099D01*
X421731Y646208D01*
X423090Y646534D01*
X424380Y647069D01*
X425571Y647799D01*
X426633Y648706D01*
X427540Y649768D01*
X428270Y650959D01*
X428805Y652249D01*
X429131Y653608D01*
X429213Y655000D01*
X429131Y656392D01*
X428805Y657751D01*
X428270Y659041D01*
X427540Y660232D01*
X426633Y661294D01*
X425571Y662201D01*
X424380Y662931D01*
X423090Y663466D01*
X421731Y663792D01*
X420339Y663901D01*
X420325Y663900D01*
Y679000D01*
X434000D01*
G37*
G36*
X414000Y594676D02*X414131Y594462D01*
X414744Y593744D01*
X415462Y593131D01*
X416268Y592637D01*
X417140Y592276D01*
X418058Y592056D01*
X419000Y591981D01*
X419942Y592056D01*
X420325Y592148D01*
Y512852D01*
X419942Y512944D01*
X419000Y513019D01*
X418058Y512944D01*
X417140Y512724D01*
X416268Y512363D01*
X415462Y511869D01*
X414744Y511256D01*
X414131Y510538D01*
X414000Y510324D01*
Y550257D01*
X417485Y550264D01*
X417715Y550319D01*
X417933Y550409D01*
X418134Y550533D01*
X418314Y550686D01*
X418467Y550866D01*
X418591Y551067D01*
X418681Y551285D01*
X418736Y551515D01*
X418750Y551750D01*
X418736Y558485D01*
X418681Y558715D01*
X418591Y558933D01*
X418467Y559134D01*
X418314Y559314D01*
X418134Y559467D01*
X417933Y559591D01*
X417715Y559681D01*
X417485Y559736D01*
X417250Y559750D01*
X414000Y559743D01*
Y594676D01*
G37*
G36*
Y648758D02*X414045Y648706D01*
X415107Y647799D01*
X416298Y647069D01*
X417588Y646534D01*
X418947Y646208D01*
X420325Y646100D01*
Y603852D01*
X419942Y603944D01*
X419000Y604019D01*
X418058Y603944D01*
X417140Y603724D01*
X416268Y603363D01*
X415462Y602869D01*
X414744Y602256D01*
X414131Y601538D01*
X414000Y601324D01*
Y648758D01*
G37*
G36*
Y679000D02*X420325D01*
Y663900D01*
X418947Y663792D01*
X417588Y663466D01*
X416298Y662931D01*
X415107Y662201D01*
X414045Y661294D01*
X414000Y661242D01*
Y679000D01*
G37*
G36*
X420325Y493000D02*X414000D01*
Y503676D01*
X414131Y503462D01*
X414744Y502744D01*
X415462Y502131D01*
X416268Y501637D01*
X417140Y501276D01*
X418058Y501056D01*
X419000Y500981D01*
X419942Y501056D01*
X420325Y501148D01*
Y493000D01*
G37*
G36*
X403993Y679000D02*X414000D01*
Y661242D01*
X413138Y660232D01*
X412408Y659041D01*
X411873Y657751D01*
X411547Y656392D01*
X411438Y655000D01*
X411547Y653608D01*
X411873Y652249D01*
X412408Y650959D01*
X413138Y649768D01*
X414000Y648758D01*
Y601324D01*
X413637Y600732D01*
X413276Y599860D01*
X413056Y598942D01*
X412981Y598000D01*
X413056Y597058D01*
X413276Y596140D01*
X413637Y595268D01*
X414000Y594676D01*
Y559743D01*
X410515Y559736D01*
X410285Y559681D01*
X410067Y559591D01*
X409866Y559467D01*
X409686Y559314D01*
X409533Y559134D01*
X409409Y558933D01*
X409319Y558715D01*
X409264Y558485D01*
X409250Y558250D01*
X409264Y551515D01*
X409319Y551285D01*
X409409Y551067D01*
X409533Y550866D01*
X409686Y550686D01*
X409866Y550533D01*
X410067Y550409D01*
X410285Y550319D01*
X410515Y550264D01*
X410750Y550250D01*
X414000Y550257D01*
Y510324D01*
X413869Y510538D01*
X413256Y511256D01*
X412538Y511869D01*
X411732Y512363D01*
X410860Y512724D01*
X409942Y512944D01*
X409000Y513019D01*
X408058Y512944D01*
X407140Y512724D01*
X406268Y512363D01*
X405462Y511869D01*
X404987Y511463D01*
X404986Y511735D01*
X404931Y511965D01*
X404841Y512183D01*
X404717Y512384D01*
X404564Y512564D01*
X404384Y512717D01*
X404183Y512841D01*
X403993Y512920D01*
Y550236D01*
X404000Y550235D01*
X404745Y550294D01*
X405472Y550469D01*
X406163Y550755D01*
X406801Y551145D01*
X407369Y551631D01*
X407855Y552199D01*
X408245Y552837D01*
X408531Y553528D01*
X408706Y554255D01*
X408750Y555000D01*
X408706Y555745D01*
X408531Y556472D01*
X408245Y557163D01*
X407855Y557801D01*
X407369Y558369D01*
X406801Y558855D01*
X406163Y559245D01*
X405472Y559531D01*
X404745Y559706D01*
X404000Y559765D01*
X403993Y559764D01*
Y594664D01*
X404363Y595268D01*
X404724Y596140D01*
X404944Y597058D01*
X405000Y598000D01*
X404944Y598942D01*
X404724Y599860D01*
X404363Y600732D01*
X403993Y601336D01*
Y679000D01*
G37*
G36*
X414000Y493000D02*X403993D01*
Y501080D01*
X404183Y501159D01*
X404384Y501283D01*
X404564Y501436D01*
X404717Y501616D01*
X404841Y501817D01*
X404931Y502035D01*
X404986Y502265D01*
X405000Y502500D01*
X405000Y502526D01*
X405462Y502131D01*
X406268Y501637D01*
X407140Y501276D01*
X408058Y501056D01*
X409000Y500981D01*
X409942Y501056D01*
X410860Y501276D01*
X411732Y501637D01*
X412538Y502131D01*
X413256Y502744D01*
X413869Y503462D01*
X414000Y503676D01*
Y493000D01*
G37*
G36*
X403993D02*X387844D01*
Y646100D01*
X387858Y646099D01*
X389250Y646208D01*
X390609Y646534D01*
X391899Y647069D01*
X393090Y647799D01*
X394152Y648706D01*
X395059Y649768D01*
X395789Y650959D01*
X396324Y652249D01*
X396650Y653608D01*
X396732Y655000D01*
X396650Y656392D01*
X396324Y657751D01*
X395789Y659041D01*
X395059Y660232D01*
X394152Y661294D01*
X393090Y662201D01*
X391899Y662931D01*
X390609Y663466D01*
X389250Y663792D01*
X387858Y663901D01*
X387844Y663900D01*
Y679000D01*
X403993D01*
Y601336D01*
X403869Y601538D01*
X403256Y602256D01*
X402538Y602869D01*
X401732Y603363D01*
X400860Y603724D01*
X399942Y603944D01*
X399000Y604019D01*
X398058Y603944D01*
X397140Y603724D01*
X396268Y603363D01*
X395462Y602869D01*
X394744Y602256D01*
X394131Y601538D01*
X393637Y600732D01*
X393276Y599860D01*
X393056Y598942D01*
X392981Y598000D01*
X393056Y597058D01*
X393276Y596140D01*
X393637Y595268D01*
X394131Y594462D01*
X394744Y593744D01*
X395462Y593131D01*
X396268Y592637D01*
X397140Y592276D01*
X398058Y592056D01*
X399000Y591981D01*
X399942Y592056D01*
X400860Y592276D01*
X401732Y592637D01*
X402538Y593131D01*
X403256Y593744D01*
X403869Y594462D01*
X403993Y594664D01*
Y559764D01*
X403255Y559706D01*
X402528Y559531D01*
X401837Y559245D01*
X401199Y558855D01*
X400631Y558369D01*
X400145Y557801D01*
X399755Y557163D01*
X399469Y556472D01*
X399294Y555745D01*
X399235Y555000D01*
X399294Y554255D01*
X399469Y553528D01*
X399755Y552837D01*
X400145Y552199D01*
X400631Y551631D01*
X401199Y551145D01*
X401837Y550755D01*
X402528Y550469D01*
X403255Y550294D01*
X403993Y550236D01*
Y512920D01*
X403965Y512931D01*
X403735Y512986D01*
X403500Y513000D01*
X394265Y512986D01*
X394035Y512931D01*
X393817Y512841D01*
X393616Y512717D01*
X393436Y512564D01*
X393283Y512384D01*
X393159Y512183D01*
X393069Y511965D01*
X393014Y511735D01*
X393000Y511500D01*
X393014Y502265D01*
X393069Y502035D01*
X393159Y501817D01*
X393283Y501616D01*
X393436Y501436D01*
X393616Y501283D01*
X393817Y501159D01*
X394035Y501069D01*
X394265Y501014D01*
X394500Y501000D01*
X403735Y501014D01*
X403965Y501069D01*
X403993Y501080D01*
Y493000D01*
G37*
G36*
X387844D02*X370000D01*
Y542000D01*
X353000Y559000D01*
Y618757D01*
X355985Y618764D01*
X356215Y618819D01*
X356433Y618909D01*
X356634Y619033D01*
X356814Y619186D01*
X356967Y619366D01*
X357091Y619567D01*
X357181Y619785D01*
X357236Y620015D01*
X357250Y620250D01*
X357236Y625985D01*
X357181Y626215D01*
X357091Y626433D01*
X356967Y626634D01*
X356814Y626814D01*
X356634Y626967D01*
X356433Y627091D01*
X356215Y627181D01*
X355985Y627236D01*
X355750Y627250D01*
X353000Y627243D01*
Y659000D01*
X373000Y679000D01*
X387844D01*
Y663900D01*
X386466Y663792D01*
X385107Y663466D01*
X383817Y662931D01*
X382626Y662201D01*
X381564Y661294D01*
X380657Y660232D01*
X379927Y659041D01*
X379392Y657751D01*
X379066Y656392D01*
X378957Y655000D01*
X379066Y653608D01*
X379392Y652249D01*
X379927Y650959D01*
X380657Y649768D01*
X381564Y648706D01*
X382626Y647799D01*
X383817Y647069D01*
X385107Y646534D01*
X386466Y646208D01*
X387844Y646100D01*
Y493000D01*
G37*
G36*
X353000Y559000D02*X342993Y569007D01*
Y572734D01*
X343000Y572734D01*
X343824Y572799D01*
X344627Y572992D01*
X345391Y573308D01*
X346095Y573740D01*
X346724Y574276D01*
X347260Y574905D01*
X347692Y575609D01*
X348008Y576373D01*
X348201Y577176D01*
X348250Y578000D01*
X348201Y578824D01*
X348008Y579627D01*
X347692Y580391D01*
X347260Y581095D01*
X346724Y581724D01*
X346095Y582260D01*
X345391Y582692D01*
X344648Y583000D01*
X345391Y583308D01*
X346095Y583740D01*
X346724Y584276D01*
X347260Y584905D01*
X347692Y585609D01*
X348008Y586373D01*
X348201Y587176D01*
X348250Y588000D01*
X348201Y588824D01*
X348008Y589627D01*
X347692Y590391D01*
X347260Y591095D01*
X346724Y591724D01*
X346095Y592260D01*
X345391Y592692D01*
X344648Y593000D01*
X345391Y593308D01*
X346095Y593740D01*
X346724Y594276D01*
X347260Y594905D01*
X347692Y595609D01*
X348008Y596373D01*
X348201Y597176D01*
X348250Y598000D01*
X348201Y598824D01*
X348008Y599627D01*
X347692Y600391D01*
X347260Y601095D01*
X346724Y601724D01*
X346095Y602260D01*
X345391Y602692D01*
X344648Y603000D01*
X345391Y603308D01*
X346095Y603740D01*
X346724Y604276D01*
X347260Y604905D01*
X347692Y605609D01*
X348008Y606373D01*
X348201Y607176D01*
X348250Y608000D01*
X348201Y608824D01*
X348008Y609627D01*
X347692Y610391D01*
X347260Y611095D01*
X346724Y611724D01*
X346095Y612260D01*
X345391Y612692D01*
X344627Y613008D01*
X343824Y613201D01*
X343000Y613266D01*
X342993Y613266D01*
Y618737D01*
X343000Y618737D01*
X343667Y618789D01*
X344317Y618946D01*
X344935Y619202D01*
X345506Y619551D01*
X346014Y619986D01*
X346449Y620494D01*
X346798Y621065D01*
X347054Y621683D01*
X347211Y622333D01*
X347250Y623000D01*
X347211Y623667D01*
X347054Y624317D01*
X346798Y624935D01*
X346449Y625506D01*
X346014Y626014D01*
X345506Y626449D01*
X344935Y626798D01*
X344317Y627054D01*
X343667Y627211D01*
X343000Y627263D01*
X342993Y627263D01*
Y648993D01*
X353000Y659000D01*
Y627243D01*
X350015Y627236D01*
X349785Y627181D01*
X349567Y627091D01*
X349366Y626967D01*
X349186Y626814D01*
X349033Y626634D01*
X348909Y626433D01*
X348819Y626215D01*
X348764Y625985D01*
X348750Y625750D01*
X348764Y620015D01*
X348819Y619785D01*
X348909Y619567D01*
X349033Y619366D01*
X349186Y619186D01*
X349366Y619033D01*
X349567Y618909D01*
X349785Y618819D01*
X350015Y618764D01*
X350250Y618750D01*
X353000Y618757D01*
Y559000D01*
G37*
G36*
X342993Y569007D02*X335000Y577000D01*
Y641000D01*
X342993Y648993D01*
Y627263D01*
X342333Y627211D01*
X341683Y627054D01*
X341065Y626798D01*
X340494Y626449D01*
X339986Y626014D01*
X339551Y625506D01*
X339202Y624935D01*
X338946Y624317D01*
X338789Y623667D01*
X338737Y623000D01*
X338789Y622333D01*
X338946Y621683D01*
X339202Y621065D01*
X339551Y620494D01*
X339986Y619986D01*
X340494Y619551D01*
X341065Y619202D01*
X341683Y618946D01*
X342333Y618789D01*
X342993Y618737D01*
Y613266D01*
X342176Y613201D01*
X341373Y613008D01*
X340609Y612692D01*
X339905Y612260D01*
X339276Y611724D01*
X338740Y611095D01*
X338308Y610391D01*
X337992Y609627D01*
X337799Y608824D01*
X337734Y608000D01*
X337799Y607176D01*
X337992Y606373D01*
X338308Y605609D01*
X338740Y604905D01*
X339276Y604276D01*
X339905Y603740D01*
X340609Y603308D01*
X341352Y603000D01*
X340609Y602692D01*
X339905Y602260D01*
X339276Y601724D01*
X338740Y601095D01*
X338308Y600391D01*
X337992Y599627D01*
X337799Y598824D01*
X337734Y598000D01*
X337799Y597176D01*
X337992Y596373D01*
X338308Y595609D01*
X338740Y594905D01*
X339276Y594276D01*
X339905Y593740D01*
X340609Y593308D01*
X341352Y593000D01*
X340609Y592692D01*
X339905Y592260D01*
X339276Y591724D01*
X338740Y591095D01*
X338308Y590391D01*
X337992Y589627D01*
X337799Y588824D01*
X337734Y588000D01*
X337799Y587176D01*
X337992Y586373D01*
X338308Y585609D01*
X338740Y584905D01*
X339276Y584276D01*
X339905Y583740D01*
X340609Y583308D01*
X341352Y583000D01*
X340609Y582692D01*
X339905Y582260D01*
X339276Y581724D01*
X338740Y581095D01*
X338308Y580391D01*
X337992Y579627D01*
X337799Y578824D01*
X337734Y578000D01*
X337799Y577176D01*
X337992Y576373D01*
X338308Y575609D01*
X338740Y574905D01*
X339276Y574276D01*
X339905Y573740D01*
X340609Y573308D01*
X341373Y572992D01*
X342176Y572799D01*
X342993Y572734D01*
Y569007D01*
G37*
G54D27*X253000Y529000D02*X248000D01*
X255000D01*
X283000D02*X278000D01*
X287000D01*
X283000Y539000D02*X277000D01*
X288000D01*
X273000Y571000D02*Y577000D01*
Y567000D01*
X313000Y588000D02*X307000D01*
X317000D01*
X354000Y541000D02*X345000Y550000D01*
X343000D02*X336000Y543000D01*
Y542000D01*
X347000Y531000D01*
X351000Y535000D01*
Y541000D01*
X343000Y578000D02*X341000D01*
X346000D01*
X213000Y515000D02*X205000Y507000D01*
Y506000D01*
X212000Y499000D01*
X214000Y506661D02*X214339Y507000D01*
X223000D01*
X215000Y515000D01*
X213000D01*
X212000Y499000D02*X219000D01*
X221000Y501000D01*
X344339Y541000D02*X354000D01*
X345000Y550000D02*X343000D01*
X353000Y623000D02*Y629000D01*
Y616000D01*
X420339Y655000D02*X429000D01*
X420000Y664000D01*
X411000Y655000D01*
X420000Y646000D01*
X428000Y654000D01*
X404000Y555000D02*Y562000D01*
Y550000D01*
G54D28*X408000Y566000D02*Y542000D01*
G54D27*X404000Y555000D02*X397000D01*
X419000Y507000D02*Y517000D01*
Y513000D01*
X425000Y507000D01*
X419000Y501000D01*
G54D28*X416000Y502000D02*Y507000D01*
G54D26*G36*
X498500Y608500D02*Y599500D01*
X507500D01*
Y608500D01*
X498500D01*
G37*
G54D27*X493000Y604000D03*
X483000D03*
G54D29*X473000Y640000D03*
G54D26*G36*
X576500Y536500D02*Y527500D01*
X585500D01*
Y536500D01*
X576500D01*
G37*
G54D27*X581000Y542000D03*
Y552000D03*
G54D30*X516000Y552142D03*
Y519661D03*
G54D26*G36*
X460250Y567750D02*Y562250D01*
X465750D01*
Y567750D01*
X460250D01*
G37*
G54D31*X463000Y525000D03*
G54D29*X473000Y510000D03*
G54D26*G36*
X280250Y573750D02*Y568250D01*
X285750D01*
Y573750D01*
X280250D01*
G37*
G54D32*X283000Y549000D03*
Y559000D03*
G54D31*X293000Y598000D03*
G54D29*X291000Y616000D03*
G54D31*X273000Y571000D03*
G54D30*X311858Y541000D03*
X344339D03*
G54D32*X283000Y529000D03*
Y539000D03*
G54D26*G36*
X249250Y562750D02*Y555250D01*
X256750D01*
Y562750D01*
X249250D01*
G37*
G36*
X250250Y600750D02*Y595250D01*
X255750D01*
Y600750D01*
X250250D01*
G37*
G54D32*X253000Y549000D03*
G54D30*X214000Y539142D03*
Y506661D03*
G54D32*X253000Y539000D03*
Y529000D03*
G54D29*X268000Y506000D03*
G54D26*G36*
X350250Y625750D02*Y620250D01*
X355750D01*
Y625750D01*
X350250D01*
G37*
G54D30*X387858Y655000D03*
X420339D03*
G54D31*X343000Y623000D03*
G54D32*Y578000D03*
Y588000D03*
Y598000D03*
Y608000D03*
G54D26*G36*
X410750Y558250D02*Y551750D01*
X417250D01*
Y558250D01*
X410750D01*
G37*
G54D33*X404000Y555000D03*
G54D26*G36*
X394500Y511500D02*Y502500D01*
X403500D01*
Y511500D01*
X394500D01*
G37*
G54D27*X409000Y507000D03*
X419000D03*
Y598000D03*
X399000D03*
G54D26*G36*
X309250Y611750D02*Y604250D01*
X316750D01*
Y611750D01*
X309250D01*
G37*
G54D32*X313000Y598000D03*
Y588000D03*
Y578000D03*
G54D34*G54D35*G54D34*G54D36*G54D37*G54D35*G54D37*G54D38*G54D37*G54D35*G54D37*G54D36*G54D38*G54D37*G54D38*G54D36*G54D38*G54D35*G54D37*G54D36*G54D37*G54D38*G54D39*G54D40*G54D34*G54D38*M02*
