G04 start of page 2 for group 0 idx 0 *
G04 Title: (unknown), trace *
G04 Creator: pcb 20110918 *
G04 CreationDate: Sat 16 Nov 2013 09:53:12 PM GMT UTC *
G04 For: tyrian *
G04 Format: Gerber/RS-274X *
G04 PCB-Dimensions: 800000 800000 *
G04 PCB-Coordinate-Origin: lower left *
%MOIN*%
%FSLAX25Y25*%
%LNTOP*%
%ADD74C,0.0280*%
%ADD73C,0.0787*%
%ADD72C,0.0300*%
%ADD71C,0.0430*%
%ADD70C,0.1200*%
%ADD69C,0.2200*%
%ADD68C,0.0600*%
%ADD67C,0.1575*%
%ADD66C,0.0550*%
%ADD65C,0.0650*%
%ADD64C,0.0001*%
%ADD63C,0.0200*%
%ADD62C,0.0900*%
G54D62*X294000Y559000D02*X283000D01*
X581000Y552000D02*X597000D01*
Y532000D01*
X528339D01*
X581000Y542000D02*X526142D01*
X493000Y575142D01*
X503000Y604000D02*Y620000D01*
X483000D02*Y604000D01*
X493000Y575142D02*Y604000D01*
X503000Y620000D02*X422858D01*
X423000D01*
X391000Y570000D02*Y515000D01*
X399000Y507000D01*
G54D63*X463000Y525000D02*X391000D01*
X463000Y555000D02*X414000D01*
G54D62*X409000Y507000D02*Y492000D01*
X488339D01*
X528339Y532000D01*
G54D63*X313000Y598000D02*X283000D01*
G54D62*X311858Y541000D02*Y541142D01*
X294000Y559000D01*
G54D63*X253000D02*Y549000D01*
Y598000D02*Y559000D01*
Y539142D02*Y539000D01*
Y539142D02*X214000D01*
G54D62*X283000Y559000D02*Y571000D01*
X343000Y598000D02*X399000D01*
X419000D02*X391000Y570000D01*
X343000Y588000D02*Y598000D01*
Y608000D02*Y639000D01*
X359000Y655000D01*
X387858D01*
X422858Y620000D01*
G54D64*G36*
X498500Y608500D02*Y599500D01*
X507500D01*
Y608500D01*
X498500D01*
G37*
G54D62*X493000Y604000D03*
X483000D03*
G54D64*G36*
X410750Y558250D02*Y551750D01*
X417250D01*
Y558250D01*
X410750D01*
G37*
G54D65*X404000Y555000D03*
G54D64*G36*
X460250Y557750D02*Y552250D01*
X465750D01*
Y557750D01*
X460250D01*
G37*
G54D66*X463000Y525000D03*
G54D64*G36*
X576500Y536500D02*Y527500D01*
X585500D01*
Y536500D01*
X576500D01*
G37*
G54D62*X581000Y542000D03*
Y552000D03*
G54D67*X516000Y552142D03*
Y519661D03*
G54D62*X419000Y598000D03*
G54D64*G36*
X350250Y625750D02*Y620250D01*
X355750D01*
Y625750D01*
X350250D01*
G37*
G54D67*X387858Y655000D03*
X420339D03*
G54D62*X399000Y598000D03*
G54D66*X343000Y623000D03*
G54D67*X344339Y541000D03*
G54D64*G36*
X394500Y511500D02*Y502500D01*
X403500D01*
Y511500D01*
X394500D01*
G37*
G54D62*X409000Y507000D03*
X419000D03*
G54D64*G36*
X310000Y611000D02*Y605000D01*
X316000D01*
Y611000D01*
X310000D01*
G37*
G54D68*X313000Y598000D03*
Y588000D03*
Y578000D03*
X343000D03*
Y588000D03*
Y598000D03*
Y608000D03*
G54D64*G36*
X280250Y573750D02*Y568250D01*
X285750D01*
Y573750D01*
X280250D01*
G37*
G54D66*X273000Y571000D03*
G54D67*X311858Y541000D03*
G54D68*X283000Y529000D03*
Y539000D03*
G54D66*Y598000D03*
G54D68*Y549000D03*
Y559000D03*
G54D64*G36*
X250250Y600750D02*Y595250D01*
X255750D01*
Y600750D01*
X250250D01*
G37*
G36*
X250000Y562000D02*Y556000D01*
X256000D01*
Y562000D01*
X250000D01*
G37*
G54D68*X253000Y549000D03*
G54D67*X214000Y539142D03*
Y506661D03*
G54D68*X253000Y539000D03*
Y529000D03*
G54D69*X291000Y616000D03*
X473000Y640000D03*
X268000Y506000D03*
X473000Y510000D03*
G54D70*G54D68*G54D71*G54D72*G54D68*G54D73*G54D68*G54D72*G54D73*G54D68*G54D72*G54D73*G54D68*G54D74*G54D72*G54D73*G54D74*G54D72*G54D74*G54D72*G54D74*G54D73*G54D74*M02*
