G04 start of page 8 for group -4079 idx -4079 *
G04 Title: (unknown), topsilk *
G04 Creator: pcb 20110918 *
G04 CreationDate: Sun 16 Mar 2014 12:10:26 AM GMT UTC *
G04 For: tyrian *
G04 Format: Gerber/RS-274X *
G04 PCB-Dimensions: 800000 800000 *
G04 PCB-Coordinate-Origin: lower left *
%MOIN*%
%FSLAX25Y25*%
%LNTOPSILK*%
%ADD64C,0.0200*%
%ADD63C,0.0100*%
G54D63*X297000Y507060D02*X298960D01*
X297980Y508040D02*Y506080D01*
X300136Y508236D02*X300920Y509020D01*
Y505100D01*
X300136D02*X301606D01*
X302782Y508530D02*X303272Y509020D01*
X304742D01*
X305232Y508530D01*
Y507550D01*
X302782Y505100D02*X305232Y507550D01*
X302782Y505100D02*X305232D01*
X306408Y509020D02*X307388Y505100D01*
X308368Y509020D01*
X309544Y505590D02*X310034Y505100D01*
X309544Y508530D02*X310034Y509020D01*
X309544Y508530D02*Y505590D01*
X313170Y509020D02*X313660Y508530D01*
X311700Y509020D02*X313170D01*
X311210Y508530D02*X311700Y509020D01*
X311210Y508530D02*Y507550D01*
X311700Y507060D01*
X313170D01*
X313660Y506570D01*
Y505590D01*
X313170Y505100D02*X313660Y505590D01*
X311700Y505100D02*X313170D01*
X311210Y505590D02*X311700Y505100D01*
X314836Y509020D02*X315326Y508530D01*
Y505590D01*
X314836Y505100D02*X315326Y505590D01*
X342960Y509020D02*X343450Y508530D01*
X341490Y509020D02*X342960D01*
X341000Y508530D02*X341490Y509020D01*
X341000Y508530D02*Y507550D01*
X341490Y507060D01*
X342960D01*
X343450Y506570D01*
Y505590D01*
X342960Y505100D02*X343450Y505590D01*
X341490Y505100D02*X342960D01*
X341000Y505590D02*X341490Y505100D01*
X346586Y509020D02*X347076Y508530D01*
X345116Y509020D02*X346586D01*
X344626Y508530D02*X345116Y509020D01*
X344626Y508530D02*Y505590D01*
X345116Y505100D01*
X346586D01*
X347076Y505590D01*
Y506570D02*Y505590D01*
X346586Y507060D02*X347076Y506570D01*
X345606Y507060D02*X346586D01*
X348252Y509020D02*Y505100D01*
Y509020D02*X350702Y505100D01*
Y509020D02*Y505100D01*
X352368Y509020D02*Y505100D01*
X353642Y509020D02*X354328Y508334D01*
Y505786D01*
X353642Y505100D02*X354328Y505786D01*
X351878Y505100D02*X353642D01*
X351878Y509020D02*X353642D01*
X182256Y542000D02*Y540530D01*
X180100Y542000D02*Y540040D01*
Y542000D02*X184020D01*
Y540040D01*
X180100Y538864D02*X184020D01*
X180100Y536414D01*
X184020D01*
X546490Y554020D02*Y550100D01*
X546000Y554020D02*X547960D01*
X548450Y553530D01*
Y552550D01*
X547960Y552060D02*X548450Y552550D01*
X546490Y552060D02*X547960D01*
X549626Y553530D02*Y550590D01*
Y553530D02*X550116Y554020D01*
X551096D01*
X551586Y553530D01*
Y550590D01*
X551096Y550100D02*X551586Y550590D01*
X550116Y550100D02*X551096D01*
X549626Y550590D02*X550116Y550100D01*
X554722Y554020D02*X555212Y553530D01*
X553252Y554020D02*X554722D01*
X552762Y553530D02*X553252Y554020D01*
X552762Y553530D02*Y552550D01*
X553252Y552060D01*
X554722D01*
X555212Y551570D01*
Y550590D01*
X554722Y550100D02*X555212Y550590D01*
X553252Y550100D02*X554722D01*
X552762Y550590D02*X553252Y550100D01*
X546000Y522020D02*Y518100D01*
Y522020D02*X548450Y518100D01*
Y522020D02*Y518100D01*
X549626Y520256D02*X551096D01*
X549626Y518100D02*X551586D01*
X549626Y522020D02*Y518100D01*
Y522020D02*X551586D01*
X554722D02*X555212Y521530D01*
X553252Y522020D02*X554722D01*
X552762Y521530D02*X553252Y522020D01*
X552762Y521530D02*Y518590D01*
X553252Y518100D01*
X554722D01*
X555212Y518590D01*
Y519570D02*Y518590D01*
X554722Y520060D02*X555212Y519570D01*
X553742Y520060D02*X554722D01*
X431000Y580100D02*X432960D01*
X433450Y580590D01*
Y581766D02*Y580590D01*
X432960Y582256D02*X433450Y581766D01*
X431490Y582256D02*X432960D01*
X431490Y584020D02*Y580100D01*
X431000Y584020D02*X432960D01*
X433450Y583530D01*
Y582746D01*
X432960Y582256D02*X433450Y582746D01*
X435116Y581570D02*Y580100D01*
Y581570D02*X435606Y582060D01*
X436586D01*
X434626D02*X435116Y581570D01*
X437762Y582060D02*Y580590D01*
X438252Y580100D01*
X439722Y582060D02*Y579120D01*
X439232Y578630D02*X439722Y579120D01*
X438252Y578630D02*X439232D01*
X437762Y579120D02*X438252Y578630D01*
Y580100D02*X439232D01*
X439722Y580590D01*
X442368Y582060D02*X442858Y581570D01*
X441388Y582060D02*X442368D01*
X440898Y581570D02*X441388Y582060D01*
X440898Y581570D02*Y580590D01*
X441388Y580100D01*
X442858Y582060D02*Y580590D01*
X443348Y580100D01*
X441388D02*X442368D01*
X442858Y580590D01*
X445014Y581570D02*Y580100D01*
Y581570D02*X445504Y582060D01*
X445994D01*
X446484Y581570D01*
Y580100D01*
X444524Y582060D02*X445014Y581570D01*
X449424Y580100D02*X451384D01*
X451874Y580590D01*
Y581766D02*Y580590D01*
X451384Y582256D02*X451874Y581766D01*
X449914Y582256D02*X451384D01*
X449914Y584020D02*Y580100D01*
X449424Y584020D02*X451384D01*
X451874Y583530D01*
Y582746D01*
X451384Y582256D02*X451874Y582746D01*
X453050Y584020D02*Y580590D01*
X453540Y580100D01*
X455990Y582060D02*X456480Y581570D01*
X455010Y582060D02*X455990D01*
X454520Y581570D02*X455010Y582060D01*
X454520Y581570D02*Y580590D01*
X455010Y580100D01*
X456480Y582060D02*Y580590D01*
X456970Y580100D01*
X455010D02*X455990D01*
X456480Y580590D01*
X458146Y584020D02*Y580100D01*
Y581570D02*X459616Y580100D01*
X458146Y581570D02*X459126Y582550D01*
X461282Y580100D02*X462752D01*
X460792Y580590D02*X461282Y580100D01*
X460792Y581570D02*Y580590D01*
Y581570D02*X461282Y582060D01*
X462262D01*
X462752Y581570D01*
X460792Y581080D02*X462752D01*
Y581570D02*Y581080D01*
X464418Y580100D02*X465888D01*
X466378Y580590D01*
X465888Y581080D02*X466378Y580590D01*
X464418Y581080D02*X465888D01*
X463928Y581570D02*X464418Y581080D01*
X463928Y581570D02*X464418Y582060D01*
X465888D01*
X466378Y581570D01*
X463928Y580590D02*X464418Y580100D01*
X467554Y584020D02*Y580590D01*
X468044Y580100D01*
X469514D02*X470984D01*
X469024Y580590D02*X469514Y580100D01*
X469024Y581570D02*Y580590D01*
Y581570D02*X469514Y582060D01*
X470494D01*
X470984Y581570D01*
X469024Y581080D02*X470984D01*
Y581570D02*Y581080D01*
X472650Y580100D02*X474120D01*
X472160Y580590D02*X472650Y580100D01*
X472160Y581570D02*Y580590D01*
Y581570D02*X472650Y582060D01*
X473630D01*
X474120Y581570D01*
X472160Y581080D02*X474120D01*
Y581570D02*Y581080D01*
X431000Y577020D02*Y573100D01*
Y577020D02*X432470Y575060D01*
X433940Y577020D01*
Y573100D01*
X435606D02*X437076D01*
X435116Y573590D02*X435606Y573100D01*
X435116Y574570D02*Y573590D01*
Y574570D02*X435606Y575060D01*
X436586D01*
X437076Y574570D01*
X435116Y574080D02*X437076D01*
Y574570D02*Y574080D01*
X438742Y575060D02*X440212D01*
X438252Y574570D02*X438742Y575060D01*
X438252Y574570D02*Y573590D01*
X438742Y573100D01*
X440212D01*
X441388Y577020D02*Y573100D01*
Y574570D02*X441878Y575060D01*
X442858D01*
X443348Y574570D01*
Y573100D01*
X445994Y575060D02*X446484Y574570D01*
X445014Y575060D02*X445994D01*
X444524Y574570D02*X445014Y575060D01*
X444524Y574570D02*Y573590D01*
X445014Y573100D01*
X446484Y575060D02*Y573590D01*
X446974Y573100D01*
X445014D02*X445994D01*
X446484Y573590D01*
X448640Y574570D02*Y573100D01*
Y574570D02*X449130Y575060D01*
X449620D01*
X450110Y574570D01*
Y573100D01*
X448150Y575060D02*X448640Y574570D01*
X451286Y576040D02*Y575942D01*
Y574570D02*Y573100D01*
X452756Y575060D02*X454226D01*
X452266Y574570D02*X452756Y575060D01*
X452266Y574570D02*Y573590D01*
X452756Y573100D01*
X454226D01*
X456872Y575060D02*X457362Y574570D01*
X455892Y575060D02*X456872D01*
X455402Y574570D02*X455892Y575060D01*
X455402Y574570D02*Y573590D01*
X455892Y573100D01*
X457362Y575060D02*Y573590D01*
X457852Y573100D01*
X455892D02*X456872D01*
X457362Y573590D01*
X459028Y577020D02*Y573590D01*
X459518Y573100D01*
X462262Y576040D02*Y573100D01*
Y576040D02*X462948Y577020D01*
X464026D01*
X464712Y576040D01*
Y573100D01*
X462262Y575060D02*X464712D01*
X466378Y574570D02*Y573100D01*
Y574570D02*X466868Y575060D01*
X467848D01*
X465888D02*X466378Y574570D01*
X469514Y575060D02*X470984D01*
X469024Y574570D02*X469514Y575060D01*
X469024Y574570D02*Y573590D01*
X469514Y573100D01*
X470984D01*
X472160Y577020D02*Y573100D01*
Y574570D02*X472650Y575060D01*
X473630D01*
X474120Y574570D01*
Y573100D01*
X475786D02*X477256D01*
X475296Y573590D02*X475786Y573100D01*
X475296Y574570D02*Y573590D01*
Y574570D02*X475786Y575060D01*
X476766D01*
X477256Y574570D01*
X475296Y574080D02*X477256D01*
Y574570D02*Y574080D01*
X478922Y574570D02*Y573100D01*
Y574570D02*X479412Y575060D01*
X480392D01*
X478432D02*X478922Y574570D01*
X432960Y570020D02*X433450Y569530D01*
X431490Y570020D02*X432960D01*
X431000Y569530D02*X431490Y570020D01*
X431000Y569530D02*Y568550D01*
X431490Y568060D01*
X432960D01*
X433450Y567570D01*
Y566590D01*
X432960Y566100D02*X433450Y566590D01*
X431490Y566100D02*X432960D01*
X431000Y566590D02*X431490Y566100D01*
X434626Y567570D02*Y566590D01*
Y567570D02*X435116Y568060D01*
X436096D01*
X436586Y567570D01*
Y566590D01*
X436096Y566100D02*X436586Y566590D01*
X435116Y566100D02*X436096D01*
X434626Y566590D02*X435116Y566100D01*
X437762Y570020D02*Y566590D01*
X438252Y566100D01*
X439722D02*X441192D01*
X439232Y566590D02*X439722Y566100D01*
X439232Y567570D02*Y566590D01*
Y567570D02*X439722Y568060D01*
X440702D01*
X441192Y567570D01*
X439232Y567080D02*X441192D01*
Y567570D02*Y567080D01*
X442858Y567570D02*Y566100D01*
Y567570D02*X443348Y568060D01*
X443838D01*
X444328Y567570D01*
Y566100D01*
X442368Y568060D02*X442858Y567570D01*
X445504D02*Y566590D01*
Y567570D02*X445994Y568060D01*
X446974D01*
X447464Y567570D01*
Y566590D01*
X446974Y566100D02*X447464Y566590D01*
X445994Y566100D02*X446974D01*
X445504Y566590D02*X445994Y566100D01*
X448640Y569040D02*Y568942D01*
Y567570D02*Y566100D01*
X451580Y570020D02*Y566100D01*
X451090D02*X451580Y566590D01*
X450110Y566100D02*X451090D01*
X449620Y566590D02*X450110Y566100D01*
X449620Y567570D02*Y566590D01*
Y567570D02*X450110Y568060D01*
X451090D01*
X451580Y567570D01*
X455206Y566100D02*X456480D01*
X454520Y566786D02*X455206Y566100D01*
X454520Y569334D02*Y566786D01*
Y569334D02*X455206Y570020D01*
X456480D01*
X457656Y567570D02*Y566590D01*
Y567570D02*X458146Y568060D01*
X459126D01*
X459616Y567570D01*
Y566590D01*
X459126Y566100D02*X459616Y566590D01*
X458146Y566100D02*X459126D01*
X457656Y566590D02*X458146Y566100D01*
X461282Y567570D02*Y566100D01*
Y567570D02*X461772Y568060D01*
X462262D01*
X462752Y567570D01*
Y566100D01*
X460792Y568060D02*X461282Y567570D01*
X464418Y570020D02*Y566590D01*
X464908Y566100D01*
X463928Y568550D02*X464908D01*
X466378Y567570D02*Y566100D01*
Y567570D02*X466868Y568060D01*
X467848D01*
X465888D02*X466378Y567570D01*
X469024D02*Y566590D01*
Y567570D02*X469514Y568060D01*
X470494D01*
X470984Y567570D01*
Y566590D01*
X470494Y566100D02*X470984Y566590D01*
X469514Y566100D02*X470494D01*
X469024Y566590D02*X469514Y566100D01*
X472160Y570020D02*Y566590D01*
X472650Y566100D01*
X473630Y570020D02*Y566590D01*
X474120Y566100D01*
X475590D02*X477060D01*
X475100Y566590D02*X475590Y566100D01*
X475100Y567570D02*Y566590D01*
Y567570D02*X475590Y568060D01*
X476570D01*
X477060Y567570D01*
X475100Y567080D02*X477060D01*
Y567570D02*Y567080D01*
X478726Y567570D02*Y566100D01*
Y567570D02*X479216Y568060D01*
X480196D01*
X478236D02*X478726Y567570D01*
X184020Y512040D02*X183530Y511550D01*
X184020Y513510D02*Y512040D01*
X183530Y514000D02*X184020Y513510D01*
X182550Y514000D02*X183530D01*
X182550D02*X182060Y513510D01*
Y512040D01*
X181570Y511550D01*
X180590D02*X181570D01*
X180100Y512040D02*X180590Y511550D01*
X180100Y513510D02*Y512040D01*
X180590Y514000D02*X180100Y513510D01*
X184020Y508414D02*X183530Y507924D01*
X184020Y509884D02*Y508414D01*
X183530Y510374D02*X184020Y509884D01*
X180590Y510374D02*X183530D01*
X180590D02*X180100Y509884D01*
Y508414D01*
X180590Y507924D01*
X181570D01*
X182060Y508414D02*X181570Y507924D01*
X182060Y509394D02*Y508414D01*
X180100Y506748D02*X184020D01*
X180100Y504298D01*
X184020D01*
X180100Y502632D02*X184020D01*
Y501358D02*X183334Y500672D01*
X180786D02*X183334D01*
X180100Y501358D02*X180786Y500672D01*
X180100Y503122D02*Y501358D01*
X184020Y503122D02*Y501358D01*
X330000Y636060D02*X331960D01*
X330980Y637040D02*Y635080D01*
X333136Y637236D02*X333920Y638020D01*
Y634100D01*
X333136D02*X334606D01*
X335782Y637530D02*X336272Y638020D01*
X337742D01*
X338232Y637530D01*
Y636550D01*
X335782Y634100D02*X338232Y636550D01*
X335782Y634100D02*X338232D01*
X339408Y638020D02*X340388Y634100D01*
X341368Y638020D01*
X342544Y634590D02*X343034Y634100D01*
X342544Y637530D02*X343034Y638020D01*
X342544Y637530D02*Y634590D01*
X344700Y638020D02*Y634100D01*
X344210Y638020D02*X346170D01*
X346660Y637530D01*
Y636550D01*
X346170Y636060D02*X346660Y636550D01*
X344700Y636060D02*X346170D01*
X347836Y638020D02*X348326Y637530D01*
Y634590D01*
X347836Y634100D02*X348326Y634590D01*
X371490Y638020D02*Y634100D01*
X371000Y638020D02*X372960D01*
X373450Y637530D01*
Y636550D01*
X372960Y636060D02*X373450Y636550D01*
X371490Y636060D02*X372960D01*
X376586Y638020D02*X377076Y637530D01*
X375116Y638020D02*X376586D01*
X374626Y637530D02*X375116Y638020D01*
X374626Y637530D02*Y634590D01*
X375116Y634100D01*
X376586D01*
X377076Y634590D01*
Y635570D02*Y634590D01*
X376586Y636060D02*X377076Y635570D01*
X375606Y636060D02*X376586D01*
X378252Y638020D02*Y634100D01*
Y638020D02*X380702Y634100D01*
Y638020D02*Y634100D01*
X382368Y638020D02*Y634100D01*
X383642Y638020D02*X384328Y637334D01*
Y634786D01*
X383642Y634100D02*X384328Y634786D01*
X381878Y634100D02*X383642D01*
X381878Y638020D02*X383642D01*
X405490D02*Y634100D01*
X405000Y638020D02*X406960D01*
X407450Y637530D01*
Y636550D01*
X406960Y636060D02*X407450Y636550D01*
X405490Y636060D02*X406960D01*
X410586Y638020D02*X411076Y637530D01*
X409116Y638020D02*X410586D01*
X408626Y637530D02*X409116Y638020D01*
X408626Y637530D02*Y634590D01*
X409116Y634100D01*
X410586D01*
X411076Y634590D01*
Y635570D02*Y634590D01*
X410586Y636060D02*X411076Y635570D01*
X409606Y636060D02*X410586D01*
X412252Y638020D02*Y634100D01*
Y638020D02*X414702Y634100D01*
Y638020D02*Y634100D01*
X416368Y638020D02*Y634100D01*
X417642Y638020D02*X418328Y637334D01*
Y634786D01*
X417642Y634100D02*X418328Y634786D01*
X415878Y634100D02*X417642D01*
X415878Y638020D02*X417642D01*
X440000Y636000D02*X442000D01*
X441000Y637000D02*Y635000D01*
X443200Y635500D02*X445200Y638000D01*
X443200Y635500D02*X445700D01*
X445200Y638000D02*Y634000D01*
X446900Y634500D02*X447400Y634000D01*
X446900Y635300D02*Y634500D01*
Y635300D02*X447600Y636000D01*
X448200D01*
X448900Y635300D01*
Y634500D01*
X448400Y634000D02*X448900Y634500D01*
X447400Y634000D02*X448400D01*
X446900Y636700D02*X447600Y636000D01*
X446900Y637500D02*Y636700D01*
Y637500D02*X447400Y638000D01*
X448400D01*
X448900Y637500D01*
Y636700D01*
X448200Y636000D02*X448900Y636700D01*
X450100Y638000D02*X451100Y634000D01*
X452100Y638000D01*
X453300Y634500D02*X453800Y634000D01*
X453300Y637500D02*X453800Y638000D01*
X453300Y637500D02*Y634500D01*
X455500Y638000D02*Y634000D01*
X455000Y638000D02*X457000D01*
X457500Y637500D01*
Y636500D01*
X457000Y636000D02*X457500Y636500D01*
X455500Y636000D02*X457000D01*
X458700Y638000D02*X459200Y637500D01*
Y634500D01*
X458700Y634000D02*X459200Y634500D01*
X416000Y610000D02*Y604000D01*
X402000Y610000D02*Y604000D01*
G54D64*X389000D02*Y610000D01*
X429000Y604000D02*X389000D01*
X429000Y610000D02*Y604000D01*
X389000Y592000D02*Y610000D01*
X429000Y592000D02*X389000D01*
X429000Y610000D02*Y592000D01*
X389000Y610000D02*X429000D01*
G54D63*X295717Y567772D02*Y513835D01*
X360677Y567772D02*Y513835D01*
X295717D02*X360677D01*
X295717Y567772D02*X360677D01*
G54D64*X389000Y519000D02*X429000D01*
Y501000D01*
X389000D02*X429000D01*
X389000Y519000D02*Y501000D01*
Y519000D02*X429000D01*
Y513000D01*
X389000D02*X429000D01*
X389000Y519000D02*Y513000D01*
G54D63*X402000Y519000D02*Y513000D01*
X416000Y519000D02*Y513000D01*
X350500Y623000D02*X353000D01*
X343000D02*X345500D01*
Y622200D02*X350500D01*
X345500Y623800D02*Y622200D01*
Y623800D02*X350500D01*
Y622200D01*
X280500Y571000D02*X283000D01*
X273000D02*X275500D01*
Y570200D02*X280500D01*
X275500Y571800D02*Y570200D01*
Y571800D02*X280500D01*
Y570200D01*
X412536Y558536D02*G75*G03X405464Y558536I-3536J-3536D01*G01*
X405464Y551464D02*G75*G03X412536Y551464I3536J3536D01*G01*
X413950Y559950D02*G75*G03X404050Y559950I-4950J-4950D01*G01*
X404050Y550050D02*G75*G03X413950Y550050I4950J4950D01*G01*
X308000Y613000D02*Y573000D01*
X348000D01*
Y613000D01*
X308000D02*X323000D01*
X333000D02*X348000D01*
X323000D02*G75*G03X333000Y613000I5000J0D01*G01*
X461283Y695165D02*Y641228D01*
X396323Y695165D02*Y641228D01*
Y695165D02*X461283D01*
X396323Y641228D02*X461283D01*
G54D64*X473000Y592000D02*X513000D01*
X473000Y610000D02*Y592000D01*
Y610000D02*X513000D01*
Y592000D01*
X473000D02*X513000D01*
X473000Y598000D02*Y592000D01*
Y598000D02*X513000D01*
Y592000D01*
G54D63*X500000Y598000D02*Y592000D01*
X486000Y598000D02*Y592000D01*
G54D64*X569000Y562000D02*Y522000D01*
Y562000D02*X587000D01*
Y522000D01*
X569000D02*X587000D01*
X569000Y562000D02*Y522000D01*
Y562000D02*X575000D01*
Y522000D01*
X569000D02*X575000D01*
G54D63*X569000Y535000D02*X575000D01*
X569000Y549000D02*X575000D01*
X488835Y568283D02*X542772D01*
X488835Y503323D02*X542772D01*
X488835Y568283D02*Y503323D01*
X542772Y568283D02*Y503323D01*
X463000Y565000D02*Y555000D01*
Y535000D02*Y525000D01*
X466300Y555000D02*Y535000D01*
X459700D02*X466300D01*
X459700Y555000D02*Y535000D01*
Y555000D02*X466300D01*
X186835Y555283D02*X240772D01*
X186835Y490323D02*X240772D01*
X186835Y555283D02*Y490323D01*
X240772Y555283D02*Y490323D01*
X248000Y564000D02*Y524000D01*
X288000D01*
Y564000D01*
X248000D02*X263000D01*
X273000D02*X288000D01*
X263000D02*G75*G03X273000Y564000I5000J0D01*G01*
X253000Y598000D02*X263000D01*
X283000D02*X293000D01*
X263000Y601300D02*X283000D01*
Y594700D01*
X263000D01*
Y601300D01*
X326717Y694772D02*Y640835D01*
X391677Y694772D02*Y640835D01*
X326717D02*X391677D01*
X326717Y694772D02*X391677D01*
X320307Y510439D02*X323507D01*
X321907D02*Y504039D01*
X325427D02*X328627D01*
X329427Y504839D01*
Y506759D02*Y504839D01*
X328627Y507559D02*X329427Y506759D01*
X326227Y507559D02*X328627D01*
X326227Y510439D02*Y504039D01*
X325427Y510439D02*X328627D01*
X329427Y509639D01*
Y508359D01*
X328627Y507559D02*X329427Y508359D01*
X331347Y509159D02*X332627Y510439D01*
Y504039D01*
X331347D02*X333747D01*
X206000Y565400D02*X209200D01*
X207600D02*Y559000D01*
X211120D02*X214320D01*
X215120Y559800D01*
Y561720D02*Y559800D01*
X214320Y562520D02*X215120Y561720D01*
X211920Y562520D02*X214320D01*
X211920Y565400D02*Y559000D01*
X211120Y565400D02*X214320D01*
X215120Y564600D01*
Y563320D01*
X214320Y562520D02*X215120Y563320D01*
X217040Y564600D02*X217840Y565400D01*
X220240D01*
X221040Y564600D01*
Y563000D01*
X217040Y559000D02*X221040Y563000D01*
X217040Y559000D02*X221040D01*
X249000Y571000D02*X250000D01*
X249500D02*Y567000D01*
X249000D02*X250000D01*
X251900D02*X253200D01*
X251200Y567700D02*X251900Y567000D01*
X251200Y570300D02*Y567700D01*
Y570300D02*X251900Y571000D01*
X253200D01*
X254400Y570200D02*X255200Y571000D01*
Y567000D01*
X254400D02*X255900D01*
X351200Y614200D02*X352500D01*
X350500Y614900D02*X351200Y614200D01*
X350500Y617500D02*Y614900D01*
Y617500D02*X351200Y618200D01*
X352500D01*
X353700Y617700D02*X354200Y618200D01*
X355700D01*
X356200Y617700D01*
Y616700D01*
X353700Y614200D02*X356200Y616700D01*
X353700Y614200D02*X356200D01*
X396000Y589000D02*X398000D01*
X398500Y588500D01*
Y587500D01*
X398000Y587000D02*X398500Y587500D01*
X396500Y587000D02*X398000D01*
X396500Y589000D02*Y585000D01*
X397300Y587000D02*X398500Y585000D01*
X399700Y588500D02*X400200Y589000D01*
X401700D01*
X402200Y588500D01*
Y587500D01*
X399700Y585000D02*X402200Y587500D01*
X399700Y585000D02*X402200D01*
X352307Y638439D02*X355507D01*
X353907D02*Y632039D01*
X357427D02*X360627D01*
X361427Y632839D01*
Y634759D02*Y632839D01*
X360627Y635559D02*X361427Y634759D01*
X358227Y635559D02*X360627D01*
X358227Y638439D02*Y632039D01*
X357427Y638439D02*X360627D01*
X361427Y637639D01*
Y636359D01*
X360627Y635559D02*X361427Y636359D01*
X363347Y637639D02*X364147Y638439D01*
X365747D01*
X366547Y637639D01*
X365747Y632039D02*X366547Y632839D01*
X364147Y632039D02*X365747D01*
X363347Y632839D02*X364147Y632039D01*
Y635559D02*X365747D01*
X366547Y637639D02*Y636359D01*
Y634759D02*Y632839D01*
Y634759D02*X365747Y635559D01*
X366547Y636359D02*X365747Y635559D01*
X281200Y575200D02*X282500D01*
X280500Y575900D02*X281200Y575200D01*
X280500Y578500D02*Y575900D01*
Y578500D02*X281200Y579200D01*
X282500D01*
X283700Y578400D02*X284500Y579200D01*
Y575200D01*
X283700D02*X285200D01*
X309000Y620000D02*X310000D01*
X309500D02*Y616000D01*
X309000D02*X310000D01*
X311900D02*X313200D01*
X311200Y616700D02*X311900Y616000D01*
X311200Y619300D02*Y616700D01*
Y619300D02*X311900Y620000D01*
X313200D01*
X314400Y619500D02*X314900Y620000D01*
X316400D01*
X316900Y619500D01*
Y618500D01*
X314400Y616000D02*X316900Y618500D01*
X314400Y616000D02*X316900D01*
X270000Y592000D02*X272000D01*
X272500Y591500D01*
Y590500D01*
X272000Y590000D02*X272500Y590500D01*
X270500Y590000D02*X272000D01*
X270500Y592000D02*Y588000D01*
X271300Y590000D02*X272500Y588000D01*
X273700Y591200D02*X274500Y592000D01*
Y588000D01*
X273700D02*X275200D01*
X590500Y534000D02*Y530000D01*
X591800Y534000D02*X592500Y533300D01*
Y530700D01*
X591800Y530000D02*X592500Y530700D01*
X590000Y530000D02*X591800D01*
X590000Y534000D02*X591800D01*
X593700Y533500D02*X594200Y534000D01*
X595700D01*
X596200Y533500D01*
Y532500D01*
X593700Y530000D02*X596200Y532500D01*
X593700Y530000D02*X596200D01*
X508307Y500439D02*X511507D01*
X509907D02*Y494039D01*
X513427D02*X516627D01*
X517427Y494839D01*
Y496759D02*Y494839D01*
X516627Y497559D02*X517427Y496759D01*
X514227Y497559D02*X516627D01*
X514227Y500439D02*Y494039D01*
X513427Y500439D02*X516627D01*
X517427Y499639D01*
Y498359D01*
X516627Y497559D02*X517427Y498359D01*
X519347Y496439D02*X522547Y500439D01*
X519347Y496439D02*X523347D01*
X522547Y500439D02*Y494039D01*
X500500Y617000D02*Y613000D01*
X501800Y617000D02*X502500Y616300D01*
Y613700D01*
X501800Y613000D02*X502500Y613700D01*
X500000Y613000D02*X501800D01*
X500000Y617000D02*X501800D01*
X503700Y616200D02*X504500Y617000D01*
Y613000D01*
X503700D02*X505200D01*
X420500Y557000D02*Y553000D01*
X421800Y557000D02*X422500Y556300D01*
Y553700D01*
X421800Y553000D02*X422500Y553700D01*
X420000Y553000D02*X421800D01*
X420000Y557000D02*X421800D01*
X423700Y556500D02*X424200Y557000D01*
X425200D01*
X425700Y556500D01*
X425200Y553000D02*X425700Y553500D01*
X424200Y553000D02*X425200D01*
X423700Y553500D02*X424200Y553000D01*
Y555200D02*X425200D01*
X425700Y556500D02*Y555700D01*
Y554700D02*Y553500D01*
Y554700D02*X425200Y555200D01*
X425700Y555700D02*X425200Y555200D01*
X452000Y547000D02*X454000D01*
X454500Y546500D01*
Y545500D01*
X454000Y545000D02*X454500Y545500D01*
X452500Y545000D02*X454000D01*
X452500Y547000D02*Y543000D01*
X453300Y545000D02*X454500Y543000D01*
X455700Y546500D02*X456200Y547000D01*
X457200D01*
X457700Y546500D01*
X457200Y543000D02*X457700Y543500D01*
X456200Y543000D02*X457200D01*
X455700Y543500D02*X456200Y543000D01*
Y545200D02*X457200D01*
X457700Y546500D02*Y545700D01*
Y544700D02*Y543500D01*
Y544700D02*X457200Y545200D01*
X457700Y545700D02*X457200Y545200D01*
X422000Y638400D02*X425200D01*
X423600D02*Y632000D01*
X427120D02*X430320D01*
X431120Y632800D01*
Y634720D02*Y632800D01*
X430320Y635520D02*X431120Y634720D01*
X427920Y635520D02*X430320D01*
X427920Y638400D02*Y632000D01*
X427120Y638400D02*X430320D01*
X431120Y637600D01*
Y636320D01*
X430320Y635520D02*X431120Y636320D01*
X433040Y638400D02*X436240D01*
X433040D02*Y635200D01*
X433840Y636000D01*
X435440D01*
X436240Y635200D01*
Y632800D01*
X435440Y632000D02*X436240Y632800D01*
X433840Y632000D02*X435440D01*
X433040Y632800D02*X433840Y632000D01*
X397000Y497000D02*Y493000D01*
Y497000D02*X398500Y495000D01*
X400000Y497000D01*
Y493000D01*
X401200Y496200D02*X402000Y497000D01*
Y493000D01*
X401200D02*X402700D01*
M02*
