G04 start of page 6 for group -4063 idx -4063 *
G04 Title: (unknown), componentmask *
G04 Creator: pcb 20110918 *
G04 CreationDate: Sun 16 Mar 2014 12:10:26 AM GMT UTC *
G04 For: tyrian *
G04 Format: Gerber/RS-274X *
G04 PCB-Dimensions: 800000 800000 *
G04 PCB-Coordinate-Origin: lower left *
%MOIN*%
%FSLAX25Y25*%
%LNTOPMASK*%
%ADD55C,0.0710*%
%ADD54C,0.0810*%
%ADD53C,0.0610*%
%ADD52C,0.2260*%
%ADD51C,0.1635*%
%ADD50C,0.0960*%
%ADD49C,0.0001*%
G54D49*G36*
X498200Y608800D02*Y599200D01*
X507800D01*
Y608800D01*
X498200D01*
G37*
G54D50*X493000Y604000D03*
X483000D03*
G54D51*X445142Y668000D03*
G54D52*X485000Y648000D03*
G54D49*G36*
X576200Y536800D02*Y527200D01*
X585800D01*
Y536800D01*
X576200D01*
G37*
G54D50*X581000Y542000D03*
Y552000D03*
G54D51*X516000Y552142D03*
Y519661D03*
G54D49*G36*
X459950Y568050D02*Y561950D01*
X466050D01*
Y568050D01*
X459950D01*
G37*
G54D53*X463000Y525000D03*
G54D52*X559000Y502000D03*
G54D49*G36*
X279950Y574050D02*Y567950D01*
X286050D01*
Y574050D01*
X279950D01*
G37*
G54D54*X283000Y549000D03*
Y559000D03*
G54D53*X293000Y598000D03*
X273000Y571000D03*
G54D51*X311858Y541000D03*
X344339D03*
G54D54*X283000Y529000D03*
Y539000D03*
G54D49*G36*
X248950Y563050D02*Y554950D01*
X257050D01*
Y563050D01*
X248950D01*
G37*
G36*
X249950Y601050D02*Y594950D01*
X256050D01*
Y601050D01*
X249950D01*
G37*
G54D54*X253000Y549000D03*
G54D51*X214000Y539142D03*
Y506661D03*
G54D54*X253000Y539000D03*
Y529000D03*
G54D52*X267000Y506000D03*
G54D49*G36*
X349950Y626050D02*Y619950D01*
X356050D01*
Y626050D01*
X349950D01*
G37*
G54D51*X342858Y668000D03*
X375339D03*
X412661D03*
G54D53*X343000Y623000D03*
G54D54*Y578000D03*
Y588000D03*
Y598000D03*
Y608000D03*
G54D49*G36*
X410450Y558550D02*Y551450D01*
X417550D01*
Y558550D01*
X410450D01*
G37*
G54D55*X404000Y555000D03*
G54D49*G36*
X394200Y511800D02*Y502200D01*
X403800D01*
Y511800D01*
X394200D01*
G37*
G54D50*X409000Y507000D03*
X419000D03*
Y598000D03*
X399000D03*
G54D49*G36*
X308950Y612050D02*Y603950D01*
X317050D01*
Y612050D01*
X308950D01*
G37*
G54D52*X290000Y638000D03*
G54D54*X313000Y598000D03*
Y588000D03*
Y578000D03*
M02*
