G04 start of page 9 for group -3984 idx -3984 *
G04 Title: (unknown), fab *
G04 Creator: pcb 20110918 *
G04 CreationDate: Sun 23 Feb 2014 09:32:49 PM GMT UTC *
G04 For: tyrian *
G04 Format: Gerber/RS-274X *
G04 PCB-Dimensions: 800000 800000 *
G04 PCB-Coordinate-Origin: lower left *
%MOIN*%
%FSLAX25Y25*%
%LNFAB*%
%ADD68C,0.0100*%
%ADD67C,0.0075*%
%ADD66C,0.0060*%
%ADD65C,0.0080*%
G54D65*X473000Y513200D02*Y506800D01*
X469800Y510000D02*X476200D01*
X471400Y511600D02*X474600D01*
X471400D02*Y508400D01*
X474600D01*
Y511600D02*Y508400D01*
X268000Y509200D02*Y502800D01*
X264800Y506000D02*X271200D01*
X266400Y507600D02*X269600D01*
X266400D02*Y504400D01*
X269600D01*
Y507600D02*Y504400D01*
X473000Y643200D02*Y636800D01*
X469800Y640000D02*X476200D01*
X471400Y641600D02*X474600D01*
X471400D02*Y638400D01*
X474600D01*
Y641600D02*Y638400D01*
X291000Y619200D02*Y612800D01*
X287800Y616000D02*X294200D01*
X289400Y617600D02*X292600D01*
X289400D02*Y614400D01*
X292600D01*
Y617600D02*Y614400D01*
X15000Y814450D02*Y808050D01*
X11800Y811250D02*X18200D01*
X13400Y812850D02*X16600D01*
X13400D02*Y809650D01*
X16600D01*
Y812850D02*Y809650D01*
G54D66*X135000Y813500D02*X136500Y810500D01*
X138000Y813500D01*
X136500Y810500D02*Y807500D01*
X139800Y810800D02*X142050D01*
X139800Y807500D02*X142800D01*
X139800Y813500D02*Y807500D01*
Y813500D02*X142800D01*
X147600D02*X148350Y812750D01*
X145350Y813500D02*X147600D01*
X144600Y812750D02*X145350Y813500D01*
X144600Y812750D02*Y811250D01*
X145350Y810500D01*
X147600D01*
X148350Y809750D01*
Y808250D01*
X147600Y807500D02*X148350Y808250D01*
X145350Y807500D02*X147600D01*
X144600Y808250D02*X145350Y807500D01*
X98000Y809750D02*X101000Y813500D01*
X98000Y809750D02*X101750D01*
X101000Y813500D02*Y807500D01*
X45000Y808250D02*X45750Y807500D01*
X45000Y812750D02*Y808250D01*
Y812750D02*X45750Y813500D01*
X47250D01*
X48000Y812750D01*
Y808250D01*
X47250Y807500D02*X48000Y808250D01*
X45750Y807500D02*X47250D01*
X45000Y809000D02*X48000Y812000D01*
X49800Y807500D02*X50550D01*
X52350Y812300D02*X53550Y813500D01*
Y807500D01*
X52350D02*X54600D01*
X56400Y812750D02*X57150Y813500D01*
X59400D01*
X60150Y812750D01*
Y811250D01*
X56400Y807500D02*X60150Y811250D01*
X56400Y807500D02*X60150D01*
X61950Y808250D02*X62700Y807500D01*
X61950Y812750D02*Y808250D01*
Y812750D02*X62700Y813500D01*
X64200D01*
X64950Y812750D01*
Y808250D01*
X64200Y807500D02*X64950Y808250D01*
X62700Y807500D02*X64200D01*
X61950Y809000D02*X64950Y812000D01*
X387858Y655000D02*Y651800D01*
Y655000D02*X390631Y656600D01*
X387858Y655000D02*X385085Y656600D01*
X386258Y655000D02*G75*G03X389458Y655000I1600J0D01*G01*
G75*G03X386258Y655000I-1600J0D01*G01*
X420339D02*Y651800D01*
Y655000D02*X423112Y656600D01*
X420339Y655000D02*X417566Y656600D01*
X418739Y655000D02*G75*G03X421939Y655000I1600J0D01*G01*
G75*G03X418739Y655000I-1600J0D01*G01*
X516000Y552142D02*Y548942D01*
Y552142D02*X518773Y553742D01*
X516000Y552142D02*X513227Y553742D01*
X514400Y552142D02*G75*G03X517600Y552142I1600J0D01*G01*
G75*G03X514400Y552142I-1600J0D01*G01*
X516000Y519661D02*Y516461D01*
Y519661D02*X518773Y521261D01*
X516000Y519661D02*X513227Y521261D01*
X514400Y519661D02*G75*G03X517600Y519661I1600J0D01*G01*
G75*G03X514400Y519661I-1600J0D01*G01*
X311858Y541000D02*Y537800D01*
Y541000D02*X314631Y542600D01*
X311858Y541000D02*X309085Y542600D01*
X310258Y541000D02*G75*G03X313458Y541000I1600J0D01*G01*
G75*G03X310258Y541000I-1600J0D01*G01*
X344339D02*Y537800D01*
Y541000D02*X347112Y542600D01*
X344339Y541000D02*X341566Y542600D01*
X342739Y541000D02*G75*G03X345939Y541000I1600J0D01*G01*
G75*G03X342739Y541000I-1600J0D01*G01*
X214000Y539142D02*Y535942D01*
Y539142D02*X216773Y540742D01*
X214000Y539142D02*X211227Y540742D01*
X212400Y539142D02*G75*G03X215600Y539142I1600J0D01*G01*
G75*G03X212400Y539142I-1600J0D01*G01*
X214000Y506661D02*Y503461D01*
Y506661D02*X216773Y508261D01*
X214000Y506661D02*X211227Y508261D01*
X212400Y506661D02*G75*G03X215600Y506661I1600J0D01*G01*
G75*G03X212400Y506661I-1600J0D01*G01*
X15000Y826250D02*Y823050D01*
Y826250D02*X17773Y827850D01*
X15000Y826250D02*X12227Y827850D01*
X13400Y826250D02*G75*G03X16600Y826250I1600J0D01*G01*
G75*G03X13400Y826250I-1600J0D01*G01*
X135000Y828500D02*X136500Y825500D01*
X138000Y828500D01*
X136500Y825500D02*Y822500D01*
X139800Y825800D02*X142050D01*
X139800Y822500D02*X142800D01*
X139800Y828500D02*Y822500D01*
Y828500D02*X142800D01*
X147600D02*X148350Y827750D01*
X145350Y828500D02*X147600D01*
X144600Y827750D02*X145350Y828500D01*
X144600Y827750D02*Y826250D01*
X145350Y825500D01*
X147600D01*
X148350Y824750D01*
Y823250D01*
X147600Y822500D02*X148350Y823250D01*
X145350Y822500D02*X147600D01*
X144600Y823250D02*X145350Y822500D01*
X98000Y823250D02*X98750Y822500D01*
X98000Y824450D02*Y823250D01*
Y824450D02*X99050Y825500D01*
X99950D01*
X101000Y824450D01*
Y823250D01*
X100250Y822500D02*X101000Y823250D01*
X98750Y822500D02*X100250D01*
X98000Y826550D02*X99050Y825500D01*
X98000Y827750D02*Y826550D01*
Y827750D02*X98750Y828500D01*
X100250D01*
X101000Y827750D01*
Y826550D01*
X99950Y825500D02*X101000Y826550D01*
X45000Y823250D02*X45750Y822500D01*
X45000Y827750D02*Y823250D01*
Y827750D02*X45750Y828500D01*
X47250D01*
X48000Y827750D01*
Y823250D01*
X47250Y822500D02*X48000Y823250D01*
X45750Y822500D02*X47250D01*
X45000Y824000D02*X48000Y827000D01*
X49800Y822500D02*X50550D01*
X52350Y823250D02*X53100Y822500D01*
X52350Y827750D02*Y823250D01*
Y827750D02*X53100Y828500D01*
X54600D01*
X55350Y827750D01*
Y823250D01*
X54600Y822500D02*X55350Y823250D01*
X53100Y822500D02*X54600D01*
X52350Y824000D02*X55350Y827000D01*
X57900Y822500D02*X60900Y828500D01*
X57150D02*X60900D01*
X63450Y822500D02*X65700Y825500D01*
Y827750D02*Y825500D01*
X64950Y828500D02*X65700Y827750D01*
X63450Y828500D02*X64950D01*
X62700Y827750D02*X63450Y828500D01*
X62700Y827750D02*Y826250D01*
X63450Y825500D01*
X65700D01*
X397400Y508600D02*X400600D01*
X397400D02*Y505400D01*
X400600D01*
Y508600D02*Y505400D01*
X407400Y508600D02*X410600D01*
X407400D02*Y505400D01*
X410600D01*
Y508600D02*Y505400D01*
X417400Y508600D02*X420600D01*
X417400D02*Y505400D01*
X420600D01*
Y508600D02*Y505400D01*
X13400Y842850D02*X16600D01*
X13400D02*Y839650D01*
X16600D01*
Y842850D02*Y839650D01*
X135000Y843500D02*X136500Y840500D01*
X138000Y843500D01*
X136500Y840500D02*Y837500D01*
X139800Y840800D02*X142050D01*
X139800Y837500D02*X142800D01*
X139800Y843500D02*Y837500D01*
Y843500D02*X142800D01*
X147600D02*X148350Y842750D01*
X145350Y843500D02*X147600D01*
X144600Y842750D02*X145350Y843500D01*
X144600Y842750D02*Y841250D01*
X145350Y840500D01*
X147600D01*
X148350Y839750D01*
Y838250D01*
X147600Y837500D02*X148350Y838250D01*
X145350Y837500D02*X147600D01*
X144600Y838250D02*X145350Y837500D01*
X98000Y842750D02*X98750Y843500D01*
X100250D01*
X101000Y842750D01*
X100250Y837500D02*X101000Y838250D01*
X98750Y837500D02*X100250D01*
X98000Y838250D02*X98750Y837500D01*
Y840800D02*X100250D01*
X101000Y842750D02*Y841550D01*
Y840050D02*Y838250D01*
Y840050D02*X100250Y840800D01*
X101000Y841550D02*X100250Y840800D01*
X45000Y838250D02*X45750Y837500D01*
X45000Y842750D02*Y838250D01*
Y842750D02*X45750Y843500D01*
X47250D01*
X48000Y842750D01*
Y838250D01*
X47250Y837500D02*X48000Y838250D01*
X45750Y837500D02*X47250D01*
X45000Y839000D02*X48000Y842000D01*
X49800Y837500D02*X50550D01*
X52350Y838250D02*X53100Y837500D01*
X52350Y842750D02*Y838250D01*
Y842750D02*X53100Y843500D01*
X54600D01*
X55350Y842750D01*
Y838250D01*
X54600Y837500D02*X55350Y838250D01*
X53100Y837500D02*X54600D01*
X52350Y839000D02*X55350Y842000D01*
X57150Y843500D02*X60150D01*
X57150D02*Y840500D01*
X57900Y841250D01*
X59400D01*
X60150Y840500D01*
Y838250D01*
X59400Y837500D02*X60150Y838250D01*
X57900Y837500D02*X59400D01*
X57150Y838250D02*X57900Y837500D01*
X61950Y838250D02*X62700Y837500D01*
X61950Y842750D02*Y838250D01*
Y842750D02*X62700Y843500D01*
X64200D01*
X64950Y842750D01*
Y838250D01*
X64200Y837500D02*X64950Y838250D01*
X62700Y837500D02*X64200D01*
X61950Y839000D02*X64950Y842000D01*
X413200Y555000D02*G75*G03X414800Y555000I800J0D01*G01*
G75*G03X413200Y555000I-800J0D01*G01*
X403200D02*G75*G03X404800Y555000I800J0D01*G01*
G75*G03X403200Y555000I-800J0D01*G01*
X14200Y856250D02*G75*G03X15800Y856250I800J0D01*G01*
G75*G03X14200Y856250I-800J0D01*G01*
X135000Y858500D02*X136500Y855500D01*
X138000Y858500D01*
X136500Y855500D02*Y852500D01*
X139800Y855800D02*X142050D01*
X139800Y852500D02*X142800D01*
X139800Y858500D02*Y852500D01*
Y858500D02*X142800D01*
X147600D02*X148350Y857750D01*
X145350Y858500D02*X147600D01*
X144600Y857750D02*X145350Y858500D01*
X144600Y857750D02*Y856250D01*
X145350Y855500D01*
X147600D01*
X148350Y854750D01*
Y853250D01*
X147600Y852500D02*X148350Y853250D01*
X145350Y852500D02*X147600D01*
X144600Y853250D02*X145350Y852500D01*
X98000Y857750D02*X98750Y858500D01*
X101000D01*
X101750Y857750D01*
Y856250D01*
X98000Y852500D02*X101750Y856250D01*
X98000Y852500D02*X101750D01*
X45000Y853250D02*X45750Y852500D01*
X45000Y857750D02*Y853250D01*
Y857750D02*X45750Y858500D01*
X47250D01*
X48000Y857750D01*
Y853250D01*
X47250Y852500D02*X48000Y853250D01*
X45750Y852500D02*X47250D01*
X45000Y854000D02*X48000Y857000D01*
X49800Y852500D02*X50550D01*
X52350Y853250D02*X53100Y852500D01*
X52350Y857750D02*Y853250D01*
Y857750D02*X53100Y858500D01*
X54600D01*
X55350Y857750D01*
Y853250D01*
X54600Y852500D02*X55350Y853250D01*
X53100Y852500D02*X54600D01*
X52350Y854000D02*X55350Y857000D01*
X57150Y854750D02*X60150Y858500D01*
X57150Y854750D02*X60900D01*
X60150Y858500D02*Y852500D01*
X62700Y857750D02*X63450Y858500D01*
X64950D01*
X65700Y857750D01*
X64950Y852500D02*X65700Y853250D01*
X63450Y852500D02*X64950D01*
X62700Y853250D02*X63450Y852500D01*
Y855800D02*X64950D01*
X65700Y857750D02*Y856550D01*
Y855050D02*Y853250D01*
Y855050D02*X64950Y855800D01*
X65700Y856550D02*X64950Y855800D01*
X501800Y605200D02*X504200Y602800D01*
X501800D02*X504200Y605200D01*
X491800D02*X494200Y602800D01*
X491800D02*X494200Y605200D01*
X481800D02*X484200Y602800D01*
X481800D02*X484200Y605200D01*
X579800Y533200D02*X582200Y530800D01*
X579800D02*X582200Y533200D01*
X579800Y543200D02*X582200Y540800D01*
X579800D02*X582200Y543200D01*
X579800Y553200D02*X582200Y550800D01*
X579800D02*X582200Y553200D01*
X417800Y599200D02*X420200Y596800D01*
X417800D02*X420200Y599200D01*
X397800D02*X400200Y596800D01*
X397800D02*X400200Y599200D01*
X13800Y872450D02*X16200Y870050D01*
X13800D02*X16200Y872450D01*
X135000Y873500D02*X136500Y870500D01*
X138000Y873500D01*
X136500Y870500D02*Y867500D01*
X139800Y870800D02*X142050D01*
X139800Y867500D02*X142800D01*
X139800Y873500D02*Y867500D01*
Y873500D02*X142800D01*
X147600D02*X148350Y872750D01*
X145350Y873500D02*X147600D01*
X144600Y872750D02*X145350Y873500D01*
X144600Y872750D02*Y871250D01*
X145350Y870500D01*
X147600D01*
X148350Y869750D01*
Y868250D01*
X147600Y867500D02*X148350Y868250D01*
X145350Y867500D02*X147600D01*
X144600Y868250D02*X145350Y867500D01*
X98000Y868250D02*X98750Y867500D01*
X98000Y869450D02*Y868250D01*
Y869450D02*X99050Y870500D01*
X99950D01*
X101000Y869450D01*
Y868250D01*
X100250Y867500D02*X101000Y868250D01*
X98750Y867500D02*X100250D01*
X98000Y871550D02*X99050Y870500D01*
X98000Y872750D02*Y871550D01*
Y872750D02*X98750Y873500D01*
X100250D01*
X101000Y872750D01*
Y871550D01*
X99950Y870500D02*X101000Y871550D01*
X45000Y868250D02*X45750Y867500D01*
X45000Y872750D02*Y868250D01*
Y872750D02*X45750Y873500D01*
X47250D01*
X48000Y872750D01*
Y868250D01*
X47250Y867500D02*X48000Y868250D01*
X45750Y867500D02*X47250D01*
X45000Y869000D02*X48000Y872000D01*
X49800Y867500D02*X50550D01*
X52350Y868250D02*X53100Y867500D01*
X52350Y872750D02*Y868250D01*
Y872750D02*X53100Y873500D01*
X54600D01*
X55350Y872750D01*
Y868250D01*
X54600Y867500D02*X55350Y868250D01*
X53100Y867500D02*X54600D01*
X52350Y869000D02*X55350Y872000D01*
X57150Y869750D02*X60150Y873500D01*
X57150Y869750D02*X60900D01*
X60150Y873500D02*Y867500D01*
X62700Y868250D02*X63450Y867500D01*
X62700Y872750D02*Y868250D01*
Y872750D02*X63450Y873500D01*
X64950D01*
X65700Y872750D01*
Y868250D01*
X64950Y867500D02*X65700Y868250D01*
X63450Y867500D02*X64950D01*
X62700Y869000D02*X65700Y872000D01*
X313000Y609600D02*Y606400D01*
X311400Y608000D02*X314600D01*
X313000Y599600D02*Y596400D01*
X311400Y598000D02*X314600D01*
X313000Y589600D02*Y586400D01*
X311400Y588000D02*X314600D01*
X313000Y579600D02*Y576400D01*
X311400Y578000D02*X314600D01*
X343000Y579600D02*Y576400D01*
X341400Y578000D02*X344600D01*
X343000Y589600D02*Y586400D01*
X341400Y588000D02*X344600D01*
X343000Y599600D02*Y596400D01*
X341400Y598000D02*X344600D01*
X343000Y609600D02*Y606400D01*
X341400Y608000D02*X344600D01*
X253000Y560600D02*Y557400D01*
X251400Y559000D02*X254600D01*
X253000Y550600D02*Y547400D01*
X251400Y549000D02*X254600D01*
X253000Y540600D02*Y537400D01*
X251400Y539000D02*X254600D01*
X253000Y530600D02*Y527400D01*
X251400Y529000D02*X254600D01*
X283000Y530600D02*Y527400D01*
X281400Y529000D02*X284600D01*
X283000Y540600D02*Y537400D01*
X281400Y539000D02*X284600D01*
X283000Y550600D02*Y547400D01*
X281400Y549000D02*X284600D01*
X283000Y560600D02*Y557400D01*
X281400Y559000D02*X284600D01*
X15000Y887850D02*Y884650D01*
X13400Y886250D02*X16600D01*
X135000Y888500D02*X136500Y885500D01*
X138000Y888500D01*
X136500Y885500D02*Y882500D01*
X139800Y885800D02*X142050D01*
X139800Y882500D02*X142800D01*
X139800Y888500D02*Y882500D01*
Y888500D02*X142800D01*
X147600D02*X148350Y887750D01*
X145350Y888500D02*X147600D01*
X144600Y887750D02*X145350Y888500D01*
X144600Y887750D02*Y886250D01*
X145350Y885500D01*
X147600D01*
X148350Y884750D01*
Y883250D01*
X147600Y882500D02*X148350Y883250D01*
X145350Y882500D02*X147600D01*
X144600Y883250D02*X145350Y882500D01*
X98000Y887300D02*X99200Y888500D01*
Y882500D01*
X98000D02*X100250D01*
X104300Y888500D02*X105050Y887750D01*
X102800Y888500D02*X104300D01*
X102050Y887750D02*X102800Y888500D01*
X102050Y887750D02*Y883250D01*
X102800Y882500D01*
X104300Y885800D02*X105050Y885050D01*
X102050Y885800D02*X104300D01*
X102800Y882500D02*X104300D01*
X105050Y883250D01*
Y885050D02*Y883250D01*
X45000D02*X45750Y882500D01*
X45000Y887750D02*Y883250D01*
Y887750D02*X45750Y888500D01*
X47250D01*
X48000Y887750D01*
Y883250D01*
X47250Y882500D02*X48000Y883250D01*
X45750Y882500D02*X47250D01*
X45000Y884000D02*X48000Y887000D01*
X49800Y882500D02*X50550D01*
X52350Y883250D02*X53100Y882500D01*
X52350Y887750D02*Y883250D01*
Y887750D02*X53100Y888500D01*
X54600D01*
X55350Y887750D01*
Y883250D01*
X54600Y882500D02*X55350Y883250D01*
X53100Y882500D02*X54600D01*
X52350Y884000D02*X55350Y887000D01*
X57150Y887750D02*X57900Y888500D01*
X59400D01*
X60150Y887750D01*
X59400Y882500D02*X60150Y883250D01*
X57900Y882500D02*X59400D01*
X57150Y883250D02*X57900Y882500D01*
Y885800D02*X59400D01*
X60150Y887750D02*Y886550D01*
Y885050D02*Y883250D01*
Y885050D02*X59400Y885800D01*
X60150Y886550D02*X59400Y885800D01*
X61950Y883250D02*X62700Y882500D01*
X61950Y884450D02*Y883250D01*
Y884450D02*X63000Y885500D01*
X63900D01*
X64950Y884450D01*
Y883250D01*
X64200Y882500D02*X64950Y883250D01*
X62700Y882500D02*X64200D01*
X61950Y886550D02*X63000Y885500D01*
X61950Y887750D02*Y886550D01*
Y887750D02*X62700Y888500D01*
X64200D01*
X64950Y887750D01*
Y886550D01*
X63900Y885500D02*X64950Y886550D01*
X353000Y623000D02*Y621400D01*
Y623000D02*X354387Y623800D01*
X353000Y623000D02*X351613Y623800D01*
X343000Y623000D02*Y621400D01*
Y623000D02*X344387Y623800D01*
X343000Y623000D02*X341613Y623800D01*
X283000Y571000D02*Y569400D01*
Y571000D02*X284387Y571800D01*
X283000Y571000D02*X281613Y571800D01*
X273000Y571000D02*Y569400D01*
Y571000D02*X274387Y571800D01*
X273000Y571000D02*X271613Y571800D01*
X463000Y565000D02*Y563400D01*
Y565000D02*X464387Y565800D01*
X463000Y565000D02*X461613Y565800D01*
X463000Y525000D02*Y523400D01*
Y525000D02*X464387Y525800D01*
X463000Y525000D02*X461613Y525800D01*
X253000Y598000D02*Y596400D01*
Y598000D02*X254387Y598800D01*
X253000Y598000D02*X251613Y598800D01*
X293000Y598000D02*Y596400D01*
Y598000D02*X294387Y598800D01*
X293000Y598000D02*X291613Y598800D01*
X15000Y901250D02*Y899650D01*
Y901250D02*X16387Y902050D01*
X15000Y901250D02*X13613Y902050D01*
X135000Y903500D02*X136500Y900500D01*
X138000Y903500D01*
X136500Y900500D02*Y897500D01*
X139800Y900800D02*X142050D01*
X139800Y897500D02*X142800D01*
X139800Y903500D02*Y897500D01*
Y903500D02*X142800D01*
X147600D02*X148350Y902750D01*
X145350Y903500D02*X147600D01*
X144600Y902750D02*X145350Y903500D01*
X144600Y902750D02*Y901250D01*
X145350Y900500D01*
X147600D01*
X148350Y899750D01*
Y898250D01*
X147600Y897500D02*X148350Y898250D01*
X145350Y897500D02*X147600D01*
X144600Y898250D02*X145350Y897500D01*
X98000Y898250D02*X98750Y897500D01*
X98000Y899450D02*Y898250D01*
Y899450D02*X99050Y900500D01*
X99950D01*
X101000Y899450D01*
Y898250D01*
X100250Y897500D02*X101000Y898250D01*
X98750Y897500D02*X100250D01*
X98000Y901550D02*X99050Y900500D01*
X98000Y902750D02*Y901550D01*
Y902750D02*X98750Y903500D01*
X100250D01*
X101000Y902750D01*
Y901550D01*
X99950Y900500D02*X101000Y901550D01*
X45000Y898250D02*X45750Y897500D01*
X45000Y902750D02*Y898250D01*
Y902750D02*X45750Y903500D01*
X47250D01*
X48000Y902750D01*
Y898250D01*
X47250Y897500D02*X48000Y898250D01*
X45750Y897500D02*X47250D01*
X45000Y899000D02*X48000Y902000D01*
X49800Y897500D02*X50550D01*
X52350Y898250D02*X53100Y897500D01*
X52350Y902750D02*Y898250D01*
Y902750D02*X53100Y903500D01*
X54600D01*
X55350Y902750D01*
Y898250D01*
X54600Y897500D02*X55350Y898250D01*
X53100Y897500D02*X54600D01*
X52350Y899000D02*X55350Y902000D01*
X57150Y902750D02*X57900Y903500D01*
X59400D01*
X60150Y902750D01*
X59400Y897500D02*X60150Y898250D01*
X57900Y897500D02*X59400D01*
X57150Y898250D02*X57900Y897500D01*
Y900800D02*X59400D01*
X60150Y902750D02*Y901550D01*
Y900050D02*Y898250D01*
Y900050D02*X59400Y900800D01*
X60150Y901550D02*X59400Y900800D01*
X61950Y898250D02*X62700Y897500D01*
X61950Y902750D02*Y898250D01*
Y902750D02*X62700Y903500D01*
X64200D01*
X64950Y902750D01*
Y898250D01*
X64200Y897500D02*X64950Y898250D01*
X62700Y897500D02*X64200D01*
X61950Y899000D02*X64950Y902000D01*
X3000Y918500D02*X3750Y917750D01*
X750Y918500D02*X3000D01*
X0Y917750D02*X750Y918500D01*
X0Y917750D02*Y916250D01*
X750Y915500D01*
X3000D01*
X3750Y914750D01*
Y913250D01*
X3000Y912500D02*X3750Y913250D01*
X750Y912500D02*X3000D01*
X0Y913250D02*X750Y912500D01*
X5550Y915500D02*Y913250D01*
X6300Y912500D01*
X8550Y915500D02*Y911000D01*
X7800Y910250D02*X8550Y911000D01*
X6300Y910250D02*X7800D01*
X5550Y911000D02*X6300Y910250D01*
Y912500D02*X7800D01*
X8550Y913250D01*
X11100Y914750D02*Y912500D01*
Y914750D02*X11850Y915500D01*
X12600D01*
X13350Y914750D01*
Y912500D01*
Y914750D02*X14100Y915500D01*
X14850D01*
X15600Y914750D01*
Y912500D01*
X10350Y915500D02*X11100Y914750D01*
X17400Y918500D02*Y912500D01*
Y913250D02*X18150Y912500D01*
X19650D01*
X20400Y913250D01*
Y914750D02*Y913250D01*
X19650Y915500D02*X20400Y914750D01*
X18150Y915500D02*X19650D01*
X17400Y914750D02*X18150Y915500D01*
X22200Y914750D02*Y913250D01*
Y914750D02*X22950Y915500D01*
X24450D01*
X25200Y914750D01*
Y913250D01*
X24450Y912500D02*X25200Y913250D01*
X22950Y912500D02*X24450D01*
X22200Y913250D02*X22950Y912500D01*
X27000Y918500D02*Y913250D01*
X27750Y912500D01*
X0Y909250D02*X29250D01*
X41750Y918500D02*Y912500D01*
X43700Y918500D02*X44750Y917450D01*
Y913550D01*
X43700Y912500D02*X44750Y913550D01*
X41000Y912500D02*X43700D01*
X41000Y918500D02*X43700D01*
G54D67*X46550Y917000D02*Y916850D01*
G54D66*Y914750D02*Y912500D01*
X50300Y915500D02*X51050Y914750D01*
X48800Y915500D02*X50300D01*
X48050Y914750D02*X48800Y915500D01*
X48050Y914750D02*Y913250D01*
X48800Y912500D01*
X51050Y915500D02*Y913250D01*
X51800Y912500D01*
X48800D02*X50300D01*
X51050Y913250D01*
X54350Y914750D02*Y912500D01*
Y914750D02*X55100Y915500D01*
X55850D01*
X56600Y914750D01*
Y912500D01*
Y914750D02*X57350Y915500D01*
X58100D01*
X58850Y914750D01*
Y912500D01*
X53600Y915500D02*X54350Y914750D01*
X60650Y912500D02*X61400D01*
X65900Y913250D02*X66650Y912500D01*
X65900Y917750D02*X66650Y918500D01*
X65900Y917750D02*Y913250D01*
X68450Y918500D02*X69950D01*
X69200D02*Y912500D01*
X68450D02*X69950D01*
X72500Y914750D02*Y912500D01*
Y914750D02*X73250Y915500D01*
X74000D01*
X74750Y914750D01*
Y912500D01*
X71750Y915500D02*X72500Y914750D01*
X77300Y915500D02*X79550D01*
X76550Y914750D02*X77300Y915500D01*
X76550Y914750D02*Y913250D01*
X77300Y912500D01*
X79550D01*
X81350Y918500D02*Y912500D01*
Y914750D02*X82100Y915500D01*
X83600D01*
X84350Y914750D01*
Y912500D01*
X86150Y918500D02*X86900Y917750D01*
Y913250D01*
X86150Y912500D02*X86900Y913250D01*
X41000Y909250D02*X88700D01*
X96050Y912500D02*X98000D01*
X95000Y913550D02*X96050Y912500D01*
X95000Y917450D02*Y913550D01*
Y917450D02*X96050Y918500D01*
X98000D01*
X99800Y914750D02*Y913250D01*
Y914750D02*X100550Y915500D01*
X102050D01*
X102800Y914750D01*
Y913250D01*
X102050Y912500D02*X102800Y913250D01*
X100550Y912500D02*X102050D01*
X99800Y913250D02*X100550Y912500D01*
X104600Y915500D02*Y913250D01*
X105350Y912500D01*
X106850D01*
X107600Y913250D01*
Y915500D02*Y913250D01*
X110150Y914750D02*Y912500D01*
Y914750D02*X110900Y915500D01*
X111650D01*
X112400Y914750D01*
Y912500D01*
X109400Y915500D02*X110150Y914750D01*
X114950Y918500D02*Y913250D01*
X115700Y912500D01*
X114200Y916250D02*X115700D01*
X95000Y909250D02*X117200D01*
X130750Y918500D02*Y912500D01*
X130000Y918500D02*X133000D01*
X133750Y917750D01*
Y916250D01*
X133000Y915500D02*X133750Y916250D01*
X130750Y915500D02*X133000D01*
X135550Y918500D02*Y913250D01*
X136300Y912500D01*
X140050Y915500D02*X140800Y914750D01*
X138550Y915500D02*X140050D01*
X137800Y914750D02*X138550Y915500D01*
X137800Y914750D02*Y913250D01*
X138550Y912500D01*
X140800Y915500D02*Y913250D01*
X141550Y912500D01*
X138550D02*X140050D01*
X140800Y913250D01*
X144100Y918500D02*Y913250D01*
X144850Y912500D01*
X143350Y916250D02*X144850D01*
X147100Y912500D02*X149350D01*
X146350Y913250D02*X147100Y912500D01*
X146350Y914750D02*Y913250D01*
Y914750D02*X147100Y915500D01*
X148600D01*
X149350Y914750D01*
X146350Y914000D02*X149350D01*
Y914750D02*Y914000D01*
X154150Y918500D02*Y912500D01*
X153400D02*X154150Y913250D01*
X151900Y912500D02*X153400D01*
X151150Y913250D02*X151900Y912500D01*
X151150Y914750D02*Y913250D01*
Y914750D02*X151900Y915500D01*
X153400D01*
X154150Y914750D01*
X157450Y915500D02*Y914750D01*
Y913250D02*Y912500D01*
X155950Y917750D02*Y917000D01*
Y917750D02*X156700Y918500D01*
X158200D01*
X158950Y917750D01*
Y917000D01*
X157450Y915500D02*X158950Y917000D01*
X130000Y909250D02*X160750D01*
X0Y933500D02*X3000D01*
X1500D02*Y927500D01*
X4800Y933500D02*Y927500D01*
Y929750D02*X5550Y930500D01*
X7050D01*
X7800Y929750D01*
Y927500D01*
X10350D02*X12600D01*
X9600Y928250D02*X10350Y927500D01*
X9600Y929750D02*Y928250D01*
Y929750D02*X10350Y930500D01*
X11850D01*
X12600Y929750D01*
X9600Y929000D02*X12600D01*
Y929750D02*Y929000D01*
X15150Y929750D02*Y927500D01*
Y929750D02*X15900Y930500D01*
X17400D01*
X14400D02*X15150Y929750D01*
X19950Y927500D02*X22200D01*
X19200Y928250D02*X19950Y927500D01*
X19200Y929750D02*Y928250D01*
Y929750D02*X19950Y930500D01*
X21450D01*
X22200Y929750D01*
X19200Y929000D02*X22200D01*
Y929750D02*Y929000D01*
X28950Y930500D02*X29700Y929750D01*
X27450Y930500D02*X28950D01*
X26700Y929750D02*X27450Y930500D01*
X26700Y929750D02*Y928250D01*
X27450Y927500D01*
X29700Y930500D02*Y928250D01*
X30450Y927500D01*
X27450D02*X28950D01*
X29700Y928250D01*
X33000Y929750D02*Y927500D01*
Y929750D02*X33750Y930500D01*
X35250D01*
X32250D02*X33000Y929750D01*
X37800Y927500D02*X40050D01*
X37050Y928250D02*X37800Y927500D01*
X37050Y929750D02*Y928250D01*
Y929750D02*X37800Y930500D01*
X39300D01*
X40050Y929750D01*
X37050Y929000D02*X40050D01*
Y929750D02*Y929000D01*
X45300Y927500D02*X48300Y933500D01*
X44550D02*X48300D01*
X55800D02*Y927500D01*
X55050D02*X55800Y928250D01*
X53550Y927500D02*X55050D01*
X52800Y928250D02*X53550Y927500D01*
X52800Y929750D02*Y928250D01*
Y929750D02*X53550Y930500D01*
X55050D01*
X55800Y929750D01*
G54D67*X57600Y932000D02*Y931850D01*
G54D66*Y929750D02*Y927500D01*
X59850Y932750D02*Y927500D01*
Y932750D02*X60600Y933500D01*
X61350D01*
X59100Y930500D02*X60600D01*
X63600Y932750D02*Y927500D01*
Y932750D02*X64350Y933500D01*
X65100D01*
X62850Y930500D02*X64350D01*
X67350Y927500D02*X69600D01*
X66600Y928250D02*X67350Y927500D01*
X66600Y929750D02*Y928250D01*
Y929750D02*X67350Y930500D01*
X68850D01*
X69600Y929750D01*
X66600Y929000D02*X69600D01*
Y929750D02*Y929000D01*
X72150Y929750D02*Y927500D01*
Y929750D02*X72900Y930500D01*
X74400D01*
X71400D02*X72150Y929750D01*
X76950Y927500D02*X79200D01*
X76200Y928250D02*X76950Y927500D01*
X76200Y929750D02*Y928250D01*
Y929750D02*X76950Y930500D01*
X78450D01*
X79200Y929750D01*
X76200Y929000D02*X79200D01*
Y929750D02*Y929000D01*
X81750Y929750D02*Y927500D01*
Y929750D02*X82500Y930500D01*
X83250D01*
X84000Y929750D01*
Y927500D01*
X81000Y930500D02*X81750Y929750D01*
X86550Y933500D02*Y928250D01*
X87300Y927500D01*
X85800Y931250D02*X87300D01*
X94500Y933500D02*Y927500D01*
X93750D02*X94500Y928250D01*
X92250Y927500D02*X93750D01*
X91500Y928250D02*X92250Y927500D01*
X91500Y929750D02*Y928250D01*
Y929750D02*X92250Y930500D01*
X93750D01*
X94500Y929750D01*
X97050D02*Y927500D01*
Y929750D02*X97800Y930500D01*
X99300D01*
X96300D02*X97050Y929750D01*
G54D67*X101100Y932000D02*Y931850D01*
G54D66*Y929750D02*Y927500D01*
X102600Y933500D02*Y928250D01*
X103350Y927500D01*
X104850Y933500D02*Y928250D01*
X105600Y927500D01*
X110550D02*X112800D01*
X113550Y928250D01*
X112800Y929000D02*X113550Y928250D01*
X110550Y929000D02*X112800D01*
X109800Y929750D02*X110550Y929000D01*
X109800Y929750D02*X110550Y930500D01*
X112800D01*
X113550Y929750D01*
X109800Y928250D02*X110550Y927500D01*
G54D67*X115350Y932000D02*Y931850D01*
G54D66*Y929750D02*Y927500D01*
X116850Y930500D02*X119850D01*
X116850Y927500D02*X119850Y930500D01*
X116850Y927500D02*X119850D01*
X122400D02*X124650D01*
X121650Y928250D02*X122400Y927500D01*
X121650Y929750D02*Y928250D01*
Y929750D02*X122400Y930500D01*
X123900D01*
X124650Y929750D01*
X121650Y929000D02*X124650D01*
Y929750D02*Y929000D01*
X127200Y927500D02*X129450D01*
X130200Y928250D01*
X129450Y929000D02*X130200Y928250D01*
X127200Y929000D02*X129450D01*
X126450Y929750D02*X127200Y929000D01*
X126450Y929750D02*X127200Y930500D01*
X129450D01*
X130200Y929750D01*
X126450Y928250D02*X127200Y927500D01*
X134700Y930500D02*Y928250D01*
X135450Y927500D01*
X136950D01*
X137700Y928250D01*
Y930500D02*Y928250D01*
X140250Y927500D02*X142500D01*
X143250Y928250D01*
X142500Y929000D02*X143250Y928250D01*
X140250Y929000D02*X142500D01*
X139500Y929750D02*X140250Y929000D01*
X139500Y929750D02*X140250Y930500D01*
X142500D01*
X143250Y929750D01*
X139500Y928250D02*X140250Y927500D01*
X145800D02*X148050D01*
X145050Y928250D02*X145800Y927500D01*
X145050Y929750D02*Y928250D01*
Y929750D02*X145800Y930500D01*
X147300D01*
X148050Y929750D01*
X145050Y929000D02*X148050D01*
Y929750D02*Y929000D01*
X152850Y933500D02*Y927500D01*
X152100D02*X152850Y928250D01*
X150600Y927500D02*X152100D01*
X149850Y928250D02*X150600Y927500D01*
X149850Y929750D02*Y928250D01*
Y929750D02*X150600Y930500D01*
X152100D01*
X152850Y929750D01*
G54D67*X157350Y932000D02*Y931850D01*
G54D66*Y929750D02*Y927500D01*
X159600Y929750D02*Y927500D01*
Y929750D02*X160350Y930500D01*
X161100D01*
X161850Y929750D01*
Y927500D01*
X158850Y930500D02*X159600Y929750D01*
X167100Y933500D02*Y928250D01*
X167850Y927500D01*
X166350Y931250D02*X167850D01*
X169350Y933500D02*Y927500D01*
Y929750D02*X170100Y930500D01*
X171600D01*
X172350Y929750D01*
Y927500D01*
G54D67*X174150Y932000D02*Y931850D01*
G54D66*Y929750D02*Y927500D01*
X176400D02*X178650D01*
X179400Y928250D01*
X178650Y929000D02*X179400Y928250D01*
X176400Y929000D02*X178650D01*
X175650Y929750D02*X176400Y929000D01*
X175650Y929750D02*X176400Y930500D01*
X178650D01*
X179400Y929750D01*
X175650Y928250D02*X176400Y927500D01*
X183900Y933500D02*Y928250D01*
X184650Y927500D01*
X188400Y930500D02*X189150Y929750D01*
X186900Y930500D02*X188400D01*
X186150Y929750D02*X186900Y930500D01*
X186150Y929750D02*Y928250D01*
X186900Y927500D01*
X189150Y930500D02*Y928250D01*
X189900Y927500D01*
X186900D02*X188400D01*
X189150Y928250D01*
X191700Y930500D02*Y928250D01*
X192450Y927500D01*
X194700Y930500D02*Y926000D01*
X193950Y925250D02*X194700Y926000D01*
X192450Y925250D02*X193950D01*
X191700Y926000D02*X192450Y925250D01*
Y927500D02*X193950D01*
X194700Y928250D01*
X196500Y929750D02*Y928250D01*
Y929750D02*X197250Y930500D01*
X198750D01*
X199500Y929750D01*
Y928250D01*
X198750Y927500D02*X199500Y928250D01*
X197250Y927500D02*X198750D01*
X196500Y928250D02*X197250Y927500D01*
X201300Y930500D02*Y928250D01*
X202050Y927500D01*
X203550D01*
X204300Y928250D01*
Y930500D02*Y928250D01*
X206850Y933500D02*Y928250D01*
X207600Y927500D01*
X206100Y931250D02*X207600D01*
X209100Y926000D02*X210600Y927500D01*
X215100Y929750D02*X218100Y933500D01*
X215100Y929750D02*X218850D01*
X218100Y933500D02*Y927500D01*
X221400D02*X223650Y930500D01*
Y932750D02*Y930500D01*
X222900Y933500D02*X223650Y932750D01*
X221400Y933500D02*X222900D01*
X220650Y932750D02*X221400Y933500D01*
X220650Y932750D02*Y931250D01*
X221400Y930500D01*
X223650D01*
X228150Y933500D02*Y927500D01*
Y929750D02*X228900Y930500D01*
X230400D01*
X231150Y929750D01*
Y927500D01*
X232950Y929750D02*Y928250D01*
Y929750D02*X233700Y930500D01*
X235200D01*
X235950Y929750D01*
Y928250D01*
X235200Y927500D02*X235950Y928250D01*
X233700Y927500D02*X235200D01*
X232950Y928250D02*X233700Y927500D01*
X237750Y933500D02*Y928250D01*
X238500Y927500D01*
X240750D02*X243000D01*
X240000Y928250D02*X240750Y927500D01*
X240000Y929750D02*Y928250D01*
Y929750D02*X240750Y930500D01*
X242250D01*
X243000Y929750D01*
X240000Y929000D02*X243000D01*
Y929750D02*Y929000D01*
X245550Y927500D02*X247800D01*
X248550Y928250D01*
X247800Y929000D02*X248550Y928250D01*
X245550Y929000D02*X247800D01*
X244800Y929750D02*X245550Y929000D01*
X244800Y929750D02*X245550Y930500D01*
X247800D01*
X248550Y929750D01*
X244800Y928250D02*X245550Y927500D01*
X253800Y933500D02*Y928250D01*
X254550Y927500D01*
X253050Y931250D02*X254550D01*
X256050Y929750D02*Y928250D01*
Y929750D02*X256800Y930500D01*
X258300D01*
X259050Y929750D01*
Y928250D01*
X258300Y927500D02*X259050Y928250D01*
X256800Y927500D02*X258300D01*
X256050Y928250D02*X256800Y927500D01*
X261600Y933500D02*Y928250D01*
X262350Y927500D01*
X260850Y931250D02*X262350D01*
X266100Y930500D02*X266850Y929750D01*
X264600Y930500D02*X266100D01*
X263850Y929750D02*X264600Y930500D01*
X263850Y929750D02*Y928250D01*
X264600Y927500D01*
X266850Y930500D02*Y928250D01*
X267600Y927500D01*
X264600D02*X266100D01*
X266850Y928250D01*
X269400Y933500D02*Y928250D01*
X270150Y927500D01*
G54D68*X370000Y686000D02*X438000D01*
X469000Y655000D01*
X480000D01*
X568000Y567000D01*
X594000D01*
X606000Y555000D01*
Y521000D01*
X569000Y484000D01*
X184000D01*
X258000Y631000D02*X177000Y550000D01*
Y491000D01*
X184000Y484000D01*
X370000Y686000D02*X315000Y631000D01*
X258000D01*
G54D66*X313675Y-9500D02*X316675D01*
X317425Y-8750D01*
Y-6950D02*Y-8750D01*
X316675Y-6200D02*X317425Y-6950D01*
X314425Y-6200D02*X316675D01*
X314425Y-3500D02*Y-9500D01*
X313675Y-3500D02*X316675D01*
X317425Y-4250D01*
Y-5450D01*
X316675Y-6200D02*X317425Y-5450D01*
X319225Y-7250D02*Y-8750D01*
Y-7250D02*X319975Y-6500D01*
X321475D01*
X322225Y-7250D01*
Y-8750D01*
X321475Y-9500D02*X322225Y-8750D01*
X319975Y-9500D02*X321475D01*
X319225Y-8750D02*X319975Y-9500D01*
X326275Y-6500D02*X327025Y-7250D01*
X324775Y-6500D02*X326275D01*
X324025Y-7250D02*X324775Y-6500D01*
X324025Y-7250D02*Y-8750D01*
X324775Y-9500D01*
X327025Y-6500D02*Y-8750D01*
X327775Y-9500D01*
X324775D02*X326275D01*
X327025Y-8750D01*
X330325Y-7250D02*Y-9500D01*
Y-7250D02*X331075Y-6500D01*
X332575D01*
X329575D02*X330325Y-7250D01*
X337375Y-3500D02*Y-9500D01*
X336625D02*X337375Y-8750D01*
X335125Y-9500D02*X336625D01*
X334375Y-8750D02*X335125Y-9500D01*
X334375Y-7250D02*Y-8750D01*
Y-7250D02*X335125Y-6500D01*
X336625D01*
X337375Y-7250D01*
X341875D02*Y-8750D01*
Y-7250D02*X342625Y-6500D01*
X344125D01*
X344875Y-7250D01*
Y-8750D01*
X344125Y-9500D02*X344875Y-8750D01*
X342625Y-9500D02*X344125D01*
X341875Y-8750D02*X342625Y-9500D01*
X346675Y-6500D02*Y-8750D01*
X347425Y-9500D01*
X348925D01*
X349675Y-8750D01*
Y-6500D02*Y-8750D01*
X352225Y-3500D02*Y-8750D01*
X352975Y-9500D01*
X351475Y-5750D02*X352975D01*
X354475Y-3500D02*Y-8750D01*
X355225Y-9500D01*
G54D67*X356725Y-5000D02*Y-5150D01*
G54D66*Y-7250D02*Y-9500D01*
X358975Y-7250D02*Y-9500D01*
Y-7250D02*X359725Y-6500D01*
X360475D01*
X361225Y-7250D01*
Y-9500D01*
X358225Y-6500D02*X358975Y-7250D01*
X363775Y-9500D02*X366025D01*
X363025Y-8750D02*X363775Y-9500D01*
X363025Y-7250D02*Y-8750D01*
Y-7250D02*X363775Y-6500D01*
X365275D01*
X366025Y-7250D01*
X363025Y-8000D02*X366025D01*
Y-7250D02*Y-8000D01*
G54D67*X370525Y-5000D02*Y-5150D01*
G54D66*Y-7250D02*Y-9500D01*
X372775D02*X375025D01*
X375775Y-8750D01*
X375025Y-8000D02*X375775Y-8750D01*
X372775Y-8000D02*X375025D01*
X372025Y-7250D02*X372775Y-8000D01*
X372025Y-7250D02*X372775Y-6500D01*
X375025D01*
X375775Y-7250D01*
X372025Y-8750D02*X372775Y-9500D01*
X381025Y-3500D02*Y-8750D01*
X381775Y-9500D01*
X380275Y-5750D02*X381775D01*
X383275Y-3500D02*Y-9500D01*
Y-7250D02*X384025Y-6500D01*
X385525D01*
X386275Y-7250D01*
Y-9500D01*
X388825D02*X391075D01*
X388075Y-8750D02*X388825Y-9500D01*
X388075Y-7250D02*Y-8750D01*
Y-7250D02*X388825Y-6500D01*
X390325D01*
X391075Y-7250D01*
X388075Y-8000D02*X391075D01*
Y-7250D02*Y-8000D01*
X396325Y-6500D02*X398575D01*
X395575Y-7250D02*X396325Y-6500D01*
X395575Y-7250D02*Y-8750D01*
X396325Y-9500D01*
X398575D01*
X401125D02*X403375D01*
X400375Y-8750D02*X401125Y-9500D01*
X400375Y-7250D02*Y-8750D01*
Y-7250D02*X401125Y-6500D01*
X402625D01*
X403375Y-7250D01*
X400375Y-8000D02*X403375D01*
Y-7250D02*Y-8000D01*
X405925Y-7250D02*Y-9500D01*
Y-7250D02*X406675Y-6500D01*
X407425D01*
X408175Y-7250D01*
Y-9500D01*
X405175Y-6500D02*X405925Y-7250D01*
X410725Y-3500D02*Y-8750D01*
X411475Y-9500D01*
X409975Y-5750D02*X411475D01*
X413725Y-9500D02*X415975D01*
X412975Y-8750D02*X413725Y-9500D01*
X412975Y-7250D02*Y-8750D01*
Y-7250D02*X413725Y-6500D01*
X415225D01*
X415975Y-7250D01*
X412975Y-8000D02*X415975D01*
Y-7250D02*Y-8000D01*
X418525Y-7250D02*Y-9500D01*
Y-7250D02*X419275Y-6500D01*
X420775D01*
X417775D02*X418525Y-7250D01*
X422575Y-3500D02*Y-8750D01*
X423325Y-9500D01*
G54D67*X424825Y-5000D02*Y-5150D01*
G54D66*Y-7250D02*Y-9500D01*
X427075Y-7250D02*Y-9500D01*
Y-7250D02*X427825Y-6500D01*
X428575D01*
X429325Y-7250D01*
Y-9500D01*
X426325Y-6500D02*X427075Y-7250D01*
X431875Y-9500D02*X434125D01*
X431125Y-8750D02*X431875Y-9500D01*
X431125Y-7250D02*Y-8750D01*
Y-7250D02*X431875Y-6500D01*
X433375D01*
X434125Y-7250D01*
X431125Y-8000D02*X434125D01*
Y-7250D02*Y-8000D01*
X438625Y-7250D02*Y-8750D01*
Y-7250D02*X439375Y-6500D01*
X440875D01*
X441625Y-7250D01*
Y-8750D01*
X440875Y-9500D02*X441625Y-8750D01*
X439375Y-9500D02*X440875D01*
X438625Y-8750D02*X439375Y-9500D01*
X444175Y-4250D02*Y-9500D01*
Y-4250D02*X444925Y-3500D01*
X445675D01*
X443425Y-6500D02*X444925D01*
X450625Y-3500D02*Y-8750D01*
X451375Y-9500D01*
X449875Y-5750D02*X451375D01*
X452875Y-3500D02*Y-9500D01*
Y-7250D02*X453625Y-6500D01*
X455125D01*
X455875Y-7250D01*
Y-9500D01*
G54D67*X457675Y-5000D02*Y-5150D01*
G54D66*Y-7250D02*Y-9500D01*
X459925D02*X462175D01*
X462925Y-8750D01*
X462175Y-8000D02*X462925Y-8750D01*
X459925Y-8000D02*X462175D01*
X459175Y-7250D02*X459925Y-8000D01*
X459175Y-7250D02*X459925Y-6500D01*
X462175D01*
X462925Y-7250D01*
X459175Y-8750D02*X459925Y-9500D01*
X468175Y-7250D02*Y-11750D01*
X467425Y-6500D02*X468175Y-7250D01*
X468925Y-6500D01*
X470425D01*
X471175Y-7250D01*
Y-8750D01*
X470425Y-9500D02*X471175Y-8750D01*
X468925Y-9500D02*X470425D01*
X468175Y-8750D02*X468925Y-9500D01*
X475225Y-6500D02*X475975Y-7250D01*
X473725Y-6500D02*X475225D01*
X472975Y-7250D02*X473725Y-6500D01*
X472975Y-7250D02*Y-8750D01*
X473725Y-9500D01*
X475975Y-6500D02*Y-8750D01*
X476725Y-9500D01*
X473725D02*X475225D01*
X475975Y-8750D01*
X479275Y-3500D02*Y-8750D01*
X480025Y-9500D01*
X478525Y-5750D02*X480025D01*
X481525Y-3500D02*Y-9500D01*
Y-7250D02*X482275Y-6500D01*
X483775D01*
X484525Y-7250D01*
Y-9500D01*
X200750Y828500D02*Y822500D01*
X202700Y828500D02*X203750Y827450D01*
Y823550D01*
X202700Y822500D02*X203750Y823550D01*
X200000Y822500D02*X202700D01*
X200000Y828500D02*X202700D01*
X207800Y825500D02*X208550Y824750D01*
X206300Y825500D02*X207800D01*
X205550Y824750D02*X206300Y825500D01*
X205550Y824750D02*Y823250D01*
X206300Y822500D01*
X208550Y825500D02*Y823250D01*
X209300Y822500D01*
X206300D02*X207800D01*
X208550Y823250D01*
X211850Y828500D02*Y823250D01*
X212600Y822500D01*
X211100Y826250D02*X212600D01*
X214850Y822500D02*X217100D01*
X214100Y823250D02*X214850Y822500D01*
X214100Y824750D02*Y823250D01*
Y824750D02*X214850Y825500D01*
X216350D01*
X217100Y824750D01*
X214100Y824000D02*X217100D01*
Y824750D02*Y824000D01*
X218900Y826250D02*X219650D01*
X218900Y824750D02*X219650D01*
X227150Y828500D02*X227900Y827750D01*
X224900Y828500D02*X227150D01*
X224150Y827750D02*X224900Y828500D01*
X224150Y827750D02*Y826250D01*
X224900Y825500D01*
X227150D01*
X227900Y824750D01*
Y823250D01*
X227150Y822500D02*X227900Y823250D01*
X224900Y822500D02*X227150D01*
X224150Y823250D02*X224900Y822500D01*
X229700Y825500D02*Y823250D01*
X230450Y822500D01*
X231950D01*
X232700Y823250D01*
Y825500D02*Y823250D01*
X235250Y824750D02*Y822500D01*
Y824750D02*X236000Y825500D01*
X236750D01*
X237500Y824750D01*
Y822500D01*
X234500Y825500D02*X235250Y824750D01*
X242000Y827750D02*X242750Y828500D01*
X245000D01*
X245750Y827750D01*
Y826250D01*
X242000Y822500D02*X245750Y826250D01*
X242000Y822500D02*X245750D01*
X247550Y827750D02*X248300Y828500D01*
X249800D01*
X250550Y827750D01*
X249800Y822500D02*X250550Y823250D01*
X248300Y822500D02*X249800D01*
X247550Y823250D02*X248300Y822500D01*
Y825800D02*X249800D01*
X250550Y827750D02*Y826550D01*
Y825050D02*Y823250D01*
Y825050D02*X249800Y825800D01*
X250550Y826550D02*X249800Y825800D01*
X255050Y828500D02*Y822500D01*
Y828500D02*X258050D01*
X255050Y825800D02*X257300D01*
X260600Y822500D02*X262850D01*
X259850Y823250D02*X260600Y822500D01*
X259850Y824750D02*Y823250D01*
Y824750D02*X260600Y825500D01*
X262100D01*
X262850Y824750D01*
X259850Y824000D02*X262850D01*
Y824750D02*Y824000D01*
X264650Y828500D02*Y822500D01*
Y823250D02*X265400Y822500D01*
X266900D01*
X267650Y823250D01*
Y824750D02*Y823250D01*
X266900Y825500D02*X267650Y824750D01*
X265400Y825500D02*X266900D01*
X264650Y824750D02*X265400Y825500D01*
X272150Y827750D02*X272900Y828500D01*
X275150D01*
X275900Y827750D01*
Y826250D01*
X272150Y822500D02*X275900Y826250D01*
X272150Y822500D02*X275900D01*
X277700Y823250D02*X278450Y822500D01*
X277700Y827750D02*Y823250D01*
Y827750D02*X278450Y828500D01*
X279950D01*
X280700Y827750D01*
Y823250D01*
X279950Y822500D02*X280700Y823250D01*
X278450Y822500D02*X279950D01*
X277700Y824000D02*X280700Y827000D01*
X282500Y827300D02*X283700Y828500D01*
Y822500D01*
X282500D02*X284750D01*
X286550Y824750D02*X289550Y828500D01*
X286550Y824750D02*X290300D01*
X289550Y828500D02*Y822500D01*
X294800Y823250D02*X295550Y822500D01*
X294800Y827750D02*Y823250D01*
Y827750D02*X295550Y828500D01*
X297050D01*
X297800Y827750D01*
Y823250D01*
X297050Y822500D02*X297800Y823250D01*
X295550Y822500D02*X297050D01*
X294800Y824000D02*X297800Y827000D01*
X300350Y822500D02*X302600Y825500D01*
Y827750D02*Y825500D01*
X301850Y828500D02*X302600Y827750D01*
X300350Y828500D02*X301850D01*
X299600Y827750D02*X300350Y828500D01*
X299600Y827750D02*Y826250D01*
X300350Y825500D01*
X302600D01*
X304400Y826250D02*X305150D01*
X304400Y824750D02*X305150D01*
X306950Y827750D02*X307700Y828500D01*
X309200D01*
X309950Y827750D01*
X309200Y822500D02*X309950Y823250D01*
X307700Y822500D02*X309200D01*
X306950Y823250D02*X307700Y822500D01*
Y825800D02*X309200D01*
X309950Y827750D02*Y826550D01*
Y825050D02*Y823250D01*
Y825050D02*X309200Y825800D01*
X309950Y826550D02*X309200Y825800D01*
X311750Y827750D02*X312500Y828500D01*
X314750D01*
X315500Y827750D01*
Y826250D01*
X311750Y822500D02*X315500Y826250D01*
X311750Y822500D02*X315500D01*
X317300Y826250D02*X318050D01*
X317300Y824750D02*X318050D01*
X319850D02*X322850Y828500D01*
X319850Y824750D02*X323600D01*
X322850Y828500D02*Y822500D01*
X326150D02*X328400Y825500D01*
Y827750D02*Y825500D01*
X327650Y828500D02*X328400Y827750D01*
X326150Y828500D02*X327650D01*
X325400Y827750D02*X326150Y828500D01*
X325400Y827750D02*Y826250D01*
X326150Y825500D01*
X328400D01*
X333650Y828500D02*Y822500D01*
X332900Y828500D02*X335900D01*
X336650Y827750D01*
Y826250D01*
X335900Y825500D02*X336650Y826250D01*
X333650Y825500D02*X335900D01*
X338450Y828500D02*Y822500D01*
Y828500D02*X340700Y825500D01*
X342950Y828500D01*
Y822500D01*
X350450Y828500D02*X351200Y827750D01*
X348200Y828500D02*X350450D01*
X347450Y827750D02*X348200Y828500D01*
X347450Y827750D02*Y823250D01*
X348200Y822500D01*
X350450D01*
X351200Y823250D01*
Y824750D02*Y823250D01*
X350450Y825500D02*X351200Y824750D01*
X348950Y825500D02*X350450D01*
X353000Y828500D02*Y822500D01*
Y828500D02*X355250Y825500D01*
X357500Y828500D01*
Y822500D01*
X359300Y828500D02*X362300D01*
X360800D02*Y822500D01*
X366800Y828500D02*Y823250D01*
X367550Y822500D01*
X369050D01*
X369800Y823250D01*
Y828500D02*Y823250D01*
X371600Y828500D02*X374600D01*
X373100D02*Y822500D01*
X377450D02*X379400D01*
X376400Y823550D02*X377450Y822500D01*
X376400Y827450D02*Y823550D01*
Y827450D02*X377450Y828500D01*
X379400D01*
X200000Y842000D02*Y837500D01*
Y842000D02*X201050Y843500D01*
X202700D01*
X203750Y842000D01*
Y837500D01*
X200000Y840500D02*X203750D01*
X205550D02*Y838250D01*
X206300Y837500D01*
X207800D01*
X208550Y838250D01*
Y840500D02*Y838250D01*
X211100Y843500D02*Y838250D01*
X211850Y837500D01*
X210350Y841250D02*X211850D01*
X213350Y843500D02*Y837500D01*
Y839750D02*X214100Y840500D01*
X215600D01*
X216350Y839750D01*
Y837500D01*
X218150Y839750D02*Y838250D01*
Y839750D02*X218900Y840500D01*
X220400D01*
X221150Y839750D01*
Y838250D01*
X220400Y837500D02*X221150Y838250D01*
X218900Y837500D02*X220400D01*
X218150Y838250D02*X218900Y837500D01*
X223700Y839750D02*Y837500D01*
Y839750D02*X224450Y840500D01*
X225950D01*
X222950D02*X223700Y839750D01*
X227750Y841250D02*X228500D01*
X227750Y839750D02*X228500D01*
X233000Y843500D02*X236000D01*
X234500D02*Y837500D01*
X237800Y840500D02*Y838250D01*
X238550Y837500D01*
X240800Y840500D02*Y836000D01*
X240050Y835250D02*X240800Y836000D01*
X238550Y835250D02*X240050D01*
X237800Y836000D02*X238550Y835250D01*
Y837500D02*X240050D01*
X240800Y838250D01*
X243350Y839750D02*Y837500D01*
Y839750D02*X244100Y840500D01*
X245600D01*
X242600D02*X243350Y839750D01*
G54D67*X247400Y842000D02*Y841850D01*
G54D66*Y839750D02*Y837500D01*
X251150Y840500D02*X251900Y839750D01*
X249650Y840500D02*X251150D01*
X248900Y839750D02*X249650Y840500D01*
X248900Y839750D02*Y838250D01*
X249650Y837500D01*
X251900Y840500D02*Y838250D01*
X252650Y837500D01*
X249650D02*X251150D01*
X251900Y838250D01*
X255200Y839750D02*Y837500D01*
Y839750D02*X255950Y840500D01*
X256700D01*
X257450Y839750D01*
Y837500D01*
X254450Y840500D02*X255200Y839750D01*
X200000Y858500D02*X203000D01*
X201500D02*Y852500D01*
G54D67*X204800Y857000D02*Y856850D01*
G54D66*Y854750D02*Y852500D01*
X207050Y858500D02*Y853250D01*
X207800Y852500D01*
X206300Y856250D02*X207800D01*
X209300Y858500D02*Y853250D01*
X210050Y852500D01*
X212300D02*X214550D01*
X211550Y853250D02*X212300Y852500D01*
X211550Y854750D02*Y853250D01*
Y854750D02*X212300Y855500D01*
X213800D01*
X214550Y854750D01*
X211550Y854000D02*X214550D01*
Y854750D02*Y854000D01*
X216350Y856250D02*X217100D01*
X216350Y854750D02*X217100D01*
X221600Y853250D02*X222350Y852500D01*
X221600Y857750D02*X222350Y858500D01*
X221600Y857750D02*Y853250D01*
X224150Y855500D02*Y853250D01*
X224900Y852500D01*
X226400D01*
X227150Y853250D01*
Y855500D02*Y853250D01*
X229700Y854750D02*Y852500D01*
Y854750D02*X230450Y855500D01*
X231200D01*
X231950Y854750D01*
Y852500D01*
X228950Y855500D02*X229700Y854750D01*
X233750Y858500D02*Y852500D01*
Y854750D02*X236000Y852500D01*
X233750Y854750D02*X235250Y856250D01*
X238550Y854750D02*Y852500D01*
Y854750D02*X239300Y855500D01*
X240050D01*
X240800Y854750D01*
Y852500D01*
X237800Y855500D02*X238550Y854750D01*
X242600D02*Y853250D01*
Y854750D02*X243350Y855500D01*
X244850D01*
X245600Y854750D01*
Y853250D01*
X244850Y852500D02*X245600Y853250D01*
X243350Y852500D02*X244850D01*
X242600Y853250D02*X243350Y852500D01*
X247400Y855500D02*Y853250D01*
X248150Y852500D01*
X248900D01*
X249650Y853250D01*
Y855500D02*Y853250D01*
X250400Y852500D01*
X251150D01*
X251900Y853250D01*
Y855500D02*Y853250D01*
X254450Y854750D02*Y852500D01*
Y854750D02*X255200Y855500D01*
X255950D01*
X256700Y854750D01*
Y852500D01*
X253700Y855500D02*X254450Y854750D01*
X258500Y858500D02*X259250Y857750D01*
Y853250D01*
X258500Y852500D02*X259250Y853250D01*
X263750Y855500D02*X266750D01*
X271250Y858500D02*Y852500D01*
Y858500D02*X274250D01*
X271250Y855800D02*X273500D01*
X278300Y855500D02*X279050Y854750D01*
X276800Y855500D02*X278300D01*
X276050Y854750D02*X276800Y855500D01*
X276050Y854750D02*Y853250D01*
X276800Y852500D01*
X279050Y855500D02*Y853250D01*
X279800Y852500D01*
X276800D02*X278300D01*
X279050Y853250D01*
X281600Y858500D02*Y852500D01*
Y853250D02*X282350Y852500D01*
X283850D01*
X284600Y853250D01*
Y854750D02*Y853250D01*
X283850Y855500D02*X284600Y854750D01*
X282350Y855500D02*X283850D01*
X281600Y854750D02*X282350Y855500D01*
X287150Y854750D02*Y852500D01*
Y854750D02*X287900Y855500D01*
X289400D01*
X286400D02*X287150Y854750D01*
G54D67*X291200Y857000D02*Y856850D01*
G54D66*Y854750D02*Y852500D01*
X293450Y855500D02*X295700D01*
X292700Y854750D02*X293450Y855500D01*
X292700Y854750D02*Y853250D01*
X293450Y852500D01*
X295700D01*
X299750Y855500D02*X300500Y854750D01*
X298250Y855500D02*X299750D01*
X297500Y854750D02*X298250Y855500D01*
X297500Y854750D02*Y853250D01*
X298250Y852500D01*
X300500Y855500D02*Y853250D01*
X301250Y852500D01*
X298250D02*X299750D01*
X300500Y853250D01*
X303800Y858500D02*Y853250D01*
X304550Y852500D01*
X303050Y856250D02*X304550D01*
G54D67*X306050Y857000D02*Y856850D01*
G54D66*Y854750D02*Y852500D01*
X307550Y854750D02*Y853250D01*
Y854750D02*X308300Y855500D01*
X309800D01*
X310550Y854750D01*
Y853250D01*
X309800Y852500D02*X310550Y853250D01*
X308300Y852500D02*X309800D01*
X307550Y853250D02*X308300Y852500D01*
X313100Y854750D02*Y852500D01*
Y854750D02*X313850Y855500D01*
X314600D01*
X315350Y854750D01*
Y852500D01*
X312350Y855500D02*X313100Y854750D01*
X320600Y858500D02*Y852500D01*
X322550Y858500D02*X323600Y857450D01*
Y853550D01*
X322550Y852500D02*X323600Y853550D01*
X319850Y852500D02*X322550D01*
X319850Y858500D02*X322550D01*
X326150Y854750D02*Y852500D01*
Y854750D02*X326900Y855500D01*
X328400D01*
X325400D02*X326150Y854750D01*
X332450Y855500D02*X333200Y854750D01*
X330950Y855500D02*X332450D01*
X330200Y854750D02*X330950Y855500D01*
X330200Y854750D02*Y853250D01*
X330950Y852500D01*
X333200Y855500D02*Y853250D01*
X333950Y852500D01*
X330950D02*X332450D01*
X333200Y853250D01*
X335750Y855500D02*Y853250D01*
X336500Y852500D01*
X337250D01*
X338000Y853250D01*
Y855500D02*Y853250D01*
X338750Y852500D01*
X339500D01*
X340250Y853250D01*
Y855500D02*Y853250D01*
G54D67*X342050Y857000D02*Y856850D01*
G54D66*Y854750D02*Y852500D01*
X344300Y854750D02*Y852500D01*
Y854750D02*X345050Y855500D01*
X345800D01*
X346550Y854750D01*
Y852500D01*
X343550Y855500D02*X344300Y854750D01*
X350600Y855500D02*X351350Y854750D01*
X349100Y855500D02*X350600D01*
X348350Y854750D02*X349100Y855500D01*
X348350Y854750D02*Y853250D01*
X349100Y852500D01*
X350600D01*
X351350Y853250D01*
X348350Y851000D02*X349100Y850250D01*
X350600D01*
X351350Y851000D01*
Y855500D02*Y851000D01*
M02*
