G04 start of page 6 for group -4063 idx -4063 *
G04 Title: (unknown), componentmask *
G04 Creator: pcb 20110918 *
G04 CreationDate: Sat 16 Nov 2013 09:53:12 PM GMT UTC *
G04 For: tyrian *
G04 Format: Gerber/RS-274X *
G04 PCB-Dimensions: 800000 800000 *
G04 PCB-Coordinate-Origin: lower left *
%MOIN*%
%FSLAX25Y25*%
%LNTOPMASK*%
%ADD100C,0.0660*%
%ADD99C,0.1635*%
%ADD98C,0.0610*%
%ADD97C,0.0710*%
%ADD96C,0.0960*%
%ADD95C,0.0001*%
G54D95*G36*
X498200Y608800D02*Y599200D01*
X507800D01*
Y608800D01*
X498200D01*
G37*
G54D96*X493000Y604000D03*
X483000D03*
G54D95*G36*
X410450Y558550D02*Y551450D01*
X417550D01*
Y558550D01*
X410450D01*
G37*
G54D97*X404000Y555000D03*
G54D95*G36*
X459950Y558050D02*Y551950D01*
X466050D01*
Y558050D01*
X459950D01*
G37*
G54D98*X463000Y525000D03*
G54D95*G36*
X576200Y536800D02*Y527200D01*
X585800D01*
Y536800D01*
X576200D01*
G37*
G54D96*X581000Y542000D03*
Y552000D03*
G54D99*X516000Y552142D03*
Y519661D03*
G54D96*X419000Y598000D03*
G54D95*G36*
X349950Y626050D02*Y619950D01*
X356050D01*
Y626050D01*
X349950D01*
G37*
G54D99*X387858Y655000D03*
X420339D03*
G54D96*X399000Y598000D03*
G54D98*X343000Y623000D03*
G54D99*X344339Y541000D03*
G54D95*G36*
X394200Y511800D02*Y502200D01*
X403800D01*
Y511800D01*
X394200D01*
G37*
G54D96*X409000Y507000D03*
X419000D03*
G54D95*G36*
X309700Y611300D02*Y604700D01*
X316300D01*
Y611300D01*
X309700D01*
G37*
G54D100*X313000Y598000D03*
Y588000D03*
Y578000D03*
X343000D03*
Y588000D03*
Y598000D03*
Y608000D03*
G54D95*G36*
X279950Y574050D02*Y567950D01*
X286050D01*
Y574050D01*
X279950D01*
G37*
G54D98*X273000Y571000D03*
G54D99*X311858Y541000D03*
G54D100*X283000Y529000D03*
Y539000D03*
G54D98*Y598000D03*
G54D100*Y549000D03*
Y559000D03*
G54D95*G36*
X249950Y601050D02*Y594950D01*
X256050D01*
Y601050D01*
X249950D01*
G37*
G36*
X249700Y562300D02*Y555700D01*
X256300D01*
Y562300D01*
X249700D01*
G37*
G54D100*X253000Y549000D03*
G54D99*X214000Y539142D03*
Y506661D03*
G54D100*X253000Y539000D03*
Y529000D03*
M02*
