G04 start of page 9 for group -3984 idx -3984 *
G04 Title: (unknown), fab *
G04 Creator: pcb 20110918 *
G04 CreationDate: Sat 16 Nov 2013 09:53:12 PM GMT UTC *
G04 For: tyrian *
G04 Format: Gerber/RS-274X *
G04 PCB-Dimensions: 800000 800000 *
G04 PCB-Coordinate-Origin: lower left *
%MOIN*%
%FSLAX25Y25*%
%LNFAB*%
%ADD112C,0.0100*%
%ADD111C,0.0075*%
%ADD110C,0.0060*%
%ADD109C,0.0080*%
G54D109*X291000Y616000D02*Y612800D01*
Y616000D02*X293773Y617600D01*
X291000Y616000D02*X288227Y617600D01*
X289400Y616000D02*G75*G03X292600Y616000I1600J0D01*G01*
G75*G03X289400Y616000I-1600J0D01*G01*
X473000Y640000D02*Y636800D01*
Y640000D02*X475773Y641600D01*
X473000Y640000D02*X470227Y641600D01*
X471400Y640000D02*G75*G03X474600Y640000I1600J0D01*G01*
G75*G03X471400Y640000I-1600J0D01*G01*
X268000Y506000D02*Y502800D01*
Y506000D02*X270773Y507600D01*
X268000Y506000D02*X265227Y507600D01*
X266400Y506000D02*G75*G03X269600Y506000I1600J0D01*G01*
G75*G03X266400Y506000I-1600J0D01*G01*
X473000Y510000D02*Y506800D01*
Y510000D02*X475773Y511600D01*
X473000Y510000D02*X470227Y511600D01*
X471400Y510000D02*G75*G03X474600Y510000I1600J0D01*G01*
G75*G03X471400Y510000I-1600J0D01*G01*
X15000Y811250D02*Y808050D01*
Y811250D02*X17773Y812850D01*
X15000Y811250D02*X12227Y812850D01*
X13400Y811250D02*G75*G03X16600Y811250I1600J0D01*G01*
G75*G03X13400Y811250I-1600J0D01*G01*
G54D110*X135000Y813500D02*X136500Y810500D01*
X138000Y813500D01*
X136500Y810500D02*Y807500D01*
X139800Y810800D02*X142050D01*
X139800Y807500D02*X142800D01*
X139800Y813500D02*Y807500D01*
Y813500D02*X142800D01*
X147600D02*X148350Y812750D01*
X145350Y813500D02*X147600D01*
X144600Y812750D02*X145350Y813500D01*
X144600Y812750D02*Y811250D01*
X145350Y810500D01*
X147600D01*
X148350Y809750D01*
Y808250D01*
X147600Y807500D02*X148350Y808250D01*
X145350Y807500D02*X147600D01*
X144600Y808250D02*X145350Y807500D01*
X98000Y809750D02*X101000Y813500D01*
X98000Y809750D02*X101750D01*
X101000Y813500D02*Y807500D01*
X45000Y808250D02*X45750Y807500D01*
X45000Y812750D02*Y808250D01*
Y812750D02*X45750Y813500D01*
X47250D01*
X48000Y812750D01*
Y808250D01*
X47250Y807500D02*X48000Y808250D01*
X45750Y807500D02*X47250D01*
X45000Y809000D02*X48000Y812000D01*
X49800Y807500D02*X50550D01*
X52350Y812300D02*X53550Y813500D01*
Y807500D01*
X52350D02*X54600D01*
X56400Y812750D02*X57150Y813500D01*
X59400D01*
X60150Y812750D01*
Y811250D01*
X56400Y807500D02*X60150Y811250D01*
X56400Y807500D02*X60150D01*
X61950Y808250D02*X62700Y807500D01*
X61950Y812750D02*Y808250D01*
Y812750D02*X62700Y813500D01*
X64200D01*
X64950Y812750D01*
Y808250D01*
X64200Y807500D02*X64950Y808250D01*
X62700Y807500D02*X64200D01*
X61950Y809000D02*X64950Y812000D01*
X386258Y656600D02*X389458D01*
X386258D02*Y653400D01*
X389458D01*
Y656600D02*Y653400D01*
X418739Y656600D02*X421939D01*
X418739D02*Y653400D01*
X421939D01*
Y656600D02*Y653400D01*
X514400Y553742D02*X517600D01*
X514400D02*Y550542D01*
X517600D01*
Y553742D02*Y550542D01*
X514400Y521261D02*X517600D01*
X514400D02*Y518061D01*
X517600D01*
Y521261D02*Y518061D01*
X310258Y542600D02*X313458D01*
X310258D02*Y539400D01*
X313458D01*
Y542600D02*Y539400D01*
X342739Y542600D02*X345939D01*
X342739D02*Y539400D01*
X345939D01*
Y542600D02*Y539400D01*
X212400Y540742D02*X215600D01*
X212400D02*Y537542D01*
X215600D01*
Y540742D02*Y537542D01*
X212400Y508261D02*X215600D01*
X212400D02*Y505061D01*
X215600D01*
Y508261D02*Y505061D01*
X13400Y827850D02*X16600D01*
X13400D02*Y824650D01*
X16600D01*
Y827850D02*Y824650D01*
X135000Y828500D02*X136500Y825500D01*
X138000Y828500D01*
X136500Y825500D02*Y822500D01*
X139800Y825800D02*X142050D01*
X139800Y822500D02*X142800D01*
X139800Y828500D02*Y822500D01*
Y828500D02*X142800D01*
X147600D02*X148350Y827750D01*
X145350Y828500D02*X147600D01*
X144600Y827750D02*X145350Y828500D01*
X144600Y827750D02*Y826250D01*
X145350Y825500D01*
X147600D01*
X148350Y824750D01*
Y823250D01*
X147600Y822500D02*X148350Y823250D01*
X145350Y822500D02*X147600D01*
X144600Y823250D02*X145350Y822500D01*
X98000Y823250D02*X98750Y822500D01*
X98000Y824450D02*Y823250D01*
Y824450D02*X99050Y825500D01*
X99950D01*
X101000Y824450D01*
Y823250D01*
X100250Y822500D02*X101000Y823250D01*
X98750Y822500D02*X100250D01*
X98000Y826550D02*X99050Y825500D01*
X98000Y827750D02*Y826550D01*
Y827750D02*X98750Y828500D01*
X100250D01*
X101000Y827750D01*
Y826550D01*
X99950Y825500D02*X101000Y826550D01*
X45000Y823250D02*X45750Y822500D01*
X45000Y827750D02*Y823250D01*
Y827750D02*X45750Y828500D01*
X47250D01*
X48000Y827750D01*
Y823250D01*
X47250Y822500D02*X48000Y823250D01*
X45750Y822500D02*X47250D01*
X45000Y824000D02*X48000Y827000D01*
X49800Y822500D02*X50550D01*
X52350Y823250D02*X53100Y822500D01*
X52350Y827750D02*Y823250D01*
Y827750D02*X53100Y828500D01*
X54600D01*
X55350Y827750D01*
Y823250D01*
X54600Y822500D02*X55350Y823250D01*
X53100Y822500D02*X54600D01*
X52350Y824000D02*X55350Y827000D01*
X57900Y822500D02*X60900Y828500D01*
X57150D02*X60900D01*
X63450Y822500D02*X65700Y825500D01*
Y827750D02*Y825500D01*
X64950Y828500D02*X65700Y827750D01*
X63450Y828500D02*X64950D01*
X62700Y827750D02*X63450Y828500D01*
X62700Y827750D02*Y826250D01*
X63450Y825500D01*
X65700D01*
X502200Y604000D02*G75*G03X503800Y604000I800J0D01*G01*
G75*G03X502200Y604000I-800J0D01*G01*
X492200D02*G75*G03X493800Y604000I800J0D01*G01*
G75*G03X492200Y604000I-800J0D01*G01*
X482200D02*G75*G03X483800Y604000I800J0D01*G01*
G75*G03X482200Y604000I-800J0D01*G01*
X580200Y532000D02*G75*G03X581800Y532000I800J0D01*G01*
G75*G03X580200Y532000I-800J0D01*G01*
Y542000D02*G75*G03X581800Y542000I800J0D01*G01*
G75*G03X580200Y542000I-800J0D01*G01*
Y552000D02*G75*G03X581800Y552000I800J0D01*G01*
G75*G03X580200Y552000I-800J0D01*G01*
X398200Y507000D02*G75*G03X399800Y507000I800J0D01*G01*
G75*G03X398200Y507000I-800J0D01*G01*
X408200D02*G75*G03X409800Y507000I800J0D01*G01*
G75*G03X408200Y507000I-800J0D01*G01*
X418200D02*G75*G03X419800Y507000I800J0D01*G01*
G75*G03X418200Y507000I-800J0D01*G01*
Y598000D02*G75*G03X419800Y598000I800J0D01*G01*
G75*G03X418200Y598000I-800J0D01*G01*
X398200D02*G75*G03X399800Y598000I800J0D01*G01*
G75*G03X398200Y598000I-800J0D01*G01*
X14200Y841250D02*G75*G03X15800Y841250I800J0D01*G01*
G75*G03X14200Y841250I-800J0D01*G01*
X135000Y843500D02*X136500Y840500D01*
X138000Y843500D01*
X136500Y840500D02*Y837500D01*
X139800Y840800D02*X142050D01*
X139800Y837500D02*X142800D01*
X139800Y843500D02*Y837500D01*
Y843500D02*X142800D01*
X147600D02*X148350Y842750D01*
X145350Y843500D02*X147600D01*
X144600Y842750D02*X145350Y843500D01*
X144600Y842750D02*Y841250D01*
X145350Y840500D01*
X147600D01*
X148350Y839750D01*
Y838250D01*
X147600Y837500D02*X148350Y838250D01*
X145350Y837500D02*X147600D01*
X144600Y838250D02*X145350Y837500D01*
X98000Y842300D02*X99200Y843500D01*
Y837500D01*
X98000D02*X100250D01*
X102050Y842300D02*X103250Y843500D01*
Y837500D01*
X102050D02*X104300D01*
X45000Y838250D02*X45750Y837500D01*
X45000Y842750D02*Y838250D01*
Y842750D02*X45750Y843500D01*
X47250D01*
X48000Y842750D01*
Y838250D01*
X47250Y837500D02*X48000Y838250D01*
X45750Y837500D02*X47250D01*
X45000Y839000D02*X48000Y842000D01*
X49800Y837500D02*X50550D01*
X52350Y838250D02*X53100Y837500D01*
X52350Y842750D02*Y838250D01*
Y842750D02*X53100Y843500D01*
X54600D01*
X55350Y842750D01*
Y838250D01*
X54600Y837500D02*X55350Y838250D01*
X53100Y837500D02*X54600D01*
X52350Y839000D02*X55350Y842000D01*
X59400Y843500D02*X60150Y842750D01*
X57900Y843500D02*X59400D01*
X57150Y842750D02*X57900Y843500D01*
X57150Y842750D02*Y838250D01*
X57900Y837500D01*
X59400Y840800D02*X60150Y840050D01*
X57150Y840800D02*X59400D01*
X57900Y837500D02*X59400D01*
X60150Y838250D01*
Y840050D02*Y838250D01*
X61950D02*X62700Y837500D01*
X61950Y842750D02*Y838250D01*
Y842750D02*X62700Y843500D01*
X64200D01*
X64950Y842750D01*
Y838250D01*
X64200Y837500D02*X64950Y838250D01*
X62700Y837500D02*X64200D01*
X61950Y839000D02*X64950Y842000D01*
X412800Y556200D02*X415200Y553800D01*
X412800D02*X415200Y556200D01*
X402800D02*X405200Y553800D01*
X402800D02*X405200Y556200D01*
X13800Y857450D02*X16200Y855050D01*
X13800D02*X16200Y857450D01*
X135000Y858500D02*X136500Y855500D01*
X138000Y858500D01*
X136500Y855500D02*Y852500D01*
X139800Y855800D02*X142050D01*
X139800Y852500D02*X142800D01*
X139800Y858500D02*Y852500D01*
Y858500D02*X142800D01*
X147600D02*X148350Y857750D01*
X145350Y858500D02*X147600D01*
X144600Y857750D02*X145350Y858500D01*
X144600Y857750D02*Y856250D01*
X145350Y855500D01*
X147600D01*
X148350Y854750D01*
Y853250D01*
X147600Y852500D02*X148350Y853250D01*
X145350Y852500D02*X147600D01*
X144600Y853250D02*X145350Y852500D01*
X98000Y857750D02*X98750Y858500D01*
X101000D01*
X101750Y857750D01*
Y856250D01*
X98000Y852500D02*X101750Y856250D01*
X98000Y852500D02*X101750D01*
X45000Y853250D02*X45750Y852500D01*
X45000Y857750D02*Y853250D01*
Y857750D02*X45750Y858500D01*
X47250D01*
X48000Y857750D01*
Y853250D01*
X47250Y852500D02*X48000Y853250D01*
X45750Y852500D02*X47250D01*
X45000Y854000D02*X48000Y857000D01*
X49800Y852500D02*X50550D01*
X52350Y853250D02*X53100Y852500D01*
X52350Y857750D02*Y853250D01*
Y857750D02*X53100Y858500D01*
X54600D01*
X55350Y857750D01*
Y853250D01*
X54600Y852500D02*X55350Y853250D01*
X53100Y852500D02*X54600D01*
X52350Y854000D02*X55350Y857000D01*
X57150Y854750D02*X60150Y858500D01*
X57150Y854750D02*X60900D01*
X60150Y858500D02*Y852500D01*
X62700Y857750D02*X63450Y858500D01*
X64950D01*
X65700Y857750D01*
X64950Y852500D02*X65700Y853250D01*
X63450Y852500D02*X64950D01*
X62700Y853250D02*X63450Y852500D01*
Y855800D02*X64950D01*
X65700Y857750D02*Y856550D01*
Y855050D02*Y853250D01*
Y855050D02*X64950Y855800D01*
X65700Y856550D02*X64950Y855800D01*
X353000Y624600D02*Y621400D01*
X351400Y623000D02*X354600D01*
X343000Y624600D02*Y621400D01*
X341400Y623000D02*X344600D01*
X283000Y572600D02*Y569400D01*
X281400Y571000D02*X284600D01*
X273000Y572600D02*Y569400D01*
X271400Y571000D02*X274600D01*
X463000Y556600D02*Y553400D01*
X461400Y555000D02*X464600D01*
X463000Y526600D02*Y523400D01*
X461400Y525000D02*X464600D01*
X253000Y599600D02*Y596400D01*
X251400Y598000D02*X254600D01*
X283000Y599600D02*Y596400D01*
X281400Y598000D02*X284600D01*
X15000Y872850D02*Y869650D01*
X13400Y871250D02*X16600D01*
X135000Y873500D02*X136500Y870500D01*
X138000Y873500D01*
X136500Y870500D02*Y867500D01*
X139800Y870800D02*X142050D01*
X139800Y867500D02*X142800D01*
X139800Y873500D02*Y867500D01*
Y873500D02*X142800D01*
X147600D02*X148350Y872750D01*
X145350Y873500D02*X147600D01*
X144600Y872750D02*X145350Y873500D01*
X144600Y872750D02*Y871250D01*
X145350Y870500D01*
X147600D01*
X148350Y869750D01*
Y868250D01*
X147600Y867500D02*X148350Y868250D01*
X145350Y867500D02*X147600D01*
X144600Y868250D02*X145350Y867500D01*
X98000Y868250D02*X98750Y867500D01*
X98000Y869450D02*Y868250D01*
Y869450D02*X99050Y870500D01*
X99950D01*
X101000Y869450D01*
Y868250D01*
X100250Y867500D02*X101000Y868250D01*
X98750Y867500D02*X100250D01*
X98000Y871550D02*X99050Y870500D01*
X98000Y872750D02*Y871550D01*
Y872750D02*X98750Y873500D01*
X100250D01*
X101000Y872750D01*
Y871550D01*
X99950Y870500D02*X101000Y871550D01*
X45000Y868250D02*X45750Y867500D01*
X45000Y872750D02*Y868250D01*
Y872750D02*X45750Y873500D01*
X47250D01*
X48000Y872750D01*
Y868250D01*
X47250Y867500D02*X48000Y868250D01*
X45750Y867500D02*X47250D01*
X45000Y869000D02*X48000Y872000D01*
X49800Y867500D02*X50550D01*
X52350Y868250D02*X53100Y867500D01*
X52350Y872750D02*Y868250D01*
Y872750D02*X53100Y873500D01*
X54600D01*
X55350Y872750D01*
Y868250D01*
X54600Y867500D02*X55350Y868250D01*
X53100Y867500D02*X54600D01*
X52350Y869000D02*X55350Y872000D01*
X57150Y872750D02*X57900Y873500D01*
X59400D01*
X60150Y872750D01*
X59400Y867500D02*X60150Y868250D01*
X57900Y867500D02*X59400D01*
X57150Y868250D02*X57900Y867500D01*
Y870800D02*X59400D01*
X60150Y872750D02*Y871550D01*
Y870050D02*Y868250D01*
Y870050D02*X59400Y870800D01*
X60150Y871550D02*X59400Y870800D01*
X61950Y868250D02*X62700Y867500D01*
X61950Y872750D02*Y868250D01*
Y872750D02*X62700Y873500D01*
X64200D01*
X64950Y872750D01*
Y868250D01*
X64200Y867500D02*X64950Y868250D01*
X62700Y867500D02*X64200D01*
X61950Y869000D02*X64950Y872000D01*
X313000Y608000D02*Y606400D01*
Y608000D02*X314387Y608800D01*
X313000Y608000D02*X311613Y608800D01*
X313000Y598000D02*Y596400D01*
Y598000D02*X314387Y598800D01*
X313000Y598000D02*X311613Y598800D01*
X313000Y588000D02*Y586400D01*
Y588000D02*X314387Y588800D01*
X313000Y588000D02*X311613Y588800D01*
X313000Y578000D02*Y576400D01*
Y578000D02*X314387Y578800D01*
X313000Y578000D02*X311613Y578800D01*
X343000Y578000D02*Y576400D01*
Y578000D02*X344387Y578800D01*
X343000Y578000D02*X341613Y578800D01*
X343000Y588000D02*Y586400D01*
Y588000D02*X344387Y588800D01*
X343000Y588000D02*X341613Y588800D01*
X343000Y598000D02*Y596400D01*
Y598000D02*X344387Y598800D01*
X343000Y598000D02*X341613Y598800D01*
X343000Y608000D02*Y606400D01*
Y608000D02*X344387Y608800D01*
X343000Y608000D02*X341613Y608800D01*
X253000Y559000D02*Y557400D01*
Y559000D02*X254387Y559800D01*
X253000Y559000D02*X251613Y559800D01*
X253000Y549000D02*Y547400D01*
Y549000D02*X254387Y549800D01*
X253000Y549000D02*X251613Y549800D01*
X253000Y539000D02*Y537400D01*
Y539000D02*X254387Y539800D01*
X253000Y539000D02*X251613Y539800D01*
X253000Y529000D02*Y527400D01*
Y529000D02*X254387Y529800D01*
X253000Y529000D02*X251613Y529800D01*
X283000Y529000D02*Y527400D01*
Y529000D02*X284387Y529800D01*
X283000Y529000D02*X281613Y529800D01*
X283000Y539000D02*Y537400D01*
Y539000D02*X284387Y539800D01*
X283000Y539000D02*X281613Y539800D01*
X283000Y549000D02*Y547400D01*
Y549000D02*X284387Y549800D01*
X283000Y549000D02*X281613Y549800D01*
X283000Y559000D02*Y557400D01*
Y559000D02*X284387Y559800D01*
X283000Y559000D02*X281613Y559800D01*
X15000Y886250D02*Y884650D01*
Y886250D02*X16387Y887050D01*
X15000Y886250D02*X13613Y887050D01*
X135000Y888500D02*X136500Y885500D01*
X138000Y888500D01*
X136500Y885500D02*Y882500D01*
X139800Y885800D02*X142050D01*
X139800Y882500D02*X142800D01*
X139800Y888500D02*Y882500D01*
Y888500D02*X142800D01*
X147600D02*X148350Y887750D01*
X145350Y888500D02*X147600D01*
X144600Y887750D02*X145350Y888500D01*
X144600Y887750D02*Y886250D01*
X145350Y885500D01*
X147600D01*
X148350Y884750D01*
Y883250D01*
X147600Y882500D02*X148350Y883250D01*
X145350Y882500D02*X147600D01*
X144600Y883250D02*X145350Y882500D01*
X98000Y887300D02*X99200Y888500D01*
Y882500D01*
X98000D02*X100250D01*
X104300Y888500D02*X105050Y887750D01*
X102800Y888500D02*X104300D01*
X102050Y887750D02*X102800Y888500D01*
X102050Y887750D02*Y883250D01*
X102800Y882500D01*
X104300Y885800D02*X105050Y885050D01*
X102050Y885800D02*X104300D01*
X102800Y882500D02*X104300D01*
X105050Y883250D01*
Y885050D02*Y883250D01*
X45000D02*X45750Y882500D01*
X45000Y887750D02*Y883250D01*
Y887750D02*X45750Y888500D01*
X47250D01*
X48000Y887750D01*
Y883250D01*
X47250Y882500D02*X48000Y883250D01*
X45750Y882500D02*X47250D01*
X45000Y884000D02*X48000Y887000D01*
X49800Y882500D02*X50550D01*
X52350Y883250D02*X53100Y882500D01*
X52350Y887750D02*Y883250D01*
Y887750D02*X53100Y888500D01*
X54600D01*
X55350Y887750D01*
Y883250D01*
X54600Y882500D02*X55350Y883250D01*
X53100Y882500D02*X54600D01*
X52350Y884000D02*X55350Y887000D01*
X57150Y887750D02*X57900Y888500D01*
X60150D01*
X60900Y887750D01*
Y886250D01*
X57150Y882500D02*X60900Y886250D01*
X57150Y882500D02*X60900D01*
X62700Y883250D02*X63450Y882500D01*
X62700Y884450D02*Y883250D01*
Y884450D02*X63750Y885500D01*
X64650D01*
X65700Y884450D01*
Y883250D01*
X64950Y882500D02*X65700Y883250D01*
X63450Y882500D02*X64950D01*
X62700Y886550D02*X63750Y885500D01*
X62700Y887750D02*Y886550D01*
Y887750D02*X63450Y888500D01*
X64950D01*
X65700Y887750D01*
Y886550D01*
X64650Y885500D02*X65700Y886550D01*
X3000Y903500D02*X3750Y902750D01*
X750Y903500D02*X3000D01*
X0Y902750D02*X750Y903500D01*
X0Y902750D02*Y901250D01*
X750Y900500D01*
X3000D01*
X3750Y899750D01*
Y898250D01*
X3000Y897500D02*X3750Y898250D01*
X750Y897500D02*X3000D01*
X0Y898250D02*X750Y897500D01*
X5550Y900500D02*Y898250D01*
X6300Y897500D01*
X8550Y900500D02*Y896000D01*
X7800Y895250D02*X8550Y896000D01*
X6300Y895250D02*X7800D01*
X5550Y896000D02*X6300Y895250D01*
Y897500D02*X7800D01*
X8550Y898250D01*
X11100Y899750D02*Y897500D01*
Y899750D02*X11850Y900500D01*
X12600D01*
X13350Y899750D01*
Y897500D01*
Y899750D02*X14100Y900500D01*
X14850D01*
X15600Y899750D01*
Y897500D01*
X10350Y900500D02*X11100Y899750D01*
X17400Y903500D02*Y897500D01*
Y898250D02*X18150Y897500D01*
X19650D01*
X20400Y898250D01*
Y899750D02*Y898250D01*
X19650Y900500D02*X20400Y899750D01*
X18150Y900500D02*X19650D01*
X17400Y899750D02*X18150Y900500D01*
X22200Y899750D02*Y898250D01*
Y899750D02*X22950Y900500D01*
X24450D01*
X25200Y899750D01*
Y898250D01*
X24450Y897500D02*X25200Y898250D01*
X22950Y897500D02*X24450D01*
X22200Y898250D02*X22950Y897500D01*
X27000Y903500D02*Y898250D01*
X27750Y897500D01*
X0Y894250D02*X29250D01*
X41750Y903500D02*Y897500D01*
X43700Y903500D02*X44750Y902450D01*
Y898550D01*
X43700Y897500D02*X44750Y898550D01*
X41000Y897500D02*X43700D01*
X41000Y903500D02*X43700D01*
G54D111*X46550Y902000D02*Y901850D01*
G54D110*Y899750D02*Y897500D01*
X50300Y900500D02*X51050Y899750D01*
X48800Y900500D02*X50300D01*
X48050Y899750D02*X48800Y900500D01*
X48050Y899750D02*Y898250D01*
X48800Y897500D01*
X51050Y900500D02*Y898250D01*
X51800Y897500D01*
X48800D02*X50300D01*
X51050Y898250D01*
X54350Y899750D02*Y897500D01*
Y899750D02*X55100Y900500D01*
X55850D01*
X56600Y899750D01*
Y897500D01*
Y899750D02*X57350Y900500D01*
X58100D01*
X58850Y899750D01*
Y897500D01*
X53600Y900500D02*X54350Y899750D01*
X60650Y897500D02*X61400D01*
X65900Y898250D02*X66650Y897500D01*
X65900Y902750D02*X66650Y903500D01*
X65900Y902750D02*Y898250D01*
X68450Y903500D02*X69950D01*
X69200D02*Y897500D01*
X68450D02*X69950D01*
X72500Y899750D02*Y897500D01*
Y899750D02*X73250Y900500D01*
X74000D01*
X74750Y899750D01*
Y897500D01*
X71750Y900500D02*X72500Y899750D01*
X77300Y900500D02*X79550D01*
X76550Y899750D02*X77300Y900500D01*
X76550Y899750D02*Y898250D01*
X77300Y897500D01*
X79550D01*
X81350Y903500D02*Y897500D01*
Y899750D02*X82100Y900500D01*
X83600D01*
X84350Y899750D01*
Y897500D01*
X86150Y903500D02*X86900Y902750D01*
Y898250D01*
X86150Y897500D02*X86900Y898250D01*
X41000Y894250D02*X88700D01*
X96050Y897500D02*X98000D01*
X95000Y898550D02*X96050Y897500D01*
X95000Y902450D02*Y898550D01*
Y902450D02*X96050Y903500D01*
X98000D01*
X99800Y899750D02*Y898250D01*
Y899750D02*X100550Y900500D01*
X102050D01*
X102800Y899750D01*
Y898250D01*
X102050Y897500D02*X102800Y898250D01*
X100550Y897500D02*X102050D01*
X99800Y898250D02*X100550Y897500D01*
X104600Y900500D02*Y898250D01*
X105350Y897500D01*
X106850D01*
X107600Y898250D01*
Y900500D02*Y898250D01*
X110150Y899750D02*Y897500D01*
Y899750D02*X110900Y900500D01*
X111650D01*
X112400Y899750D01*
Y897500D01*
X109400Y900500D02*X110150Y899750D01*
X114950Y903500D02*Y898250D01*
X115700Y897500D01*
X114200Y901250D02*X115700D01*
X95000Y894250D02*X117200D01*
X130750Y903500D02*Y897500D01*
X130000Y903500D02*X133000D01*
X133750Y902750D01*
Y901250D01*
X133000Y900500D02*X133750Y901250D01*
X130750Y900500D02*X133000D01*
X135550Y903500D02*Y898250D01*
X136300Y897500D01*
X140050Y900500D02*X140800Y899750D01*
X138550Y900500D02*X140050D01*
X137800Y899750D02*X138550Y900500D01*
X137800Y899750D02*Y898250D01*
X138550Y897500D01*
X140800Y900500D02*Y898250D01*
X141550Y897500D01*
X138550D02*X140050D01*
X140800Y898250D01*
X144100Y903500D02*Y898250D01*
X144850Y897500D01*
X143350Y901250D02*X144850D01*
X147100Y897500D02*X149350D01*
X146350Y898250D02*X147100Y897500D01*
X146350Y899750D02*Y898250D01*
Y899750D02*X147100Y900500D01*
X148600D01*
X149350Y899750D01*
X146350Y899000D02*X149350D01*
Y899750D02*Y899000D01*
X154150Y903500D02*Y897500D01*
X153400D02*X154150Y898250D01*
X151900Y897500D02*X153400D01*
X151150Y898250D02*X151900Y897500D01*
X151150Y899750D02*Y898250D01*
Y899750D02*X151900Y900500D01*
X153400D01*
X154150Y899750D01*
X157450Y900500D02*Y899750D01*
Y898250D02*Y897500D01*
X155950Y902750D02*Y902000D01*
Y902750D02*X156700Y903500D01*
X158200D01*
X158950Y902750D01*
Y902000D01*
X157450Y900500D02*X158950Y902000D01*
X130000Y894250D02*X160750D01*
X0Y918500D02*X3000D01*
X1500D02*Y912500D01*
X4800Y918500D02*Y912500D01*
Y914750D02*X5550Y915500D01*
X7050D01*
X7800Y914750D01*
Y912500D01*
X10350D02*X12600D01*
X9600Y913250D02*X10350Y912500D01*
X9600Y914750D02*Y913250D01*
Y914750D02*X10350Y915500D01*
X11850D01*
X12600Y914750D01*
X9600Y914000D02*X12600D01*
Y914750D02*Y914000D01*
X15150Y914750D02*Y912500D01*
Y914750D02*X15900Y915500D01*
X17400D01*
X14400D02*X15150Y914750D01*
X19950Y912500D02*X22200D01*
X19200Y913250D02*X19950Y912500D01*
X19200Y914750D02*Y913250D01*
Y914750D02*X19950Y915500D01*
X21450D01*
X22200Y914750D01*
X19200Y914000D02*X22200D01*
Y914750D02*Y914000D01*
X28950Y915500D02*X29700Y914750D01*
X27450Y915500D02*X28950D01*
X26700Y914750D02*X27450Y915500D01*
X26700Y914750D02*Y913250D01*
X27450Y912500D01*
X29700Y915500D02*Y913250D01*
X30450Y912500D01*
X27450D02*X28950D01*
X29700Y913250D01*
X33000Y914750D02*Y912500D01*
Y914750D02*X33750Y915500D01*
X35250D01*
X32250D02*X33000Y914750D01*
X37800Y912500D02*X40050D01*
X37050Y913250D02*X37800Y912500D01*
X37050Y914750D02*Y913250D01*
Y914750D02*X37800Y915500D01*
X39300D01*
X40050Y914750D01*
X37050Y914000D02*X40050D01*
Y914750D02*Y914000D01*
X46800Y918500D02*X47550Y917750D01*
X45300Y918500D02*X46800D01*
X44550Y917750D02*X45300Y918500D01*
X44550Y917750D02*Y913250D01*
X45300Y912500D01*
X46800Y915800D02*X47550Y915050D01*
X44550Y915800D02*X46800D01*
X45300Y912500D02*X46800D01*
X47550Y913250D01*
Y915050D02*Y913250D01*
X55050Y918500D02*Y912500D01*
X54300D02*X55050Y913250D01*
X52800Y912500D02*X54300D01*
X52050Y913250D02*X52800Y912500D01*
X52050Y914750D02*Y913250D01*
Y914750D02*X52800Y915500D01*
X54300D01*
X55050Y914750D01*
G54D111*X56850Y917000D02*Y916850D01*
G54D110*Y914750D02*Y912500D01*
X59100Y917750D02*Y912500D01*
Y917750D02*X59850Y918500D01*
X60600D01*
X58350Y915500D02*X59850D01*
X62850Y917750D02*Y912500D01*
Y917750D02*X63600Y918500D01*
X64350D01*
X62100Y915500D02*X63600D01*
X66600Y912500D02*X68850D01*
X65850Y913250D02*X66600Y912500D01*
X65850Y914750D02*Y913250D01*
Y914750D02*X66600Y915500D01*
X68100D01*
X68850Y914750D01*
X65850Y914000D02*X68850D01*
Y914750D02*Y914000D01*
X71400Y914750D02*Y912500D01*
Y914750D02*X72150Y915500D01*
X73650D01*
X70650D02*X71400Y914750D01*
X76200Y912500D02*X78450D01*
X75450Y913250D02*X76200Y912500D01*
X75450Y914750D02*Y913250D01*
Y914750D02*X76200Y915500D01*
X77700D01*
X78450Y914750D01*
X75450Y914000D02*X78450D01*
Y914750D02*Y914000D01*
X81000Y914750D02*Y912500D01*
Y914750D02*X81750Y915500D01*
X82500D01*
X83250Y914750D01*
Y912500D01*
X80250Y915500D02*X81000Y914750D01*
X85800Y918500D02*Y913250D01*
X86550Y912500D01*
X85050Y916250D02*X86550D01*
X93750Y918500D02*Y912500D01*
X93000D02*X93750Y913250D01*
X91500Y912500D02*X93000D01*
X90750Y913250D02*X91500Y912500D01*
X90750Y914750D02*Y913250D01*
Y914750D02*X91500Y915500D01*
X93000D01*
X93750Y914750D01*
X96300D02*Y912500D01*
Y914750D02*X97050Y915500D01*
X98550D01*
X95550D02*X96300Y914750D01*
G54D111*X100350Y917000D02*Y916850D01*
G54D110*Y914750D02*Y912500D01*
X101850Y918500D02*Y913250D01*
X102600Y912500D01*
X104100Y918500D02*Y913250D01*
X104850Y912500D01*
X109800D02*X112050D01*
X112800Y913250D01*
X112050Y914000D02*X112800Y913250D01*
X109800Y914000D02*X112050D01*
X109050Y914750D02*X109800Y914000D01*
X109050Y914750D02*X109800Y915500D01*
X112050D01*
X112800Y914750D01*
X109050Y913250D02*X109800Y912500D01*
G54D111*X114600Y917000D02*Y916850D01*
G54D110*Y914750D02*Y912500D01*
X116100Y915500D02*X119100D01*
X116100Y912500D02*X119100Y915500D01*
X116100Y912500D02*X119100D01*
X121650D02*X123900D01*
X120900Y913250D02*X121650Y912500D01*
X120900Y914750D02*Y913250D01*
Y914750D02*X121650Y915500D01*
X123150D01*
X123900Y914750D01*
X120900Y914000D02*X123900D01*
Y914750D02*Y914000D01*
X126450Y912500D02*X128700D01*
X129450Y913250D01*
X128700Y914000D02*X129450Y913250D01*
X126450Y914000D02*X128700D01*
X125700Y914750D02*X126450Y914000D01*
X125700Y914750D02*X126450Y915500D01*
X128700D01*
X129450Y914750D01*
X125700Y913250D02*X126450Y912500D01*
X133950Y915500D02*Y913250D01*
X134700Y912500D01*
X136200D01*
X136950Y913250D01*
Y915500D02*Y913250D01*
X139500Y912500D02*X141750D01*
X142500Y913250D01*
X141750Y914000D02*X142500Y913250D01*
X139500Y914000D02*X141750D01*
X138750Y914750D02*X139500Y914000D01*
X138750Y914750D02*X139500Y915500D01*
X141750D01*
X142500Y914750D01*
X138750Y913250D02*X139500Y912500D01*
X145050D02*X147300D01*
X144300Y913250D02*X145050Y912500D01*
X144300Y914750D02*Y913250D01*
Y914750D02*X145050Y915500D01*
X146550D01*
X147300Y914750D01*
X144300Y914000D02*X147300D01*
Y914750D02*Y914000D01*
X152100Y918500D02*Y912500D01*
X151350D02*X152100Y913250D01*
X149850Y912500D02*X151350D01*
X149100Y913250D02*X149850Y912500D01*
X149100Y914750D02*Y913250D01*
Y914750D02*X149850Y915500D01*
X151350D01*
X152100Y914750D01*
G54D111*X156600Y917000D02*Y916850D01*
G54D110*Y914750D02*Y912500D01*
X158850Y914750D02*Y912500D01*
Y914750D02*X159600Y915500D01*
X160350D01*
X161100Y914750D01*
Y912500D01*
X158100Y915500D02*X158850Y914750D01*
X166350Y918500D02*Y913250D01*
X167100Y912500D01*
X165600Y916250D02*X167100D01*
X168600Y918500D02*Y912500D01*
Y914750D02*X169350Y915500D01*
X170850D01*
X171600Y914750D01*
Y912500D01*
G54D111*X173400Y917000D02*Y916850D01*
G54D110*Y914750D02*Y912500D01*
X175650D02*X177900D01*
X178650Y913250D01*
X177900Y914000D02*X178650Y913250D01*
X175650Y914000D02*X177900D01*
X174900Y914750D02*X175650Y914000D01*
X174900Y914750D02*X175650Y915500D01*
X177900D01*
X178650Y914750D01*
X174900Y913250D02*X175650Y912500D01*
X183150Y918500D02*Y913250D01*
X183900Y912500D01*
X187650Y915500D02*X188400Y914750D01*
X186150Y915500D02*X187650D01*
X185400Y914750D02*X186150Y915500D01*
X185400Y914750D02*Y913250D01*
X186150Y912500D01*
X188400Y915500D02*Y913250D01*
X189150Y912500D01*
X186150D02*X187650D01*
X188400Y913250D01*
X190950Y915500D02*Y913250D01*
X191700Y912500D01*
X193950Y915500D02*Y911000D01*
X193200Y910250D02*X193950Y911000D01*
X191700Y910250D02*X193200D01*
X190950Y911000D02*X191700Y910250D01*
Y912500D02*X193200D01*
X193950Y913250D01*
X195750Y914750D02*Y913250D01*
Y914750D02*X196500Y915500D01*
X198000D01*
X198750Y914750D01*
Y913250D01*
X198000Y912500D02*X198750Y913250D01*
X196500Y912500D02*X198000D01*
X195750Y913250D02*X196500Y912500D01*
X200550Y915500D02*Y913250D01*
X201300Y912500D01*
X202800D01*
X203550Y913250D01*
Y915500D02*Y913250D01*
X206100Y918500D02*Y913250D01*
X206850Y912500D01*
X205350Y916250D02*X206850D01*
X208350Y911000D02*X209850Y912500D01*
X214350Y914750D02*X217350Y918500D01*
X214350Y914750D02*X218100D01*
X217350Y918500D02*Y912500D01*
X220650D02*X222900Y915500D01*
Y917750D02*Y915500D01*
X222150Y918500D02*X222900Y917750D01*
X220650Y918500D02*X222150D01*
X219900Y917750D02*X220650Y918500D01*
X219900Y917750D02*Y916250D01*
X220650Y915500D01*
X222900D01*
X227400Y918500D02*Y912500D01*
Y914750D02*X228150Y915500D01*
X229650D01*
X230400Y914750D01*
Y912500D01*
X232200Y914750D02*Y913250D01*
Y914750D02*X232950Y915500D01*
X234450D01*
X235200Y914750D01*
Y913250D01*
X234450Y912500D02*X235200Y913250D01*
X232950Y912500D02*X234450D01*
X232200Y913250D02*X232950Y912500D01*
X237000Y918500D02*Y913250D01*
X237750Y912500D01*
X240000D02*X242250D01*
X239250Y913250D02*X240000Y912500D01*
X239250Y914750D02*Y913250D01*
Y914750D02*X240000Y915500D01*
X241500D01*
X242250Y914750D01*
X239250Y914000D02*X242250D01*
Y914750D02*Y914000D01*
X244800Y912500D02*X247050D01*
X247800Y913250D01*
X247050Y914000D02*X247800Y913250D01*
X244800Y914000D02*X247050D01*
X244050Y914750D02*X244800Y914000D01*
X244050Y914750D02*X244800Y915500D01*
X247050D01*
X247800Y914750D01*
X244050Y913250D02*X244800Y912500D01*
X253050Y918500D02*Y913250D01*
X253800Y912500D01*
X252300Y916250D02*X253800D01*
X255300Y914750D02*Y913250D01*
Y914750D02*X256050Y915500D01*
X257550D01*
X258300Y914750D01*
Y913250D01*
X257550Y912500D02*X258300Y913250D01*
X256050Y912500D02*X257550D01*
X255300Y913250D02*X256050Y912500D01*
X260850Y918500D02*Y913250D01*
X261600Y912500D01*
X260100Y916250D02*X261600D01*
X265350Y915500D02*X266100Y914750D01*
X263850Y915500D02*X265350D01*
X263100Y914750D02*X263850Y915500D01*
X263100Y914750D02*Y913250D01*
X263850Y912500D01*
X266100Y915500D02*Y913250D01*
X266850Y912500D01*
X263850D02*X265350D01*
X266100Y913250D01*
X268650Y918500D02*Y913250D01*
X269400Y912500D01*
G54D112*X370000Y686000D02*X438000D01*
X469000Y655000D01*
X480000D01*
X568000Y567000D01*
X594000D01*
X606000Y555000D01*
Y521000D01*
X569000Y484000D01*
X184000D01*
X258000Y631000D02*X177000Y550000D01*
Y491000D01*
X184000Y484000D01*
X370000Y686000D02*X315000Y631000D01*
X258000D01*
G54D110*X313675Y-9500D02*X316675D01*
X317425Y-8750D01*
Y-6950D02*Y-8750D01*
X316675Y-6200D02*X317425Y-6950D01*
X314425Y-6200D02*X316675D01*
X314425Y-3500D02*Y-9500D01*
X313675Y-3500D02*X316675D01*
X317425Y-4250D01*
Y-5450D01*
X316675Y-6200D02*X317425Y-5450D01*
X319225Y-7250D02*Y-8750D01*
Y-7250D02*X319975Y-6500D01*
X321475D01*
X322225Y-7250D01*
Y-8750D01*
X321475Y-9500D02*X322225Y-8750D01*
X319975Y-9500D02*X321475D01*
X319225Y-8750D02*X319975Y-9500D01*
X326275Y-6500D02*X327025Y-7250D01*
X324775Y-6500D02*X326275D01*
X324025Y-7250D02*X324775Y-6500D01*
X324025Y-7250D02*Y-8750D01*
X324775Y-9500D01*
X327025Y-6500D02*Y-8750D01*
X327775Y-9500D01*
X324775D02*X326275D01*
X327025Y-8750D01*
X330325Y-7250D02*Y-9500D01*
Y-7250D02*X331075Y-6500D01*
X332575D01*
X329575D02*X330325Y-7250D01*
X337375Y-3500D02*Y-9500D01*
X336625D02*X337375Y-8750D01*
X335125Y-9500D02*X336625D01*
X334375Y-8750D02*X335125Y-9500D01*
X334375Y-7250D02*Y-8750D01*
Y-7250D02*X335125Y-6500D01*
X336625D01*
X337375Y-7250D01*
X341875D02*Y-8750D01*
Y-7250D02*X342625Y-6500D01*
X344125D01*
X344875Y-7250D01*
Y-8750D01*
X344125Y-9500D02*X344875Y-8750D01*
X342625Y-9500D02*X344125D01*
X341875Y-8750D02*X342625Y-9500D01*
X346675Y-6500D02*Y-8750D01*
X347425Y-9500D01*
X348925D01*
X349675Y-8750D01*
Y-6500D02*Y-8750D01*
X352225Y-3500D02*Y-8750D01*
X352975Y-9500D01*
X351475Y-5750D02*X352975D01*
X354475Y-3500D02*Y-8750D01*
X355225Y-9500D01*
G54D111*X356725Y-5000D02*Y-5150D01*
G54D110*Y-7250D02*Y-9500D01*
X358975Y-7250D02*Y-9500D01*
Y-7250D02*X359725Y-6500D01*
X360475D01*
X361225Y-7250D01*
Y-9500D01*
X358225Y-6500D02*X358975Y-7250D01*
X363775Y-9500D02*X366025D01*
X363025Y-8750D02*X363775Y-9500D01*
X363025Y-7250D02*Y-8750D01*
Y-7250D02*X363775Y-6500D01*
X365275D01*
X366025Y-7250D01*
X363025Y-8000D02*X366025D01*
Y-7250D02*Y-8000D01*
G54D111*X370525Y-5000D02*Y-5150D01*
G54D110*Y-7250D02*Y-9500D01*
X372775D02*X375025D01*
X375775Y-8750D01*
X375025Y-8000D02*X375775Y-8750D01*
X372775Y-8000D02*X375025D01*
X372025Y-7250D02*X372775Y-8000D01*
X372025Y-7250D02*X372775Y-6500D01*
X375025D01*
X375775Y-7250D01*
X372025Y-8750D02*X372775Y-9500D01*
X381025Y-3500D02*Y-8750D01*
X381775Y-9500D01*
X380275Y-5750D02*X381775D01*
X383275Y-3500D02*Y-9500D01*
Y-7250D02*X384025Y-6500D01*
X385525D01*
X386275Y-7250D01*
Y-9500D01*
X388825D02*X391075D01*
X388075Y-8750D02*X388825Y-9500D01*
X388075Y-7250D02*Y-8750D01*
Y-7250D02*X388825Y-6500D01*
X390325D01*
X391075Y-7250D01*
X388075Y-8000D02*X391075D01*
Y-7250D02*Y-8000D01*
X396325Y-6500D02*X398575D01*
X395575Y-7250D02*X396325Y-6500D01*
X395575Y-7250D02*Y-8750D01*
X396325Y-9500D01*
X398575D01*
X401125D02*X403375D01*
X400375Y-8750D02*X401125Y-9500D01*
X400375Y-7250D02*Y-8750D01*
Y-7250D02*X401125Y-6500D01*
X402625D01*
X403375Y-7250D01*
X400375Y-8000D02*X403375D01*
Y-7250D02*Y-8000D01*
X405925Y-7250D02*Y-9500D01*
Y-7250D02*X406675Y-6500D01*
X407425D01*
X408175Y-7250D01*
Y-9500D01*
X405175Y-6500D02*X405925Y-7250D01*
X410725Y-3500D02*Y-8750D01*
X411475Y-9500D01*
X409975Y-5750D02*X411475D01*
X413725Y-9500D02*X415975D01*
X412975Y-8750D02*X413725Y-9500D01*
X412975Y-7250D02*Y-8750D01*
Y-7250D02*X413725Y-6500D01*
X415225D01*
X415975Y-7250D01*
X412975Y-8000D02*X415975D01*
Y-7250D02*Y-8000D01*
X418525Y-7250D02*Y-9500D01*
Y-7250D02*X419275Y-6500D01*
X420775D01*
X417775D02*X418525Y-7250D01*
X422575Y-3500D02*Y-8750D01*
X423325Y-9500D01*
G54D111*X424825Y-5000D02*Y-5150D01*
G54D110*Y-7250D02*Y-9500D01*
X427075Y-7250D02*Y-9500D01*
Y-7250D02*X427825Y-6500D01*
X428575D01*
X429325Y-7250D01*
Y-9500D01*
X426325Y-6500D02*X427075Y-7250D01*
X431875Y-9500D02*X434125D01*
X431125Y-8750D02*X431875Y-9500D01*
X431125Y-7250D02*Y-8750D01*
Y-7250D02*X431875Y-6500D01*
X433375D01*
X434125Y-7250D01*
X431125Y-8000D02*X434125D01*
Y-7250D02*Y-8000D01*
X438625Y-7250D02*Y-8750D01*
Y-7250D02*X439375Y-6500D01*
X440875D01*
X441625Y-7250D01*
Y-8750D01*
X440875Y-9500D02*X441625Y-8750D01*
X439375Y-9500D02*X440875D01*
X438625Y-8750D02*X439375Y-9500D01*
X444175Y-4250D02*Y-9500D01*
Y-4250D02*X444925Y-3500D01*
X445675D01*
X443425Y-6500D02*X444925D01*
X450625Y-3500D02*Y-8750D01*
X451375Y-9500D01*
X449875Y-5750D02*X451375D01*
X452875Y-3500D02*Y-9500D01*
Y-7250D02*X453625Y-6500D01*
X455125D01*
X455875Y-7250D01*
Y-9500D01*
G54D111*X457675Y-5000D02*Y-5150D01*
G54D110*Y-7250D02*Y-9500D01*
X459925D02*X462175D01*
X462925Y-8750D01*
X462175Y-8000D02*X462925Y-8750D01*
X459925Y-8000D02*X462175D01*
X459175Y-7250D02*X459925Y-8000D01*
X459175Y-7250D02*X459925Y-6500D01*
X462175D01*
X462925Y-7250D01*
X459175Y-8750D02*X459925Y-9500D01*
X468175Y-7250D02*Y-11750D01*
X467425Y-6500D02*X468175Y-7250D01*
X468925Y-6500D01*
X470425D01*
X471175Y-7250D01*
Y-8750D01*
X470425Y-9500D02*X471175Y-8750D01*
X468925Y-9500D02*X470425D01*
X468175Y-8750D02*X468925Y-9500D01*
X475225Y-6500D02*X475975Y-7250D01*
X473725Y-6500D02*X475225D01*
X472975Y-7250D02*X473725Y-6500D01*
X472975Y-7250D02*Y-8750D01*
X473725Y-9500D01*
X475975Y-6500D02*Y-8750D01*
X476725Y-9500D01*
X473725D02*X475225D01*
X475975Y-8750D01*
X479275Y-3500D02*Y-8750D01*
X480025Y-9500D01*
X478525Y-5750D02*X480025D01*
X481525Y-3500D02*Y-9500D01*
Y-7250D02*X482275Y-6500D01*
X483775D01*
X484525Y-7250D01*
Y-9500D01*
X200750Y828500D02*Y822500D01*
X202700Y828500D02*X203750Y827450D01*
Y823550D01*
X202700Y822500D02*X203750Y823550D01*
X200000Y822500D02*X202700D01*
X200000Y828500D02*X202700D01*
X207800Y825500D02*X208550Y824750D01*
X206300Y825500D02*X207800D01*
X205550Y824750D02*X206300Y825500D01*
X205550Y824750D02*Y823250D01*
X206300Y822500D01*
X208550Y825500D02*Y823250D01*
X209300Y822500D01*
X206300D02*X207800D01*
X208550Y823250D01*
X211850Y828500D02*Y823250D01*
X212600Y822500D01*
X211100Y826250D02*X212600D01*
X214850Y822500D02*X217100D01*
X214100Y823250D02*X214850Y822500D01*
X214100Y824750D02*Y823250D01*
Y824750D02*X214850Y825500D01*
X216350D01*
X217100Y824750D01*
X214100Y824000D02*X217100D01*
Y824750D02*Y824000D01*
X218900Y826250D02*X219650D01*
X218900Y824750D02*X219650D01*
X227150Y828500D02*X227900Y827750D01*
X224900Y828500D02*X227150D01*
X224150Y827750D02*X224900Y828500D01*
X224150Y827750D02*Y826250D01*
X224900Y825500D01*
X227150D01*
X227900Y824750D01*
Y823250D01*
X227150Y822500D02*X227900Y823250D01*
X224900Y822500D02*X227150D01*
X224150Y823250D02*X224900Y822500D01*
X231950Y825500D02*X232700Y824750D01*
X230450Y825500D02*X231950D01*
X229700Y824750D02*X230450Y825500D01*
X229700Y824750D02*Y823250D01*
X230450Y822500D01*
X232700Y825500D02*Y823250D01*
X233450Y822500D01*
X230450D02*X231950D01*
X232700Y823250D01*
X236000Y828500D02*Y823250D01*
X236750Y822500D01*
X235250Y826250D02*X236750D01*
X240950Y827300D02*X242150Y828500D01*
Y822500D01*
X240950D02*X243200D01*
X247250Y828500D02*X248000Y827750D01*
X245750Y828500D02*X247250D01*
X245000Y827750D02*X245750Y828500D01*
X245000Y827750D02*Y823250D01*
X245750Y822500D01*
X247250Y825800D02*X248000Y825050D01*
X245000Y825800D02*X247250D01*
X245750Y822500D02*X247250D01*
X248000Y823250D01*
Y825050D02*Y823250D01*
X252500Y828500D02*Y822500D01*
Y828500D02*X256250Y822500D01*
Y828500D02*Y822500D01*
X258050Y824750D02*Y823250D01*
Y824750D02*X258800Y825500D01*
X260300D01*
X261050Y824750D01*
Y823250D01*
X260300Y822500D02*X261050Y823250D01*
X258800Y822500D02*X260300D01*
X258050Y823250D02*X258800Y822500D01*
X262850Y825500D02*X264350Y822500D01*
X265850Y825500D02*X264350Y822500D01*
X270350Y827750D02*X271100Y828500D01*
X273350D01*
X274100Y827750D01*
Y826250D01*
X270350Y822500D02*X274100Y826250D01*
X270350Y822500D02*X274100D01*
X275900Y823250D02*X276650Y822500D01*
X275900Y827750D02*Y823250D01*
Y827750D02*X276650Y828500D01*
X278150D01*
X278900Y827750D01*
Y823250D01*
X278150Y822500D02*X278900Y823250D01*
X276650Y822500D02*X278150D01*
X275900Y824000D02*X278900Y827000D01*
X280700Y827300D02*X281900Y828500D01*
Y822500D01*
X280700D02*X282950D01*
X284750Y827750D02*X285500Y828500D01*
X287000D01*
X287750Y827750D01*
X287000Y822500D02*X287750Y823250D01*
X285500Y822500D02*X287000D01*
X284750Y823250D02*X285500Y822500D01*
Y825800D02*X287000D01*
X287750Y827750D02*Y826550D01*
Y825050D02*Y823250D01*
Y825050D02*X287000Y825800D01*
X287750Y826550D02*X287000Y825800D01*
X292250Y823250D02*X293000Y822500D01*
X292250Y827750D02*Y823250D01*
Y827750D02*X293000Y828500D01*
X294500D01*
X295250Y827750D01*
Y823250D01*
X294500Y822500D02*X295250Y823250D01*
X293000Y822500D02*X294500D01*
X292250Y824000D02*X295250Y827000D01*
X297800Y822500D02*X300050Y825500D01*
Y827750D02*Y825500D01*
X299300Y828500D02*X300050Y827750D01*
X297800Y828500D02*X299300D01*
X297050Y827750D02*X297800Y828500D01*
X297050Y827750D02*Y826250D01*
X297800Y825500D01*
X300050D01*
X301850Y826250D02*X302600D01*
X301850Y824750D02*X302600D01*
X304400Y828500D02*X307400D01*
X304400D02*Y825500D01*
X305150Y826250D01*
X306650D01*
X307400Y825500D01*
Y823250D01*
X306650Y822500D02*X307400Y823250D01*
X305150Y822500D02*X306650D01*
X304400Y823250D02*X305150Y822500D01*
X309200Y827750D02*X309950Y828500D01*
X311450D01*
X312200Y827750D01*
X311450Y822500D02*X312200Y823250D01*
X309950Y822500D02*X311450D01*
X309200Y823250D02*X309950Y822500D01*
Y825800D02*X311450D01*
X312200Y827750D02*Y826550D01*
Y825050D02*Y823250D01*
Y825050D02*X311450Y825800D01*
X312200Y826550D02*X311450Y825800D01*
X314000Y826250D02*X314750D01*
X314000Y824750D02*X314750D01*
X316550Y827300D02*X317750Y828500D01*
Y822500D01*
X316550D02*X318800D01*
X320600Y827750D02*X321350Y828500D01*
X323600D01*
X324350Y827750D01*
Y826250D01*
X320600Y822500D02*X324350Y826250D01*
X320600Y822500D02*X324350D01*
X329600Y828500D02*Y822500D01*
X328850Y828500D02*X331850D01*
X332600Y827750D01*
Y826250D01*
X331850Y825500D02*X332600Y826250D01*
X329600Y825500D02*X331850D01*
X334400Y828500D02*Y822500D01*
Y828500D02*X336650Y825500D01*
X338900Y828500D01*
Y822500D01*
X346400Y828500D02*X347150Y827750D01*
X344150Y828500D02*X346400D01*
X343400Y827750D02*X344150Y828500D01*
X343400Y827750D02*Y823250D01*
X344150Y822500D01*
X346400D01*
X347150Y823250D01*
Y824750D02*Y823250D01*
X346400Y825500D02*X347150Y824750D01*
X344900Y825500D02*X346400D01*
X348950Y828500D02*Y822500D01*
Y828500D02*X351200Y825500D01*
X353450Y828500D01*
Y822500D01*
X355250Y828500D02*X358250D01*
X356750D02*Y822500D01*
X362750Y828500D02*Y823250D01*
X363500Y822500D01*
X365000D01*
X365750Y823250D01*
Y828500D02*Y823250D01*
X367550Y828500D02*X370550D01*
X369050D02*Y822500D01*
X373400D02*X375350D01*
X372350Y823550D02*X373400Y822500D01*
X372350Y827450D02*Y823550D01*
Y827450D02*X373400Y828500D01*
X375350D01*
X200000Y842000D02*Y837500D01*
Y842000D02*X201050Y843500D01*
X202700D01*
X203750Y842000D01*
Y837500D01*
X200000Y840500D02*X203750D01*
X205550D02*Y838250D01*
X206300Y837500D01*
X207800D01*
X208550Y838250D01*
Y840500D02*Y838250D01*
X211100Y843500D02*Y838250D01*
X211850Y837500D01*
X210350Y841250D02*X211850D01*
X213350Y843500D02*Y837500D01*
Y839750D02*X214100Y840500D01*
X215600D01*
X216350Y839750D01*
Y837500D01*
X218150Y839750D02*Y838250D01*
Y839750D02*X218900Y840500D01*
X220400D01*
X221150Y839750D01*
Y838250D01*
X220400Y837500D02*X221150Y838250D01*
X218900Y837500D02*X220400D01*
X218150Y838250D02*X218900Y837500D01*
X223700Y839750D02*Y837500D01*
Y839750D02*X224450Y840500D01*
X225950D01*
X222950D02*X223700Y839750D01*
X227750Y841250D02*X228500D01*
X227750Y839750D02*X228500D01*
X233000Y843500D02*X236000D01*
X234500D02*Y837500D01*
X237800Y840500D02*Y838250D01*
X238550Y837500D01*
X240800Y840500D02*Y836000D01*
X240050Y835250D02*X240800Y836000D01*
X238550Y835250D02*X240050D01*
X237800Y836000D02*X238550Y835250D01*
Y837500D02*X240050D01*
X240800Y838250D01*
X243350Y839750D02*Y837500D01*
Y839750D02*X244100Y840500D01*
X245600D01*
X242600D02*X243350Y839750D01*
G54D111*X247400Y842000D02*Y841850D01*
G54D110*Y839750D02*Y837500D01*
X251150Y840500D02*X251900Y839750D01*
X249650Y840500D02*X251150D01*
X248900Y839750D02*X249650Y840500D01*
X248900Y839750D02*Y838250D01*
X249650Y837500D01*
X251900Y840500D02*Y838250D01*
X252650Y837500D01*
X249650D02*X251150D01*
X251900Y838250D01*
X255200Y839750D02*Y837500D01*
Y839750D02*X255950Y840500D01*
X256700D01*
X257450Y839750D01*
Y837500D01*
X254450Y840500D02*X255200Y839750D01*
X200000Y858500D02*X203000D01*
X201500D02*Y852500D01*
G54D111*X204800Y857000D02*Y856850D01*
G54D110*Y854750D02*Y852500D01*
X207050Y858500D02*Y853250D01*
X207800Y852500D01*
X206300Y856250D02*X207800D01*
X209300Y858500D02*Y853250D01*
X210050Y852500D01*
X212300D02*X214550D01*
X211550Y853250D02*X212300Y852500D01*
X211550Y854750D02*Y853250D01*
Y854750D02*X212300Y855500D01*
X213800D01*
X214550Y854750D01*
X211550Y854000D02*X214550D01*
Y854750D02*Y854000D01*
X216350Y856250D02*X217100D01*
X216350Y854750D02*X217100D01*
X221600Y853250D02*X222350Y852500D01*
X221600Y857750D02*X222350Y858500D01*
X221600Y857750D02*Y853250D01*
X224150Y855500D02*Y853250D01*
X224900Y852500D01*
X226400D01*
X227150Y853250D01*
Y855500D02*Y853250D01*
X229700Y854750D02*Y852500D01*
Y854750D02*X230450Y855500D01*
X231200D01*
X231950Y854750D01*
Y852500D01*
X228950Y855500D02*X229700Y854750D01*
X233750Y858500D02*Y852500D01*
Y854750D02*X236000Y852500D01*
X233750Y854750D02*X235250Y856250D01*
X238550Y854750D02*Y852500D01*
Y854750D02*X239300Y855500D01*
X240050D01*
X240800Y854750D01*
Y852500D01*
X237800Y855500D02*X238550Y854750D01*
X242600D02*Y853250D01*
Y854750D02*X243350Y855500D01*
X244850D01*
X245600Y854750D01*
Y853250D01*
X244850Y852500D02*X245600Y853250D01*
X243350Y852500D02*X244850D01*
X242600Y853250D02*X243350Y852500D01*
X247400Y855500D02*Y853250D01*
X248150Y852500D01*
X248900D01*
X249650Y853250D01*
Y855500D02*Y853250D01*
X250400Y852500D01*
X251150D01*
X251900Y853250D01*
Y855500D02*Y853250D01*
X254450Y854750D02*Y852500D01*
Y854750D02*X255200Y855500D01*
X255950D01*
X256700Y854750D01*
Y852500D01*
X253700Y855500D02*X254450Y854750D01*
X258500Y858500D02*X259250Y857750D01*
Y853250D01*
X258500Y852500D02*X259250Y853250D01*
X263750Y855500D02*X266750D01*
X271250Y858500D02*Y852500D01*
Y858500D02*X274250D01*
X271250Y855800D02*X273500D01*
X278300Y855500D02*X279050Y854750D01*
X276800Y855500D02*X278300D01*
X276050Y854750D02*X276800Y855500D01*
X276050Y854750D02*Y853250D01*
X276800Y852500D01*
X279050Y855500D02*Y853250D01*
X279800Y852500D01*
X276800D02*X278300D01*
X279050Y853250D01*
X281600Y858500D02*Y852500D01*
Y853250D02*X282350Y852500D01*
X283850D01*
X284600Y853250D01*
Y854750D02*Y853250D01*
X283850Y855500D02*X284600Y854750D01*
X282350Y855500D02*X283850D01*
X281600Y854750D02*X282350Y855500D01*
X287150Y854750D02*Y852500D01*
Y854750D02*X287900Y855500D01*
X289400D01*
X286400D02*X287150Y854750D01*
G54D111*X291200Y857000D02*Y856850D01*
G54D110*Y854750D02*Y852500D01*
X293450Y855500D02*X295700D01*
X292700Y854750D02*X293450Y855500D01*
X292700Y854750D02*Y853250D01*
X293450Y852500D01*
X295700D01*
X299750Y855500D02*X300500Y854750D01*
X298250Y855500D02*X299750D01*
X297500Y854750D02*X298250Y855500D01*
X297500Y854750D02*Y853250D01*
X298250Y852500D01*
X300500Y855500D02*Y853250D01*
X301250Y852500D01*
X298250D02*X299750D01*
X300500Y853250D01*
X303800Y858500D02*Y853250D01*
X304550Y852500D01*
X303050Y856250D02*X304550D01*
G54D111*X306050Y857000D02*Y856850D01*
G54D110*Y854750D02*Y852500D01*
X307550Y854750D02*Y853250D01*
Y854750D02*X308300Y855500D01*
X309800D01*
X310550Y854750D01*
Y853250D01*
X309800Y852500D02*X310550Y853250D01*
X308300Y852500D02*X309800D01*
X307550Y853250D02*X308300Y852500D01*
X313100Y854750D02*Y852500D01*
Y854750D02*X313850Y855500D01*
X314600D01*
X315350Y854750D01*
Y852500D01*
X312350Y855500D02*X313100Y854750D01*
X320600Y858500D02*Y852500D01*
X322550Y858500D02*X323600Y857450D01*
Y853550D01*
X322550Y852500D02*X323600Y853550D01*
X319850Y852500D02*X322550D01*
X319850Y858500D02*X322550D01*
X326150Y854750D02*Y852500D01*
Y854750D02*X326900Y855500D01*
X328400D01*
X325400D02*X326150Y854750D01*
X332450Y855500D02*X333200Y854750D01*
X330950Y855500D02*X332450D01*
X330200Y854750D02*X330950Y855500D01*
X330200Y854750D02*Y853250D01*
X330950Y852500D01*
X333200Y855500D02*Y853250D01*
X333950Y852500D01*
X330950D02*X332450D01*
X333200Y853250D01*
X335750Y855500D02*Y853250D01*
X336500Y852500D01*
X337250D01*
X338000Y853250D01*
Y855500D02*Y853250D01*
X338750Y852500D01*
X339500D01*
X340250Y853250D01*
Y855500D02*Y853250D01*
G54D111*X342050Y857000D02*Y856850D01*
G54D110*Y854750D02*Y852500D01*
X344300Y854750D02*Y852500D01*
Y854750D02*X345050Y855500D01*
X345800D01*
X346550Y854750D01*
Y852500D01*
X343550Y855500D02*X344300Y854750D01*
X350600Y855500D02*X351350Y854750D01*
X349100Y855500D02*X350600D01*
X348350Y854750D02*X349100Y855500D01*
X348350Y854750D02*Y853250D01*
X349100Y852500D01*
X350600D01*
X351350Y853250D01*
X348350Y851000D02*X349100Y850250D01*
X350600D01*
X351350Y851000D01*
Y855500D02*Y851000D01*
M02*
