M48
INCH
T94C0.120
T93C0.028
T92C0.079
T91C0.030
T90C0.043
T89C0.060
%
T93
X031300Y060800
X031300Y059800
X031300Y058800
X031300Y057800
X034300Y057800
X034300Y058800
X034300Y059800
X034300Y060800
X028300Y052900
X028300Y053900
X028300Y054900
X028300Y055900
X025300Y055900
X025300Y054900
X025300Y053900
X025300Y052900
T91
X046300Y055500
X046300Y052500
X035300Y062300
X034300Y062300
X028300Y057100
X027300Y057100
X028300Y059800
X025300Y059800
T90
X041400Y055500
X040400Y055500
T89
X050300Y060400
X049300Y060400
X048300Y060400
X058100Y053200
X058100Y054200
X058100Y055200
X041900Y059800
X039900Y059800
X039900Y050700
X040900Y050700
X041900Y050700
T92
X051600Y055214
X051600Y051966
X038786Y065500
X042034Y065500
X034434Y054100
X031186Y054100
X021400Y053914
X021400Y050666
T94
X029100Y061600
X047300Y064000
X026800Y050600
X047300Y051000
M30
