G04 start of page 3 for group 1 idx 1 *
G04 Title: (unknown), ground *
G04 Creator: pcb 20110918 *
G04 CreationDate: Sat 16 Nov 2013 09:53:12 PM GMT UTC *
G04 For: tyrian *
G04 Format: Gerber/RS-274X *
G04 PCB-Dimensions: 800000 800000 *
G04 PCB-Coordinate-Origin: lower left *
%MOIN*%
%FSLAX25Y25*%
%LNBOTTOM*%
%ADD87C,0.0280*%
%ADD86C,0.0787*%
%ADD85C,0.0300*%
%ADD84C,0.0430*%
%ADD83C,0.1200*%
%ADD82C,0.2200*%
%ADD81C,0.0600*%
%ADD80C,0.1575*%
%ADD79C,0.0550*%
%ADD78C,0.0650*%
%ADD77C,0.0200*%
%ADD76C,0.0900*%
%ADD75C,0.0001*%
G54D75*G36*
X344325Y558675D02*X361000Y542000D01*
Y493000D01*
X344325D01*
Y532100D01*
X344339Y532099D01*
X345731Y532208D01*
X347090Y532534D01*
X348380Y533069D01*
X349571Y533799D01*
X350633Y534706D01*
X351540Y535768D01*
X352270Y536959D01*
X352805Y538249D01*
X353131Y539608D01*
X353213Y541000D01*
X353131Y542392D01*
X352805Y543751D01*
X352270Y545041D01*
X351540Y546232D01*
X350633Y547294D01*
X349571Y548201D01*
X348380Y548931D01*
X347090Y549466D01*
X345731Y549792D01*
X344339Y549901D01*
X344325Y549900D01*
Y558675D01*
G37*
G36*
X326000Y604000D02*Y577000D01*
X344325Y558675D01*
Y549900D01*
X342947Y549792D01*
X341588Y549466D01*
X340298Y548931D01*
X339107Y548201D01*
X338045Y547294D01*
X337138Y546232D01*
X336408Y545041D01*
X335873Y543751D01*
X335547Y542392D01*
X335438Y541000D01*
X335547Y539608D01*
X335873Y538249D01*
X336408Y536959D01*
X337138Y535768D01*
X338045Y534706D01*
X339107Y533799D01*
X340298Y533069D01*
X341588Y532534D01*
X342947Y532208D01*
X344325Y532100D01*
Y493000D01*
X312993D01*
Y532188D01*
X313250Y532208D01*
X314609Y532534D01*
X315899Y533069D01*
X317090Y533799D01*
X318152Y534706D01*
X319059Y535768D01*
X319789Y536959D01*
X320324Y538249D01*
X320650Y539608D01*
X320732Y541000D01*
X320650Y542392D01*
X320324Y543751D01*
X319789Y545041D01*
X319059Y546232D01*
X318152Y547294D01*
X317090Y548201D01*
X315899Y548931D01*
X314609Y549466D01*
X313250Y549792D01*
X312993Y549812D01*
Y573487D01*
X313000Y573486D01*
X313706Y573542D01*
X314395Y573707D01*
X315049Y573978D01*
X315653Y574348D01*
X316192Y574808D01*
X316652Y575347D01*
X317022Y575951D01*
X317293Y576605D01*
X317458Y577294D01*
X317500Y578000D01*
X317458Y578706D01*
X317293Y579395D01*
X317022Y580049D01*
X316652Y580653D01*
X316192Y581192D01*
X315653Y581652D01*
X315049Y582022D01*
X314395Y582293D01*
X313706Y582458D01*
X313000Y582514D01*
X312993Y582513D01*
Y583487D01*
X313000Y583486D01*
X313706Y583542D01*
X314395Y583707D01*
X315049Y583978D01*
X315653Y584348D01*
X316192Y584808D01*
X316652Y585347D01*
X317022Y585951D01*
X317293Y586605D01*
X317458Y587294D01*
X317500Y588000D01*
X317458Y588706D01*
X317293Y589395D01*
X317022Y590049D01*
X316652Y590653D01*
X316192Y591192D01*
X315653Y591652D01*
X315049Y592022D01*
X314395Y592293D01*
X313706Y592458D01*
X313000Y592514D01*
X312993Y592513D01*
Y593487D01*
X313000Y593486D01*
X313706Y593542D01*
X314395Y593707D01*
X315049Y593978D01*
X315653Y594348D01*
X316192Y594808D01*
X316652Y595347D01*
X317022Y595951D01*
X317293Y596605D01*
X317458Y597294D01*
X317500Y598000D01*
X317458Y598706D01*
X317293Y599395D01*
X317022Y600049D01*
X316652Y600653D01*
X316192Y601192D01*
X315653Y601652D01*
X315049Y602022D01*
X314395Y602293D01*
X313706Y602458D01*
X313000Y602514D01*
X312993Y602513D01*
Y603507D01*
X316235Y603514D01*
X316465Y603569D01*
X316683Y603659D01*
X316884Y603783D01*
X317064Y603936D01*
X317119Y604000D01*
X326000D01*
G37*
G36*
X312993Y493000D02*X283000D01*
Y524486D01*
X283706Y524542D01*
X284395Y524707D01*
X285049Y524978D01*
X285653Y525348D01*
X286192Y525808D01*
X286652Y526347D01*
X287022Y526951D01*
X287293Y527605D01*
X287458Y528294D01*
X287500Y529000D01*
X287458Y529706D01*
X287293Y530395D01*
X287022Y531049D01*
X286652Y531653D01*
X286192Y532192D01*
X285653Y532652D01*
X285049Y533022D01*
X284395Y533293D01*
X283706Y533458D01*
X283000Y533514D01*
Y534486D01*
X283706Y534542D01*
X284395Y534707D01*
X285049Y534978D01*
X285653Y535348D01*
X286192Y535808D01*
X286652Y536347D01*
X287022Y536951D01*
X287293Y537605D01*
X287458Y538294D01*
X287500Y539000D01*
X287458Y539706D01*
X287293Y540395D01*
X287022Y541049D01*
X286652Y541653D01*
X286192Y542192D01*
X285653Y542652D01*
X285049Y543022D01*
X284395Y543293D01*
X283706Y543458D01*
X283000Y543514D01*
Y544486D01*
X283706Y544542D01*
X284395Y544707D01*
X285049Y544978D01*
X285653Y545348D01*
X286192Y545808D01*
X286652Y546347D01*
X287022Y546951D01*
X287293Y547605D01*
X287458Y548294D01*
X287500Y549000D01*
X287458Y549706D01*
X287293Y550395D01*
X287022Y551049D01*
X286652Y551653D01*
X286192Y552192D01*
X285653Y552652D01*
X285049Y553022D01*
X284395Y553293D01*
X283706Y553458D01*
X283000Y553514D01*
Y554486D01*
X283706Y554542D01*
X284395Y554707D01*
X285049Y554978D01*
X285653Y555348D01*
X286192Y555808D01*
X286652Y556347D01*
X287022Y556951D01*
X287293Y557605D01*
X287458Y558294D01*
X287500Y559000D01*
X287458Y559706D01*
X287293Y560395D01*
X287022Y561049D01*
X286652Y561653D01*
X286192Y562192D01*
X285653Y562652D01*
X285049Y563022D01*
X284395Y563293D01*
X283706Y563458D01*
X283000Y563514D01*
Y566757D01*
X285985Y566764D01*
X286215Y566819D01*
X286433Y566909D01*
X286634Y567033D01*
X286814Y567186D01*
X286967Y567366D01*
X287091Y567567D01*
X287181Y567785D01*
X287236Y568015D01*
X287250Y568250D01*
X287236Y573985D01*
X287181Y574215D01*
X287091Y574433D01*
X286967Y574634D01*
X286814Y574814D01*
X286634Y574967D01*
X286433Y575091D01*
X286215Y575181D01*
X285985Y575236D01*
X285750Y575250D01*
X283000Y575243D01*
Y593737D01*
X283667Y593789D01*
X284317Y593946D01*
X284935Y594202D01*
X285506Y594551D01*
X286014Y594986D01*
X286449Y595494D01*
X286798Y596065D01*
X287054Y596683D01*
X287211Y597333D01*
X287250Y598000D01*
X287211Y598667D01*
X287054Y599317D01*
X286798Y599935D01*
X286449Y600506D01*
X286014Y601014D01*
X285506Y601449D01*
X284935Y601798D01*
X284317Y602054D01*
X283667Y602211D01*
X283000Y602263D01*
Y604000D01*
X290530D01*
X291000Y603963D01*
X291470Y604000D01*
X308881D01*
X308936Y603936D01*
X309116Y603783D01*
X309317Y603659D01*
X309535Y603569D01*
X309765Y603514D01*
X310000Y603500D01*
X312993Y603507D01*
Y602513D01*
X312294Y602458D01*
X311605Y602293D01*
X310951Y602022D01*
X310347Y601652D01*
X309808Y601192D01*
X309348Y600653D01*
X308978Y600049D01*
X308707Y599395D01*
X308542Y598706D01*
X308486Y598000D01*
X308542Y597294D01*
X308707Y596605D01*
X308978Y595951D01*
X309348Y595347D01*
X309808Y594808D01*
X310347Y594348D01*
X310951Y593978D01*
X311605Y593707D01*
X312294Y593542D01*
X312993Y593487D01*
Y592513D01*
X312294Y592458D01*
X311605Y592293D01*
X310951Y592022D01*
X310347Y591652D01*
X309808Y591192D01*
X309348Y590653D01*
X308978Y590049D01*
X308707Y589395D01*
X308542Y588706D01*
X308486Y588000D01*
X308542Y587294D01*
X308707Y586605D01*
X308978Y585951D01*
X309348Y585347D01*
X309808Y584808D01*
X310347Y584348D01*
X310951Y583978D01*
X311605Y583707D01*
X312294Y583542D01*
X312993Y583487D01*
Y582513D01*
X312294Y582458D01*
X311605Y582293D01*
X310951Y582022D01*
X310347Y581652D01*
X309808Y581192D01*
X309348Y580653D01*
X308978Y580049D01*
X308707Y579395D01*
X308542Y578706D01*
X308486Y578000D01*
X308542Y577294D01*
X308707Y576605D01*
X308978Y575951D01*
X309348Y575347D01*
X309808Y574808D01*
X310347Y574348D01*
X310951Y573978D01*
X311605Y573707D01*
X312294Y573542D01*
X312993Y573487D01*
Y549812D01*
X311858Y549901D01*
X310466Y549792D01*
X309107Y549466D01*
X307817Y548931D01*
X306626Y548201D01*
X305564Y547294D01*
X304657Y546232D01*
X303927Y545041D01*
X303392Y543751D01*
X303066Y542392D01*
X302957Y541000D01*
X303066Y539608D01*
X303392Y538249D01*
X303927Y536959D01*
X304657Y535768D01*
X305564Y534706D01*
X306626Y533799D01*
X307817Y533069D01*
X309107Y532534D01*
X310466Y532208D01*
X311858Y532099D01*
X312993Y532188D01*
Y493000D01*
G37*
G36*
X283000D02*X272993D01*
Y495080D01*
X273465Y495275D01*
X275075Y496262D01*
X276511Y497489D01*
X277738Y498925D01*
X278725Y500535D01*
X279448Y502280D01*
X279889Y504117D01*
X280000Y506000D01*
X279889Y507883D01*
X279448Y509720D01*
X278725Y511465D01*
X277738Y513075D01*
X276511Y514511D01*
X275075Y515738D01*
X273465Y516725D01*
X272993Y516920D01*
Y566737D01*
X273000Y566737D01*
X273667Y566789D01*
X274317Y566946D01*
X274935Y567202D01*
X275506Y567551D01*
X276014Y567986D01*
X276449Y568494D01*
X276798Y569065D01*
X277054Y569683D01*
X277211Y570333D01*
X277250Y571000D01*
X277211Y571667D01*
X277054Y572317D01*
X276798Y572935D01*
X276449Y573506D01*
X276014Y574014D01*
X275506Y574449D01*
X274935Y574798D01*
X274317Y575054D01*
X273667Y575211D01*
X273000Y575263D01*
X272993Y575263D01*
Y604000D01*
X283000D01*
Y602263D01*
X282333Y602211D01*
X281683Y602054D01*
X281065Y601798D01*
X280494Y601449D01*
X279986Y601014D01*
X279551Y600506D01*
X279202Y599935D01*
X278946Y599317D01*
X278789Y598667D01*
X278737Y598000D01*
X278789Y597333D01*
X278946Y596683D01*
X279202Y596065D01*
X279551Y595494D01*
X279986Y594986D01*
X280494Y594551D01*
X281065Y594202D01*
X281683Y593946D01*
X282333Y593789D01*
X283000Y593737D01*
Y575243D01*
X280015Y575236D01*
X279785Y575181D01*
X279567Y575091D01*
X279366Y574967D01*
X279186Y574814D01*
X279033Y574634D01*
X278909Y574433D01*
X278819Y574215D01*
X278764Y573985D01*
X278750Y573750D01*
X278764Y568015D01*
X278819Y567785D01*
X278909Y567567D01*
X279033Y567366D01*
X279186Y567186D01*
X279366Y567033D01*
X279567Y566909D01*
X279785Y566819D01*
X280015Y566764D01*
X280250Y566750D01*
X283000Y566757D01*
Y563514D01*
X282294Y563458D01*
X281605Y563293D01*
X280951Y563022D01*
X280347Y562652D01*
X279808Y562192D01*
X279348Y561653D01*
X278978Y561049D01*
X278707Y560395D01*
X278542Y559706D01*
X278486Y559000D01*
X278542Y558294D01*
X278707Y557605D01*
X278978Y556951D01*
X279348Y556347D01*
X279808Y555808D01*
X280347Y555348D01*
X280951Y554978D01*
X281605Y554707D01*
X282294Y554542D01*
X283000Y554486D01*
Y553514D01*
X282294Y553458D01*
X281605Y553293D01*
X280951Y553022D01*
X280347Y552652D01*
X279808Y552192D01*
X279348Y551653D01*
X278978Y551049D01*
X278707Y550395D01*
X278542Y549706D01*
X278486Y549000D01*
X278542Y548294D01*
X278707Y547605D01*
X278978Y546951D01*
X279348Y546347D01*
X279808Y545808D01*
X280347Y545348D01*
X280951Y544978D01*
X281605Y544707D01*
X282294Y544542D01*
X283000Y544486D01*
Y543514D01*
X282294Y543458D01*
X281605Y543293D01*
X280951Y543022D01*
X280347Y542652D01*
X279808Y542192D01*
X279348Y541653D01*
X278978Y541049D01*
X278707Y540395D01*
X278542Y539706D01*
X278486Y539000D01*
X278542Y538294D01*
X278707Y537605D01*
X278978Y536951D01*
X279348Y536347D01*
X279808Y535808D01*
X280347Y535348D01*
X280951Y534978D01*
X281605Y534707D01*
X282294Y534542D01*
X283000Y534486D01*
Y533514D01*
X282294Y533458D01*
X281605Y533293D01*
X280951Y533022D01*
X280347Y532652D01*
X279808Y532192D01*
X279348Y531653D01*
X278978Y531049D01*
X278707Y530395D01*
X278542Y529706D01*
X278486Y529000D01*
X278542Y528294D01*
X278707Y527605D01*
X278978Y526951D01*
X279348Y526347D01*
X279808Y525808D01*
X280347Y525348D01*
X280951Y524978D01*
X281605Y524707D01*
X282294Y524542D01*
X283000Y524486D01*
Y493000D01*
G37*
G36*
X272993Y516920D02*X271720Y517448D01*
X269883Y517889D01*
X268000Y518037D01*
X267981Y518036D01*
Y604000D01*
X272993D01*
Y575263D01*
X272333Y575211D01*
X271683Y575054D01*
X271065Y574798D01*
X270494Y574449D01*
X269986Y574014D01*
X269551Y573506D01*
X269202Y572935D01*
X268946Y572317D01*
X268789Y571667D01*
X268737Y571000D01*
X268789Y570333D01*
X268946Y569683D01*
X269202Y569065D01*
X269551Y568494D01*
X269986Y567986D01*
X270494Y567551D01*
X271065Y567202D01*
X271683Y566946D01*
X272333Y566789D01*
X272993Y566737D01*
Y516920D01*
G37*
G36*
Y493000D02*X267981D01*
Y493964D01*
X268000Y493963D01*
X269883Y494111D01*
X271720Y494552D01*
X272993Y495080D01*
Y493000D01*
G37*
G36*
X267981D02*X253000D01*
Y524486D01*
X253706Y524542D01*
X254395Y524707D01*
X255049Y524978D01*
X255653Y525348D01*
X256192Y525808D01*
X256652Y526347D01*
X257022Y526951D01*
X257293Y527605D01*
X257458Y528294D01*
X257500Y529000D01*
X257458Y529706D01*
X257293Y530395D01*
X257022Y531049D01*
X256652Y531653D01*
X256192Y532192D01*
X255653Y532652D01*
X255049Y533022D01*
X254395Y533293D01*
X253706Y533458D01*
X253000Y533514D01*
Y534486D01*
X253706Y534542D01*
X254395Y534707D01*
X255049Y534978D01*
X255653Y535348D01*
X256192Y535808D01*
X256652Y536347D01*
X257022Y536951D01*
X257293Y537605D01*
X257458Y538294D01*
X257500Y539000D01*
X257458Y539706D01*
X257293Y540395D01*
X257022Y541049D01*
X256652Y541653D01*
X256192Y542192D01*
X255653Y542652D01*
X255049Y543022D01*
X254395Y543293D01*
X253706Y543458D01*
X253000Y543514D01*
Y544486D01*
X253706Y544542D01*
X254395Y544707D01*
X255049Y544978D01*
X255653Y545348D01*
X256192Y545808D01*
X256652Y546347D01*
X257022Y546951D01*
X257293Y547605D01*
X257458Y548294D01*
X257500Y549000D01*
X257458Y549706D01*
X257293Y550395D01*
X257022Y551049D01*
X256652Y551653D01*
X256192Y552192D01*
X255653Y552652D01*
X255049Y553022D01*
X254395Y553293D01*
X253706Y553458D01*
X253000Y553514D01*
Y554507D01*
X256235Y554514D01*
X256465Y554569D01*
X256683Y554659D01*
X256884Y554783D01*
X257064Y554936D01*
X257217Y555116D01*
X257341Y555317D01*
X257431Y555535D01*
X257486Y555765D01*
X257500Y556000D01*
X257486Y562235D01*
X257431Y562465D01*
X257341Y562683D01*
X257217Y562884D01*
X257064Y563064D01*
X256884Y563217D01*
X256683Y563341D01*
X256465Y563431D01*
X256235Y563486D01*
X256000Y563500D01*
X253000Y563493D01*
Y593757D01*
X255985Y593764D01*
X256215Y593819D01*
X256433Y593909D01*
X256634Y594033D01*
X256814Y594186D01*
X256967Y594366D01*
X257091Y594567D01*
X257181Y594785D01*
X257236Y595015D01*
X257250Y595250D01*
X257236Y600985D01*
X257181Y601215D01*
X257091Y601433D01*
X256967Y601634D01*
X256814Y601814D01*
X256634Y601967D01*
X256433Y602091D01*
X256215Y602181D01*
X255985Y602236D01*
X255750Y602250D01*
X253000Y602243D01*
Y604000D01*
X267981D01*
Y518036D01*
X266117Y517889D01*
X264280Y517448D01*
X262535Y516725D01*
X260925Y515738D01*
X259489Y514511D01*
X258262Y513075D01*
X257275Y511465D01*
X256552Y509720D01*
X256111Y507883D01*
X255963Y506000D01*
X256111Y504117D01*
X256552Y502280D01*
X257275Y500535D01*
X258262Y498925D01*
X259489Y497489D01*
X260925Y496262D01*
X262535Y495275D01*
X264280Y494552D01*
X266117Y494111D01*
X267981Y493964D01*
Y493000D01*
G37*
G36*
X253000D02*X213986D01*
Y497761D01*
X214000Y497760D01*
X215392Y497869D01*
X216751Y498195D01*
X218041Y498730D01*
X219232Y499460D01*
X220294Y500367D01*
X221201Y501429D01*
X221931Y502620D01*
X222466Y503910D01*
X222792Y505269D01*
X222874Y506661D01*
X222792Y508053D01*
X222466Y509412D01*
X221931Y510702D01*
X221201Y511893D01*
X220294Y512955D01*
X219232Y513862D01*
X218041Y514592D01*
X216751Y515127D01*
X215392Y515453D01*
X214000Y515562D01*
X213986Y515561D01*
Y530242D01*
X214000Y530241D01*
X215392Y530350D01*
X216751Y530676D01*
X218041Y531211D01*
X219232Y531941D01*
X220294Y532848D01*
X221201Y533910D01*
X221931Y535101D01*
X222466Y536391D01*
X222792Y537750D01*
X222874Y539142D01*
X222792Y540534D01*
X222466Y541893D01*
X221931Y543183D01*
X221201Y544374D01*
X220294Y545436D01*
X219232Y546343D01*
X218041Y547073D01*
X216751Y547608D01*
X215392Y547934D01*
X214000Y548043D01*
X213986Y548042D01*
Y576986D01*
X241000Y604000D01*
X253000D01*
Y602243D01*
X250015Y602236D01*
X249785Y602181D01*
X249567Y602091D01*
X249366Y601967D01*
X249186Y601814D01*
X249033Y601634D01*
X248909Y601433D01*
X248819Y601215D01*
X248764Y600985D01*
X248750Y600750D01*
X248764Y595015D01*
X248819Y594785D01*
X248909Y594567D01*
X249033Y594366D01*
X249186Y594186D01*
X249366Y594033D01*
X249567Y593909D01*
X249785Y593819D01*
X250015Y593764D01*
X250250Y593750D01*
X253000Y593757D01*
Y563493D01*
X249765Y563486D01*
X249535Y563431D01*
X249317Y563341D01*
X249116Y563217D01*
X248936Y563064D01*
X248783Y562884D01*
X248659Y562683D01*
X248569Y562465D01*
X248514Y562235D01*
X248500Y562000D01*
X248514Y555765D01*
X248569Y555535D01*
X248659Y555317D01*
X248783Y555116D01*
X248936Y554936D01*
X249116Y554783D01*
X249317Y554659D01*
X249535Y554569D01*
X249765Y554514D01*
X250000Y554500D01*
X253000Y554507D01*
Y553514D01*
X252294Y553458D01*
X251605Y553293D01*
X250951Y553022D01*
X250347Y552652D01*
X249808Y552192D01*
X249348Y551653D01*
X248978Y551049D01*
X248707Y550395D01*
X248542Y549706D01*
X248486Y549000D01*
X248542Y548294D01*
X248707Y547605D01*
X248978Y546951D01*
X249348Y546347D01*
X249808Y545808D01*
X250347Y545348D01*
X250951Y544978D01*
X251605Y544707D01*
X252294Y544542D01*
X253000Y544486D01*
Y543514D01*
X252294Y543458D01*
X251605Y543293D01*
X250951Y543022D01*
X250347Y542652D01*
X249808Y542192D01*
X249348Y541653D01*
X248978Y541049D01*
X248707Y540395D01*
X248542Y539706D01*
X248486Y539000D01*
X248542Y538294D01*
X248707Y537605D01*
X248978Y536951D01*
X249348Y536347D01*
X249808Y535808D01*
X250347Y535348D01*
X250951Y534978D01*
X251605Y534707D01*
X252294Y534542D01*
X253000Y534486D01*
Y533514D01*
X252294Y533458D01*
X251605Y533293D01*
X250951Y533022D01*
X250347Y532652D01*
X249808Y532192D01*
X249348Y531653D01*
X248978Y531049D01*
X248707Y530395D01*
X248542Y529706D01*
X248486Y529000D01*
X248542Y528294D01*
X248707Y527605D01*
X248978Y526951D01*
X249348Y526347D01*
X249808Y525808D01*
X250347Y525348D01*
X250951Y524978D01*
X251605Y524707D01*
X252294Y524542D01*
X253000Y524486D01*
Y493000D01*
G37*
G36*
X213986D02*X192000D01*
Y555000D01*
X213986Y576986D01*
Y548042D01*
X212608Y547934D01*
X211249Y547608D01*
X209959Y547073D01*
X208768Y546343D01*
X207706Y545436D01*
X206799Y544374D01*
X206069Y543183D01*
X205534Y541893D01*
X205208Y540534D01*
X205099Y539142D01*
X205208Y537750D01*
X205534Y536391D01*
X206069Y535101D01*
X206799Y533910D01*
X207706Y532848D01*
X208768Y531941D01*
X209959Y531211D01*
X211249Y530676D01*
X212608Y530350D01*
X213986Y530242D01*
Y515561D01*
X212608Y515453D01*
X211249Y515127D01*
X209959Y514592D01*
X208768Y513862D01*
X207706Y512955D01*
X206799Y511893D01*
X206069Y510702D01*
X205534Y509412D01*
X205208Y508053D01*
X205099Y506661D01*
X205208Y505269D01*
X205534Y503910D01*
X206069Y502620D01*
X206799Y501429D01*
X207706Y500367D01*
X208768Y499460D01*
X209959Y498730D01*
X211249Y498195D01*
X212608Y497869D01*
X213986Y497761D01*
Y493000D01*
G37*
G36*
X434000Y679000D02*Y493000D01*
X414000D01*
Y503676D01*
X414131Y503462D01*
X414744Y502744D01*
X415462Y502131D01*
X416268Y501637D01*
X417140Y501276D01*
X418058Y501056D01*
X419000Y500981D01*
X419942Y501056D01*
X420860Y501276D01*
X421732Y501637D01*
X422538Y502131D01*
X423256Y502744D01*
X423869Y503462D01*
X424363Y504268D01*
X424724Y505140D01*
X424944Y506058D01*
X425000Y507000D01*
X424944Y507942D01*
X424724Y508860D01*
X424363Y509732D01*
X423869Y510538D01*
X423256Y511256D01*
X422538Y511869D01*
X421732Y512363D01*
X420860Y512724D01*
X419942Y512944D01*
X419000Y513019D01*
X418058Y512944D01*
X417140Y512724D01*
X416268Y512363D01*
X415462Y511869D01*
X414744Y511256D01*
X414131Y510538D01*
X414000Y510324D01*
Y550257D01*
X417485Y550264D01*
X417715Y550319D01*
X417933Y550409D01*
X418134Y550533D01*
X418314Y550686D01*
X418467Y550866D01*
X418591Y551067D01*
X418681Y551285D01*
X418736Y551515D01*
X418750Y551750D01*
X418736Y558485D01*
X418681Y558715D01*
X418591Y558933D01*
X418467Y559134D01*
X418314Y559314D01*
X418134Y559467D01*
X417933Y559591D01*
X417715Y559681D01*
X417485Y559736D01*
X417250Y559750D01*
X414000Y559743D01*
Y594676D01*
X414131Y594462D01*
X414744Y593744D01*
X415462Y593131D01*
X416268Y592637D01*
X417140Y592276D01*
X418058Y592056D01*
X419000Y591981D01*
X419942Y592056D01*
X420860Y592276D01*
X421732Y592637D01*
X422538Y593131D01*
X423256Y593744D01*
X423869Y594462D01*
X424363Y595268D01*
X424724Y596140D01*
X424944Y597058D01*
X425000Y598000D01*
X424944Y598942D01*
X424724Y599860D01*
X424363Y600732D01*
X423869Y601538D01*
X423256Y602256D01*
X422538Y602869D01*
X421732Y603363D01*
X420860Y603724D01*
X419942Y603944D01*
X419000Y604019D01*
X418058Y603944D01*
X417140Y603724D01*
X416268Y603363D01*
X415462Y602869D01*
X414744Y602256D01*
X414131Y601538D01*
X414000Y601324D01*
Y648758D01*
X414045Y648706D01*
X415107Y647799D01*
X416298Y647069D01*
X417588Y646534D01*
X418947Y646208D01*
X420339Y646099D01*
X421731Y646208D01*
X423090Y646534D01*
X424380Y647069D01*
X425571Y647799D01*
X426633Y648706D01*
X427540Y649768D01*
X428270Y650959D01*
X428805Y652249D01*
X429131Y653608D01*
X429213Y655000D01*
X429131Y656392D01*
X428805Y657751D01*
X428270Y659041D01*
X427540Y660232D01*
X426633Y661294D01*
X425571Y662201D01*
X424380Y662931D01*
X423090Y663466D01*
X421731Y663792D01*
X420339Y663901D01*
X418947Y663792D01*
X417588Y663466D01*
X416298Y662931D01*
X415107Y662201D01*
X414045Y661294D01*
X414000Y661242D01*
Y679000D01*
X434000D01*
G37*
G36*
X403993D02*X414000D01*
Y661242D01*
X413138Y660232D01*
X412408Y659041D01*
X411873Y657751D01*
X411547Y656392D01*
X411438Y655000D01*
X411547Y653608D01*
X411873Y652249D01*
X412408Y650959D01*
X413138Y649768D01*
X414000Y648758D01*
Y601324D01*
X413637Y600732D01*
X413276Y599860D01*
X413056Y598942D01*
X412981Y598000D01*
X413056Y597058D01*
X413276Y596140D01*
X413637Y595268D01*
X414000Y594676D01*
Y559743D01*
X410515Y559736D01*
X410285Y559681D01*
X410067Y559591D01*
X409866Y559467D01*
X409686Y559314D01*
X409533Y559134D01*
X409409Y558933D01*
X409319Y558715D01*
X409264Y558485D01*
X409250Y558250D01*
X409264Y551515D01*
X409319Y551285D01*
X409409Y551067D01*
X409533Y550866D01*
X409686Y550686D01*
X409866Y550533D01*
X410067Y550409D01*
X410285Y550319D01*
X410515Y550264D01*
X410750Y550250D01*
X414000Y550257D01*
Y510324D01*
X413869Y510538D01*
X413256Y511256D01*
X412538Y511869D01*
X411732Y512363D01*
X410860Y512724D01*
X409942Y512944D01*
X409000Y513019D01*
X408058Y512944D01*
X407140Y512724D01*
X406268Y512363D01*
X405462Y511869D01*
X404987Y511463D01*
X404986Y511735D01*
X404931Y511965D01*
X404841Y512183D01*
X404717Y512384D01*
X404564Y512564D01*
X404384Y512717D01*
X404183Y512841D01*
X403993Y512920D01*
Y550236D01*
X404000Y550235D01*
X404745Y550294D01*
X405472Y550469D01*
X406163Y550755D01*
X406801Y551145D01*
X407369Y551631D01*
X407855Y552199D01*
X408245Y552837D01*
X408531Y553528D01*
X408706Y554255D01*
X408750Y555000D01*
X408706Y555745D01*
X408531Y556472D01*
X408245Y557163D01*
X407855Y557801D01*
X407369Y558369D01*
X406801Y558855D01*
X406163Y559245D01*
X405472Y559531D01*
X404745Y559706D01*
X404000Y559765D01*
X403993Y559764D01*
Y594664D01*
X404363Y595268D01*
X404724Y596140D01*
X404944Y597058D01*
X405000Y598000D01*
X404944Y598942D01*
X404724Y599860D01*
X404363Y600732D01*
X403993Y601336D01*
Y679000D01*
G37*
G36*
X414000Y493000D02*X403993D01*
Y501080D01*
X404183Y501159D01*
X404384Y501283D01*
X404564Y501436D01*
X404717Y501616D01*
X404841Y501817D01*
X404931Y502035D01*
X404986Y502265D01*
X405000Y502500D01*
X405000Y502526D01*
X405462Y502131D01*
X406268Y501637D01*
X407140Y501276D01*
X408058Y501056D01*
X409000Y500981D01*
X409942Y501056D01*
X410860Y501276D01*
X411732Y501637D01*
X412538Y502131D01*
X413256Y502744D01*
X413869Y503462D01*
X414000Y503676D01*
Y493000D01*
G37*
G36*
X403993D02*X387844D01*
Y646100D01*
X387858Y646099D01*
X389250Y646208D01*
X390609Y646534D01*
X391899Y647069D01*
X393090Y647799D01*
X394152Y648706D01*
X395059Y649768D01*
X395789Y650959D01*
X396324Y652249D01*
X396650Y653608D01*
X396732Y655000D01*
X396650Y656392D01*
X396324Y657751D01*
X395789Y659041D01*
X395059Y660232D01*
X394152Y661294D01*
X393090Y662201D01*
X391899Y662931D01*
X390609Y663466D01*
X389250Y663792D01*
X387858Y663901D01*
X387844Y663900D01*
Y679000D01*
X403993D01*
Y601336D01*
X403869Y601538D01*
X403256Y602256D01*
X402538Y602869D01*
X401732Y603363D01*
X400860Y603724D01*
X399942Y603944D01*
X399000Y604019D01*
X398058Y603944D01*
X397140Y603724D01*
X396268Y603363D01*
X395462Y602869D01*
X394744Y602256D01*
X394131Y601538D01*
X393637Y600732D01*
X393276Y599860D01*
X393056Y598942D01*
X392981Y598000D01*
X393056Y597058D01*
X393276Y596140D01*
X393637Y595268D01*
X394131Y594462D01*
X394744Y593744D01*
X395462Y593131D01*
X396268Y592637D01*
X397140Y592276D01*
X398058Y592056D01*
X399000Y591981D01*
X399942Y592056D01*
X400860Y592276D01*
X401732Y592637D01*
X402538Y593131D01*
X403256Y593744D01*
X403869Y594462D01*
X403993Y594664D01*
Y559764D01*
X403255Y559706D01*
X402528Y559531D01*
X401837Y559245D01*
X401199Y558855D01*
X400631Y558369D01*
X400145Y557801D01*
X399755Y557163D01*
X399469Y556472D01*
X399294Y555745D01*
X399235Y555000D01*
X399294Y554255D01*
X399469Y553528D01*
X399755Y552837D01*
X400145Y552199D01*
X400631Y551631D01*
X401199Y551145D01*
X401837Y550755D01*
X402528Y550469D01*
X403255Y550294D01*
X403993Y550236D01*
Y512920D01*
X403965Y512931D01*
X403735Y512986D01*
X403500Y513000D01*
X394265Y512986D01*
X394035Y512931D01*
X393817Y512841D01*
X393616Y512717D01*
X393436Y512564D01*
X393283Y512384D01*
X393159Y512183D01*
X393069Y511965D01*
X393014Y511735D01*
X393000Y511500D01*
X393014Y502265D01*
X393069Y502035D01*
X393159Y501817D01*
X393283Y501616D01*
X393436Y501436D01*
X393616Y501283D01*
X393817Y501159D01*
X394035Y501069D01*
X394265Y501014D01*
X394500Y501000D01*
X403735Y501014D01*
X403965Y501069D01*
X403993Y501080D01*
Y493000D01*
G37*
G36*
X387844D02*X370000D01*
Y542000D01*
X353000Y559000D01*
Y618757D01*
X355985Y618764D01*
X356215Y618819D01*
X356433Y618909D01*
X356634Y619033D01*
X356814Y619186D01*
X356967Y619366D01*
X357091Y619567D01*
X357181Y619785D01*
X357236Y620015D01*
X357250Y620250D01*
X357236Y625985D01*
X357181Y626215D01*
X357091Y626433D01*
X356967Y626634D01*
X356814Y626814D01*
X356634Y626967D01*
X356433Y627091D01*
X356215Y627181D01*
X355985Y627236D01*
X355750Y627250D01*
X353000Y627243D01*
Y659000D01*
X373000Y679000D01*
X387844D01*
Y663900D01*
X386466Y663792D01*
X385107Y663466D01*
X383817Y662931D01*
X382626Y662201D01*
X381564Y661294D01*
X380657Y660232D01*
X379927Y659041D01*
X379392Y657751D01*
X379066Y656392D01*
X378957Y655000D01*
X379066Y653608D01*
X379392Y652249D01*
X379927Y650959D01*
X380657Y649768D01*
X381564Y648706D01*
X382626Y647799D01*
X383817Y647069D01*
X385107Y646534D01*
X386466Y646208D01*
X387844Y646100D01*
Y493000D01*
G37*
G36*
X353000Y559000D02*X342993Y569007D01*
Y573487D01*
X343000Y573486D01*
X343706Y573542D01*
X344395Y573707D01*
X345049Y573978D01*
X345653Y574348D01*
X346192Y574808D01*
X346652Y575347D01*
X347022Y575951D01*
X347293Y576605D01*
X347458Y577294D01*
X347500Y578000D01*
X347458Y578706D01*
X347293Y579395D01*
X347022Y580049D01*
X346652Y580653D01*
X346192Y581192D01*
X345653Y581652D01*
X345049Y582022D01*
X344395Y582293D01*
X343706Y582458D01*
X343000Y582514D01*
X342993Y582513D01*
Y583487D01*
X343000Y583486D01*
X343706Y583542D01*
X344395Y583707D01*
X345049Y583978D01*
X345653Y584348D01*
X346192Y584808D01*
X346652Y585347D01*
X347022Y585951D01*
X347293Y586605D01*
X347458Y587294D01*
X347500Y588000D01*
X347458Y588706D01*
X347293Y589395D01*
X347022Y590049D01*
X346652Y590653D01*
X346192Y591192D01*
X345653Y591652D01*
X345049Y592022D01*
X344395Y592293D01*
X343706Y592458D01*
X343000Y592514D01*
X342993Y592513D01*
Y593487D01*
X343000Y593486D01*
X343706Y593542D01*
X344395Y593707D01*
X345049Y593978D01*
X345653Y594348D01*
X346192Y594808D01*
X346652Y595347D01*
X347022Y595951D01*
X347293Y596605D01*
X347458Y597294D01*
X347500Y598000D01*
X347458Y598706D01*
X347293Y599395D01*
X347022Y600049D01*
X346652Y600653D01*
X346192Y601192D01*
X345653Y601652D01*
X345049Y602022D01*
X344395Y602293D01*
X343706Y602458D01*
X343000Y602514D01*
X342993Y602513D01*
Y603487D01*
X343000Y603486D01*
X343706Y603542D01*
X344395Y603707D01*
X345049Y603978D01*
X345653Y604348D01*
X346192Y604808D01*
X346652Y605347D01*
X347022Y605951D01*
X347293Y606605D01*
X347458Y607294D01*
X347500Y608000D01*
X347458Y608706D01*
X347293Y609395D01*
X347022Y610049D01*
X346652Y610653D01*
X346192Y611192D01*
X345653Y611652D01*
X345049Y612022D01*
X344395Y612293D01*
X343706Y612458D01*
X343000Y612514D01*
X342993Y612513D01*
Y618737D01*
X343000Y618737D01*
X343667Y618789D01*
X344317Y618946D01*
X344935Y619202D01*
X345506Y619551D01*
X346014Y619986D01*
X346449Y620494D01*
X346798Y621065D01*
X347054Y621683D01*
X347211Y622333D01*
X347250Y623000D01*
X347211Y623667D01*
X347054Y624317D01*
X346798Y624935D01*
X346449Y625506D01*
X346014Y626014D01*
X345506Y626449D01*
X344935Y626798D01*
X344317Y627054D01*
X343667Y627211D01*
X343000Y627263D01*
X342993Y627263D01*
Y648993D01*
X353000Y659000D01*
Y627243D01*
X350015Y627236D01*
X349785Y627181D01*
X349567Y627091D01*
X349366Y626967D01*
X349186Y626814D01*
X349033Y626634D01*
X348909Y626433D01*
X348819Y626215D01*
X348764Y625985D01*
X348750Y625750D01*
X348764Y620015D01*
X348819Y619785D01*
X348909Y619567D01*
X349033Y619366D01*
X349186Y619186D01*
X349366Y619033D01*
X349567Y618909D01*
X349785Y618819D01*
X350015Y618764D01*
X350250Y618750D01*
X353000Y618757D01*
Y559000D01*
G37*
G36*
X342993Y569007D02*X335000Y577000D01*
Y641000D01*
X342993Y648993D01*
Y627263D01*
X342333Y627211D01*
X341683Y627054D01*
X341065Y626798D01*
X340494Y626449D01*
X339986Y626014D01*
X339551Y625506D01*
X339202Y624935D01*
X338946Y624317D01*
X338789Y623667D01*
X338737Y623000D01*
X338789Y622333D01*
X338946Y621683D01*
X339202Y621065D01*
X339551Y620494D01*
X339986Y619986D01*
X340494Y619551D01*
X341065Y619202D01*
X341683Y618946D01*
X342333Y618789D01*
X342993Y618737D01*
Y612513D01*
X342294Y612458D01*
X341605Y612293D01*
X340951Y612022D01*
X340347Y611652D01*
X339808Y611192D01*
X339348Y610653D01*
X338978Y610049D01*
X338707Y609395D01*
X338542Y608706D01*
X338486Y608000D01*
X338542Y607294D01*
X338707Y606605D01*
X338978Y605951D01*
X339348Y605347D01*
X339808Y604808D01*
X340347Y604348D01*
X340951Y603978D01*
X341605Y603707D01*
X342294Y603542D01*
X342993Y603487D01*
Y602513D01*
X342294Y602458D01*
X341605Y602293D01*
X340951Y602022D01*
X340347Y601652D01*
X339808Y601192D01*
X339348Y600653D01*
X338978Y600049D01*
X338707Y599395D01*
X338542Y598706D01*
X338486Y598000D01*
X338542Y597294D01*
X338707Y596605D01*
X338978Y595951D01*
X339348Y595347D01*
X339808Y594808D01*
X340347Y594348D01*
X340951Y593978D01*
X341605Y593707D01*
X342294Y593542D01*
X342993Y593487D01*
Y592513D01*
X342294Y592458D01*
X341605Y592293D01*
X340951Y592022D01*
X340347Y591652D01*
X339808Y591192D01*
X339348Y590653D01*
X338978Y590049D01*
X338707Y589395D01*
X338542Y588706D01*
X338486Y588000D01*
X338542Y587294D01*
X338707Y586605D01*
X338978Y585951D01*
X339348Y585347D01*
X339808Y584808D01*
X340347Y584348D01*
X340951Y583978D01*
X341605Y583707D01*
X342294Y583542D01*
X342993Y583487D01*
Y582513D01*
X342294Y582458D01*
X341605Y582293D01*
X340951Y582022D01*
X340347Y581652D01*
X339808Y581192D01*
X339348Y580653D01*
X338978Y580049D01*
X338707Y579395D01*
X338542Y578706D01*
X338486Y578000D01*
X338542Y577294D01*
X338707Y576605D01*
X338978Y575951D01*
X339348Y575347D01*
X339808Y574808D01*
X340347Y574348D01*
X340951Y573978D01*
X341605Y573707D01*
X342294Y573542D01*
X342993Y573487D01*
Y569007D01*
G37*
G54D76*X253000Y529000D02*X248000D01*
X255000D01*
X283000D02*X278000D01*
X287000D01*
X283000Y539000D02*X277000D01*
X288000D01*
X273000Y571000D02*Y577000D01*
Y567000D01*
X313000Y588000D02*X307000D01*
X317000D01*
X354000Y541000D02*X345000Y550000D01*
X343000D02*X336000Y543000D01*
Y542000D01*
X347000Y531000D01*
X351000Y535000D01*
Y541000D01*
X343000Y578000D02*X341000D01*
X346000D01*
X213000Y515000D02*X205000Y507000D01*
Y506000D01*
X212000Y499000D01*
X214000Y506661D02*X214339Y507000D01*
X223000D01*
X215000Y515000D01*
X213000D01*
X212000Y499000D02*X219000D01*
X221000Y501000D01*
X344339Y541000D02*X354000D01*
X345000Y550000D02*X343000D01*
X353000Y623000D02*Y629000D01*
Y616000D01*
X420339Y655000D02*X429000D01*
X420000Y664000D01*
X411000Y655000D01*
X420000Y646000D01*
X428000Y654000D01*
X404000Y555000D02*Y562000D01*
Y550000D01*
G54D77*X408000Y566000D02*Y542000D01*
G54D76*X404000Y555000D02*X397000D01*
X419000Y507000D02*Y517000D01*
Y513000D01*
X425000Y507000D01*
X419000Y501000D01*
G54D77*X416000Y502000D02*Y507000D01*
G54D75*G36*
X498500Y608500D02*Y599500D01*
X507500D01*
Y608500D01*
X498500D01*
G37*
G54D76*X493000Y604000D03*
X483000D03*
G54D75*G36*
X410750Y558250D02*Y551750D01*
X417250D01*
Y558250D01*
X410750D01*
G37*
G54D78*X404000Y555000D03*
G54D75*G36*
X460250Y557750D02*Y552250D01*
X465750D01*
Y557750D01*
X460250D01*
G37*
G54D79*X463000Y525000D03*
G54D75*G36*
X576500Y536500D02*Y527500D01*
X585500D01*
Y536500D01*
X576500D01*
G37*
G54D76*X581000Y542000D03*
Y552000D03*
G54D80*X516000Y552142D03*
Y519661D03*
G54D76*X419000Y598000D03*
G54D75*G36*
X350250Y625750D02*Y620250D01*
X355750D01*
Y625750D01*
X350250D01*
G37*
G54D80*X387858Y655000D03*
X420339D03*
G54D76*X399000Y598000D03*
G54D79*X343000Y623000D03*
G54D80*X344339Y541000D03*
G54D75*G36*
X394500Y511500D02*Y502500D01*
X403500D01*
Y511500D01*
X394500D01*
G37*
G54D76*X409000Y507000D03*
X419000D03*
G54D75*G36*
X310000Y611000D02*Y605000D01*
X316000D01*
Y611000D01*
X310000D01*
G37*
G54D81*X313000Y598000D03*
Y588000D03*
Y578000D03*
X343000D03*
Y588000D03*
Y598000D03*
Y608000D03*
G54D75*G36*
X280250Y573750D02*Y568250D01*
X285750D01*
Y573750D01*
X280250D01*
G37*
G54D79*X273000Y571000D03*
G54D80*X311858Y541000D03*
G54D81*X283000Y529000D03*
Y539000D03*
G54D79*Y598000D03*
G54D81*Y549000D03*
Y559000D03*
G54D75*G36*
X250250Y600750D02*Y595250D01*
X255750D01*
Y600750D01*
X250250D01*
G37*
G36*
X250000Y562000D02*Y556000D01*
X256000D01*
Y562000D01*
X250000D01*
G37*
G54D81*X253000Y549000D03*
G54D80*X214000Y539142D03*
Y506661D03*
G54D81*X253000Y539000D03*
Y529000D03*
G54D82*X291000Y616000D03*
X473000Y640000D03*
X268000Y506000D03*
X473000Y510000D03*
G54D83*G54D81*G54D84*G54D85*G54D81*G54D86*G54D81*G54D85*G54D86*G54D81*G54D85*G54D86*G54D81*G54D87*G54D85*G54D86*G54D87*G54D85*G54D87*G54D85*G54D87*G54D86*G54D87*M02*
