G04 start of page 7 for group -4062 idx -4062 *
G04 Title: (unknown), soldermask *
G04 Creator: pcb 20110918 *
G04 CreationDate: Sun 23 Feb 2014 09:32:49 PM GMT UTC *
G04 For: tyrian *
G04 Format: Gerber/RS-274X *
G04 PCB-Dimensions: 800000 800000 *
G04 PCB-Coordinate-Origin: lower left *
%MOIN*%
%FSLAX25Y25*%
%LNBOTTOMMASK*%
%ADD62C,0.0710*%
%ADD61C,0.0810*%
%ADD60C,0.0610*%
%ADD59C,0.1635*%
%ADD58C,0.2260*%
%ADD57C,0.0960*%
%ADD56C,0.0001*%
G54D56*G36*
X498200Y608800D02*Y599200D01*
X507800D01*
Y608800D01*
X498200D01*
G37*
G54D57*X493000Y604000D03*
X483000D03*
G54D58*X473000Y640000D03*
G54D56*G36*
X576200Y536800D02*Y527200D01*
X585800D01*
Y536800D01*
X576200D01*
G37*
G54D57*X581000Y542000D03*
Y552000D03*
G54D59*X516000Y552142D03*
Y519661D03*
G54D56*G36*
X459950Y568050D02*Y561950D01*
X466050D01*
Y568050D01*
X459950D01*
G37*
G54D60*X463000Y525000D03*
G54D58*X473000Y510000D03*
G54D56*G36*
X279950Y574050D02*Y567950D01*
X286050D01*
Y574050D01*
X279950D01*
G37*
G54D61*X283000Y549000D03*
Y559000D03*
G54D60*X293000Y598000D03*
G54D58*X291000Y616000D03*
G54D60*X273000Y571000D03*
G54D59*X311858Y541000D03*
X344339D03*
G54D61*X283000Y529000D03*
Y539000D03*
G54D56*G36*
X248950Y563050D02*Y554950D01*
X257050D01*
Y563050D01*
X248950D01*
G37*
G36*
X249950Y601050D02*Y594950D01*
X256050D01*
Y601050D01*
X249950D01*
G37*
G54D61*X253000Y549000D03*
G54D59*X214000Y539142D03*
Y506661D03*
G54D61*X253000Y539000D03*
Y529000D03*
G54D58*X268000Y506000D03*
G54D56*G36*
X349950Y626050D02*Y619950D01*
X356050D01*
Y626050D01*
X349950D01*
G37*
G54D59*X387858Y655000D03*
X420339D03*
G54D60*X343000Y623000D03*
G54D61*Y578000D03*
Y588000D03*
Y598000D03*
Y608000D03*
G54D56*G36*
X410450Y558550D02*Y551450D01*
X417550D01*
Y558550D01*
X410450D01*
G37*
G54D62*X404000Y555000D03*
G54D56*G36*
X394200Y511800D02*Y502200D01*
X403800D01*
Y511800D01*
X394200D01*
G37*
G54D57*X409000Y507000D03*
X419000D03*
Y598000D03*
X399000D03*
G54D56*G36*
X308950Y612050D02*Y603950D01*
X317050D01*
Y612050D01*
X308950D01*
G37*
G54D61*X313000Y598000D03*
Y588000D03*
Y578000D03*
M02*
