M48
INCH
T48C0.050
T47C0.043
T46C0.038
T45C0.030
T44C0.120
T43C0.079
T42C0.040
%
T45
X046300Y056500
X046300Y052500
X028300Y057100
X029300Y059800
X027300Y057100
X025300Y059800
X035300Y062300
X034300Y062300
T46
X028300Y054900
X028300Y055900
X028300Y052900
X028300Y053900
X025300Y055900
X025300Y054900
X025300Y053900
X025300Y052900
X034300Y057800
X034300Y058800
X034300Y059800
X034300Y060800
X031300Y060800
X031300Y059800
X031300Y058800
X031300Y057800
T42
X050300Y060400
X049300Y060400
X048300Y060400
X058100Y053200
X058100Y054200
X058100Y055200
X041900Y059800
X039900Y059800
T47
X041400Y055500
X040400Y055500
T48
X039900Y050700
X040900Y050700
X041900Y050700
T43
X044514Y066800
X051600Y055214
X051600Y051966
X031186Y054100
X034434Y054100
X021400Y053914
X021400Y050666
X034286Y066800
X037534Y066800
X041266Y066800
T44
X048500Y064800
X055900Y050200
X026700Y050600
X029000Y063800
M30
