G04 start of page 2 for group 0 idx 0 *
G04 Title: (unknown), trace *
G04 Creator: pcb 20110918 *
G04 CreationDate: Sun 16 Mar 2014 12:10:26 AM GMT UTC *
G04 For: tyrian *
G04 Format: Gerber/RS-274X *
G04 PCB-Dimensions: 800000 800000 *
G04 PCB-Coordinate-Origin: lower left *
%MOIN*%
%FSLAX25Y25*%
%LNTOP*%
%ADD25C,0.0500*%
%ADD24C,0.0430*%
%ADD23C,0.0380*%
%ADD22C,0.0300*%
%ADD21C,0.1200*%
%ADD20C,0.0787*%
%ADD19C,0.0400*%
%ADD18C,0.0650*%
%ADD17C,0.0750*%
%ADD16C,0.0550*%
%ADD15C,0.2200*%
%ADD14C,0.1575*%
%ADD13C,0.0001*%
%ADD12C,0.0200*%
%ADD11C,0.0900*%
G54D11*X343000Y588000D02*Y598000D01*
X399000D01*
X503000Y604000D02*Y620000D01*
X483000D02*Y604000D01*
X466000Y620000D02*X503000D01*
X343000Y608000D02*Y668000D01*
X445000D02*Y641000D01*
X466000Y620000D01*
X311858Y541000D02*Y541142D01*
X294000Y559000D01*
X283000D01*
G54D12*X253000D02*Y549000D01*
Y598000D02*Y559000D01*
Y539142D02*Y539000D01*
Y539142D02*X214000D01*
G54D11*X283000Y559000D02*Y571000D01*
G54D12*X293000Y598000D02*X313000D01*
G54D11*X419000D02*X391000Y570000D01*
Y515000D01*
G54D12*X463000Y565000D02*X453000Y555000D01*
X414000D01*
G54D11*X581000Y552000D02*X597000D01*
Y532000D01*
X528339D01*
X581000Y542000D02*X526142D01*
X493000Y575142D01*
X488339Y492000D02*X528339Y532000D01*
X493000Y575142D02*Y604000D01*
X391000Y515000D02*X399000Y507000D01*
G54D12*X463000Y525000D02*X391000D01*
G54D11*X409000Y507000D02*Y492000D01*
X488339D01*
G54D13*G36*
X498500Y608500D02*Y599500D01*
X507500D01*
Y608500D01*
X498500D01*
G37*
G54D11*X493000Y604000D03*
X483000D03*
G54D14*X445142Y668000D03*
G54D15*X485000Y648000D03*
G54D13*G36*
X576500Y536500D02*Y527500D01*
X585500D01*
Y536500D01*
X576500D01*
G37*
G54D11*X581000Y542000D03*
Y552000D03*
G54D14*X516000Y552142D03*
Y519661D03*
G54D13*G36*
X460250Y567750D02*Y562250D01*
X465750D01*
Y567750D01*
X460250D01*
G37*
G54D16*X463000Y525000D03*
G54D15*X559000Y502000D03*
G54D13*G36*
X280250Y573750D02*Y568250D01*
X285750D01*
Y573750D01*
X280250D01*
G37*
G54D17*X283000Y549000D03*
Y559000D03*
G54D16*X293000Y598000D03*
X273000Y571000D03*
G54D14*X311858Y541000D03*
X344339D03*
G54D17*X283000Y529000D03*
Y539000D03*
G54D13*G36*
X249250Y562750D02*Y555250D01*
X256750D01*
Y562750D01*
X249250D01*
G37*
G36*
X250250Y600750D02*Y595250D01*
X255750D01*
Y600750D01*
X250250D01*
G37*
G54D17*X253000Y549000D03*
G54D14*X214000Y539142D03*
Y506661D03*
G54D17*X253000Y539000D03*
Y529000D03*
G54D15*X267000Y506000D03*
G54D13*G36*
X350250Y625750D02*Y620250D01*
X355750D01*
Y625750D01*
X350250D01*
G37*
G54D14*X342858Y668000D03*
X375339D03*
X412661D03*
G54D16*X343000Y623000D03*
G54D17*Y578000D03*
Y588000D03*
Y598000D03*
Y608000D03*
G54D13*G36*
X410750Y558250D02*Y551750D01*
X417250D01*
Y558250D01*
X410750D01*
G37*
G54D18*X404000Y555000D03*
G54D13*G36*
X394500Y511500D02*Y502500D01*
X403500D01*
Y511500D01*
X394500D01*
G37*
G54D11*X409000Y507000D03*
X419000D03*
Y598000D03*
X399000D03*
G54D13*G36*
X309250Y611750D02*Y604250D01*
X316750D01*
Y611750D01*
X309250D01*
G37*
G54D15*X290000Y638000D03*
G54D17*X313000Y598000D03*
Y588000D03*
Y578000D03*
G54D19*G54D20*G54D21*G54D19*G54D20*G54D22*G54D21*G54D22*G54D23*G54D22*G54D20*G54D23*G54D22*G54D23*G54D20*G54D23*G54D21*G54D22*G54D20*G54D22*G54D23*G54D24*G54D25*G54D19*G54D23*G54D21*G54D23*M02*
