%FSLAX23Y23*%
%MOIN*%
G04 EasyPC Gerber Version 17.0 Build 3379 *
%ADD10C,0.00500*%
%ADD18C,0.10000*%
X0Y0D02*
D02*
D10*
X303Y262D02*
Y299D01*
X318Y281*
X334Y299*
Y262*
X303Y1462D02*
Y1499D01*
Y1481D02*
X334D01*
Y1462D02*
Y1499D01*
X303Y1787D02*
Y1824D01*
Y1806D02*
X334D01*
Y1787D02*
Y1824D01*
X303Y2162D02*
Y2199D01*
X318Y2181*
X334Y2199*
Y2162*
X603Y362D02*
Y399D01*
X621*
X627Y396*
X631Y393*
X634Y387*
Y374*
X631Y368*
X627Y365*
X621Y362*
X603*
Y462D02*
Y499D01*
X621*
X627Y496*
X631Y493*
X634Y487*
Y474*
X631Y468*
X627Y465*
X621Y462*
X603*
Y562D02*
Y599D01*
X621*
X627Y596*
X631Y593*
X634Y587*
Y574*
X631Y568*
X627Y565*
X621Y562*
X603*
Y662D02*
Y699D01*
X621*
X627Y696*
X631Y693*
X634Y687*
Y674*
X631Y668*
X627Y665*
X621Y662*
X603*
Y862D02*
Y899D01*
X621*
X627Y896*
X631Y893*
X634Y887*
Y874*
X631Y868*
X627Y865*
X621Y862*
X603*
Y962D02*
Y999D01*
X621*
X627Y996*
X631Y993*
X634Y987*
Y974*
X631Y968*
X627Y965*
X621Y962*
X603*
Y1062D02*
Y1099D01*
X621*
X627Y1096*
X631Y1093*
X634Y1087*
Y1074*
X631Y1068*
X627Y1065*
X621Y1062*
X603*
Y1162D02*
Y1199D01*
X621*
X627Y1196*
X631Y1193*
X634Y1187*
Y1174*
X631Y1168*
X627Y1165*
X621Y1162*
X603*
X903Y362D02*
Y399D01*
X921*
X928Y396*
X931Y393*
X934Y387*
Y374*
X931Y368*
X928Y365*
X921Y362*
X903*
Y462D02*
Y499D01*
X921*
X928Y496*
X931Y493*
X934Y487*
Y474*
X931Y468*
X928Y465*
X921Y462*
X903*
Y562D02*
Y599D01*
X921*
X928Y596*
X931Y593*
X934Y587*
Y574*
X931Y568*
X928Y565*
X921Y562*
X903*
Y662D02*
Y699D01*
X921*
X928Y696*
X931Y693*
X934Y687*
Y674*
X931Y668*
X928Y665*
X921Y662*
X903*
Y862D02*
Y899D01*
X921*
X928Y896*
X931Y893*
X934Y887*
Y874*
X931Y868*
X928Y865*
X921Y862*
X903*
Y962D02*
Y999D01*
X921*
X928Y996*
X931Y993*
X934Y987*
Y974*
X931Y968*
X928Y965*
X921Y962*
X903*
Y1062D02*
Y1099D01*
X921*
X928Y1096*
X931Y1093*
X934Y1087*
Y1074*
X931Y1068*
X928Y1065*
X921Y1062*
X903*
Y1162D02*
Y1199D01*
X921*
X928Y1196*
X931Y1193*
X934Y1187*
Y1174*
X931Y1168*
X928Y1165*
X921Y1162*
X903*
X912Y1912D02*
X924D01*
X918D02*
Y1949D01*
X912D02*
X924D01*
X1138Y287D02*
Y324D01*
X1153Y306*
X1169Y324*
Y287*
X1224Y1028D02*
X1234D01*
Y1024*
X1231Y1018*
X1228Y1015*
X1221Y1012*
X1215*
X1209Y1015*
X1206Y1018*
X1202Y1024*
Y1037*
X1206Y1043*
X1209Y1046*
X1215Y1049*
X1221*
X1228Y1046*
X1231Y1043*
X1234Y1037*
X1224Y1178D02*
X1234D01*
Y1174*
X1231Y1168*
X1228Y1165*
X1221Y1162*
X1215*
X1209Y1165*
X1206Y1168*
X1202Y1174*
Y1187*
X1206Y1193*
X1209Y1196*
X1215Y1199*
X1221*
X1228Y1196*
X1231Y1193*
X1234Y1187*
X1224Y1578D02*
X1234D01*
Y1574*
X1231Y1568*
X1228Y1565*
X1221Y1562*
X1215*
X1209Y1565*
X1206Y1568*
X1202Y1574*
Y1587*
X1206Y1593*
X1209Y1596*
X1215Y1599*
X1221*
X1228Y1596*
X1231Y1593*
X1234Y1587*
X1213Y599D02*
Y562D01*
X1244*
X1313Y599D02*
Y562D01*
X1344*
X1414Y1168D02*
X1424D01*
Y1164*
X1421Y1158*
X1418Y1155*
X1411Y1152*
X1405*
X1399Y1155*
X1396Y1158*
X1393Y1164*
Y1177*
X1396Y1183*
X1399Y1186*
X1405Y1189*
X1411*
X1418Y1186*
X1421Y1183*
X1424Y1177*
X1413Y599D02*
Y562D01*
X1444*
X1488Y287D02*
Y324D01*
X1503Y306*
X1519Y324*
Y287*
X1593Y1462D02*
Y1499D01*
X1624*
X1618Y1481D02*
X1593D01*
X1624Y1028D02*
X1634D01*
Y1024*
X1631Y1018*
X1628Y1015*
X1621Y1012*
X1615*
X1609Y1015*
X1606Y1018*
X1603Y1024*
Y1037*
X1606Y1043*
X1609Y1046*
X1615Y1049*
X1621*
X1628Y1046*
X1631Y1043*
X1634Y1037*
X1692Y1462D02*
Y1499D01*
X1724*
X1718Y1481D02*
X1692D01*
X1702Y1912D02*
X1714D01*
X1708D02*
Y1949D01*
X1702D02*
X1714D01*
X1814Y1168D02*
X1824D01*
Y1164*
X1821Y1158*
X1817Y1155*
X1811Y1152*
X1805*
X1799Y1155*
X1796Y1158*
X1793Y1164*
Y1177*
X1796Y1183*
X1799Y1186*
X1805Y1189*
X1811*
X1817Y1186*
X1821Y1183*
X1824Y1177*
X1793Y1462D02*
Y1499D01*
X1824*
X1817Y1481D02*
X1793D01*
X1803Y962D02*
Y999D01*
Y981D02*
X1812D01*
X1834Y999*
X1812Y981D02*
X1834Y962D01*
X1903D02*
Y999D01*
Y981D02*
X1912D01*
X1934Y999*
X1912Y981D02*
X1934Y962D01*
X2083Y1912D02*
Y1949D01*
X2114*
X2108Y1931D02*
X2083D01*
X2124Y1278D02*
X2134D01*
Y1274*
X2131Y1268*
X2128Y1265*
X2121Y1262*
X2115*
X2109Y1265*
X2106Y1268*
X2103Y1274*
Y1287*
X2106Y1293*
X2109Y1296*
X2115Y1299*
X2121*
X2128Y1296*
X2131Y1293*
X2134Y1287*
X2124Y1678D02*
X2134D01*
Y1674*
X2131Y1668*
X2128Y1665*
X2121Y1662*
X2115*
X2109Y1665*
X2106Y1668*
X2103Y1674*
Y1687*
X2106Y1693*
X2109Y1696*
X2115Y1699*
X2121*
X2128Y1696*
X2131Y1693*
X2134Y1687*
X2333Y1912D02*
Y1949D01*
X2364*
X2358Y1931D02*
X2333D01*
X2424Y778D02*
X2434D01*
Y774*
X2431Y768*
X2428Y765*
X2421Y762*
X2415*
X2409Y765*
X2406Y768*
X2403Y774*
Y787*
X2406Y793*
X2409Y796*
X2415Y799*
X2421*
X2428Y796*
X2431Y793*
X2434Y787*
X2424Y1178D02*
X2434D01*
Y1174*
X2431Y1168*
X2428Y1165*
X2421Y1162*
X2415*
X2409Y1165*
X2406Y1168*
X2403Y1174*
Y1187*
X2406Y1193*
X2409Y1196*
X2415Y1199*
X2421*
X2428Y1196*
X2431Y1193*
X2434Y1187*
X2503Y1368D02*
X2506Y1365D01*
X2512Y1362*
X2518Y1365*
X2521Y1368*
Y1399*
X2528*
X2521D02*
X2509D01*
X2503Y1568D02*
X2506Y1565D01*
X2512Y1562*
X2518Y1565*
X2521Y1568*
Y1599*
X2528*
X2521D02*
X2509D01*
X2624Y778D02*
X2634D01*
Y774*
X2631Y768*
X2628Y765*
X2621Y762*
X2615*
X2609Y765*
X2606Y768*
X2603Y774*
Y787*
X2606Y793*
X2609Y796*
X2615Y799*
X2621*
X2628Y796*
X2631Y793*
X2634Y787*
X2624Y1178D02*
X2634D01*
Y1174*
X2631Y1168*
X2628Y1165*
X2621Y1162*
X2615*
X2609Y1165*
X2606Y1168*
X2603Y1174*
Y1187*
X2606Y1193*
X2609Y1196*
X2615Y1199*
X2621*
X2628Y1196*
X2631Y1193*
X2634Y1187*
X3003Y262D02*
Y299D01*
X3018Y281*
X3034Y299*
Y262*
X3003Y1287D02*
Y1324D01*
Y1306D02*
X3034D01*
Y1287D02*
Y1324D01*
X3003Y1612D02*
Y1649D01*
Y1631D02*
X3034D01*
Y1612D02*
Y1649D01*
X3003Y2162D02*
Y2199D01*
X3018Y2181*
X3034Y2199*
Y2162*
D02*
D18*
X203Y203D03*
Y1403D03*
Y1728D03*
Y2103D03*
X502Y303D03*
Y403D03*
Y502D03*
Y603D03*
Y803D03*
Y903D03*
Y1002D03*
Y1103D03*
X803Y303D03*
Y403D03*
Y502D03*
Y603D03*
Y803D03*
Y903D03*
Y1002D03*
Y1103D03*
Y1853D03*
X1038Y228D03*
X1103Y953D03*
Y1103D03*
Y1503D03*
X1113Y502D03*
X1213D03*
X1293Y1093D03*
X1313Y502D03*
X1388Y228D03*
X1493Y1403D03*
X1503Y953D03*
X1593Y1403D03*
Y1853D03*
X1692Y1093D03*
Y1403D03*
X1703Y903D03*
X1803D03*
X1983Y1853D03*
X2003Y1202D03*
Y1603D03*
X2233Y1853D03*
X2303Y703D03*
Y1103D03*
X2403Y1303D03*
Y1503D03*
X2503Y703D03*
Y1103D03*
X2903Y203D03*
Y1228D03*
Y1553D03*
Y2103D03*
X0Y0D02*
M02*
