%FSLAX23Y23*%
%MOIN*%
G04 EasyPC Gerber Version 17.0 Build 3379 *
%ADD17C,0.01500*%
%ADD14C,0.06000*%
%ADD22C,0.07000*%
%ADD13C,0.07000*%
%ADD16C,0.07500*%
%ADD12C,0.08000*%
%ADD23C,0.09000*%
%ADD18C,0.10000*%
%ADD15C,0.11000*%
%ADD11C,0.15000*%
X0Y0D02*
D02*
D11*
X203Y203D03*
X803Y1853D03*
X1038Y228D03*
X1388D03*
X1593Y1853D03*
X2903Y203D03*
Y2103D03*
D02*
D12*
X502Y303D03*
Y403D03*
Y502D03*
Y603D03*
Y803D03*
Y903D03*
Y1002D03*
Y1103D03*
X803Y303D03*
Y403D03*
Y502D03*
Y603D03*
Y803D03*
Y903D03*
Y1002D03*
Y1103D03*
D02*
D13*
X1493Y1403D03*
X1593D03*
X1692D03*
D02*
D14*
X1103Y953D03*
Y1103D03*
Y1503D03*
X1293Y1093D03*
X1503Y953D03*
X1692Y1093D03*
X2003Y1202D03*
Y1603D03*
X2303Y703D03*
Y1103D03*
X2503Y703D03*
Y1103D03*
D02*
D15*
X203Y1403D03*
Y1728D02*
X803D01*
Y1853*
X203Y1728D03*
X502Y1403D02*
X203D01*
X1493D02*
X1233D01*
X502*
X1593Y1853D02*
X1983D01*
X1803Y1303D02*
X1493D01*
X1983Y1853D03*
X2003Y1303D02*
X1803D01*
X2233Y1603D02*
Y1503D01*
X2403*
X2233Y1853D02*
Y1603D01*
Y1853D03*
X2303Y1303D02*
X2003D01*
X2403D02*
X2303D01*
X2403D03*
Y1503D03*
X2903Y1228D03*
Y1553D03*
D02*
D16*
X2403Y1303D02*
X2903D01*
Y1228*
X2403Y1503D02*
X2903D01*
Y1553*
D02*
D17*
X502Y303D02*
X703D01*
Y203*
X903*
Y502*
X1113*
X502Y903D02*
X603D01*
Y1183*
X1293*
Y1093*
X502Y1103D02*
X403D01*
Y303*
X502*
Y1103D02*
Y1403D01*
X803Y502D02*
X603D01*
Y803*
X502*
X803Y603D02*
X1313D01*
Y502*
X803Y1002D02*
X1103D01*
X803Y1103D02*
X703D01*
Y603*
X803*
X1103Y1002D02*
Y953D01*
Y1002D02*
Y1103D01*
X1803Y903D02*
Y1303D01*
X2003Y1202D02*
Y1303D01*
Y1603D02*
X2233D01*
X2303Y1103D02*
Y1303D01*
D02*
D18*
X1493D02*
Y1403D01*
D02*
D22*
X1703Y903D03*
X1803D03*
D02*
D23*
X1113Y502D03*
X1213D03*
X1313D03*
X0Y0D02*
M02*
