%FSLAX23Y23*%
%MOIN*%
G04 EasyPC Gerber Version 17.0 Build 3379 *
%ADD10C,0.00500*%
%ADD27C,0.00700*%
X0Y0D02*
D02*
D10*
X1103Y1153D02*
Y1202D01*
Y1403D02*
Y1453D01*
X1153Y953D02*
X1202D01*
X1153Y1202D02*
X1053D01*
Y1403*
X1153*
Y1202*
X1202Y903D02*
Y1002D01*
X1403*
Y903*
X1202*
X1343Y1093D02*
X1393D01*
Y1043D02*
Y1143D01*
X1593*
Y1043*
X1393*
X1403Y953D02*
X1453D01*
X1553Y1524D02*
Y1537D01*
X1556Y1543*
X1559Y1546*
X1565Y1549*
X1571*
X1578Y1546*
X1581Y1543*
X1584Y1537*
Y1524*
X1581Y1518*
X1578Y1515*
X1571Y1512*
X1565*
X1559Y1515*
X1556Y1518*
X1553Y1524*
X1574Y1521D02*
X1584Y1512D01*
X1609D02*
X1621D01*
X1615D02*
Y1549D01*
X1609Y1543*
X1593Y1093D02*
X1643D01*
X1793Y1293D02*
Y1463D01*
X1393*
Y1293*
X1793*
Y1343D02*
X1393D01*
X2003Y1252D02*
Y1303D01*
Y1503D02*
Y1553D01*
X2053Y1303D02*
X1953D01*
Y1503*
X2053*
Y1303*
X2303Y753D02*
Y803D01*
Y1002D02*
Y1053D01*
X2353Y803D02*
X2253D01*
Y1002*
X2353*
Y803*
X2503Y753D02*
Y803D01*
Y1002D02*
Y1053D01*
X2553Y803D02*
X2453D01*
Y1002*
X2553*
Y803*
D02*
D27*
X124Y1127D02*
X134D01*
Y1124*
X131Y1118*
X128Y1115*
X121Y1112*
X115*
X109Y1115*
X106Y1118*
X103Y1124*
Y1137*
X106Y1143*
X109Y1146*
X115Y1149*
X121*
X128Y1146*
X131Y1143*
X134Y1137*
X153Y1112D02*
Y1149D01*
X184Y1112*
Y1149*
X203Y1112D02*
Y1149D01*
X221*
X228Y1146*
X231Y1143*
X234Y1137*
Y1124*
X231Y1118*
X228Y1115*
X221Y1112*
X203*
X103Y2024D02*
X128D01*
X115Y2012D02*
Y2037D01*
X159Y2012D02*
X171D01*
X165D02*
Y2049D01*
X159Y2043*
X228Y2012D02*
X203D01*
X224Y2034*
X228Y2040*
X224Y2046*
X218Y2049*
X209*
X203Y2046*
X253Y2049D02*
X268Y2012D01*
X284Y2049*
X374Y2012D02*
X368Y2021D01*
Y2043*
X374Y2049*
X403Y2012D02*
Y2049D01*
X424*
X431Y2046*
X434Y2040*
X431Y2034*
X424Y2031*
X403*
X462Y2012D02*
X468Y2021D01*
Y2043*
X462Y2049*
X112Y1952D02*
X124D01*
X118D02*
Y1989D01*
X112D02*
X124D01*
X153Y1952D02*
Y1977D01*
Y1968D02*
X156Y1974D01*
X162Y1977*
X168*
X174Y1974*
X178Y1968*
Y1952*
X203Y1977D02*
Y1942D01*
Y1961D02*
X206Y1955D01*
X212Y1952*
X218*
X224Y1955*
X228Y1961*
Y1968*
X224Y1974*
X218Y1977*
X212*
X206Y1974*
X203Y1968*
Y1961*
X253Y1977D02*
Y1961D01*
X256Y1955*
X262Y1952*
X268*
X274Y1955*
X278Y1961*
Y1977D02*
Y1952D01*
X309Y1977D02*
X321D01*
X315Y1983D02*
Y1955D01*
X318Y1952*
X321*
X324Y1955*
X418Y1512D02*
Y1549D01*
X403D02*
X434D01*
X474Y1531D02*
X481Y1528D01*
X484Y1521*
X481Y1515*
X474Y1512*
X453*
Y1549*
X474*
X481Y1546*
X484Y1540*
X481Y1534*
X474Y1531*
X453*
X509Y1512D02*
X521D01*
X515D02*
Y1549D01*
X509Y1543*
X612Y212D02*
X624D01*
X618D02*
Y249D01*
X612D02*
X624D01*
X684Y218D02*
X681Y215D01*
X674Y212*
X665*
X659Y215*
X656Y218*
X653Y224*
Y237*
X656Y243*
X659Y246*
X665Y249*
X674*
X681Y246*
X684Y243*
X728Y212D02*
X703D01*
X724Y234*
X728Y240*
X724Y246*
X718Y249*
X709*
X703Y246*
X612Y1212D02*
X624D01*
X618D02*
Y1249D01*
X612D02*
X624D01*
X684Y1218D02*
X681Y1215D01*
X674Y1212*
X665*
X659Y1215*
X656Y1218*
X653Y1224*
Y1237*
X656Y1243*
X659Y1246*
X665Y1249*
X674*
X681Y1246*
X684Y1243*
X709Y1212D02*
X721D01*
X715D02*
Y1249D01*
X709Y1243*
X1153Y112D02*
Y149D01*
X1174*
X1181Y146*
X1184Y140*
X1181Y134*
X1174Y131*
X1153*
X1202Y124D02*
Y137D01*
X1206Y143*
X1209Y146*
X1215Y149*
X1221*
X1228Y146*
X1231Y143*
X1234Y137*
Y124*
X1231Y118*
X1228Y115*
X1221Y112*
X1215*
X1209Y115*
X1206Y118*
X1202Y124*
X1268Y112D02*
Y149D01*
X1252D02*
X1284D01*
X1309Y112D02*
X1321D01*
X1315D02*
Y149D01*
X1309Y143*
X1162Y1862D02*
X1174D01*
X1168D02*
Y1899D01*
X1162D02*
X1174D01*
X1209Y1862D02*
X1221D01*
X1215D02*
Y1899D01*
X1209Y1893*
X1202Y1312D02*
Y1349D01*
X1224*
X1231Y1346*
X1234Y1340*
X1231Y1334*
X1224Y1331*
X1202*
X1224D02*
X1234Y1312D01*
X1259D02*
X1271D01*
X1265D02*
Y1349D01*
X1259Y1343*
X1252Y812D02*
Y849D01*
X1274*
X1281Y846*
X1284Y840*
X1281Y834*
X1274Y831*
X1252*
X1274D02*
X1284Y812D01*
X1328D02*
X1303D01*
X1324Y834*
X1328Y840*
X1324Y846*
X1318Y849*
X1309*
X1303Y846*
X1453Y1162D02*
Y1199D01*
X1474*
X1481Y1196*
X1484Y1190*
X1481Y1184*
X1474Y1181*
X1453*
X1474D02*
X1484Y1162D01*
X1506Y1165D02*
X1512Y1162D01*
X1518*
X1524Y1165*
X1528Y1171*
X1524Y1178*
X1518Y1181*
X1512*
X1518D02*
X1524Y1184D01*
X1528Y1190*
X1524Y1196*
X1518Y1199*
X1512*
X1506Y1196*
X1784Y818D02*
X1781Y815D01*
X1774Y812*
X1765*
X1759Y815*
X1756Y818*
X1753Y824*
Y837*
X1756Y843*
X1759Y846*
X1765Y849*
X1774*
X1781Y846*
X1784Y843*
X1809Y812D02*
X1821D01*
X1815D02*
Y849D01*
X1809Y843*
X2053Y1962D02*
Y1999D01*
X2071*
X2078Y1996*
X2081Y1993*
X2084Y1987*
Y1974*
X2081Y1968*
X2078Y1965*
X2071Y1962*
X2053*
X2109D02*
X2121D01*
X2115D02*
Y1999D01*
X2109Y1993*
X2103Y1412D02*
Y1449D01*
X2124*
X2131Y1446*
X2134Y1440*
X2131Y1434*
X2124Y1431*
X2103*
X2124D02*
X2134Y1412D01*
X2153Y1421D02*
X2156Y1428D01*
X2162Y1431*
X2168*
X2174Y1428*
X2178Y1421*
X2174Y1415*
X2168Y1412*
X2162*
X2156Y1415*
X2153Y1421*
Y1431*
X2156Y1440*
X2162Y1446*
X2168Y1449*
X2153Y912D02*
Y949D01*
X2174*
X2181Y946*
X2184Y940*
X2181Y934*
X2174Y931*
X2153*
X2174D02*
X2184Y912D01*
X2218D02*
Y949D01*
X2203Y924*
X2228*
X2434Y1618D02*
X2431Y1615D01*
X2424Y1612*
X2415*
X2409Y1615*
X2406Y1618*
X2403Y1624*
Y1637*
X2406Y1643*
X2409Y1646*
X2415Y1649*
X2424*
X2431Y1646*
X2434Y1643*
X2478Y1612D02*
X2453D01*
X2474Y1634*
X2478Y1640*
X2474Y1646*
X2468Y1649*
X2459*
X2453Y1646*
X2603Y912D02*
Y949D01*
X2624*
X2631Y946*
X2634Y940*
X2631Y934*
X2624Y931*
X2603*
X2624D02*
X2634Y912D01*
X2653Y915D02*
X2659Y912D01*
X2668*
X2674Y915*
X2678Y921*
Y924*
X2674Y931*
X2668Y934*
X2653*
Y949*
X2678*
X2618Y1362D02*
Y1399D01*
X2603D02*
X2634D01*
X2674Y1381D02*
X2681Y1378D01*
X2684Y1371*
X2681Y1365*
X2674Y1362*
X2653*
Y1399*
X2674*
X2681Y1396*
X2684Y1390*
X2681Y1384*
X2674Y1381*
X2653*
X2728Y1362D02*
X2703D01*
X2724Y1384*
X2728Y1390*
X2724Y1396*
X2718Y1399*
X2709*
X2703Y1396*
Y1874D02*
X2728D01*
X2715Y1862D02*
Y1887D01*
X2768Y1862D02*
Y1899D01*
X2753Y1874*
X2778*
X2812Y1881D02*
X2818D01*
X2824Y1884*
X2828Y1890*
X2824Y1896*
X2818Y1899*
X2812*
X2806Y1896*
X2803Y1890*
X2806Y1884*
X2812Y1881*
X2806Y1878*
X2803Y1871*
X2806Y1865*
X2812Y1862*
X2818*
X2824Y1865*
X2828Y1871*
X2824Y1878*
X2818Y1881*
X2853Y1899D02*
X2868Y1862D01*
X2884Y1899*
X2974Y1862D02*
X2968Y1871D01*
Y1893*
X2974Y1899*
X3003Y1862D02*
Y1899D01*
X3024*
X3031Y1896*
X3034Y1890*
X3031Y1884*
X3024Y1881*
X3003*
X3062Y1862D02*
X3068Y1871D01*
Y1893*
X3062Y1899*
X2703Y1814D02*
Y1827D01*
X2706Y1833*
X2709Y1836*
X2715Y1839*
X2721*
X2728Y1836*
X2731Y1833*
X2734Y1827*
Y1814*
X2731Y1808*
X2728Y1805*
X2721Y1802*
X2715*
X2709Y1805*
X2706Y1808*
X2703Y1814*
X2753Y1827D02*
Y1811D01*
X2756Y1805*
X2762Y1802*
X2768*
X2774Y1805*
X2778Y1811*
Y1827D02*
Y1802D01*
X2809Y1827D02*
X2821D01*
X2815Y1833D02*
Y1805D01*
X2818Y1802*
X2821*
X2824Y1805*
X2853Y1827D02*
Y1793D01*
Y1811D02*
X2856Y1805D01*
X2862Y1802*
X2868*
X2874Y1805*
X2878Y1811*
Y1817*
X2874Y1824*
X2868Y1827*
X2862*
X2856Y1824*
X2853Y1817*
Y1811*
X2903Y1827D02*
Y1811D01*
X2906Y1805*
X2912Y1802*
X2918*
X2924Y1805*
X2928Y1811*
Y1827D02*
Y1802D01*
X2959Y1827D02*
X2971D01*
X2965Y1833D02*
Y1805D01*
X2968Y1802*
X2971*
X2974Y1805*
X2874Y978D02*
X2884D01*
Y974*
X2881Y968*
X2878Y965*
X2871Y962*
X2865*
X2859Y965*
X2856Y968*
X2853Y974*
Y987*
X2856Y993*
X2859Y996*
X2865Y999*
X2871*
X2878Y996*
X2881Y993*
X2884Y987*
X2903Y962D02*
Y999D01*
X2934Y962*
Y999*
X2953Y962D02*
Y999D01*
X2971*
X2978Y996*
X2981Y993*
X2984Y987*
Y974*
X2981Y968*
X2978Y965*
X2971Y962*
X2953*
X0Y0D02*
M02*
