G04 start of page 7 for group -4062 idx -4062 *
G04 Title: (unknown), soldermask *
G04 Creator: pcb 20110918 *
G04 CreationDate: Thu 04 Jul 2013 01:29:42 AM GMT UTC *
G04 For: tyrian *
G04 Format: Gerber/RS-274X *
G04 PCB-Dimensions: 270000 560000 *
G04 PCB-Coordinate-Origin: lower left *
%MOIN*%
%FSLAX25Y25*%
%LNBOTTOMMASK*%
%ADD61C,0.0660*%
%ADD60C,0.0960*%
%ADD59C,0.1635*%
%ADD58C,0.0810*%
%ADD57C,0.0760*%
%ADD56C,0.0710*%
%ADD55C,0.0001*%
G54D55*G36*
X53450Y213550D02*Y206450D01*
X60550D01*
Y213550D01*
X53450D01*
G37*
G54D56*X47000Y210000D03*
G54D55*G36*
X23200Y200800D02*Y193200D01*
X30800D01*
Y200800D01*
X23200D01*
G37*
G54D57*X57000Y197000D03*
X27000Y187000D03*
X57000D03*
X27000Y177000D03*
X57000D03*
X27000Y167000D03*
X57000D03*
X27000Y157000D03*
X57000D03*
G54D55*G36*
X48950Y277050D02*Y268950D01*
X57050D01*
Y277050D01*
X48950D01*
G37*
G54D58*X53000Y263000D03*
G54D56*X191000Y101000D03*
G54D59*X238000Y91039D03*
G54D56*X191000Y111000D03*
G54D59*X238000Y156000D03*
Y123520D03*
G54D55*G36*
X203950Y277050D02*Y268950D01*
X212050D01*
Y277050D01*
X203950D01*
G37*
G36*
X173200Y282800D02*Y273200D01*
X182800D01*
Y282800D01*
X173200D01*
G37*
G54D60*X178000Y268000D03*
Y258000D03*
G54D58*X208000Y263000D03*
G54D55*G36*
X204450Y329550D02*Y322450D01*
X211550D01*
Y329550D01*
X204450D01*
G37*
G54D56*X178000Y326000D03*
G54D55*G36*
X157450Y104550D02*Y97450D01*
X164550D01*
Y104550D01*
X157450D01*
G37*
G36*
X144200Y84800D02*Y77200D01*
X151800D01*
Y84800D01*
X144200D01*
G37*
G54D57*X148000Y91000D03*
Y101000D03*
G54D55*G36*
X157450Y114550D02*Y107450D01*
X164550D01*
Y114550D01*
X157450D01*
G37*
G54D57*X148000Y111000D03*
X118000D03*
Y101000D03*
Y91000D03*
Y81000D03*
G54D55*G36*
X135450Y42550D02*Y35450D01*
X142550D01*
Y42550D01*
X135450D01*
G37*
G54D56*X139000Y69000D03*
G54D55*G36*
X124450Y42550D02*Y35450D01*
X131550D01*
Y42550D01*
X124450D01*
G37*
G54D56*X128000Y69000D03*
G54D55*G36*
X76450Y16550D02*Y9450D01*
X83550D01*
Y16550D01*
X76450D01*
G37*
G54D56*X90000Y13000D03*
G54D55*G36*
X100450Y74550D02*Y67450D01*
X107550D01*
Y74550D01*
X100450D01*
G37*
G54D56*X104000Y81000D03*
G54D55*G36*
X106200Y28800D02*Y21200D01*
X113800D01*
Y28800D01*
X106200D01*
G37*
G54D57*X110000Y35000D03*
Y45000D03*
Y55000D03*
X80000D03*
Y45000D03*
Y35000D03*
Y25000D03*
X27000Y147000D03*
Y137000D03*
X57000D03*
Y147000D03*
G54D55*G36*
X26450Y58550D02*Y51450D01*
X33550D01*
Y58550D01*
X26450D01*
G37*
G54D56*X60000Y55000D03*
G54D55*G36*
X16450Y44550D02*Y37450D01*
X23550D01*
Y44550D01*
X16450D01*
G37*
G54D56*X50000Y41000D03*
G54D55*G36*
X6450Y29550D02*Y22450D01*
X13550D01*
Y29550D01*
X6450D01*
G37*
G54D56*X40000Y26000D03*
G54D55*G36*
X89450Y146550D02*Y139450D01*
X96550D01*
Y146550D01*
X89450D01*
G37*
G54D56*X93000Y173000D03*
G54D55*G36*
X161950Y182050D02*Y173950D01*
X170050D01*
Y182050D01*
X161950D01*
G37*
G54D58*X166000Y188000D03*
G54D55*G36*
X125200Y177800D02*Y168200D01*
X134800D01*
Y177800D01*
X125200D01*
G37*
G54D60*X130000Y183000D03*
Y193000D03*
G54D59*X38000Y524142D03*
G54D61*X85000Y524000D03*
G54D59*X125000Y524142D03*
X38000Y491661D03*
G54D55*G36*
X81700Y497300D02*Y490700D01*
X88300D01*
Y497300D01*
X81700D01*
G37*
G54D59*X125000Y491661D03*
G54D55*G36*
X203950Y431050D02*Y422950D01*
X212050D01*
Y431050D01*
X203950D01*
G37*
G36*
X211200Y522800D02*Y513200D01*
X220800D01*
Y522800D01*
X211200D01*
G37*
G54D60*X216000Y508000D03*
Y498000D03*
G54D58*X208000Y417000D03*
G54D55*G36*
X173200Y416800D02*Y407200D01*
X182800D01*
Y416800D01*
X173200D01*
G37*
G54D60*X178000Y422000D03*
Y432000D03*
G54D55*G36*
X162450Y497550D02*Y490450D01*
X169550D01*
Y497550D01*
X162450D01*
G37*
G54D56*X166000Y524000D03*
G54D55*G36*
X78200Y416800D02*Y407200D01*
X87800D01*
Y416800D01*
X78200D01*
G37*
G54D60*X83000Y422000D03*
Y432000D03*
G54D55*G36*
X49200Y430800D02*Y423200D01*
X56800D01*
Y430800D01*
X49200D01*
G37*
G54D57*X53000Y417000D03*
G54D55*G36*
X49200Y329800D02*Y322200D01*
X56800D01*
Y329800D01*
X49200D01*
G37*
G54D56*X83000Y326000D03*
G54D55*G36*
X78200Y282800D02*Y273200D01*
X87800D01*
Y282800D01*
X78200D01*
G37*
G54D60*X83000Y268000D03*
Y258000D03*
G54D59*X108858Y349000D03*
X141339D03*
M02*
