G04 start of page 9 for group -3984 idx -3984 *
G04 Title: (unknown), fab *
G04 Creator: pcb 20110918 *
G04 CreationDate: Thu 04 Jul 2013 01:29:42 AM GMT UTC *
G04 For: tyrian *
G04 Format: Gerber/RS-274X *
G04 PCB-Dimensions: 270000 560000 *
G04 PCB-Coordinate-Origin: lower left *
%MOIN*%
%FSLAX25Y25*%
%LNFAB*%
%ADD67C,0.0100*%
%ADD66C,0.0075*%
%ADD65C,0.0060*%
%ADD64C,0.0080*%
G54D64*X190000Y494000D02*Y490800D01*
Y494000D02*X192773Y495600D01*
X190000Y494000D02*X187227Y495600D01*
X188400Y494000D02*G75*G03X191600Y494000I1600J0D01*G01*
G75*G03X188400Y494000I-1600J0D01*G01*
X57000Y354000D02*Y350800D01*
Y354000D02*X59773Y355600D01*
X57000Y354000D02*X54227Y355600D01*
X55400Y354000D02*G75*G03X58600Y354000I1600J0D01*G01*
G75*G03X55400Y354000I-1600J0D01*G01*
X198000D02*Y350800D01*
Y354000D02*X200773Y355600D01*
X198000Y354000D02*X195227Y355600D01*
X196400Y354000D02*G75*G03X199600Y354000I1600J0D01*G01*
G75*G03X196400Y354000I-1600J0D01*G01*
X55000Y87000D02*Y83800D01*
Y87000D02*X57773Y88600D01*
X55000Y87000D02*X52227Y88600D01*
X53400Y87000D02*G75*G03X56600Y87000I1600J0D01*G01*
G75*G03X53400Y87000I-1600J0D01*G01*
X186000Y74000D02*Y70800D01*
Y74000D02*X188773Y75600D01*
X186000Y74000D02*X183227Y75600D01*
X184400Y74000D02*G75*G03X187600Y74000I1600J0D01*G01*
G75*G03X184400Y74000I-1600J0D01*G01*
X130000Y258000D02*Y254800D01*
Y258000D02*X132773Y259600D01*
X130000Y258000D02*X127227Y259600D01*
X128400Y258000D02*G75*G03X131600Y258000I1600J0D01*G01*
G75*G03X128400Y258000I-1600J0D01*G01*
X15000Y571250D02*Y568050D01*
Y571250D02*X17773Y572850D01*
X15000Y571250D02*X12227Y572850D01*
X13400Y571250D02*G75*G03X16600Y571250I1600J0D01*G01*
G75*G03X13400Y571250I-1600J0D01*G01*
G54D65*X135000Y573500D02*X136500Y570500D01*
X138000Y573500D01*
X136500Y570500D02*Y567500D01*
X139800Y570800D02*X142050D01*
X139800Y567500D02*X142800D01*
X139800Y573500D02*Y567500D01*
Y573500D02*X142800D01*
X147600D02*X148350Y572750D01*
X145350Y573500D02*X147600D01*
X144600Y572750D02*X145350Y573500D01*
X144600Y572750D02*Y571250D01*
X145350Y570500D01*
X147600D01*
X148350Y569750D01*
Y568250D01*
X147600Y567500D02*X148350Y568250D01*
X145350Y567500D02*X147600D01*
X144600Y568250D02*X145350Y567500D01*
X100250Y573500D02*X101000Y572750D01*
X98750Y573500D02*X100250D01*
X98000Y572750D02*X98750Y573500D01*
X98000Y572750D02*Y568250D01*
X98750Y567500D01*
X100250Y570800D02*X101000Y570050D01*
X98000Y570800D02*X100250D01*
X98750Y567500D02*X100250D01*
X101000Y568250D01*
Y570050D02*Y568250D01*
X45000D02*X45750Y567500D01*
X45000Y572750D02*Y568250D01*
Y572750D02*X45750Y573500D01*
X47250D01*
X48000Y572750D01*
Y568250D01*
X47250Y567500D02*X48000Y568250D01*
X45750Y567500D02*X47250D01*
X45000Y569000D02*X48000Y572000D01*
X49800Y567500D02*X50550D01*
X52350Y572300D02*X53550Y573500D01*
Y567500D01*
X52350D02*X54600D01*
X56400Y572750D02*X57150Y573500D01*
X58650D01*
X59400Y572750D01*
X58650Y567500D02*X59400Y568250D01*
X57150Y567500D02*X58650D01*
X56400Y568250D02*X57150Y567500D01*
Y570800D02*X58650D01*
X59400Y572750D02*Y571550D01*
Y570050D02*Y568250D01*
Y570050D02*X58650Y570800D01*
X59400Y571550D02*X58650Y570800D01*
X61200Y573500D02*X64200D01*
X61200D02*Y570500D01*
X61950Y571250D01*
X63450D01*
X64200Y570500D01*
Y568250D01*
X63450Y567500D02*X64200Y568250D01*
X61950Y567500D02*X63450D01*
X61200Y568250D02*X61950Y567500D01*
X36400Y525742D02*X39600D01*
X36400D02*Y522542D01*
X39600D01*
Y525742D02*Y522542D01*
X36400Y493261D02*X39600D01*
X36400D02*Y490061D01*
X39600D01*
Y493261D02*Y490061D01*
X123400Y525742D02*X126600D01*
X123400D02*Y522542D01*
X126600D01*
Y525742D02*Y522542D01*
X123400Y493261D02*X126600D01*
X123400D02*Y490061D01*
X126600D01*
Y493261D02*Y490061D01*
X236400Y157600D02*X239600D01*
X236400D02*Y154400D01*
X239600D01*
Y157600D02*Y154400D01*
X236400Y125120D02*X239600D01*
X236400D02*Y121920D01*
X239600D01*
Y125120D02*Y121920D01*
X236400Y92639D02*X239600D01*
X236400D02*Y89439D01*
X239600D01*
Y92639D02*Y89439D01*
X107258Y350600D02*X110458D01*
X107258D02*Y347400D01*
X110458D01*
Y350600D02*Y347400D01*
X139739Y350600D02*X142939D01*
X139739D02*Y347400D01*
X142939D01*
Y350600D02*Y347400D01*
X13400Y587850D02*X16600D01*
X13400D02*Y584650D01*
X16600D01*
Y587850D02*Y584650D01*
X135000Y588500D02*X136500Y585500D01*
X138000Y588500D01*
X136500Y585500D02*Y582500D01*
X139800Y585800D02*X142050D01*
X139800Y582500D02*X142800D01*
X139800Y588500D02*Y582500D01*
Y588500D02*X142800D01*
X147600D02*X148350Y587750D01*
X145350Y588500D02*X147600D01*
X144600Y587750D02*X145350Y588500D01*
X144600Y587750D02*Y586250D01*
X145350Y585500D01*
X147600D01*
X148350Y584750D01*
Y583250D01*
X147600Y582500D02*X148350Y583250D01*
X145350Y582500D02*X147600D01*
X144600Y583250D02*X145350Y582500D01*
X98750D02*X101000Y585500D01*
Y587750D02*Y585500D01*
X100250Y588500D02*X101000Y587750D01*
X98750Y588500D02*X100250D01*
X98000Y587750D02*X98750Y588500D01*
X98000Y587750D02*Y586250D01*
X98750Y585500D01*
X101000D01*
X45000Y583250D02*X45750Y582500D01*
X45000Y587750D02*Y583250D01*
Y587750D02*X45750Y588500D01*
X47250D01*
X48000Y587750D01*
Y583250D01*
X47250Y582500D02*X48000Y583250D01*
X45750Y582500D02*X47250D01*
X45000Y584000D02*X48000Y587000D01*
X49800Y582500D02*X50550D01*
X52350Y583250D02*X53100Y582500D01*
X52350Y587750D02*Y583250D01*
Y587750D02*X53100Y588500D01*
X54600D01*
X55350Y587750D01*
Y583250D01*
X54600Y582500D02*X55350Y583250D01*
X53100Y582500D02*X54600D01*
X52350Y584000D02*X55350Y587000D01*
X57900Y582500D02*X60900Y588500D01*
X57150D02*X60900D01*
X63450Y582500D02*X65700Y585500D01*
Y587750D02*Y585500D01*
X64950Y588500D02*X65700Y587750D01*
X63450Y588500D02*X64950D01*
X62700Y587750D02*X63450Y588500D01*
X62700Y587750D02*Y586250D01*
X63450Y585500D01*
X65700D01*
X82200Y412000D02*G75*G03X83800Y412000I800J0D01*G01*
G75*G03X82200Y412000I-800J0D01*G01*
Y422000D02*G75*G03X83800Y422000I800J0D01*G01*
G75*G03X82200Y422000I-800J0D01*G01*
Y432000D02*G75*G03X83800Y432000I800J0D01*G01*
G75*G03X82200Y432000I-800J0D01*G01*
X177200Y412000D02*G75*G03X178800Y412000I800J0D01*G01*
G75*G03X177200Y412000I-800J0D01*G01*
Y422000D02*G75*G03X178800Y422000I800J0D01*G01*
G75*G03X177200Y422000I-800J0D01*G01*
Y432000D02*G75*G03X178800Y432000I800J0D01*G01*
G75*G03X177200Y432000I-800J0D01*G01*
Y278000D02*G75*G03X178800Y278000I800J0D01*G01*
G75*G03X177200Y278000I-800J0D01*G01*
Y268000D02*G75*G03X178800Y268000I800J0D01*G01*
G75*G03X177200Y268000I-800J0D01*G01*
Y258000D02*G75*G03X178800Y258000I800J0D01*G01*
G75*G03X177200Y258000I-800J0D01*G01*
X82200Y278000D02*G75*G03X83800Y278000I800J0D01*G01*
G75*G03X82200Y278000I-800J0D01*G01*
Y268000D02*G75*G03X83800Y268000I800J0D01*G01*
G75*G03X82200Y268000I-800J0D01*G01*
Y258000D02*G75*G03X83800Y258000I800J0D01*G01*
G75*G03X82200Y258000I-800J0D01*G01*
X129200Y173000D02*G75*G03X130800Y173000I800J0D01*G01*
G75*G03X129200Y173000I-800J0D01*G01*
Y183000D02*G75*G03X130800Y183000I800J0D01*G01*
G75*G03X129200Y183000I-800J0D01*G01*
Y193000D02*G75*G03X130800Y193000I800J0D01*G01*
G75*G03X129200Y193000I-800J0D01*G01*
X215200Y518000D02*G75*G03X216800Y518000I800J0D01*G01*
G75*G03X215200Y518000I-800J0D01*G01*
Y508000D02*G75*G03X216800Y508000I800J0D01*G01*
G75*G03X215200Y508000I-800J0D01*G01*
Y498000D02*G75*G03X216800Y498000I800J0D01*G01*
G75*G03X215200Y498000I-800J0D01*G01*
X14200Y601250D02*G75*G03X15800Y601250I800J0D01*G01*
G75*G03X14200Y601250I-800J0D01*G01*
X135000Y603500D02*X136500Y600500D01*
X138000Y603500D01*
X136500Y600500D02*Y597500D01*
X139800Y600800D02*X142050D01*
X139800Y597500D02*X142800D01*
X139800Y603500D02*Y597500D01*
Y603500D02*X142800D01*
X147600D02*X148350Y602750D01*
X145350Y603500D02*X147600D01*
X144600Y602750D02*X145350Y603500D01*
X144600Y602750D02*Y601250D01*
X145350Y600500D01*
X147600D01*
X148350Y599750D01*
Y598250D01*
X147600Y597500D02*X148350Y598250D01*
X145350Y597500D02*X147600D01*
X144600Y598250D02*X145350Y597500D01*
X98000Y602300D02*X99200Y603500D01*
Y597500D01*
X98000D02*X100250D01*
X102050Y598250D02*X102800Y597500D01*
X102050Y599450D02*Y598250D01*
Y599450D02*X103100Y600500D01*
X104000D01*
X105050Y599450D01*
Y598250D01*
X104300Y597500D02*X105050Y598250D01*
X102800Y597500D02*X104300D01*
X102050Y601550D02*X103100Y600500D01*
X102050Y602750D02*Y601550D01*
Y602750D02*X102800Y603500D01*
X104300D01*
X105050Y602750D01*
Y601550D01*
X104000Y600500D02*X105050Y601550D01*
X45000Y598250D02*X45750Y597500D01*
X45000Y602750D02*Y598250D01*
Y602750D02*X45750Y603500D01*
X47250D01*
X48000Y602750D01*
Y598250D01*
X47250Y597500D02*X48000Y598250D01*
X45750Y597500D02*X47250D01*
X45000Y599000D02*X48000Y602000D01*
X49800Y597500D02*X50550D01*
X52350Y598250D02*X53100Y597500D01*
X52350Y602750D02*Y598250D01*
Y602750D02*X53100Y603500D01*
X54600D01*
X55350Y602750D01*
Y598250D01*
X54600Y597500D02*X55350Y598250D01*
X53100Y597500D02*X54600D01*
X52350Y599000D02*X55350Y602000D01*
X59400Y603500D02*X60150Y602750D01*
X57900Y603500D02*X59400D01*
X57150Y602750D02*X57900Y603500D01*
X57150Y602750D02*Y598250D01*
X57900Y597500D01*
X59400Y600800D02*X60150Y600050D01*
X57150Y600800D02*X59400D01*
X57900Y597500D02*X59400D01*
X60150Y598250D01*
Y600050D02*Y598250D01*
X61950D02*X62700Y597500D01*
X61950Y602750D02*Y598250D01*
Y602750D02*X62700Y603500D01*
X64200D01*
X64950Y602750D01*
Y598250D01*
X64200Y597500D02*X64950Y598250D01*
X62700Y597500D02*X64200D01*
X61950Y599000D02*X64950Y602000D01*
X206800Y428200D02*X209200Y425800D01*
X206800D02*X209200Y428200D01*
X206800Y418200D02*X209200Y415800D01*
X206800D02*X209200Y418200D01*
X206800Y274200D02*X209200Y271800D01*
X206800D02*X209200Y274200D01*
X206800Y264200D02*X209200Y261800D01*
X206800D02*X209200Y264200D01*
X164800Y179200D02*X167200Y176800D01*
X164800D02*X167200Y179200D01*
X164800Y189200D02*X167200Y186800D01*
X164800D02*X167200Y189200D01*
X51800Y274200D02*X54200Y271800D01*
X51800D02*X54200Y274200D01*
X51800Y264200D02*X54200Y261800D01*
X51800D02*X54200Y264200D01*
X51800Y428200D02*X54200Y425800D01*
X51800D02*X54200Y428200D01*
X51800Y418200D02*X54200Y415800D01*
X51800D02*X54200Y418200D01*
X13800Y617450D02*X16200Y615050D01*
X13800D02*X16200Y617450D01*
X135000Y618500D02*X136500Y615500D01*
X138000Y618500D01*
X136500Y615500D02*Y612500D01*
X139800Y615800D02*X142050D01*
X139800Y612500D02*X142800D01*
X139800Y618500D02*Y612500D01*
Y618500D02*X142800D01*
X147600D02*X148350Y617750D01*
X145350Y618500D02*X147600D01*
X144600Y617750D02*X145350Y618500D01*
X144600Y617750D02*Y616250D01*
X145350Y615500D01*
X147600D01*
X148350Y614750D01*
Y613250D01*
X147600Y612500D02*X148350Y613250D01*
X145350Y612500D02*X147600D01*
X144600Y613250D02*X145350Y612500D01*
X98000Y617300D02*X99200Y618500D01*
Y612500D01*
X98000D02*X100250D01*
X102050Y613250D02*X102800Y612500D01*
X102050Y617750D02*Y613250D01*
Y617750D02*X102800Y618500D01*
X104300D01*
X105050Y617750D01*
Y613250D01*
X104300Y612500D02*X105050Y613250D01*
X102800Y612500D02*X104300D01*
X102050Y614000D02*X105050Y617000D01*
X45000Y613250D02*X45750Y612500D01*
X45000Y617750D02*Y613250D01*
Y617750D02*X45750Y618500D01*
X47250D01*
X48000Y617750D01*
Y613250D01*
X47250Y612500D02*X48000Y613250D01*
X45750Y612500D02*X47250D01*
X45000Y614000D02*X48000Y617000D01*
X49800Y612500D02*X50550D01*
X52350Y613250D02*X53100Y612500D01*
X52350Y617750D02*Y613250D01*
Y617750D02*X53100Y618500D01*
X54600D01*
X55350Y617750D01*
Y613250D01*
X54600Y612500D02*X55350Y613250D01*
X53100Y612500D02*X54600D01*
X52350Y614000D02*X55350Y617000D01*
X57150Y614750D02*X60150Y618500D01*
X57150Y614750D02*X60900D01*
X60150Y618500D02*Y612500D01*
X62700Y617750D02*X63450Y618500D01*
X64950D01*
X65700Y617750D01*
X64950Y612500D02*X65700Y613250D01*
X63450Y612500D02*X64950D01*
X62700Y613250D02*X63450Y612500D01*
Y615800D02*X64950D01*
X65700Y617750D02*Y616550D01*
Y615050D02*Y613250D01*
Y615050D02*X64950Y615800D01*
X65700Y616550D02*X64950Y615800D01*
X57000Y211600D02*Y208400D01*
X55400Y210000D02*X58600D01*
X47000Y211600D02*Y208400D01*
X45400Y210000D02*X48600D01*
X80000Y14600D02*Y11400D01*
X78400Y13000D02*X81600D01*
X90000Y14600D02*Y11400D01*
X88400Y13000D02*X91600D01*
X104000Y72600D02*Y69400D01*
X102400Y71000D02*X105600D01*
X104000Y82600D02*Y79400D01*
X102400Y81000D02*X105600D01*
X166000Y495600D02*Y492400D01*
X164400Y494000D02*X167600D01*
X166000Y525600D02*Y522400D01*
X164400Y524000D02*X167600D01*
X85000Y495600D02*Y492400D01*
X83400Y494000D02*X86600D01*
X85000Y525600D02*Y522400D01*
X83400Y524000D02*X86600D01*
X161000Y102600D02*Y99400D01*
X159400Y101000D02*X162600D01*
X191000Y102600D02*Y99400D01*
X189400Y101000D02*X192600D01*
X161000Y112600D02*Y109400D01*
X159400Y111000D02*X162600D01*
X191000Y112600D02*Y109400D01*
X189400Y111000D02*X192600D01*
X139000Y40600D02*Y37400D01*
X137400Y39000D02*X140600D01*
X139000Y70600D02*Y67400D01*
X137400Y69000D02*X140600D01*
X53000Y327600D02*Y324400D01*
X51400Y326000D02*X54600D01*
X83000Y327600D02*Y324400D01*
X81400Y326000D02*X84600D01*
X208000Y327600D02*Y324400D01*
X206400Y326000D02*X209600D01*
X178000Y327600D02*Y324400D01*
X176400Y326000D02*X179600D01*
X93000Y144600D02*Y141400D01*
X91400Y143000D02*X94600D01*
X93000Y174600D02*Y171400D01*
X91400Y173000D02*X94600D01*
X30000Y56600D02*Y53400D01*
X28400Y55000D02*X31600D01*
X60000Y56600D02*Y53400D01*
X58400Y55000D02*X61600D01*
X20000Y42600D02*Y39400D01*
X18400Y41000D02*X21600D01*
X50000Y42600D02*Y39400D01*
X48400Y41000D02*X51600D01*
X10000Y27600D02*Y24400D01*
X8400Y26000D02*X11600D01*
X40000Y27600D02*Y24400D01*
X38400Y26000D02*X41600D01*
X128000Y40600D02*Y37400D01*
X126400Y39000D02*X129600D01*
X128000Y70600D02*Y67400D01*
X126400Y69000D02*X129600D01*
X15000Y632850D02*Y629650D01*
X13400Y631250D02*X16600D01*
X135000Y633500D02*X136500Y630500D01*
X138000Y633500D01*
X136500Y630500D02*Y627500D01*
X139800Y630800D02*X142050D01*
X139800Y627500D02*X142800D01*
X139800Y633500D02*Y627500D01*
Y633500D02*X142800D01*
X147600D02*X148350Y632750D01*
X145350Y633500D02*X147600D01*
X144600Y632750D02*X145350Y633500D01*
X144600Y632750D02*Y631250D01*
X145350Y630500D01*
X147600D01*
X148350Y629750D01*
Y628250D01*
X147600Y627500D02*X148350Y628250D01*
X145350Y627500D02*X147600D01*
X144600Y628250D02*X145350Y627500D01*
X98000Y632750D02*X98750Y633500D01*
X100250D01*
X101000Y632750D01*
X100250Y627500D02*X101000Y628250D01*
X98750Y627500D02*X100250D01*
X98000Y628250D02*X98750Y627500D01*
Y630800D02*X100250D01*
X101000Y632750D02*Y631550D01*
Y630050D02*Y628250D01*
Y630050D02*X100250Y630800D01*
X101000Y631550D02*X100250Y630800D01*
X102800Y628250D02*X103550Y627500D01*
X102800Y632750D02*Y628250D01*
Y632750D02*X103550Y633500D01*
X105050D01*
X105800Y632750D01*
Y628250D01*
X105050Y627500D02*X105800Y628250D01*
X103550Y627500D02*X105050D01*
X102800Y629000D02*X105800Y632000D01*
X45000Y628250D02*X45750Y627500D01*
X45000Y632750D02*Y628250D01*
Y632750D02*X45750Y633500D01*
X47250D01*
X48000Y632750D01*
Y628250D01*
X47250Y627500D02*X48000Y628250D01*
X45750Y627500D02*X47250D01*
X45000Y629000D02*X48000Y632000D01*
X49800Y627500D02*X50550D01*
X52350Y628250D02*X53100Y627500D01*
X52350Y632750D02*Y628250D01*
Y632750D02*X53100Y633500D01*
X54600D01*
X55350Y632750D01*
Y628250D01*
X54600Y627500D02*X55350Y628250D01*
X53100Y627500D02*X54600D01*
X52350Y629000D02*X55350Y632000D01*
X57150Y632750D02*X57900Y633500D01*
X59400D01*
X60150Y632750D01*
X59400Y627500D02*X60150Y628250D01*
X57900Y627500D02*X59400D01*
X57150Y628250D02*X57900Y627500D01*
Y630800D02*X59400D01*
X60150Y632750D02*Y631550D01*
Y630050D02*Y628250D01*
Y630050D02*X59400Y630800D01*
X60150Y631550D02*X59400Y630800D01*
X61950Y628250D02*X62700Y627500D01*
X61950Y632750D02*Y628250D01*
Y632750D02*X62700Y633500D01*
X64200D01*
X64950Y632750D01*
Y628250D01*
X64200Y627500D02*X64950Y628250D01*
X62700Y627500D02*X64200D01*
X61950Y629000D02*X64950Y632000D01*
X148000Y81000D02*Y79400D01*
Y81000D02*X149387Y81800D01*
X148000Y81000D02*X146613Y81800D01*
X148000Y91000D02*Y89400D01*
Y91000D02*X149387Y91800D01*
X148000Y91000D02*X146613Y91800D01*
X148000Y101000D02*Y99400D01*
Y101000D02*X149387Y101800D01*
X148000Y101000D02*X146613Y101800D01*
X148000Y111000D02*Y109400D01*
Y111000D02*X149387Y111800D01*
X148000Y111000D02*X146613Y111800D01*
X118000Y111000D02*Y109400D01*
Y111000D02*X119387Y111800D01*
X118000Y111000D02*X116613Y111800D01*
X118000Y101000D02*Y99400D01*
Y101000D02*X119387Y101800D01*
X118000Y101000D02*X116613Y101800D01*
X118000Y91000D02*Y89400D01*
Y91000D02*X119387Y91800D01*
X118000Y91000D02*X116613Y91800D01*
X118000Y81000D02*Y79400D01*
Y81000D02*X119387Y81800D01*
X118000Y81000D02*X116613Y81800D01*
X27000Y197000D02*Y195400D01*
Y197000D02*X28387Y197800D01*
X27000Y197000D02*X25613Y197800D01*
X27000Y187000D02*Y185400D01*
Y187000D02*X28387Y187800D01*
X27000Y187000D02*X25613Y187800D01*
X27000Y177000D02*Y175400D01*
Y177000D02*X28387Y177800D01*
X27000Y177000D02*X25613Y177800D01*
X27000Y167000D02*Y165400D01*
Y167000D02*X28387Y167800D01*
X27000Y167000D02*X25613Y167800D01*
X27000Y157000D02*Y155400D01*
Y157000D02*X28387Y157800D01*
X27000Y157000D02*X25613Y157800D01*
X27000Y147000D02*Y145400D01*
Y147000D02*X28387Y147800D01*
X27000Y147000D02*X25613Y147800D01*
X27000Y137000D02*Y135400D01*
Y137000D02*X28387Y137800D01*
X27000Y137000D02*X25613Y137800D01*
X57000Y137000D02*Y135400D01*
Y137000D02*X58387Y137800D01*
X57000Y137000D02*X55613Y137800D01*
X57000Y147000D02*Y145400D01*
Y147000D02*X58387Y147800D01*
X57000Y147000D02*X55613Y147800D01*
X57000Y157000D02*Y155400D01*
Y157000D02*X58387Y157800D01*
X57000Y157000D02*X55613Y157800D01*
X57000Y167000D02*Y165400D01*
Y167000D02*X58387Y167800D01*
X57000Y167000D02*X55613Y167800D01*
X57000Y177000D02*Y175400D01*
Y177000D02*X58387Y177800D01*
X57000Y177000D02*X55613Y177800D01*
X57000Y187000D02*Y185400D01*
Y187000D02*X58387Y187800D01*
X57000Y187000D02*X55613Y187800D01*
X57000Y197000D02*Y195400D01*
Y197000D02*X58387Y197800D01*
X57000Y197000D02*X55613Y197800D01*
X110000Y25000D02*Y23400D01*
Y25000D02*X111387Y25800D01*
X110000Y25000D02*X108613Y25800D01*
X110000Y35000D02*Y33400D01*
Y35000D02*X111387Y35800D01*
X110000Y35000D02*X108613Y35800D01*
X110000Y45000D02*Y43400D01*
Y45000D02*X111387Y45800D01*
X110000Y45000D02*X108613Y45800D01*
X110000Y55000D02*Y53400D01*
Y55000D02*X111387Y55800D01*
X110000Y55000D02*X108613Y55800D01*
X80000Y55000D02*Y53400D01*
Y55000D02*X81387Y55800D01*
X80000Y55000D02*X78613Y55800D01*
X80000Y45000D02*Y43400D01*
Y45000D02*X81387Y45800D01*
X80000Y45000D02*X78613Y45800D01*
X80000Y35000D02*Y33400D01*
Y35000D02*X81387Y35800D01*
X80000Y35000D02*X78613Y35800D01*
X80000Y25000D02*Y23400D01*
Y25000D02*X81387Y25800D01*
X80000Y25000D02*X78613Y25800D01*
X15000Y646250D02*Y644650D01*
Y646250D02*X16387Y647050D01*
X15000Y646250D02*X13613Y647050D01*
X135000Y648500D02*X136500Y645500D01*
X138000Y648500D01*
X136500Y645500D02*Y642500D01*
X139800Y645800D02*X142050D01*
X139800Y642500D02*X142800D01*
X139800Y648500D02*Y642500D01*
Y648500D02*X142800D01*
X147600D02*X148350Y647750D01*
X145350Y648500D02*X147600D01*
X144600Y647750D02*X145350Y648500D01*
X144600Y647750D02*Y646250D01*
X145350Y645500D01*
X147600D01*
X148350Y644750D01*
Y643250D01*
X147600Y642500D02*X148350Y643250D01*
X145350Y642500D02*X147600D01*
X144600Y643250D02*X145350Y642500D01*
X98000Y647750D02*X98750Y648500D01*
X100250D01*
X101000Y647750D01*
X100250Y642500D02*X101000Y643250D01*
X98750Y642500D02*X100250D01*
X98000Y643250D02*X98750Y642500D01*
Y645800D02*X100250D01*
X101000Y647750D02*Y646550D01*
Y645050D02*Y643250D01*
Y645050D02*X100250Y645800D01*
X101000Y646550D02*X100250Y645800D01*
X102800Y643250D02*X103550Y642500D01*
X102800Y647750D02*Y643250D01*
Y647750D02*X103550Y648500D01*
X105050D01*
X105800Y647750D01*
Y643250D01*
X105050Y642500D02*X105800Y643250D01*
X103550Y642500D02*X105050D01*
X102800Y644000D02*X105800Y647000D01*
X45000Y643250D02*X45750Y642500D01*
X45000Y647750D02*Y643250D01*
Y647750D02*X45750Y648500D01*
X47250D01*
X48000Y647750D01*
Y643250D01*
X47250Y642500D02*X48000Y643250D01*
X45750Y642500D02*X47250D01*
X45000Y644000D02*X48000Y647000D01*
X49800Y642500D02*X50550D01*
X52350Y643250D02*X53100Y642500D01*
X52350Y647750D02*Y643250D01*
Y647750D02*X53100Y648500D01*
X54600D01*
X55350Y647750D01*
Y643250D01*
X54600Y642500D02*X55350Y643250D01*
X53100Y642500D02*X54600D01*
X52350Y644000D02*X55350Y647000D01*
X57150Y647750D02*X57900Y648500D01*
X60150D01*
X60900Y647750D01*
Y646250D01*
X57150Y642500D02*X60900Y646250D01*
X57150Y642500D02*X60900D01*
X62700Y643250D02*X63450Y642500D01*
X62700Y644450D02*Y643250D01*
Y644450D02*X63750Y645500D01*
X64650D01*
X65700Y644450D01*
Y643250D01*
X64950Y642500D02*X65700Y643250D01*
X63450Y642500D02*X64950D01*
X62700Y646550D02*X63750Y645500D01*
X62700Y647750D02*Y646550D01*
Y647750D02*X63450Y648500D01*
X64950D01*
X65700Y647750D01*
Y646550D01*
X64650Y645500D02*X65700Y646550D01*
X3000Y663500D02*X3750Y662750D01*
X750Y663500D02*X3000D01*
X0Y662750D02*X750Y663500D01*
X0Y662750D02*Y661250D01*
X750Y660500D01*
X3000D01*
X3750Y659750D01*
Y658250D01*
X3000Y657500D02*X3750Y658250D01*
X750Y657500D02*X3000D01*
X0Y658250D02*X750Y657500D01*
X5550Y660500D02*Y658250D01*
X6300Y657500D01*
X8550Y660500D02*Y656000D01*
X7800Y655250D02*X8550Y656000D01*
X6300Y655250D02*X7800D01*
X5550Y656000D02*X6300Y655250D01*
Y657500D02*X7800D01*
X8550Y658250D01*
X11100Y659750D02*Y657500D01*
Y659750D02*X11850Y660500D01*
X12600D01*
X13350Y659750D01*
Y657500D01*
Y659750D02*X14100Y660500D01*
X14850D01*
X15600Y659750D01*
Y657500D01*
X10350Y660500D02*X11100Y659750D01*
X17400Y663500D02*Y657500D01*
Y658250D02*X18150Y657500D01*
X19650D01*
X20400Y658250D01*
Y659750D02*Y658250D01*
X19650Y660500D02*X20400Y659750D01*
X18150Y660500D02*X19650D01*
X17400Y659750D02*X18150Y660500D01*
X22200Y659750D02*Y658250D01*
Y659750D02*X22950Y660500D01*
X24450D01*
X25200Y659750D01*
Y658250D01*
X24450Y657500D02*X25200Y658250D01*
X22950Y657500D02*X24450D01*
X22200Y658250D02*X22950Y657500D01*
X27000Y663500D02*Y658250D01*
X27750Y657500D01*
X0Y654250D02*X29250D01*
X41750Y663500D02*Y657500D01*
X43700Y663500D02*X44750Y662450D01*
Y658550D01*
X43700Y657500D02*X44750Y658550D01*
X41000Y657500D02*X43700D01*
X41000Y663500D02*X43700D01*
G54D66*X46550Y662000D02*Y661850D01*
G54D65*Y659750D02*Y657500D01*
X50300Y660500D02*X51050Y659750D01*
X48800Y660500D02*X50300D01*
X48050Y659750D02*X48800Y660500D01*
X48050Y659750D02*Y658250D01*
X48800Y657500D01*
X51050Y660500D02*Y658250D01*
X51800Y657500D01*
X48800D02*X50300D01*
X51050Y658250D01*
X54350Y659750D02*Y657500D01*
Y659750D02*X55100Y660500D01*
X55850D01*
X56600Y659750D01*
Y657500D01*
Y659750D02*X57350Y660500D01*
X58100D01*
X58850Y659750D01*
Y657500D01*
X53600Y660500D02*X54350Y659750D01*
X60650Y657500D02*X61400D01*
X65900Y658250D02*X66650Y657500D01*
X65900Y662750D02*X66650Y663500D01*
X65900Y662750D02*Y658250D01*
X68450Y663500D02*X69950D01*
X69200D02*Y657500D01*
X68450D02*X69950D01*
X72500Y659750D02*Y657500D01*
Y659750D02*X73250Y660500D01*
X74000D01*
X74750Y659750D01*
Y657500D01*
X71750Y660500D02*X72500Y659750D01*
X77300Y660500D02*X79550D01*
X76550Y659750D02*X77300Y660500D01*
X76550Y659750D02*Y658250D01*
X77300Y657500D01*
X79550D01*
X81350Y663500D02*Y657500D01*
Y659750D02*X82100Y660500D01*
X83600D01*
X84350Y659750D01*
Y657500D01*
X86150Y663500D02*X86900Y662750D01*
Y658250D01*
X86150Y657500D02*X86900Y658250D01*
X41000Y654250D02*X88700D01*
X96050Y657500D02*X98000D01*
X95000Y658550D02*X96050Y657500D01*
X95000Y662450D02*Y658550D01*
Y662450D02*X96050Y663500D01*
X98000D01*
X99800Y659750D02*Y658250D01*
Y659750D02*X100550Y660500D01*
X102050D01*
X102800Y659750D01*
Y658250D01*
X102050Y657500D02*X102800Y658250D01*
X100550Y657500D02*X102050D01*
X99800Y658250D02*X100550Y657500D01*
X104600Y660500D02*Y658250D01*
X105350Y657500D01*
X106850D01*
X107600Y658250D01*
Y660500D02*Y658250D01*
X110150Y659750D02*Y657500D01*
Y659750D02*X110900Y660500D01*
X111650D01*
X112400Y659750D01*
Y657500D01*
X109400Y660500D02*X110150Y659750D01*
X114950Y663500D02*Y658250D01*
X115700Y657500D01*
X114200Y661250D02*X115700D01*
X95000Y654250D02*X117200D01*
X130750Y663500D02*Y657500D01*
X130000Y663500D02*X133000D01*
X133750Y662750D01*
Y661250D01*
X133000Y660500D02*X133750Y661250D01*
X130750Y660500D02*X133000D01*
X135550Y663500D02*Y658250D01*
X136300Y657500D01*
X140050Y660500D02*X140800Y659750D01*
X138550Y660500D02*X140050D01*
X137800Y659750D02*X138550Y660500D01*
X137800Y659750D02*Y658250D01*
X138550Y657500D01*
X140800Y660500D02*Y658250D01*
X141550Y657500D01*
X138550D02*X140050D01*
X140800Y658250D01*
X144100Y663500D02*Y658250D01*
X144850Y657500D01*
X143350Y661250D02*X144850D01*
X147100Y657500D02*X149350D01*
X146350Y658250D02*X147100Y657500D01*
X146350Y659750D02*Y658250D01*
Y659750D02*X147100Y660500D01*
X148600D01*
X149350Y659750D01*
X146350Y659000D02*X149350D01*
Y659750D02*Y659000D01*
X154150Y663500D02*Y657500D01*
X153400D02*X154150Y658250D01*
X151900Y657500D02*X153400D01*
X151150Y658250D02*X151900Y657500D01*
X151150Y659750D02*Y658250D01*
Y659750D02*X151900Y660500D01*
X153400D01*
X154150Y659750D01*
X157450Y660500D02*Y659750D01*
Y658250D02*Y657500D01*
X155950Y662750D02*Y662000D01*
Y662750D02*X156700Y663500D01*
X158200D01*
X158950Y662750D01*
Y662000D01*
X157450Y660500D02*X158950Y662000D01*
X130000Y654250D02*X160750D01*
X0Y678500D02*X3000D01*
X1500D02*Y672500D01*
X4800Y678500D02*Y672500D01*
Y674750D02*X5550Y675500D01*
X7050D01*
X7800Y674750D01*
Y672500D01*
X10350D02*X12600D01*
X9600Y673250D02*X10350Y672500D01*
X9600Y674750D02*Y673250D01*
Y674750D02*X10350Y675500D01*
X11850D01*
X12600Y674750D01*
X9600Y674000D02*X12600D01*
Y674750D02*Y674000D01*
X15150Y674750D02*Y672500D01*
Y674750D02*X15900Y675500D01*
X17400D01*
X14400D02*X15150Y674750D01*
X19950Y672500D02*X22200D01*
X19200Y673250D02*X19950Y672500D01*
X19200Y674750D02*Y673250D01*
Y674750D02*X19950Y675500D01*
X21450D01*
X22200Y674750D01*
X19200Y674000D02*X22200D01*
Y674750D02*Y674000D01*
X28950Y675500D02*X29700Y674750D01*
X27450Y675500D02*X28950D01*
X26700Y674750D02*X27450Y675500D01*
X26700Y674750D02*Y673250D01*
X27450Y672500D01*
X29700Y675500D02*Y673250D01*
X30450Y672500D01*
X27450D02*X28950D01*
X29700Y673250D01*
X33000Y674750D02*Y672500D01*
Y674750D02*X33750Y675500D01*
X35250D01*
X32250D02*X33000Y674750D01*
X37800Y672500D02*X40050D01*
X37050Y673250D02*X37800Y672500D01*
X37050Y674750D02*Y673250D01*
Y674750D02*X37800Y675500D01*
X39300D01*
X40050Y674750D01*
X37050Y674000D02*X40050D01*
Y674750D02*Y674000D01*
X46800Y678500D02*X47550Y677750D01*
X45300Y678500D02*X46800D01*
X44550Y677750D02*X45300Y678500D01*
X44550Y677750D02*Y673250D01*
X45300Y672500D01*
X46800Y675800D02*X47550Y675050D01*
X44550Y675800D02*X46800D01*
X45300Y672500D02*X46800D01*
X47550Y673250D01*
Y675050D02*Y673250D01*
X55050Y678500D02*Y672500D01*
X54300D02*X55050Y673250D01*
X52800Y672500D02*X54300D01*
X52050Y673250D02*X52800Y672500D01*
X52050Y674750D02*Y673250D01*
Y674750D02*X52800Y675500D01*
X54300D01*
X55050Y674750D01*
G54D66*X56850Y677000D02*Y676850D01*
G54D65*Y674750D02*Y672500D01*
X59100Y677750D02*Y672500D01*
Y677750D02*X59850Y678500D01*
X60600D01*
X58350Y675500D02*X59850D01*
X62850Y677750D02*Y672500D01*
Y677750D02*X63600Y678500D01*
X64350D01*
X62100Y675500D02*X63600D01*
X66600Y672500D02*X68850D01*
X65850Y673250D02*X66600Y672500D01*
X65850Y674750D02*Y673250D01*
Y674750D02*X66600Y675500D01*
X68100D01*
X68850Y674750D01*
X65850Y674000D02*X68850D01*
Y674750D02*Y674000D01*
X71400Y674750D02*Y672500D01*
Y674750D02*X72150Y675500D01*
X73650D01*
X70650D02*X71400Y674750D01*
X76200Y672500D02*X78450D01*
X75450Y673250D02*X76200Y672500D01*
X75450Y674750D02*Y673250D01*
Y674750D02*X76200Y675500D01*
X77700D01*
X78450Y674750D01*
X75450Y674000D02*X78450D01*
Y674750D02*Y674000D01*
X81000Y674750D02*Y672500D01*
Y674750D02*X81750Y675500D01*
X82500D01*
X83250Y674750D01*
Y672500D01*
X80250Y675500D02*X81000Y674750D01*
X85800Y678500D02*Y673250D01*
X86550Y672500D01*
X85050Y676250D02*X86550D01*
X93750Y678500D02*Y672500D01*
X93000D02*X93750Y673250D01*
X91500Y672500D02*X93000D01*
X90750Y673250D02*X91500Y672500D01*
X90750Y674750D02*Y673250D01*
Y674750D02*X91500Y675500D01*
X93000D01*
X93750Y674750D01*
X96300D02*Y672500D01*
Y674750D02*X97050Y675500D01*
X98550D01*
X95550D02*X96300Y674750D01*
G54D66*X100350Y677000D02*Y676850D01*
G54D65*Y674750D02*Y672500D01*
X101850Y678500D02*Y673250D01*
X102600Y672500D01*
X104100Y678500D02*Y673250D01*
X104850Y672500D01*
X109800D02*X112050D01*
X112800Y673250D01*
X112050Y674000D02*X112800Y673250D01*
X109800Y674000D02*X112050D01*
X109050Y674750D02*X109800Y674000D01*
X109050Y674750D02*X109800Y675500D01*
X112050D01*
X112800Y674750D01*
X109050Y673250D02*X109800Y672500D01*
G54D66*X114600Y677000D02*Y676850D01*
G54D65*Y674750D02*Y672500D01*
X116100Y675500D02*X119100D01*
X116100Y672500D02*X119100Y675500D01*
X116100Y672500D02*X119100D01*
X121650D02*X123900D01*
X120900Y673250D02*X121650Y672500D01*
X120900Y674750D02*Y673250D01*
Y674750D02*X121650Y675500D01*
X123150D01*
X123900Y674750D01*
X120900Y674000D02*X123900D01*
Y674750D02*Y674000D01*
X126450Y672500D02*X128700D01*
X129450Y673250D01*
X128700Y674000D02*X129450Y673250D01*
X126450Y674000D02*X128700D01*
X125700Y674750D02*X126450Y674000D01*
X125700Y674750D02*X126450Y675500D01*
X128700D01*
X129450Y674750D01*
X125700Y673250D02*X126450Y672500D01*
X133950Y675500D02*Y673250D01*
X134700Y672500D01*
X136200D01*
X136950Y673250D01*
Y675500D02*Y673250D01*
X139500Y672500D02*X141750D01*
X142500Y673250D01*
X141750Y674000D02*X142500Y673250D01*
X139500Y674000D02*X141750D01*
X138750Y674750D02*X139500Y674000D01*
X138750Y674750D02*X139500Y675500D01*
X141750D01*
X142500Y674750D01*
X138750Y673250D02*X139500Y672500D01*
X145050D02*X147300D01*
X144300Y673250D02*X145050Y672500D01*
X144300Y674750D02*Y673250D01*
Y674750D02*X145050Y675500D01*
X146550D01*
X147300Y674750D01*
X144300Y674000D02*X147300D01*
Y674750D02*Y674000D01*
X152100Y678500D02*Y672500D01*
X151350D02*X152100Y673250D01*
X149850Y672500D02*X151350D01*
X149100Y673250D02*X149850Y672500D01*
X149100Y674750D02*Y673250D01*
Y674750D02*X149850Y675500D01*
X151350D01*
X152100Y674750D01*
G54D66*X156600Y677000D02*Y676850D01*
G54D65*Y674750D02*Y672500D01*
X158850Y674750D02*Y672500D01*
Y674750D02*X159600Y675500D01*
X160350D01*
X161100Y674750D01*
Y672500D01*
X158100Y675500D02*X158850Y674750D01*
X166350Y678500D02*Y673250D01*
X167100Y672500D01*
X165600Y676250D02*X167100D01*
X168600Y678500D02*Y672500D01*
Y674750D02*X169350Y675500D01*
X170850D01*
X171600Y674750D01*
Y672500D01*
G54D66*X173400Y677000D02*Y676850D01*
G54D65*Y674750D02*Y672500D01*
X175650D02*X177900D01*
X178650Y673250D01*
X177900Y674000D02*X178650Y673250D01*
X175650Y674000D02*X177900D01*
X174900Y674750D02*X175650Y674000D01*
X174900Y674750D02*X175650Y675500D01*
X177900D01*
X178650Y674750D01*
X174900Y673250D02*X175650Y672500D01*
X183150Y678500D02*Y673250D01*
X183900Y672500D01*
X187650Y675500D02*X188400Y674750D01*
X186150Y675500D02*X187650D01*
X185400Y674750D02*X186150Y675500D01*
X185400Y674750D02*Y673250D01*
X186150Y672500D01*
X188400Y675500D02*Y673250D01*
X189150Y672500D01*
X186150D02*X187650D01*
X188400Y673250D01*
X190950Y675500D02*Y673250D01*
X191700Y672500D01*
X193950Y675500D02*Y671000D01*
X193200Y670250D02*X193950Y671000D01*
X191700Y670250D02*X193200D01*
X190950Y671000D02*X191700Y670250D01*
Y672500D02*X193200D01*
X193950Y673250D01*
X195750Y674750D02*Y673250D01*
Y674750D02*X196500Y675500D01*
X198000D01*
X198750Y674750D01*
Y673250D01*
X198000Y672500D02*X198750Y673250D01*
X196500Y672500D02*X198000D01*
X195750Y673250D02*X196500Y672500D01*
X200550Y675500D02*Y673250D01*
X201300Y672500D01*
X202800D01*
X203550Y673250D01*
Y675500D02*Y673250D01*
X206100Y678500D02*Y673250D01*
X206850Y672500D01*
X205350Y676250D02*X206850D01*
X208350Y671000D02*X209850Y672500D01*
X214350Y677300D02*X215550Y678500D01*
Y672500D01*
X214350D02*X216600D01*
X218400Y673250D02*X219150Y672500D01*
X218400Y677750D02*Y673250D01*
Y677750D02*X219150Y678500D01*
X220650D01*
X221400Y677750D01*
Y673250D01*
X220650Y672500D02*X221400Y673250D01*
X219150Y672500D02*X220650D01*
X218400Y674000D02*X221400Y677000D01*
X223200Y677750D02*X223950Y678500D01*
X225450D01*
X226200Y677750D01*
X225450Y672500D02*X226200Y673250D01*
X223950Y672500D02*X225450D01*
X223200Y673250D02*X223950Y672500D01*
Y675800D02*X225450D01*
X226200Y677750D02*Y676550D01*
Y675050D02*Y673250D01*
Y675050D02*X225450Y675800D01*
X226200Y676550D02*X225450Y675800D01*
X230700Y678500D02*Y672500D01*
Y674750D02*X231450Y675500D01*
X232950D01*
X233700Y674750D01*
Y672500D01*
X235500Y674750D02*Y673250D01*
Y674750D02*X236250Y675500D01*
X237750D01*
X238500Y674750D01*
Y673250D01*
X237750Y672500D02*X238500Y673250D01*
X236250Y672500D02*X237750D01*
X235500Y673250D02*X236250Y672500D01*
X240300Y678500D02*Y673250D01*
X241050Y672500D01*
X243300D02*X245550D01*
X242550Y673250D02*X243300Y672500D01*
X242550Y674750D02*Y673250D01*
Y674750D02*X243300Y675500D01*
X244800D01*
X245550Y674750D01*
X242550Y674000D02*X245550D01*
Y674750D02*Y674000D01*
X248100Y672500D02*X250350D01*
X251100Y673250D01*
X250350Y674000D02*X251100Y673250D01*
X248100Y674000D02*X250350D01*
X247350Y674750D02*X248100Y674000D01*
X247350Y674750D02*X248100Y675500D01*
X250350D01*
X251100Y674750D01*
X247350Y673250D02*X248100Y672500D01*
X256350Y678500D02*Y673250D01*
X257100Y672500D01*
X255600Y676250D02*X257100D01*
X258600Y674750D02*Y673250D01*
Y674750D02*X259350Y675500D01*
X260850D01*
X261600Y674750D01*
Y673250D01*
X260850Y672500D02*X261600Y673250D01*
X259350Y672500D02*X260850D01*
X258600Y673250D02*X259350Y672500D01*
X264150Y678500D02*Y673250D01*
X264900Y672500D01*
X263400Y676250D02*X264900D01*
X268650Y675500D02*X269400Y674750D01*
X267150Y675500D02*X268650D01*
X266400Y674750D02*X267150Y675500D01*
X266400Y674750D02*Y673250D01*
X267150Y672500D01*
X269400Y675500D02*Y673250D01*
X270150Y672500D01*
X267150D02*X268650D01*
X269400Y673250D01*
X271950Y678500D02*Y673250D01*
X272700Y672500D01*
G54D67*X8000Y543000D02*X154000D01*
X166000Y531000D01*
X232000D01*
Y486000D01*
X227000Y481000D01*
Y214000D01*
X267000Y174000D01*
Y72000D01*
X254000Y59000D01*
X169000D01*
X113000Y3000D01*
X80000D01*
X68000Y15000D01*
X12000D01*
X4000Y23000D01*
Y194000D01*
X31000Y221000D01*
Y451000D01*
X8000Y474000D01*
Y543000D01*
G54D65*X48675Y-9500D02*X51675D01*
X52425Y-8750D01*
Y-6950D02*Y-8750D01*
X51675Y-6200D02*X52425Y-6950D01*
X49425Y-6200D02*X51675D01*
X49425Y-3500D02*Y-9500D01*
X48675Y-3500D02*X51675D01*
X52425Y-4250D01*
Y-5450D01*
X51675Y-6200D02*X52425Y-5450D01*
X54225Y-7250D02*Y-8750D01*
Y-7250D02*X54975Y-6500D01*
X56475D01*
X57225Y-7250D01*
Y-8750D01*
X56475Y-9500D02*X57225Y-8750D01*
X54975Y-9500D02*X56475D01*
X54225Y-8750D02*X54975Y-9500D01*
X61275Y-6500D02*X62025Y-7250D01*
X59775Y-6500D02*X61275D01*
X59025Y-7250D02*X59775Y-6500D01*
X59025Y-7250D02*Y-8750D01*
X59775Y-9500D01*
X62025Y-6500D02*Y-8750D01*
X62775Y-9500D01*
X59775D02*X61275D01*
X62025Y-8750D01*
X65325Y-7250D02*Y-9500D01*
Y-7250D02*X66075Y-6500D01*
X67575D01*
X64575D02*X65325Y-7250D01*
X72375Y-3500D02*Y-9500D01*
X71625D02*X72375Y-8750D01*
X70125Y-9500D02*X71625D01*
X69375Y-8750D02*X70125Y-9500D01*
X69375Y-7250D02*Y-8750D01*
Y-7250D02*X70125Y-6500D01*
X71625D01*
X72375Y-7250D01*
X76875D02*Y-8750D01*
Y-7250D02*X77625Y-6500D01*
X79125D01*
X79875Y-7250D01*
Y-8750D01*
X79125Y-9500D02*X79875Y-8750D01*
X77625Y-9500D02*X79125D01*
X76875Y-8750D02*X77625Y-9500D01*
X81675Y-6500D02*Y-8750D01*
X82425Y-9500D01*
X83925D01*
X84675Y-8750D01*
Y-6500D02*Y-8750D01*
X87225Y-3500D02*Y-8750D01*
X87975Y-9500D01*
X86475Y-5750D02*X87975D01*
X89475Y-3500D02*Y-8750D01*
X90225Y-9500D01*
G54D66*X91725Y-5000D02*Y-5150D01*
G54D65*Y-7250D02*Y-9500D01*
X93975Y-7250D02*Y-9500D01*
Y-7250D02*X94725Y-6500D01*
X95475D01*
X96225Y-7250D01*
Y-9500D01*
X93225Y-6500D02*X93975Y-7250D01*
X98775Y-9500D02*X101025D01*
X98025Y-8750D02*X98775Y-9500D01*
X98025Y-7250D02*Y-8750D01*
Y-7250D02*X98775Y-6500D01*
X100275D01*
X101025Y-7250D01*
X98025Y-8000D02*X101025D01*
Y-7250D02*Y-8000D01*
G54D66*X105525Y-5000D02*Y-5150D01*
G54D65*Y-7250D02*Y-9500D01*
X107775D02*X110025D01*
X110775Y-8750D01*
X110025Y-8000D02*X110775Y-8750D01*
X107775Y-8000D02*X110025D01*
X107025Y-7250D02*X107775Y-8000D01*
X107025Y-7250D02*X107775Y-6500D01*
X110025D01*
X110775Y-7250D01*
X107025Y-8750D02*X107775Y-9500D01*
X116025Y-3500D02*Y-8750D01*
X116775Y-9500D01*
X115275Y-5750D02*X116775D01*
X118275Y-3500D02*Y-9500D01*
Y-7250D02*X119025Y-6500D01*
X120525D01*
X121275Y-7250D01*
Y-9500D01*
X123825D02*X126075D01*
X123075Y-8750D02*X123825Y-9500D01*
X123075Y-7250D02*Y-8750D01*
Y-7250D02*X123825Y-6500D01*
X125325D01*
X126075Y-7250D01*
X123075Y-8000D02*X126075D01*
Y-7250D02*Y-8000D01*
X131325Y-6500D02*X133575D01*
X130575Y-7250D02*X131325Y-6500D01*
X130575Y-7250D02*Y-8750D01*
X131325Y-9500D01*
X133575D01*
X136125D02*X138375D01*
X135375Y-8750D02*X136125Y-9500D01*
X135375Y-7250D02*Y-8750D01*
Y-7250D02*X136125Y-6500D01*
X137625D01*
X138375Y-7250D01*
X135375Y-8000D02*X138375D01*
Y-7250D02*Y-8000D01*
X140925Y-7250D02*Y-9500D01*
Y-7250D02*X141675Y-6500D01*
X142425D01*
X143175Y-7250D01*
Y-9500D01*
X140175Y-6500D02*X140925Y-7250D01*
X145725Y-3500D02*Y-8750D01*
X146475Y-9500D01*
X144975Y-5750D02*X146475D01*
X148725Y-9500D02*X150975D01*
X147975Y-8750D02*X148725Y-9500D01*
X147975Y-7250D02*Y-8750D01*
Y-7250D02*X148725Y-6500D01*
X150225D01*
X150975Y-7250D01*
X147975Y-8000D02*X150975D01*
Y-7250D02*Y-8000D01*
X153525Y-7250D02*Y-9500D01*
Y-7250D02*X154275Y-6500D01*
X155775D01*
X152775D02*X153525Y-7250D01*
X157575Y-3500D02*Y-8750D01*
X158325Y-9500D01*
G54D66*X159825Y-5000D02*Y-5150D01*
G54D65*Y-7250D02*Y-9500D01*
X162075Y-7250D02*Y-9500D01*
Y-7250D02*X162825Y-6500D01*
X163575D01*
X164325Y-7250D01*
Y-9500D01*
X161325Y-6500D02*X162075Y-7250D01*
X166875Y-9500D02*X169125D01*
X166125Y-8750D02*X166875Y-9500D01*
X166125Y-7250D02*Y-8750D01*
Y-7250D02*X166875Y-6500D01*
X168375D01*
X169125Y-7250D01*
X166125Y-8000D02*X169125D01*
Y-7250D02*Y-8000D01*
X173625Y-7250D02*Y-8750D01*
Y-7250D02*X174375Y-6500D01*
X175875D01*
X176625Y-7250D01*
Y-8750D01*
X175875Y-9500D02*X176625Y-8750D01*
X174375Y-9500D02*X175875D01*
X173625Y-8750D02*X174375Y-9500D01*
X179175Y-4250D02*Y-9500D01*
Y-4250D02*X179925Y-3500D01*
X180675D01*
X178425Y-6500D02*X179925D01*
X185625Y-3500D02*Y-8750D01*
X186375Y-9500D01*
X184875Y-5750D02*X186375D01*
X187875Y-3500D02*Y-9500D01*
Y-7250D02*X188625Y-6500D01*
X190125D01*
X190875Y-7250D01*
Y-9500D01*
G54D66*X192675Y-5000D02*Y-5150D01*
G54D65*Y-7250D02*Y-9500D01*
X194925D02*X197175D01*
X197925Y-8750D01*
X197175Y-8000D02*X197925Y-8750D01*
X194925Y-8000D02*X197175D01*
X194175Y-7250D02*X194925Y-8000D01*
X194175Y-7250D02*X194925Y-6500D01*
X197175D01*
X197925Y-7250D01*
X194175Y-8750D02*X194925Y-9500D01*
X203175Y-7250D02*Y-11750D01*
X202425Y-6500D02*X203175Y-7250D01*
X203925Y-6500D01*
X205425D01*
X206175Y-7250D01*
Y-8750D01*
X205425Y-9500D02*X206175Y-8750D01*
X203925Y-9500D02*X205425D01*
X203175Y-8750D02*X203925Y-9500D01*
X210225Y-6500D02*X210975Y-7250D01*
X208725Y-6500D02*X210225D01*
X207975Y-7250D02*X208725Y-6500D01*
X207975Y-7250D02*Y-8750D01*
X208725Y-9500D01*
X210975Y-6500D02*Y-8750D01*
X211725Y-9500D01*
X208725D02*X210225D01*
X210975Y-8750D01*
X214275Y-3500D02*Y-8750D01*
X215025Y-9500D01*
X213525Y-5750D02*X215025D01*
X216525Y-3500D02*Y-9500D01*
Y-7250D02*X217275Y-6500D01*
X218775D01*
X219525Y-7250D01*
Y-9500D01*
X200750Y588500D02*Y582500D01*
X202700Y588500D02*X203750Y587450D01*
Y583550D01*
X202700Y582500D02*X203750Y583550D01*
X200000Y582500D02*X202700D01*
X200000Y588500D02*X202700D01*
X207800Y585500D02*X208550Y584750D01*
X206300Y585500D02*X207800D01*
X205550Y584750D02*X206300Y585500D01*
X205550Y584750D02*Y583250D01*
X206300Y582500D01*
X208550Y585500D02*Y583250D01*
X209300Y582500D01*
X206300D02*X207800D01*
X208550Y583250D01*
X211850Y588500D02*Y583250D01*
X212600Y582500D01*
X211100Y586250D02*X212600D01*
X214850Y582500D02*X217100D01*
X214100Y583250D02*X214850Y582500D01*
X214100Y584750D02*Y583250D01*
Y584750D02*X214850Y585500D01*
X216350D01*
X217100Y584750D01*
X214100Y584000D02*X217100D01*
Y584750D02*Y584000D01*
X218900Y586250D02*X219650D01*
X218900Y584750D02*X219650D01*
X224150Y588500D02*X227150D01*
X225650D02*Y582500D01*
X228950Y588500D02*Y582500D01*
Y584750D02*X229700Y585500D01*
X231200D01*
X231950Y584750D01*
Y582500D01*
X233750Y585500D02*Y583250D01*
X234500Y582500D01*
X236000D01*
X236750Y583250D01*
Y585500D02*Y583250D01*
X241250D02*X242000Y582500D01*
X241250Y587750D02*Y583250D01*
Y587750D02*X242000Y588500D01*
X243500D01*
X244250Y587750D01*
Y583250D01*
X243500Y582500D02*X244250Y583250D01*
X242000Y582500D02*X243500D01*
X241250Y584000D02*X244250Y587000D01*
X246050Y584750D02*X249050Y588500D01*
X246050Y584750D02*X249800D01*
X249050Y588500D02*Y582500D01*
X255350Y588500D02*X256550D01*
Y583250D01*
X255800Y582500D02*X256550Y583250D01*
X255050Y582500D02*X255800D01*
X254300Y583250D02*X255050Y582500D01*
X254300Y584000D02*Y583250D01*
X258350Y585500D02*Y583250D01*
X259100Y582500D01*
X260600D01*
X261350Y583250D01*
Y585500D02*Y583250D01*
X263150Y588500D02*Y583250D01*
X263900Y582500D01*
X268100Y587750D02*X268850Y588500D01*
X271100D01*
X271850Y587750D01*
Y586250D01*
X268100Y582500D02*X271850Y586250D01*
X268100Y582500D02*X271850D01*
X273650Y583250D02*X274400Y582500D01*
X273650Y587750D02*Y583250D01*
Y587750D02*X274400Y588500D01*
X275900D01*
X276650Y587750D01*
Y583250D01*
X275900Y582500D02*X276650Y583250D01*
X274400Y582500D02*X275900D01*
X273650Y584000D02*X276650Y587000D01*
X278450Y587300D02*X279650Y588500D01*
Y582500D01*
X278450D02*X280700D01*
X282500Y587750D02*X283250Y588500D01*
X284750D01*
X285500Y587750D01*
X284750Y582500D02*X285500Y583250D01*
X283250Y582500D02*X284750D01*
X282500Y583250D02*X283250Y582500D01*
Y585800D02*X284750D01*
X285500Y587750D02*Y586550D01*
Y585050D02*Y583250D01*
Y585050D02*X284750Y585800D01*
X285500Y586550D02*X284750Y585800D01*
X290000Y583250D02*X290750Y582500D01*
X290000Y587750D02*Y583250D01*
Y587750D02*X290750Y588500D01*
X292250D01*
X293000Y587750D01*
Y583250D01*
X292250Y582500D02*X293000Y583250D01*
X290750Y582500D02*X292250D01*
X290000Y584000D02*X293000Y587000D01*
X294800Y587300D02*X296000Y588500D01*
Y582500D01*
X294800D02*X297050D01*
X298850Y586250D02*X299600D01*
X298850Y584750D02*X299600D01*
X301400Y587750D02*X302150Y588500D01*
X304400D01*
X305150Y587750D01*
Y586250D01*
X301400Y582500D02*X305150Y586250D01*
X301400Y582500D02*X305150D01*
X307700D02*X309950Y585500D01*
Y587750D02*Y585500D01*
X309200Y588500D02*X309950Y587750D01*
X307700Y588500D02*X309200D01*
X306950Y587750D02*X307700Y588500D01*
X306950Y587750D02*Y586250D01*
X307700Y585500D01*
X309950D01*
X311750Y586250D02*X312500D01*
X311750Y584750D02*X312500D01*
X314300D02*X317300Y588500D01*
X314300Y584750D02*X318050D01*
X317300Y588500D02*Y582500D01*
X319850Y587750D02*X320600Y588500D01*
X322850D01*
X323600Y587750D01*
Y586250D01*
X319850Y582500D02*X323600Y586250D01*
X319850Y582500D02*X323600D01*
X328100Y587000D02*Y582500D01*
Y587000D02*X329150Y588500D01*
X330800D01*
X331850Y587000D01*
Y582500D01*
X328100Y585500D02*X331850D01*
X333650Y588500D02*Y582500D01*
Y588500D02*X335900Y585500D01*
X338150Y588500D01*
Y582500D01*
X345650Y588500D02*X346400Y587750D01*
X343400Y588500D02*X345650D01*
X342650Y587750D02*X343400Y588500D01*
X342650Y587750D02*Y583250D01*
X343400Y582500D01*
X345650D01*
X346400Y583250D01*
Y584750D02*Y583250D01*
X345650Y585500D02*X346400Y584750D01*
X344150Y585500D02*X345650D01*
X348200Y588500D02*Y582500D01*
Y588500D02*X350450Y585500D01*
X352700Y588500D01*
Y582500D01*
X354500Y588500D02*X357500D01*
X356000D02*Y582500D01*
X362000Y588500D02*Y583250D01*
X362750Y582500D01*
X364250D01*
X365000Y583250D01*
Y588500D02*Y583250D01*
X366800Y588500D02*X369800D01*
X368300D02*Y582500D01*
X372650D02*X374600D01*
X371600Y583550D02*X372650Y582500D01*
X371600Y587450D02*Y583550D01*
Y587450D02*X372650Y588500D01*
X374600D01*
X200000Y602000D02*Y597500D01*
Y602000D02*X201050Y603500D01*
X202700D01*
X203750Y602000D01*
Y597500D01*
X200000Y600500D02*X203750D01*
X205550D02*Y598250D01*
X206300Y597500D01*
X207800D01*
X208550Y598250D01*
Y600500D02*Y598250D01*
X211100Y603500D02*Y598250D01*
X211850Y597500D01*
X210350Y601250D02*X211850D01*
X213350Y603500D02*Y597500D01*
Y599750D02*X214100Y600500D01*
X215600D01*
X216350Y599750D01*
Y597500D01*
X218150Y599750D02*Y598250D01*
Y599750D02*X218900Y600500D01*
X220400D01*
X221150Y599750D01*
Y598250D01*
X220400Y597500D02*X221150Y598250D01*
X218900Y597500D02*X220400D01*
X218150Y598250D02*X218900Y597500D01*
X223700Y599750D02*Y597500D01*
Y599750D02*X224450Y600500D01*
X225950D01*
X222950D02*X223700Y599750D01*
X227750Y601250D02*X228500D01*
X227750Y599750D02*X228500D01*
X233000Y603500D02*X236000D01*
X234500D02*Y597500D01*
X237800Y600500D02*Y598250D01*
X238550Y597500D01*
X240800Y600500D02*Y596000D01*
X240050Y595250D02*X240800Y596000D01*
X238550Y595250D02*X240050D01*
X237800Y596000D02*X238550Y595250D01*
Y597500D02*X240050D01*
X240800Y598250D01*
X243350Y599750D02*Y597500D01*
Y599750D02*X244100Y600500D01*
X245600D01*
X242600D02*X243350Y599750D01*
G54D66*X247400Y602000D02*Y601850D01*
G54D65*Y599750D02*Y597500D01*
X251150Y600500D02*X251900Y599750D01*
X249650Y600500D02*X251150D01*
X248900Y599750D02*X249650Y600500D01*
X248900Y599750D02*Y598250D01*
X249650Y597500D01*
X251900Y600500D02*Y598250D01*
X252650Y597500D01*
X249650D02*X251150D01*
X251900Y598250D01*
X255200Y599750D02*Y597500D01*
Y599750D02*X255950Y600500D01*
X256700D01*
X257450Y599750D01*
Y597500D01*
X254450Y600500D02*X255200Y599750D01*
X200000Y618500D02*X203000D01*
X201500D02*Y612500D01*
G54D66*X204800Y617000D02*Y616850D01*
G54D65*Y614750D02*Y612500D01*
X207050Y618500D02*Y613250D01*
X207800Y612500D01*
X206300Y616250D02*X207800D01*
X209300Y618500D02*Y613250D01*
X210050Y612500D01*
X212300D02*X214550D01*
X211550Y613250D02*X212300Y612500D01*
X211550Y614750D02*Y613250D01*
Y614750D02*X212300Y615500D01*
X213800D01*
X214550Y614750D01*
X211550Y614000D02*X214550D01*
Y614750D02*Y614000D01*
X216350Y616250D02*X217100D01*
X216350Y614750D02*X217100D01*
X221600Y613250D02*X222350Y612500D01*
X221600Y617750D02*X222350Y618500D01*
X221600Y617750D02*Y613250D01*
X224150Y615500D02*Y613250D01*
X224900Y612500D01*
X226400D01*
X227150Y613250D01*
Y615500D02*Y613250D01*
X229700Y614750D02*Y612500D01*
Y614750D02*X230450Y615500D01*
X231200D01*
X231950Y614750D01*
Y612500D01*
X228950Y615500D02*X229700Y614750D01*
X233750Y618500D02*Y612500D01*
Y614750D02*X236000Y612500D01*
X233750Y614750D02*X235250Y616250D01*
X238550Y614750D02*Y612500D01*
Y614750D02*X239300Y615500D01*
X240050D01*
X240800Y614750D01*
Y612500D01*
X237800Y615500D02*X238550Y614750D01*
X242600D02*Y613250D01*
Y614750D02*X243350Y615500D01*
X244850D01*
X245600Y614750D01*
Y613250D01*
X244850Y612500D02*X245600Y613250D01*
X243350Y612500D02*X244850D01*
X242600Y613250D02*X243350Y612500D01*
X247400Y615500D02*Y613250D01*
X248150Y612500D01*
X248900D01*
X249650Y613250D01*
Y615500D02*Y613250D01*
X250400Y612500D01*
X251150D01*
X251900Y613250D01*
Y615500D02*Y613250D01*
X254450Y614750D02*Y612500D01*
Y614750D02*X255200Y615500D01*
X255950D01*
X256700Y614750D01*
Y612500D01*
X253700Y615500D02*X254450Y614750D01*
X258500Y618500D02*X259250Y617750D01*
Y613250D01*
X258500Y612500D02*X259250Y613250D01*
X263750Y615500D02*X266750D01*
X271250Y618500D02*Y612500D01*
Y618500D02*X274250D01*
X271250Y615800D02*X273500D01*
X278300Y615500D02*X279050Y614750D01*
X276800Y615500D02*X278300D01*
X276050Y614750D02*X276800Y615500D01*
X276050Y614750D02*Y613250D01*
X276800Y612500D01*
X279050Y615500D02*Y613250D01*
X279800Y612500D01*
X276800D02*X278300D01*
X279050Y613250D01*
X281600Y618500D02*Y612500D01*
Y613250D02*X282350Y612500D01*
X283850D01*
X284600Y613250D01*
Y614750D02*Y613250D01*
X283850Y615500D02*X284600Y614750D01*
X282350Y615500D02*X283850D01*
X281600Y614750D02*X282350Y615500D01*
X287150Y614750D02*Y612500D01*
Y614750D02*X287900Y615500D01*
X289400D01*
X286400D02*X287150Y614750D01*
G54D66*X291200Y617000D02*Y616850D01*
G54D65*Y614750D02*Y612500D01*
X293450Y615500D02*X295700D01*
X292700Y614750D02*X293450Y615500D01*
X292700Y614750D02*Y613250D01*
X293450Y612500D01*
X295700D01*
X299750Y615500D02*X300500Y614750D01*
X298250Y615500D02*X299750D01*
X297500Y614750D02*X298250Y615500D01*
X297500Y614750D02*Y613250D01*
X298250Y612500D01*
X300500Y615500D02*Y613250D01*
X301250Y612500D01*
X298250D02*X299750D01*
X300500Y613250D01*
X303800Y618500D02*Y613250D01*
X304550Y612500D01*
X303050Y616250D02*X304550D01*
G54D66*X306050Y617000D02*Y616850D01*
G54D65*Y614750D02*Y612500D01*
X307550Y614750D02*Y613250D01*
Y614750D02*X308300Y615500D01*
X309800D01*
X310550Y614750D01*
Y613250D01*
X309800Y612500D02*X310550Y613250D01*
X308300Y612500D02*X309800D01*
X307550Y613250D02*X308300Y612500D01*
X313100Y614750D02*Y612500D01*
Y614750D02*X313850Y615500D01*
X314600D01*
X315350Y614750D01*
Y612500D01*
X312350Y615500D02*X313100Y614750D01*
X320600Y618500D02*Y612500D01*
X322550Y618500D02*X323600Y617450D01*
Y613550D01*
X322550Y612500D02*X323600Y613550D01*
X319850Y612500D02*X322550D01*
X319850Y618500D02*X322550D01*
X326150Y614750D02*Y612500D01*
Y614750D02*X326900Y615500D01*
X328400D01*
X325400D02*X326150Y614750D01*
X332450Y615500D02*X333200Y614750D01*
X330950Y615500D02*X332450D01*
X330200Y614750D02*X330950Y615500D01*
X330200Y614750D02*Y613250D01*
X330950Y612500D01*
X333200Y615500D02*Y613250D01*
X333950Y612500D01*
X330950D02*X332450D01*
X333200Y613250D01*
X335750Y615500D02*Y613250D01*
X336500Y612500D01*
X337250D01*
X338000Y613250D01*
Y615500D02*Y613250D01*
X338750Y612500D01*
X339500D01*
X340250Y613250D01*
Y615500D02*Y613250D01*
G54D66*X342050Y617000D02*Y616850D01*
G54D65*Y614750D02*Y612500D01*
X344300Y614750D02*Y612500D01*
Y614750D02*X345050Y615500D01*
X345800D01*
X346550Y614750D01*
Y612500D01*
X343550Y615500D02*X344300Y614750D01*
X350600Y615500D02*X351350Y614750D01*
X349100Y615500D02*X350600D01*
X348350Y614750D02*X349100Y615500D01*
X348350Y614750D02*Y613250D01*
X349100Y612500D01*
X350600D01*
X351350Y613250D01*
X348350Y611000D02*X349100Y610250D01*
X350600D01*
X351350Y611000D01*
Y615500D02*Y611000D01*
M02*
