G04 start of page 8 for group -4079 idx -4079 *
G04 Title: (unknown), topsilk *
G04 Creator: pcb 20110918 *
G04 CreationDate: Thu 04 Jul 2013 01:29:42 AM GMT UTC *
G04 For: tyrian *
G04 Format: Gerber/RS-274X *
G04 PCB-Dimensions: 270000 560000 *
G04 PCB-Coordinate-Origin: lower left *
%MOIN*%
%FSLAX25Y25*%
%LNTOPSILK*%
%ADD63C,0.0200*%
%ADD62C,0.0100*%
G54D62*X43000Y87000D02*G75*G02X55000Y99000I12000J0D01*G01*
G75*G02X67000Y87000I0J-12000D01*G01*
G75*G02X55000Y75000I-12000J0D01*G01*
G75*G02X43000Y87000I0J12000D01*G01*
X174000Y74000D02*G75*G02X186000Y86000I12000J0D01*G01*
G75*G02X198000Y74000I0J-12000D01*G01*
G75*G02X186000Y62000I-12000J0D01*G01*
G75*G02X174000Y74000I0J12000D01*G01*
X45000Y354000D02*G75*G02X57000Y366000I12000J0D01*G01*
G75*G02X69000Y354000I0J-12000D01*G01*
G75*G02X57000Y342000I-12000J0D01*G01*
G75*G02X45000Y354000I0J12000D01*G01*
X186000D02*G75*G02X198000Y366000I12000J0D01*G01*
X178000Y494000D02*G75*G02X190000Y506000I12000J0D01*G01*
G75*G02X202000Y494000I0J-12000D01*G01*
G75*G02X190000Y482000I-12000J0D01*G01*
G75*G02X178000Y494000I0J12000D01*G01*
X198000Y366000D02*G75*G02X210000Y354000I0J-12000D01*G01*
G75*G02X198000Y342000I-12000J0D01*G01*
G75*G02X186000Y354000I0J12000D01*G01*
X118000Y258000D02*G75*G02X130000Y270000I12000J0D01*G01*
G75*G02X142000Y258000I0J-12000D01*G01*
G75*G02X130000Y246000I-12000J0D01*G01*
G75*G02X118000Y258000I0J12000D01*G01*
X122200Y386000D02*X127000D01*
X122200D02*X124600Y387800D01*
X122200Y389600D01*
X127000D01*
Y393440D02*Y391640D01*
X126400Y391040D02*X127000Y391640D01*
X125200Y391040D02*X126400D01*
X125200D02*X124600Y391640D01*
Y392840D02*Y391640D01*
Y392840D02*X125200Y393440D01*
X125800D02*Y391040D01*
X125200Y393440D02*X125800D01*
X124600Y397280D02*Y395480D01*
X125200Y394880D02*X124600Y395480D01*
X125200Y394880D02*X126400D01*
X127000Y395480D01*
Y397280D02*Y395480D01*
X122200Y398720D02*X127000D01*
X125200D02*X124600Y399320D01*
Y400520D02*Y399320D01*
Y400520D02*X125200Y401120D01*
X127000D01*
X124600Y404360D02*X125200Y404960D01*
X124600Y404360D02*Y403160D01*
X125200Y402560D02*X124600Y403160D01*
X125200Y402560D02*X126400D01*
X127000Y403160D01*
X124600Y404960D02*X126400D01*
X127000Y405560D01*
Y404360D02*Y403160D01*
Y404360D02*X126400Y404960D01*
X125200Y407600D02*X127000D01*
X125200D02*X124600Y408200D01*
Y408800D02*Y408200D01*
Y408800D02*X125200Y409400D01*
X127000D01*
X124600Y407000D02*X125200Y407600D01*
X123400Y410840D02*X123520D01*
X125200D02*X127000D01*
X124600Y414440D02*Y412640D01*
X125200Y412040D02*X124600Y412640D01*
X125200Y412040D02*X126400D01*
X127000Y412640D01*
Y414440D02*Y412640D01*
X124600Y417680D02*X125200Y418280D01*
X124600Y417680D02*Y416480D01*
X125200Y415880D02*X124600Y416480D01*
X125200Y415880D02*X126400D01*
X127000Y416480D01*
X124600Y418280D02*X126400D01*
X127000Y418880D01*
Y417680D02*Y416480D01*
Y417680D02*X126400Y418280D01*
X122200Y420320D02*X126400D01*
X127000Y420920D01*
X123400Y424280D02*X127000D01*
X123400D02*X122200Y425120D01*
Y426440D02*Y425120D01*
Y426440D02*X123400Y427280D01*
X127000D01*
X124600D02*Y424280D01*
X125200Y429320D02*X127000D01*
X125200D02*X124600Y429920D01*
Y431120D02*Y429920D01*
Y428720D02*X125200Y429320D01*
X124600Y434960D02*Y433160D01*
X125200Y432560D02*X124600Y433160D01*
X125200Y432560D02*X126400D01*
X127000Y433160D01*
Y434960D02*Y433160D01*
X122200Y436400D02*X127000D01*
X125200D02*X124600Y437000D01*
Y438200D02*Y437000D01*
Y438200D02*X125200Y438800D01*
X127000D01*
Y442640D02*Y440840D01*
X126400Y440240D02*X127000Y440840D01*
X125200Y440240D02*X126400D01*
X125200D02*X124600Y440840D01*
Y442040D02*Y440840D01*
Y442040D02*X125200Y442640D01*
X125800D02*Y440240D01*
X125200Y442640D02*X125800D01*
X125200Y444680D02*X127000D01*
X125200D02*X124600Y445280D01*
Y446480D02*Y445280D01*
Y444080D02*X125200Y444680D01*
X108000Y388400D02*Y386000D01*
Y388400D02*X107400Y389000D01*
X105960D02*X107400D01*
X105360Y388400D02*X105960Y389000D01*
X105360Y388400D02*Y386600D01*
X103200D02*X108000D01*
X103200Y388400D02*Y386000D01*
Y388400D02*X103800Y389000D01*
X104760D01*
X105360Y388400D02*X104760Y389000D01*
X106200Y391040D02*X108000D01*
X106200D02*X105600Y391640D01*
Y392840D02*Y391640D01*
Y390440D02*X106200Y391040D01*
X105600Y394280D02*X107400D01*
X108000Y394880D01*
X105600Y396680D02*X109200D01*
X109800Y396080D02*X109200Y396680D01*
X109800Y396080D02*Y394880D01*
X109200Y394280D02*X109800Y394880D01*
X108000Y396080D02*Y394880D01*
Y396080D02*X107400Y396680D01*
X105600Y399920D02*X106200Y400520D01*
X105600Y399920D02*Y398720D01*
X106200Y398120D02*X105600Y398720D01*
X106200Y398120D02*X107400D01*
X108000Y398720D01*
X105600Y400520D02*X107400D01*
X108000Y401120D01*
Y399920D02*Y398720D01*
Y399920D02*X107400Y400520D01*
X106200Y403160D02*X108000D01*
X106200D02*X105600Y403760D01*
Y404360D02*Y403760D01*
Y404360D02*X106200Y404960D01*
X108000D01*
X105600Y402560D02*X106200Y403160D01*
X108000Y410960D02*Y408560D01*
Y410960D02*X107400Y411560D01*
X105960D02*X107400D01*
X105360Y410960D02*X105960Y411560D01*
X105360Y410960D02*Y409160D01*
X103200D02*X108000D01*
X103200Y410960D02*Y408560D01*
Y410960D02*X103800Y411560D01*
X104760D01*
X105360Y410960D02*X104760Y411560D01*
X103200Y413000D02*X107400D01*
X108000Y413600D01*
X105600Y416600D02*X106200Y417200D01*
X105600Y416600D02*Y415400D01*
X106200Y414800D02*X105600Y415400D01*
X106200Y414800D02*X107400D01*
X108000Y415400D01*
X105600Y417200D02*X107400D01*
X108000Y417800D01*
Y416600D02*Y415400D01*
Y416600D02*X107400Y417200D01*
X103200Y419240D02*X108000D01*
X106200D02*X108000Y421040D01*
X106200Y419240D02*X105000Y420440D01*
X108000Y424880D02*Y423080D01*
X107400Y422480D02*X108000Y423080D01*
X106200Y422480D02*X107400D01*
X106200D02*X105600Y423080D01*
Y424280D02*Y423080D01*
Y424280D02*X106200Y424880D01*
X106800D02*Y422480D01*
X106200Y424880D02*X106800D01*
X108000Y428720D02*Y426920D01*
Y428720D02*X107400Y429320D01*
X106800Y428720D02*X107400Y429320D01*
X106800Y428720D02*Y426920D01*
X106200Y426320D02*X106800Y426920D01*
X106200Y426320D02*X105600Y426920D01*
Y428720D02*Y426920D01*
Y428720D02*X106200Y429320D01*
X107400Y426320D02*X108000Y426920D01*
X103200Y430760D02*X107400D01*
X108000Y431360D01*
Y434960D02*Y433160D01*
X107400Y432560D02*X108000Y433160D01*
X106200Y432560D02*X107400D01*
X106200D02*X105600Y433160D01*
Y434360D02*Y433160D01*
Y434360D02*X106200Y434960D01*
X106800D02*Y432560D01*
X106200Y434960D02*X106800D01*
X108000Y438800D02*Y437000D01*
X107400Y436400D02*X108000Y437000D01*
X106200Y436400D02*X107400D01*
X106200D02*X105600Y437000D01*
Y438200D02*Y437000D01*
Y438200D02*X106200Y438800D01*
X106800D02*Y436400D01*
X106200Y438800D02*X106800D01*
X130430Y386000D02*X136150D01*
X130430Y389575D02*X136150D01*
X133290D02*Y386000D01*
Y394151D02*Y391291D01*
X136150Y398727D02*Y395867D01*
Y398727D02*X135435Y399442D01*
X133719D02*X135435D01*
X133004Y398727D02*X133719Y399442D01*
X133004Y398727D02*Y396582D01*
X130430D02*X136150D01*
X130430Y398727D02*Y395867D01*
Y398727D02*X131145Y399442D01*
X132289D01*
X133004Y398727D02*X132289Y399442D01*
X134005Y401873D02*X136150D01*
X134005D02*X133290Y402588D01*
Y404018D02*Y402588D01*
Y401158D02*X134005Y401873D01*
X131860Y405734D02*X132003D01*
X134005D02*X136150D01*
X130430Y410024D02*X136150D01*
Y409309D02*X135435Y410024D01*
X136150Y409309D02*Y407879D01*
X135435Y407164D02*X136150Y407879D01*
X134005Y407164D02*X135435D01*
X134005D02*X133290Y407879D01*
Y409309D02*Y407879D01*
Y409309D02*X134005Y410024D01*
X133290Y413885D02*X134005Y414600D01*
X133290Y413885D02*Y412455D01*
X134005Y411740D02*X133290Y412455D01*
X134005Y411740D02*X135435D01*
X136150Y412455D01*
Y413885D02*Y412455D01*
Y413885D02*X135435Y414600D01*
X137580Y411740D02*X138295Y412455D01*
Y413885D02*Y412455D01*
Y413885D02*X137580Y414600D01*
X133290D02*X137580D01*
X136150Y419176D02*Y417031D01*
X135435Y416316D02*X136150Y417031D01*
X134005Y416316D02*X135435D01*
X134005D02*X133290Y417031D01*
Y418461D02*Y417031D01*
Y418461D02*X134005Y419176D01*
X134720D02*Y416316D01*
X134005Y419176D02*X134720D01*
X130430Y423466D02*X136150D01*
X130430D02*X133290Y425611D01*
X130430Y427756D01*
X136150D01*
X134005Y429472D02*X135435D01*
X134005D02*X133290Y430187D01*
Y431617D02*Y430187D01*
Y431617D02*X134005Y432332D01*
X135435D01*
X136150Y431617D02*X135435Y432332D01*
X136150Y431617D02*Y430187D01*
X135435Y429472D02*X136150Y430187D01*
X130430Y434763D02*X135435D01*
X136150Y435478D01*
X132575D02*Y434048D01*
X134005Y436908D02*X135435D01*
X134005D02*X133290Y437623D01*
Y439053D02*Y437623D01*
Y439053D02*X134005Y439768D01*
X135435D01*
X136150Y439053D02*X135435Y439768D01*
X136150Y439053D02*Y437623D01*
X135435Y436908D02*X136150Y437623D01*
X134005Y442199D02*X136150D01*
X134005D02*X133290Y442914D01*
Y444344D02*Y442914D01*
Y441484D02*X134005Y442199D01*
X145650Y388660D02*Y386931D01*
X144719Y386000D02*X145650Y386931D01*
X141261Y386000D02*X144719D01*
X141261D02*X140330Y386931D01*
Y388660D02*Y386931D01*
X143655Y390256D02*X144985D01*
X143655D02*X142990Y390921D01*
Y392251D02*Y390921D01*
Y392251D02*X143655Y392916D01*
X144985D01*
X145650Y392251D02*X144985Y392916D01*
X145650Y392251D02*Y390921D01*
X144985Y390256D02*X145650Y390921D01*
X143655Y395177D02*X145650D01*
X143655D02*X142990Y395842D01*
Y396507D02*Y395842D01*
Y396507D02*X143655Y397172D01*
X145650D01*
X142990Y394512D02*X143655Y395177D01*
X140330Y399433D02*X144985D01*
X145650Y400098D01*
X142325D02*Y398768D01*
X143655Y402093D02*X145650D01*
X143655D02*X142990Y402758D01*
Y404088D02*Y402758D01*
Y401428D02*X143655Y402093D01*
Y405684D02*X144985D01*
X143655D02*X142990Y406349D01*
Y407679D02*Y406349D01*
Y407679D02*X143655Y408344D01*
X144985D01*
X145650Y407679D02*X144985Y408344D01*
X145650Y407679D02*Y406349D01*
X144985Y405684D02*X145650Y406349D01*
X140330Y409940D02*X144985D01*
X145650Y410605D01*
X140330Y411935D02*X144985D01*
X145650Y412600D01*
Y416590D02*Y414595D01*
X144985Y413930D02*X145650Y414595D01*
X143655Y413930D02*X144985D01*
X143655D02*X142990Y414595D01*
Y415925D02*Y414595D01*
Y415925D02*X143655Y416590D01*
X144320D02*Y413930D01*
X143655Y416590D02*X144320D01*
X143655Y418851D02*X145650D01*
X143655D02*X142990Y419516D01*
Y420846D02*Y419516D01*
Y418186D02*X143655Y418851D01*
X112280Y388560D02*Y386000D01*
Y388560D02*X112920Y389200D01*
X114200D01*
X114840Y388560D02*X114200Y389200D01*
X114840Y388560D02*Y386640D01*
X112280D02*X117400D01*
X114840Y387664D02*X117400Y389200D01*
X112280Y392016D02*Y390736D01*
Y391376D02*X117400D01*
Y392016D02*Y390736D01*
X112280Y396112D02*Y393552D01*
Y394832D02*X117400D01*
X113560Y399952D02*X117400D01*
X113560D02*X112280Y400848D01*
Y402256D02*Y400848D01*
Y402256D02*X113560Y403152D01*
X117400D01*
X114840D02*Y399952D01*
X115480Y405328D02*X117400D01*
X115480D02*X114840Y405968D01*
Y407248D02*Y405968D01*
Y404688D02*X115480Y405328D01*
X114840Y411344D02*Y409424D01*
X115480Y408784D02*X114840Y409424D01*
X115480Y408784D02*X116760D01*
X117400Y409424D01*
Y411344D02*Y409424D01*
X112280Y412880D02*X117400D01*
X115480D02*X114840Y413520D01*
Y414800D02*Y413520D01*
Y414800D02*X115480Y415440D01*
X117400D01*
Y419536D02*Y417616D01*
X116760Y416976D02*X117400Y417616D01*
X115480Y416976D02*X116760D01*
X115480D02*X114840Y417616D01*
Y418896D02*Y417616D01*
Y418896D02*X115480Y419536D01*
X116120D02*Y416976D01*
X115480Y419536D02*X116120D01*
X115480Y421712D02*X117400D01*
X115480D02*X114840Y422352D01*
Y423632D02*Y422352D01*
Y421072D02*X115480Y421712D01*
X114840Y425168D02*X116760D01*
X117400Y425808D01*
X114840Y427728D02*X118680D01*
X119320Y427088D02*X118680Y427728D01*
X119320Y427088D02*Y425808D01*
X118680Y425168D02*X119320Y425808D01*
X117400Y427088D02*Y425808D01*
Y427088D02*X116760Y427728D01*
X117400Y434128D02*Y432464D01*
X116504Y431568D02*X117400Y432464D01*
X113176Y431568D02*X116504D01*
X113176D02*X112280Y432464D01*
Y434128D02*Y432464D01*
Y435664D02*X116760D01*
X117400Y436304D01*
X114840Y437584D02*X116760D01*
X117400Y438224D01*
Y439504D02*Y438224D01*
Y439504D02*X116760Y440144D01*
X114840D02*X116760D01*
X112280Y441680D02*X117400D01*
X116760D02*X117400Y442320D01*
Y443600D02*Y442320D01*
Y443600D02*X116760Y444240D01*
X115480D02*X116760D01*
X114840Y443600D02*X115480Y444240D01*
X114840Y443600D02*Y442320D01*
X115480Y441680D02*X114840Y442320D01*
X54500Y210000D02*X57000D01*
X47000D02*X49500D01*
Y209200D02*X54500D01*
X49500Y210800D02*Y209200D01*
Y210800D02*X54500D01*
Y209200D01*
X22000Y202000D02*Y132000D01*
X62000D01*
Y202000D02*Y132000D01*
X22000Y202000D02*X37000D01*
X47000D02*X62000D01*
X37000D02*G75*G03X47000Y202000I5000J0D01*G01*
G54D63*X118000Y203000D02*Y163000D01*
Y203000D02*X136000D01*
Y163000D01*
X118000D02*X136000D01*
X118000Y203000D02*Y163000D01*
Y203000D02*X124000D01*
Y163000D01*
X118000D02*X124000D01*
G54D62*X118000Y176000D02*X124000D01*
X118000Y190000D02*X124000D01*
X93000Y150500D02*Y143000D01*
Y173000D02*Y165500D01*
X90500D02*Y150500D01*
Y165500D02*X95500D01*
Y150500D01*
X90500D02*X95500D01*
X161000Y101000D02*X168500D01*
X183500D02*X191000D01*
X168500Y103500D02*X183500D01*
Y98500D01*
X168500D01*
Y103500D01*
X139000Y46500D02*Y39000D01*
Y69000D02*Y61500D01*
X136500D02*Y46500D01*
Y61500D02*X141500D01*
Y46500D01*
X136500D02*X141500D01*
X153000Y116000D02*Y76000D01*
X113000Y116000D02*X153000D01*
X113000D02*Y76000D01*
X138000D02*X153000D01*
X113000D02*X128000D01*
X138000D02*G75*G03X128000Y76000I-5000J0D01*G01*
Y46500D02*Y39000D01*
Y69000D02*Y61500D01*
X125500D02*Y46500D01*
Y61500D02*X130500D01*
Y46500D01*
X125500D02*X130500D01*
X161000Y111000D02*X168500D01*
X183500D02*X191000D01*
X168500Y113500D02*X183500D01*
Y108500D01*
X168500D01*
Y113500D01*
X264772Y172142D02*Y74504D01*
X210835Y172142D02*X264772D01*
X210835D02*Y74504D01*
X264772D01*
X80000Y13000D02*X82500D01*
X87500D02*X90000D01*
X82500Y13800D02*X87500D01*
Y12200D01*
X82500D01*
Y13800D01*
X104000Y73500D02*Y71000D01*
Y81000D02*Y78500D01*
X103200D02*Y73500D01*
Y78500D02*X104800D01*
Y73500D01*
X103200D02*X104800D01*
X115000Y60000D02*Y20000D01*
X75000Y60000D02*X115000D01*
X75000D02*Y20000D01*
X100000D02*X115000D01*
X75000D02*X90000D01*
X100000D02*G75*G03X90000Y20000I-5000J0D01*G01*
X169536Y179464D02*G75*G03X169536Y186536I-3536J3536D01*G01*
X162464Y186536D02*G75*G03X162464Y179464I3536J-3536D01*G01*
X170950Y178050D02*G75*G03X170950Y187950I-4950J4950D01*G01*
X161050Y187950D02*G75*G03X161050Y178050I4950J-4950D01*G01*
X30000Y55000D02*X37500D01*
X52500D02*X60000D01*
X37500Y57500D02*X52500D01*
Y52500D01*
X37500D02*X52500D01*
X37500Y57500D02*Y52500D01*
X20000Y41000D02*X27500D01*
X42500D02*X50000D01*
X27500Y43500D02*X42500D01*
Y38500D01*
X27500D02*X42500D01*
X27500Y43500D02*Y38500D01*
X10000Y26000D02*X17500D01*
X32500D02*X40000D01*
X17500Y28500D02*X32500D01*
Y23500D01*
X17500D02*X32500D01*
X17500Y28500D02*Y23500D01*
X10835Y540283D02*X64772D01*
X10835Y475323D02*X64772D01*
X10835Y540283D02*Y475323D01*
X64772Y540283D02*Y475323D01*
X204464Y425536D02*G75*G03X204464Y418464I3536J-3536D01*G01*
X211536Y418464D02*G75*G03X211536Y425536I-3536J3536D01*G01*
X203050Y426950D02*G75*G03X203050Y417050I4950J-4950D01*G01*
X212950Y417050D02*G75*G03X212950Y426950I-4950J4950D01*G01*
X166000Y501500D02*Y494000D01*
Y524000D02*Y516500D01*
X163500D02*Y501500D01*
Y516500D02*X168500D01*
Y501500D01*
X163500D02*X168500D01*
X85000D02*Y494000D01*
Y524000D02*Y516500D01*
X82500D02*Y501500D01*
Y516500D02*X87500D01*
Y501500D01*
X82500D02*X87500D01*
X97835Y540283D02*X151772D01*
X97835Y475323D02*X151772D01*
X97835Y540283D02*Y475323D01*
X151772Y540283D02*Y475323D01*
X49464Y425536D02*G75*G03X49464Y418464I3536J-3536D01*G01*
X56536Y418464D02*G75*G03X56536Y425536I-3536J3536D01*G01*
X48050Y426950D02*G75*G03X48050Y417050I4950J-4950D01*G01*
X57950Y417050D02*G75*G03X57950Y426950I-4950J4950D01*G01*
G54D63*X71000Y442000D02*Y402000D01*
Y442000D02*X89000D01*
Y402000D01*
X71000D02*X89000D01*
X71000Y442000D02*Y402000D01*
Y442000D02*X77000D01*
Y402000D01*
X71000D02*X77000D01*
G54D62*X71000Y415000D02*X77000D01*
X71000Y429000D02*X77000D01*
X53000Y326000D02*X60500D01*
X75500D02*X83000D01*
X60500Y328500D02*X75500D01*
Y323500D01*
X60500D02*X75500D01*
X60500Y328500D02*Y323500D01*
G54D63*X95000Y288000D02*Y248000D01*
X77000D02*X95000D01*
X77000Y288000D02*Y248000D01*
Y288000D02*X95000D01*
Y248000D01*
X89000D02*X95000D01*
X89000Y288000D02*Y248000D01*
Y288000D02*X95000D01*
G54D62*X89000Y275000D02*X95000D01*
X89000Y261000D02*X95000D01*
G54D63*X166000Y442000D02*Y402000D01*
Y442000D02*X184000D01*
Y402000D01*
X166000D02*X184000D01*
X166000Y442000D02*Y402000D01*
Y442000D02*X172000D01*
Y402000D01*
X166000D02*X172000D01*
G54D62*X166000Y415000D02*X172000D01*
X166000Y429000D02*X172000D01*
X204464Y271536D02*G75*G03X204464Y264464I3536J-3536D01*G01*
X211536Y264464D02*G75*G03X211536Y271536I-3536J3536D01*G01*
X203050Y272950D02*G75*G03X203050Y263050I4950J-4950D01*G01*
X212950Y263050D02*G75*G03X212950Y272950I-4950J4950D01*G01*
X200500Y326000D02*X208000D01*
X178000D02*X185500D01*
Y323500D02*X200500D01*
X185500Y328500D02*Y323500D01*
Y328500D02*X200500D01*
Y323500D01*
G54D63*X190000Y288000D02*Y248000D01*
X172000D02*X190000D01*
X172000Y288000D02*Y248000D01*
Y288000D02*X190000D01*
Y248000D01*
X184000D02*X190000D01*
X184000Y288000D02*Y248000D01*
Y288000D02*X190000D01*
G54D62*X184000Y275000D02*X190000D01*
X184000Y261000D02*X190000D01*
X49464Y271536D02*G75*G03X49464Y264464I3536J-3536D01*G01*
X56536Y264464D02*G75*G03X56536Y271536I-3536J3536D01*G01*
X48050Y272950D02*G75*G03X48050Y263050I4950J-4950D01*G01*
X57950Y263050D02*G75*G03X57950Y272950I-4950J4950D01*G01*
X92717Y375772D02*Y321835D01*
X157677Y375772D02*Y321835D01*
X92717D02*X157677D01*
X92717Y375772D02*X157677D01*
G54D63*X228000Y528000D02*Y488000D01*
X210000D02*X228000D01*
X210000Y528000D02*Y488000D01*
Y528000D02*X228000D01*
Y488000D01*
X222000D02*X228000D01*
X222000Y528000D02*Y488000D01*
Y528000D02*X228000D01*
G54D62*X222000Y515000D02*X228000D01*
X222000Y501000D02*X228000D01*
X49700Y215000D02*X51000D01*
X49000Y215700D02*X49700Y215000D01*
X49000Y218300D02*Y215700D01*
Y218300D02*X49700Y219000D01*
X51000D01*
X52200Y218500D02*X52700Y219000D01*
X53700D01*
X54200Y218500D01*
X53700Y215000D02*X54200Y215500D01*
X52700Y215000D02*X53700D01*
X52200Y215500D02*X52700Y215000D01*
Y217200D02*X53700D01*
X54200Y218500D02*Y217700D01*
Y216700D02*Y215500D01*
Y216700D02*X53700Y217200D01*
X54200Y217700D02*X53700Y217200D01*
X19000Y201000D02*Y200000D01*
X15000Y200500D02*X19000D01*
X15000Y201000D02*Y200000D01*
Y198100D02*Y196800D01*
X15700Y198800D02*X15000Y198100D01*
X15700Y198800D02*X18300D01*
X19000Y198100D01*
Y196800D01*
X18200Y195600D02*X19000Y194800D01*
X15000D02*X19000D01*
X15000Y195600D02*Y194100D01*
X82000Y160000D02*X84000D01*
X84500Y159500D01*
Y158500D01*
X84000Y158000D02*X84500Y158500D01*
X82500Y158000D02*X84000D01*
X82500Y160000D02*Y156000D01*
X83300Y158000D02*X84500Y156000D01*
X85700Y160000D02*X87700D01*
X85700D02*Y158000D01*
X86200Y158500D01*
X87200D01*
X87700Y158000D01*
Y156500D01*
X87200Y156000D02*X87700Y156500D01*
X86200Y156000D02*X87200D01*
X85700Y156500D02*X86200Y156000D01*
X172000Y96000D02*X174000D01*
X174500Y95500D01*
Y94500D01*
X174000Y94000D02*X174500Y94500D01*
X172500Y94000D02*X174000D01*
X172500Y96000D02*Y92000D01*
X173300Y94000D02*X174500Y92000D01*
X175700Y95200D02*X176500Y96000D01*
Y92000D01*
X175700D02*X177200D01*
X178400Y95500D02*X178900Y96000D01*
X180400D01*
X180900Y95500D01*
Y94500D01*
X178400Y92000D02*X180900Y94500D01*
X178400Y92000D02*X180900D01*
X144000Y52000D02*Y50000D01*
Y52000D02*X144500Y52500D01*
X145500D01*
X146000Y52000D02*X145500Y52500D01*
X146000Y52000D02*Y50500D01*
X144000D02*X148000D01*
X146000Y51300D02*X148000Y52500D01*
X144800Y53700D02*X144000Y54500D01*
X148000D01*
Y55200D02*Y53700D01*
X147500Y56400D02*X148000Y56900D01*
X144500Y56400D02*X147500D01*
X144500D02*X144000Y56900D01*
Y57900D02*Y56900D01*
Y57900D02*X144500Y58400D01*
X147500D01*
X148000Y57900D02*X147500Y58400D01*
X148000Y57900D02*Y56900D01*
X147000Y56400D02*X145000Y58400D01*
X230000Y71150D02*X233700D01*
X231850D02*Y63750D01*
X235920D02*X239620D01*
X240545Y64675D01*
Y66895D02*Y64675D01*
X239620Y67820D02*X240545Y66895D01*
X236845Y67820D02*X239620D01*
X236845Y71150D02*Y63750D01*
X235920Y71150D02*X239620D01*
X240545Y70225D01*
Y68745D01*
X239620Y67820D02*X240545Y68745D01*
X242765Y70225D02*X243690Y71150D01*
X245540D01*
X246465Y70225D01*
X245540Y63750D02*X246465Y64675D01*
X243690Y63750D02*X245540D01*
X242765Y64675D02*X243690Y63750D01*
Y67820D02*X245540D01*
X246465Y70225D02*Y68745D01*
Y66895D02*Y64675D01*
Y66895D02*X245540Y67820D01*
X246465Y68745D02*X245540Y67820D01*
X156000Y78000D02*Y77000D01*
Y77500D02*X160000D01*
Y78000D02*Y77000D01*
Y81200D02*Y79900D01*
X159300Y79200D02*X160000Y79900D01*
X156700Y79200D02*X159300D01*
X156700D02*X156000Y79900D01*
Y81200D02*Y79900D01*
X156500Y82400D02*X156000Y82900D01*
Y83900D02*Y82900D01*
Y83900D02*X156500Y84400D01*
X160000Y83900D02*X159500Y84400D01*
X160000Y83900D02*Y82900D01*
X159500Y82400D02*X160000Y82900D01*
X157800Y83900D02*Y82900D01*
X156500Y84400D02*X157300D01*
X158300D02*X159500D01*
X158300D02*X157800Y83900D01*
X157300Y84400D02*X157800Y83900D01*
X172000Y120000D02*X174000D01*
X174500Y119500D01*
Y118500D01*
X174000Y118000D02*X174500Y118500D01*
X172500Y118000D02*X174000D01*
X172500Y120000D02*Y116000D01*
X173300Y118000D02*X174500Y116000D01*
X175700Y119200D02*X176500Y120000D01*
Y116000D01*
X175700D02*X177200D01*
X178400Y119200D02*X179200Y120000D01*
Y116000D01*
X178400D02*X179900D01*
X127000Y159000D02*Y155000D01*
Y159000D02*X128500Y157000D01*
X130000Y159000D01*
Y155000D01*
X131200Y159000D02*X133200D01*
X131200D02*Y157000D01*
X131700Y157500D01*
X132700D01*
X133200Y157000D01*
Y155500D01*
X132700Y155000D02*X133200Y155500D01*
X131700Y155000D02*X132700D01*
X131200Y155500D02*X131700Y155000D01*
X150500Y185000D02*Y181000D01*
X151800Y185000D02*X152500Y184300D01*
Y181700D01*
X151800Y181000D02*X152500Y181700D01*
X150000Y181000D02*X151800D01*
X150000Y185000D02*X151800D01*
X153700D02*X155700D01*
X153700D02*Y183000D01*
X154200Y183500D01*
X155200D01*
X155700Y183000D01*
Y181500D01*
X155200Y181000D02*X155700Y181500D01*
X154200Y181000D02*X155200D01*
X153700Y181500D02*X154200Y181000D01*
X83700Y5000D02*X85000D01*
X83000Y5700D02*X83700Y5000D01*
X83000Y8300D02*Y5700D01*
Y8300D02*X83700Y9000D01*
X85000D01*
X86200Y8500D02*X86700Y9000D01*
X88200D01*
X88700Y8500D01*
Y7500D01*
X86200Y5000D02*X88700Y7500D01*
X86200Y5000D02*X88700D01*
X99000Y76000D02*Y74700D01*
X98300Y74000D02*X99000Y74700D01*
X95700Y74000D02*X98300D01*
X95700D02*X95000Y74700D01*
Y76000D02*Y74700D01*
X95800Y77200D02*X95000Y78000D01*
X99000D01*
Y78700D02*Y77200D01*
X107000Y17000D02*X108000D01*
X107500D02*Y13000D01*
X107000D02*X108000D01*
X109900D02*X111200D01*
X109200Y13700D02*X109900Y13000D01*
X109200Y16300D02*Y13700D01*
Y16300D02*X109900Y17000D01*
X111200D01*
X112400Y16500D02*X112900Y17000D01*
X114400D01*
X114900Y16500D01*
Y15500D01*
X112400Y13000D02*X114900Y15500D01*
X112400Y13000D02*X114900D01*
X42000Y50000D02*X44000D01*
X44500Y49500D01*
Y48500D01*
X44000Y48000D02*X44500Y48500D01*
X42500Y48000D02*X44000D01*
X42500Y50000D02*Y46000D01*
X43300Y48000D02*X44500Y46000D01*
X47200Y50000D02*X47700Y49500D01*
X46200Y50000D02*X47200D01*
X45700Y49500D02*X46200Y50000D01*
X45700Y49500D02*Y46500D01*
X46200Y46000D01*
X47200Y48200D02*X47700Y47700D01*
X45700Y48200D02*X47200D01*
X46200Y46000D02*X47200D01*
X47700Y46500D01*
Y47700D02*Y46500D01*
X119000Y53000D02*Y51000D01*
Y53000D02*X119500Y53500D01*
X120500D01*
X121000Y53000D02*X120500Y53500D01*
X121000Y53000D02*Y51500D01*
X119000D02*X123000D01*
X121000Y52300D02*X123000Y53500D01*
Y55200D02*X121000Y56700D01*
X119500D02*X121000D01*
X119000Y56200D02*X119500Y56700D01*
X119000Y56200D02*Y55200D01*
X119500Y54700D02*X119000Y55200D01*
X119500Y54700D02*X120500D01*
X121000Y55200D01*
Y56700D02*Y55200D01*
X32000Y36000D02*X34000D01*
X34500Y35500D01*
Y34500D01*
X34000Y34000D02*X34500Y34500D01*
X32500Y34000D02*X34000D01*
X32500Y36000D02*Y32000D01*
X33300Y34000D02*X34500Y32000D01*
X36200D02*X38200Y36000D01*
X35700D02*X38200D01*
X22000Y21000D02*X24000D01*
X24500Y20500D01*
Y19500D01*
X24000Y19000D02*X24500Y19500D01*
X22500Y19000D02*X24000D01*
X22500Y21000D02*Y17000D01*
X23300Y19000D02*X24500Y17000D01*
X25700Y17500D02*X26200Y17000D01*
X25700Y18300D02*Y17500D01*
Y18300D02*X26400Y19000D01*
X27000D01*
X27700Y18300D01*
Y17500D01*
X27200Y17000D02*X27700Y17500D01*
X26200Y17000D02*X27200D01*
X25700Y19700D02*X26400Y19000D01*
X25700Y20500D02*Y19700D01*
Y20500D02*X26200Y21000D01*
X27200D01*
X27700Y20500D01*
Y19700D01*
X27000Y19000D02*X27700Y19700D01*
X31000Y471400D02*X34200D01*
X32600D02*Y465000D01*
X36120D02*X39320D01*
X40120Y465800D01*
Y467720D02*Y465800D01*
X39320Y468520D02*X40120Y467720D01*
X36920Y468520D02*X39320D01*
X36920Y471400D02*Y465000D01*
X36120Y471400D02*X39320D01*
X40120Y470600D01*
Y469320D01*
X39320Y468520D02*X40120Y469320D01*
X42040Y467400D02*X45240Y471400D01*
X42040Y467400D02*X46040D01*
X45240Y471400D02*Y465000D01*
X76000Y508000D02*Y506000D01*
Y508000D02*X76500Y508500D01*
X77500D01*
X78000Y508000D02*X77500Y508500D01*
X78000Y508000D02*Y506500D01*
X76000D02*X80000D01*
X78000Y507300D02*X80000Y508500D01*
X76800Y509700D02*X76000Y510500D01*
X80000D01*
Y511200D02*Y509700D01*
X118000Y471400D02*X121200D01*
X119600D02*Y465000D01*
X123120D02*X126320D01*
X127120Y465800D01*
Y467720D02*Y465800D01*
X126320Y468520D02*X127120Y467720D01*
X123920Y468520D02*X126320D01*
X123920Y471400D02*Y465000D01*
X123120Y471400D02*X126320D01*
X127120Y470600D01*
Y469320D01*
X126320Y468520D02*X127120Y469320D01*
X129040Y470120D02*X130320Y471400D01*
Y465000D01*
X129040D02*X131440D01*
X38500Y424000D02*Y420000D01*
X39800Y424000D02*X40500Y423300D01*
Y420700D01*
X39800Y420000D02*X40500Y420700D01*
X38000Y420000D02*X39800D01*
X38000Y424000D02*X39800D01*
X41700Y423200D02*X42500Y424000D01*
Y420000D01*
X41700D02*X43200D01*
X80000Y398000D02*Y394000D01*
Y398000D02*X81500Y396000D01*
X83000Y398000D01*
Y394000D01*
X84200Y397200D02*X85000Y398000D01*
Y394000D01*
X84200D02*X85700D01*
X65000Y321000D02*X67000D01*
X67500Y320500D01*
Y319500D01*
X67000Y319000D02*X67500Y319500D01*
X65500Y319000D02*X67000D01*
X65500Y321000D02*Y317000D01*
X66300Y319000D02*X67500Y317000D01*
X68700Y320500D02*X69200Y321000D01*
X70200D01*
X70700Y320500D01*
X70200Y317000D02*X70700Y317500D01*
X69200Y317000D02*X70200D01*
X68700Y317500D02*X69200Y317000D01*
Y319200D02*X70200D01*
X70700Y320500D02*Y319700D01*
Y318700D02*Y317500D01*
Y318700D02*X70200Y319200D01*
X70700Y319700D02*X70200Y319200D01*
X80000Y244000D02*Y240000D01*
Y244000D02*X81500Y242000D01*
X83000Y244000D01*
Y240000D01*
X84200Y243500D02*X84700Y244000D01*
X85700D01*
X86200Y243500D01*
X85700Y240000D02*X86200Y240500D01*
X84700Y240000D02*X85700D01*
X84200Y240500D02*X84700Y240000D01*
Y242200D02*X85700D01*
X86200Y243500D02*Y242700D01*
Y241700D02*Y240500D01*
Y241700D02*X85700Y242200D01*
X86200Y242700D02*X85700Y242200D01*
X175000Y398000D02*Y394000D01*
Y398000D02*X176500Y396000D01*
X178000Y398000D01*
Y394000D01*
X179200Y397500D02*X179700Y398000D01*
X181200D01*
X181700Y397500D01*
Y396500D01*
X179200Y394000D02*X181700Y396500D01*
X179200Y394000D02*X181700D01*
X218500Y270000D02*Y266000D01*
X219800Y270000D02*X220500Y269300D01*
Y266700D01*
X219800Y266000D02*X220500Y266700D01*
X218000Y266000D02*X219800D01*
X218000Y270000D02*X219800D01*
X221700Y267500D02*X223700Y270000D01*
X221700Y267500D02*X224200D01*
X223700Y270000D02*Y266000D01*
X190000Y321000D02*X192000D01*
X192500Y320500D01*
Y319500D01*
X192000Y319000D02*X192500Y319500D01*
X190500Y319000D02*X192000D01*
X190500Y321000D02*Y317000D01*
X191300Y319000D02*X192500Y317000D01*
X193700Y318500D02*X195700Y321000D01*
X193700Y318500D02*X196200D01*
X195700Y321000D02*Y317000D01*
X175000Y244000D02*Y240000D01*
Y244000D02*X176500Y242000D01*
X178000Y244000D01*
Y240000D01*
X179200Y241500D02*X181200Y244000D01*
X179200Y241500D02*X181700D01*
X181200Y244000D02*Y240000D01*
X37500Y270000D02*Y266000D01*
X38800Y270000D02*X39500Y269300D01*
Y266700D01*
X38800Y266000D02*X39500Y266700D01*
X37000Y266000D02*X38800D01*
X37000Y270000D02*X38800D01*
X40700Y269500D02*X41200Y270000D01*
X42200D01*
X42700Y269500D01*
X42200Y266000D02*X42700Y266500D01*
X41200Y266000D02*X42200D01*
X40700Y266500D02*X41200Y266000D01*
Y268200D02*X42200D01*
X42700Y269500D02*Y268700D01*
Y267700D02*Y266500D01*
Y267700D02*X42200Y268200D01*
X42700Y268700D02*X42200Y268200D01*
X118000Y318400D02*X121200D01*
X119600D02*Y312000D01*
X123120D02*X126320D01*
X127120Y312800D01*
Y314720D02*Y312800D01*
X126320Y315520D02*X127120Y314720D01*
X123920Y315520D02*X126320D01*
X123920Y318400D02*Y312000D01*
X123120Y318400D02*X126320D01*
X127120Y317600D01*
Y316320D01*
X126320Y315520D02*X127120Y316320D01*
X129040Y317600D02*X129840Y318400D01*
X132240D01*
X133040Y317600D01*
Y316000D01*
X129040Y312000D02*X133040Y316000D01*
X129040Y312000D02*X133040D01*
X218500Y424000D02*Y420000D01*
X219800Y424000D02*X220500Y423300D01*
Y420700D01*
X219800Y420000D02*X220500Y420700D01*
X218000Y420000D02*X219800D01*
X218000Y424000D02*X219800D01*
X221700Y423500D02*X222200Y424000D01*
X223700D01*
X224200Y423500D01*
Y422500D01*
X221700Y420000D02*X224200Y422500D01*
X221700Y420000D02*X224200D01*
X171000Y508000D02*Y506000D01*
Y508000D02*X171500Y508500D01*
X172500D01*
X173000Y508000D02*X172500Y508500D01*
X173000Y508000D02*Y506500D01*
X171000D02*X175000D01*
X173000Y507300D02*X175000Y508500D01*
X171500Y509700D02*X171000Y510200D01*
Y511700D02*Y510200D01*
Y511700D02*X171500Y512200D01*
X172500D01*
X175000Y509700D02*X172500Y512200D01*
X175000D02*Y509700D01*
X212000Y484000D02*X213000Y480000D01*
X214000Y484000D01*
X215200D02*X217200D01*
X217700Y483500D01*
Y482500D01*
X217200Y482000D02*X217700Y482500D01*
X215700Y482000D02*X217200D01*
X215700Y484000D02*Y480000D01*
X216500Y482000D02*X217700Y480000D01*
X218900Y483200D02*X219700Y484000D01*
Y480000D01*
X218900D02*X220400D01*
M02*
