M48
INCH
T47C0.135
T46C0.060
T45C0.079
T44C0.043
T43C0.028
T42C0.030
%
T43
X002700Y019700
X005700Y019700
X002700Y018700
X005700Y018700
X002700Y017700
X005700Y017700
X002700Y016700
X005700Y016700
X002700Y015700
X005700Y015700
X014800Y008100
X014800Y009100
X014800Y010100
X014800Y011100
X011800Y011100
X011800Y010100
X011800Y009100
X011800Y008100
X011000Y002500
X011000Y003500
X011000Y004500
X011000Y005500
X008000Y005500
X008000Y004500
X008000Y003500
X008000Y002500
X002700Y014700
X002700Y013700
X005700Y013700
X005700Y014700
T42
X005700Y021000
X004700Y021000
X019100Y010100
X019100Y011100
X020800Y032600
X017800Y032600
X016100Y010100
X016100Y011100
X013900Y003900
X013900Y006900
X012800Y003900
X012800Y006900
X008000Y001300
X009000Y001300
X010400Y007100
X010400Y008100
X003000Y005500
X006000Y005500
X002000Y004100
X005000Y004100
X001000Y002600
X004000Y002600
X009300Y014300
X009300Y017300
X008500Y052400
X008500Y049400
X016600Y049400
X016600Y052400
X005300Y032600
X008300Y032600
T44
X005300Y027300
X005300Y026300
X020800Y027300
X020800Y026300
X016600Y017800
X016600Y018800
X020800Y042700
X020800Y041700
X005300Y042700
X005300Y041700
T46
X017800Y027800
X017800Y026800
X017800Y025800
X013000Y017300
X013000Y018300
X013000Y019300
X021600Y051800
X021600Y050800
X021600Y049800
X017800Y041200
X017800Y042200
X017800Y043200
X008300Y041200
X008300Y042200
X008300Y043200
X008300Y027800
X008300Y026800
X008300Y025800
T45
X023800Y009104
X023800Y015600
X023800Y012352
X003800Y052414
X012500Y052414
X003800Y049166
X012500Y049166
X010886Y034900
X014134Y034900
T47
X019000Y049400
X005700Y035400
X019800Y035400
X005500Y008700
X018600Y007400
X013000Y025800
M30
